<?xml version="1.0" encoding="UTF-8" standalone="no"?>
<!-- Created with Inkscape (http://www.inkscape.org/) -->

<svg
   xmlns:dc="http://purl.org/dc/elements/1.1/"
   xmlns:cc="http://creativecommons.org/ns#"
   xmlns:rdf="http://www.w3.org/1999/02/22-rdf-syntax-ns#"
   xmlns:svg="http://www.w3.org/2000/svg"
   xmlns="http://www.w3.org/2000/svg"
   xmlns:xlink="http://www.w3.org/1999/xlink"
   xmlns:sodipodi="http://sodipodi.sourceforge.net/DTD/sodipodi-0.dtd"
   xmlns:inkscape="http://www.inkscape.org/namespaces/inkscape"
   width="1080"
   height="1400"
   id="svg4320"
   version="1.1"
   inkscape:version="0.48.4 r9939"
   sodipodi:docname="logoScreen.svg">
  <metadata
     id="metadata3473">
    <rdf:RDF>
      <cc:Work
         rdf:about="">
        <dc:format>image/svg+xml</dc:format>
        <dc:type
           rdf:resource="http://purl.org/dc/dcmitype/StillImage" />
      </cc:Work>
    </rdf:RDF>
  </metadata>
  <sodipodi:namedview
     pagecolor="#ffffff"
     bordercolor="#666666"
     borderopacity="1"
     objecttolerance="10"
     gridtolerance="10"
     guidetolerance="10"
     inkscape:pageopacity="0"
     inkscape:pageshadow="2"
     inkscape:window-width="1855"
     inkscape:window-height="1056"
     id="namedview3471"
     showgrid="false"
     inkscape:zoom="0.62366818"
     inkscape:cx="563.15643"
     inkscape:cy="564.67485"
     inkscape:window-x="65"
     inkscape:window-y="24"
     inkscape:window-maximized="1"
     inkscape:current-layer="layer1" />
  <defs
     id="defs4322">
    <linearGradient
       id="linearGradient5442">
      <stop
         style="stop-color:#000000;stop-opacity:1;"
         offset="0"
         id="stop5444" />
      <stop
         style="stop-color:#d2d2d2;stop-opacity:1;"
         offset="1"
         id="stop5446" />
    </linearGradient>
    <linearGradient
       inkscape:collect="always"
       xlink:href="#linearGradient5442"
       id="linearGradient5493"
       gradientUnits="userSpaceOnUse"
       gradientTransform="matrix(0.48129697,-0.68907892,0.4750306,0.34522762,435.74629,1569.7543)"
       x1="2235.2383"
       y1="296.79773"
       x2="2235.2383"
       y2="482.84457" />
  </defs>
  <g
     id="layer1"
     inkscape:label="Layer 1"
     inkscape:groupmode="layer"
     transform="translate(0,920)">
    <path
       style="fill:#c5c5c5;fill-opacity:1;stroke:none"
       d="m 501.84375,715.6875 0,684.3125 74.8125,0 0,-684.3125 -74.8125,0 z"
       transform="matrix(1,0,0,0.98945602,0,-912.45381)"
       id="rect4930"
       inkscape:connector-curvature="0" />
    <g
       id="g4926">
      <path
         transform="matrix(2.1931987,0,0,2.1931987,-9.0513729,-944.47558)"
         inkscape:label="#path3773-6"
         inkscape:connector-curvature="0"
         id="headPhones"
         d="m 250.3257,37.099444 c -44.00077,0 -88.01017,16.734446 -121.55809,50.282382 C 71.681592,144.46785 63.296906,231.75223 103.37247,297.87934 l -5.925531,5.92553 -2.088045,2.08805 1.636576,2.48308 c 6.63524,9.94496 14.36542,19.38802 23.1378,28.16039 l 2.53951,2.53952 2.53951,-2.53952 12.81044,-12.754 2.53952,-2.59595 -2.53952,-2.53952 c -62.09126,-62.09126 -62.09126,-162.62753 0,-224.718791 62.09127,-62.091263 162.62753,-62.091263 224.7188,0 62.09126,62.091261 62.09126,162.627531 0,224.718791 l -2.53952,2.53952 2.53952,2.59595 12.754,12.754 2.53952,2.53952 2.59594,-2.53952 c 8.77189,-8.77188 16.44766,-18.16154 23.08137,-28.10396 l 1.63657,-2.48308 -2.08804,-2.08804 -5.98197,-5.98197 C 437.3678,231.74992 428.97533,144.47337 371.88378,87.381826 338.33586,53.83389 294.32646,37.099444 250.3257,37.099444 z"
         style="fill:#ffa123;fill-opacity:1;stroke:none" />
      <path
         id="path2999"
         transform="translate(0,-920)"
         d="m 144.09375,635.375 c -12.94434,1.2e-4 -22.85986,5.11249 -29.71875,15.375 -6.80736,10.21114 -10.21875,25.06879 -10.21875,44.5625 0,19.44226 3.41139,34.29991 10.21875,44.5625 6.85889,10.21106 16.77441,15.3125 29.71875,15.3125 12.94423,0 22.81756,-5.10144 29.625,-15.3125 6.85885,-10.26259 10.28117,-25.12024 10.28125,-44.5625 -8e-5,-19.49371 -3.4224,-34.35136 -10.28125,-44.5625 -6.80744,-10.26251 -16.68077,-15.37488 -29.625,-15.375 z m 780.625,2.15625 -27.625,5.5625 0,14.25 27.78125,-5.5625 0,88.09375 -25.53125,0 0,13.15625 66.53125,0 0,-13.15625 -25.53125,0 0,-102.34375 -15.625,0 z m 100.87505,0 -27.62505,5.5625 0,14.25 27.78125,-5.5625 0,88.09375 -25.5312,0 0,13.15625 66.5312,0 0,-13.15625 -25.5312,0 0,-102.34375 -15.625,0 z M 144.09375,647.75 c 8.09659,1.2e-4 14.13366,3.96444 18.15625,11.90625 4.07404,7.89044 6.12492,19.77247 6.125,35.65625 -8e-5,15.83233 -2.05096,27.71436 -6.125,35.65625 -4.02259,7.89036 -10.05966,11.84375 -18.15625,11.84375 -8.0451,0 -14.11346,-3.95339 -18.1875,-11.84375 -4.02259,-7.94189 -6.03129,-19.82392 -6.03125,-35.65625 -4e-5,-15.88378 2.00866,-27.76581 6.03125,-35.65625 4.07404,-7.94181 10.1424,-11.90613 18.1875,-11.90625 z m 556.125,135.46875 c -16.24487,1.2e-4 -29.22188,5.43118 -38.96875,16.3125 -9.69535,10.82999 -14.56254,25.36895 -14.5625,43.625 -4e-5,18.25613 4.86715,32.79517 14.5625,43.625 9.74687,10.82991 22.72388,16.25 38.96875,16.25 16.19318,0 29.14832,-5.42009 38.84375,-16.25 9.69523,-10.88144 14.53117,-25.42044 14.53125,-43.625 -8e-5,-18.25605 -4.83602,-32.79501 -14.53125,-43.625 -9.69543,-10.88132 -22.65057,-16.31238 -38.84375,-16.3125 z m -481.6875,2.0625 44.09375,115.5 17.71875,0 44,-115.5 -16.25,0 -36.65625,97.25 -36.59375,-97.25 -16.3125,0 z m 212.34375,0 0,115.5 15.625,0 0,-55.625 55.46875,55.625 20.5625,0 -61.40625,-61.65625 57.3125,-53.84375 -20.125,0 -51.8125,48.8125 0,-48.8125 -15.625,0 z m 103.96875,0 0,115.5 15.15625,0 0,-96.625 51.21875,96.625 21.03125,0 0,-115.5 -15.15625,0 0,96.625 -51.21875,-96.625 -21.03125,0 z m 243.21875,0 0,115.5 41.4375,0 c 12.94423,0 22.92379,-2.81623 29.9375,-8.4375 7.01355,-5.62119 10.53117,-13.59205 10.53125,-23.90625 -8e-5,-7.83875 -2.12598,-14.35377 -6.40625,-19.5625 -4.2289,-5.26017 -10.19103,-8.72464 -17.875,-10.375 6.3947,-1.03135 11.23061,-3.63521 14.53125,-7.8125 3.30045,-4.17718 4.93738,-9.77847 4.9375,-16.84375 -1.2e-4,-9.12798 -3.20998,-16.17407 -9.65625,-21.125 -6.44643,-4.95069 -15.61842,-7.43738 -27.53125,-7.4375 l -39.90625,0 z m -77.84375,10.625 c 11.34555,8e-5 20.33633,4.19872 26.9375,12.65625 6.65254,8.45772 9.96863,19.99924 9.96875,34.59375 -1.2e-4,14.54306 -3.31621,26.0424 -9.96875,34.5 -6.60117,8.45764 -15.59195,12.6875 -26.9375,12.6875 -11.34563,0 -20.35831,-4.22986 -27.0625,-12.6875 -6.65266,-8.4576 -9.96875,-19.95694 -9.96875,-34.5 0,-14.59451 3.31609,-26.13603 9.96875,-34.59375 6.70419,-8.45753 15.71687,-12.65617 27.0625,-12.65625 z m 93.46875,2.21875 23.125,0 c 7.6324,1.2e-4 13.28681,1.45588 17,4.34375 3.76459,2.88806 5.65617,7.23508 5.65625,13.0625 -8e-5,5.87918 -1.89166,10.26834 -5.65625,13.15625 -3.71319,2.83646 -9.3676,4.25008 -17,4.25 l -23.125,0 0,-34.8125 z m -465.46875,16.03125 0,52.4375 c 0,11.91291 2.59288,20.96774 7.75,27.15625 5.15704,6.18851 12.70303,9.28125 22.65625,9.28125 6.03377,0 11.30544,-1.25428 15.84375,-3.78125 4.58976,-2.57858 8.60719,-6.52104 12.0625,-11.78125 l 0,13.3125 14.25,0 0,-86.625 -14.25,0 0,49.125 c -8e-5,8.45768 -2.23213,15.13201 -6.71875,20.03125 -4.43513,4.89924 -10.50349,7.34375 -18.1875,7.34375 -6.39482,0 -11.17765,-2.05088 -14.375,-6.125 -3.19743,-4.12565 -4.78129,-10.26894 -4.78125,-18.46875 l 0,-51.90625 -14.25,0 z m 465.46875,31.46875 25.0625,0 c 8.406,4e-5 14.60241,1.73231 18.625,5.1875 4.074,3.40374 6.12492,8.7176 6.125,15.9375 -8e-5,7.16837 -2.051,12.4932 -6.125,16 -4.02259,3.45527 -10.219,5.18754 -18.625,5.1875 l -25.0625,0 0,-42.3125 z"
         style="font-size:40px;font-style:normal;font-weight:normal;line-height:125%;letter-spacing:0px;word-spacing:0px;fill:#33ccff;fill-opacity:1;stroke:none;font-family:Sans"
         inkscape:connector-curvature="0" />
    </g>
    <path
       style="fill:url(#linearGradient5493);fill-opacity:1;stroke:none"
       d="m 1605.4375,223.125 0,1.21875 74.8437,54.375 0,-55.59375 -74.8437,0 z"
       transform="translate(-1103.611,-421.42069)"
       id="rect4932"
       inkscape:connector-curvature="0" />
    <path
       style="fill:#33ccff;fill-opacity:1;stroke:none"
       d="m 249.97178,56.5528 c -36.49415,0 -72.94641,13.916791 -100.7905,41.760901 -55.688218,55.688219 -55.688218,145.949209 0,201.637429 55.6882,55.6882 145.94921,55.68822 201.63743,0 55.68821,-55.6882 55.68821,-145.94923 0,-201.637429 C 322.9746,70.469591 286.46593,56.5528 249.97178,56.5528 z m -94.13133,51.12889 13.60051,0 13.99555,80.07935 13.93911,-80.07935 13.65694,0 -19.52604,108.52191 -16.19646,0 -19.46961,-108.52191 z m 62.13345,0 13.54408,0 0,65.068 c -2e-5,8.96413 0.73362,15.36754 2.14448,19.24387 1.43433,3.82794 3.77632,5.75625 6.99777,5.75623 3.24491,2e-5 5.53046,-1.92829 6.94134,-5.75623 1.43432,-3.87633 2.20087,-10.27974 2.20091,-19.24387 l 0,-65.068 13.54408,0 0,65.068 c -6e-5,15.36013 -1.84826,26.80121 -5.58694,34.31165 -3.73877,7.51047 -9.43386,11.2303 -17.09939,11.2303 -7.64207,0 -13.36069,-3.71983 -17.0994,-11.2303 -3.73874,-7.51044 -5.58693,-18.95152 -5.58693,-34.31165 l 0,-65.068 z m 88.2058,83.6911 c 2.23639,-0.0231 4.92664,0.32229 8.12644,1.18511 25.59836,6.90253 5.7633,22.79995 12.58471,48.42007 6.82137,25.62008 31.86957,29.5332 13.0926,48.25077 -18.77702,18.71751 -22.59598,-6.35938 -48.19433,-13.26191 -25.59836,-6.90255 -41.54223,12.80968 -48.36364,-12.81044 -6.82138,-25.6201 16.83268,-16.38416 35.60963,-35.10173 16.42989,-16.37782 11.48977,-36.52042 27.14459,-36.68187 z"
       id="knobBody"
       inkscape:connector-curvature="0"
       inkscape:label="#path3829"
       transform="matrix(2.1931987,0,0,2.1931987,-9.0513729,-944.47558)" />
    <rect
       style="fill:#ffffff;fill-opacity:1;stroke:none"
       id="rect5495"
       width="299.83893"
       height="153.92801"
       x="436.12936"
       y="1175.5216"
       transform="matrix(1,0,0,0.91666667,35.275168,-753.09294)" />
    <path
       style="fill:#33ccff;fill-opacity:1;stroke:#000000;stroke-width:7.05530977;stroke-linecap:round;stroke-linejoin:round;stroke-miterlimit:4;stroke-opacity:0;stroke-dasharray:none"
       d="m 477.28125,1533.2812 c -26.68595,0 -48.1875,21.5016 -48.1875,48.1876 l 0,66.8437 c 0,26.686 21.50155,48.1563 48.1875,48.1563 l 290,0 c 26.68595,0 48.15625,-21.4703 48.15625,-48.1563 l 0,-66.8437 c 0,-26.686 -21.4703,-48.1876 -48.15625,-48.1876 l -290,0 z m 72.125,45.2188 c 1.98359,10e-5 4.0033,0.3114 6.0625,0.9062 2.05915,0.5951 4.19008,1.4665 6.34375,2.6563 l 0,9.25 c -2.17256,-1.7222 -4.22934,-2.9982 -6.15625,-3.8437 -1.92696,-0.8454 -3.79907,-1.25 -5.59375,-1.25 -3.11712,0 -5.51852,0.996 -7.21875,3 -1.68136,2.004 -2.53126,4.8363 -2.53125,8.5312 -10e-6,3.1 0.57289,5.4656 1.6875,7.0625 1.13348,1.5657 3.27024,2.8418 6.40625,3.8125 l 3.4375,1.1562 c 4.26946,1.3466 7.41608,3.7432 9.4375,7.1563 2.04025,3.3818 3.06247,7.8948 3.0625,13.5937 -3e-5,6.795 -1.36687,11.9617 -4.125,15.4688 -2.7393,3.5071 -6.754,5.25 -12.0625,5.25 -2.00252,0 -4.13928,-0.3735 -6.40625,-1.125 -2.2481,-0.7515 -4.58189,-1.872 -7,-3.3438 l 0,-9.75 c 2.32365,2.1607 4.58329,3.7791 6.8125,4.875 2.22919,1.096 4.4401,1.6563 6.59375,1.6563 3.26822,0 5.78667,-1.0582 7.5625,-3.1875 1.77578,-2.1293 2.65622,-5.1795 2.65625,-9.125 -3e-5,-3.4444 -0.6529,-6.1523 -1.9375,-8.0938 -1.26576,-1.9413 -3.34072,-3.373 -6.25,-4.3437 l -3.5,-1.125 c -4.2695,-1.4091 -7.34196,-3.6189 -9.25,-6.625 -1.90805,-3.006 -2.875,-7.2079 -2.875,-12.5625 0,-6.1999 1.31157,-11.0865 3.9375,-14.6562 2.64481,-3.5697 6.27781,-5.3437 10.90625,-5.3438 z m 18,1.2812 35.8125,0 0,7.9688 -15.03125,0 0,62.1562 -5.75,0 0,-62.1562 -15.03125,0 0,-7.9688 z m 47.71875,0 6.5,0 16.125,70.125 -5.96875,0 -3.84375,-18 -19.0625,0 -3.84375,18 -6.0625,0 16.15625,-70.125 z m 28.78125,0 12.90625,0 c 4.83621,1e-4 8.46339,1.6496 10.84375,5 2.3803,3.3506 3.56247,8.424 3.5625,15.1876 -3e-5,4.4151 -0.62819,8.0879 -1.875,11 -1.22798,2.9121 -3.01358,4.9352 -5.375,6.0624 1.22792,0.689 2.41009,2.1518 3.5625,4.4063 1.17125,2.2546 2.32869,5.3358 3.5,9.2813 l 5.8125,19.1874 -6.125,0 -5.4375,-18 c -1.398,-4.6969 -2.74012,-7.8093 -4.0625,-9.3437 -1.30354,-1.5343 -3.10803,-2.3125 -5.375,-2.3125 l -6.21875,0 0,29.6562 -5.71875,0 0,-70.125 z m 30.28125,0 35.78125,0 0,7.9688 -15,0 0,62.1562 -5.75,0 0,-62.1562 -15.03125,0 0,-7.9688 z m -24.5625,7.7813 0,24.9063 7.1875,0 c 2.75814,0 4.852,-1.0583 6.25,-3.1563 1.41684,-2.1292 2.12497,-5.2417 2.125,-9.3437 -3e-5,-4.102 -0.70816,-7.1833 -2.125,-9.25 -1.398,-2.098 -3.49186,-3.1562 -6.25,-3.1563 l -7.1875,0 z m -31.25,1.5625 -7.78125,34.9062 15.5625,0 -7.78125,-34.9062 z"
       transform="translate(0,-1220)"
       id="start"
       inkscape:connector-curvature="0"
       inkscape:label="#rect2383-3" />
    <path
       style="fill:#33ccff;fill-opacity:1;stroke:#000000;stroke-width:5.7674222;stroke-linecap:round;stroke-linejoin:round;stroke-miterlimit:4;stroke-opacity:0;stroke-dasharray:none"
       d="m 857.9375,1532.6562 c -20.47088,0 -36.96875,21.5897 -36.96875,48.4063 l 0,67.6563 c 0,26.8166 16.49787,48.4062 36.96875,48.4062 l 182.2187,0 c 20.4709,0 36.9688,-21.5896 36.9688,-48.4062 l 0,-67.6563 c 0,-26.8166 -16.4979,-48.4063 -36.9688,-48.4063 l -182.2187,0 z m 85.3125,55 c 4.43996,1e-4 7.99789,2.4611 10.65625,7.4063 2.6583,4.9219 3.96872,11.5469 3.96875,19.8437 -3e-5,8.2735 -1.31045,14.8673 -3.96875,19.8126 -2.65836,4.9218 -6.21629,7.3749 -10.65625,7.375 -4.45413,-1e-4 -8.01504,-2.4532 -10.6875,-7.375 -2.65834,-4.9219 -4,-11.5157 -4,-19.8126 0,-8.2968 1.34166,-14.9218 4,-19.8437 2.67246,-4.9452 6.23337,-7.4062 10.6875,-7.4063 z m -102.15625,0.9376 26.78125,0 0,5.9687 -11.25,0 0,46.5313 -4.3125,0 0,-46.5313 -11.21875,0 0,-5.9687 z m 30.4375,0 4.3125,0 0,31.9062 c -10e-6,5.625 0.61356,9.6719 1.84375,12.1562 1.23017,2.461 3.24267,3.6876 6,3.6876 2.74315,0 4.70729,-1.2266 5.9375,-3.6876 1.23016,-2.4843 1.84373,-6.5312 1.84375,-12.1562 l 0,-31.9062 4.3125,0 0,32.7812 c -3e-5,6.8437 -1.01222,12.0078 -3.0625,15.5 -2.03619,3.4922 -5.04377,5.2187 -9.03125,5.2188 -4.00165,-1e-4 -7.04345,-1.7266 -9.09375,-5.2188 -2.03617,-3.4922 -3.0625,-8.6563 -3.0625,-15.5 l 0,-32.7812 z m 27.9375,0 26.78125,0 0,5.9687 -11.25,0 0,46.5313 -4.3125,0 0,-46.5313 -11.21875,0 0,-5.9687 z m 65.125,0 9.65625,0 c 3.61984,0 6.34333,1.2734 8.125,3.7812 1.78162,2.5079 2.65623,6.2813 2.65625,11.3438 -2e-5,3.3047 -0.47303,6.0391 -1.40625,8.2187 -0.91913,2.1797 -2.26376,3.6875 -4.03125,4.5313 0.91908,0.5156 1.82494,1.625 2.6875,3.3124 0.87666,1.6876 1.74829,4.0157 2.625,6.9688 l 4.34375,14.3438 -4.59375,0 -4.0625,-13.4688 c -1.04638,-3.5156 -2.04146,-5.8515 -3.03125,-7 -0.97568,-1.1484 -2.33446,-1.7187 -4.03125,-1.7188 l -4.65625,0 0,22.1876 -4.28125,0 0,-52.5 z m 30.1875,0 4.3125,0 0,52.5 -4.3125,0 0,-52.5 z m 20.99995,0 4.8438,0 12.0625,52.5 -4.4375,0 -2.875,-13.4688 -14.2812,0 -2.9063,13.4688 -4.5,0 12.0937,-52.5 z m 21.5313,0 4.2813,0 0,46.5312 15.4062,0 0,5.9688 -19.6875,0 0,-52.5 z m -94.0625,4.8124 c -3.11083,1e-4 -5.56805,1.9376 -7.40625,5.7813 -1.82408,3.8438 -2.75001,9.086 -2.75,15.7187 -10e-6,6.6094 0.92592,11.8126 2.75,15.6563 1.8382,3.8437 4.29542,5.7813 7.40625,5.7813 3.11079,0 5.56505,-1.9376 7.375,-5.7813 1.82404,-3.8437 2.74997,-9.0469 2.75,-15.6563 -3e-5,-6.6327 -0.92596,-11.8749 -2.75,-15.7187 -1.80995,-3.8437 -4.26421,-5.7812 -7.375,-5.7813 z m 25.625,1.0313 0,18.625 5.375,0 c 2.06443,0 3.64112,-0.7734 4.6875,-2.3437 1.06049,-1.5938 1.59373,-3.9297 1.59375,-7 -2e-5,-3.0703 -0.53326,-5.3906 -1.59375,-6.9376 -1.04638,-1.5702 -2.62307,-2.3437 -4.6875,-2.3437 l -5.375,0 z m 49.3125,1.1563 -5.8125,26.125 11.6562,0 -5.8437,-26.125 z"
       transform="translate(0,-1220)"
       id="tutorial"
       inkscape:connector-curvature="0"
       inkscape:label="#rect2383-3-6" />
    <path
       style="fill:#33ccff;fill-opacity:1;stroke:#000000;stroke-width:5.71452999;stroke-linecap:round;stroke-linejoin:round;stroke-miterlimit:4;stroke-opacity:0;stroke-dasharray:none"
       d="m 220.375,1532.625 c -26.68595,0 -48.15625,21.4703 -48.15625,48.1562 l 0,68.1876 c 0,26.6859 21.4703,48.1874 48.15625,48.1874 l 155.0625,0 c 26.68595,0 48.15625,-21.5015 48.15625,-48.1874 l 0,-68.1876 c 0,-26.6859 -21.4703,-48.1562 -48.15625,-48.1562 l -155.0625,0 z m -20.09375,56 20.03125,0 0,6 -15.75,0 0,15.5312 15.09375,0 0,5.9688 -15.09375,0 0,19.0312 16.125,0 0,5.9688 -20.40625,0 0,-52.5 z m 25.96875,0 4.59375,0 7.875,19.5312 7.90625,-19.5312 4.59375,0 -10.1875,25.2188 10.875,27.2812 -4.59375,0 -8.90625,-22.3125 -8.96875,22.3125 -4.625,0 11.28125,-28.0312 -9.84375,-24.4688 z m 39.46875,0 4.84375,0 12.0625,52.5 -4.4375,0 -2.875,-13.4688 -14.28125,0 -2.875,13.4688 -4.53125,0 12.09375,-52.5 z m 21.53125,0 6.375,0 8.09375,35.7188 8.125,-35.7188 6.375,0 0,52.5 -4.1875,0 0,-46.0938 -8.15625,36 -4.3125,0 -8.15625,-36 0,46.0938 -4.15625,0 0,-52.5 z m 37.5,0 9.65625,0 c 3.54914,10e-5 6.2213,1.3594 8.03125,4.0312 1.82404,2.6485 2.74998,6.5235 2.75,11.6563 -2e-5,5.1797 -0.92596,9.1016 -2.75,11.75 -1.80995,2.6485 -4.48211,3.9688 -8.03125,3.9687 l -5.375,0 0,21.0938 -4.28125,0 0,-52.5 z m 26.21875,0 4.28125,0 0,46.5312 15.40625,0 0,5.9688 -19.6875,0 0,-52.5 z m 24.15625,0 20.03125,0 0,6 -15.75,0 0,15.5312 15.09375,0 0,5.9688 -15.09375,0 0,19.0312 16.125,0 0,5.9688 -20.40625,0 0,-52.5 z m -46.09375,5.8438 0,19.7187 5.375,0 c 1.99373,0 3.5362,-0.8515 4.625,-2.5625 1.08877,-1.7109 1.62498,-4.1484 1.625,-7.3125 -2e-5,-3.1406 -0.53623,-5.5703 -1.625,-7.2813 -1.0888,-1.7108 -2.63127,-2.5624 -4.625,-2.5624 l -5.375,0 z m -60.90625,1.1562 -5.8125,26.125 11.65625,0 -5.84375,-26.125 z"
       transform="translate(0,-1220)"
       id="example"
       inkscape:connector-curvature="0"
       inkscape:label="#rect2383-3-1" />
    <path
       style="fill:#ff0000;fill-opacity:1;stroke:#000000;stroke-width:4.65286493;stroke-linecap:round;stroke-linejoin:round;stroke-miterlimit:4;stroke-opacity:0;stroke-dasharray:none"
       d="m 50.5,1532.0938 c -26.685954,0 -48.1875,21.4703 -48.1875,48.1562 l 0,69.25 c 0,26.6859 21.501546,48.1875 48.1875,48.1875 l 69.25,0 c 26.68595,0 48.15625,-21.5016 48.15625,-48.1875 l 0,-69.25 c 0,-26.6859 -21.4703,-48.1562 -48.15625,-48.1562 l -69.25,0 z M 72.40625,1553 c 9.724729,-0.013 18.8125,0.2308 18.8125,0.75 0,1.1234 -1.796236,2.4627 -4.0625,3 -1.17826,0.2794 -4.101289,0.8058 -6.46875,1.1562 -4.674075,0.692 -5.371462,1.0112 -4.03125,1.8126 6.241564,3.7318 8.287809,7.7721 8.875,17.5937 0.381242,6.3766 -0.317126,10.6407 -2.40625,15 -1.624043,3.3888 -4.450095,6.5387 -10.96875,12.25 -3.804807,3.3335 -4.796275,5.4819 -3.71875,8.0625 0.87887,2.1049 1.796622,3.0459 7.34375,7.625 11.753282,9.7022 15.452273,15.8441 15.4375,25.5625 -0.01316,8.5927 -2.275247,14.3234 -7.84375,19.9375 -5.345704,5.3895 -12.360955,8.6465 -22.3125,10.3438 -4.990453,0.8509 -16.688377,0.8712 -21.3125,0.031 -16.443469,-2.9871 -25.562818,-11.7222 -25.59375,-24.5312 -0.02595,-10.728 5.779112,-18.0525 17.90625,-22.5938 5.363201,-2.0084 9.612713,-2.8456 17.6875,-3.5 l 6.75,-0.5625 -0.40625,-1.4063 c -0.219937,-0.7668 -1.231153,-2.2431 -2.25,-3.2812 L 52,1618.375 l 0,-3.9688 0,-3.9374 -4.5,-0.3126 c -8.504319,-0.5597 -14.861012,-3.0787 -19.1875,-7.625 -3.2714,-3.4376 -4.756803,-6.0653 -5.875,-10.4374 -1.126646,-4.4052 -1.228364,-11.5921 -0.21875,-15.875 2.670867,-11.3308 12.517735,-19.3298 27.5625,-22.4063 2.555035,-0.5225 12.900271,-0.8 22.625,-0.8125 z m 52.0625,0.063 3.6875,0 3.6875,0 0,12.0313 0,11.9687 12.125,0.125 12.125,0.125 0,3.4687 0,3.4688 -12,0.2188 -12,0.2187 -0.125,11.9063 -0.125,11.875 -3.6875,0 -3.6875,0 0,-12 0,-12 -12,0 -12,0 0,-3.6876 0,-3.6874 12,0 12,0 0,-12 0,-12.0313 z m -74.53125,6.6563 c -1.663331,0.01 -3.208988,0.2977 -4.28125,0.875 -3.822904,2.058 -6.463517,5.6762 -7.8125,10.7187 -0.824256,3.0811 -0.777272,9.4605 0.09375,13.1563 2.023798,8.5867 7.870753,15.6918 14.65625,17.8124 2.605264,0.8143 3.861274,0.7954 6.75,-0.062 5.001118,-1.4852 8.81176,-6.8614 9.75,-13.7188 1.500732,-10.9684 -4.251844,-23.2185 -12.90625,-27.4688 -1.776207,-0.8723 -4.111478,-1.324 -6.25,-1.3124 z m 5.28125,71.1874 c -8.890271,0 -15.73896,2.553 -21.03125,7.8126 -3.702918,3.6799 -4.999875,6.3729 -5.21875,10.9374 -0.144547,3.013 0.0066,3.9298 0.96875,6.0313 2.828987,6.1793 9.249632,10.3749 18.1875,11.875 9.542556,1.6017 21.481107,-2.0654 27.125,-8.3125 0.897891,-0.9939 2.205166,-2.8766 2.90625,-4.2188 1.096314,-2.0988 1.271555,-3.0312 1.28125,-6.4062 0.01357,-4.8135 -1.013492,-7.2322 -4.625,-10.8438 -4.603671,-4.6037 -11.062516,-6.8703 -19.59375,-6.875 z"
       transform="translate(0,-1220)"
       id="google"
       inkscape:connector-curvature="0"
       inkscape:label="#rect2383-3-1-6" />
  </g>
</svg>
