<?xml version="1.0" encoding="UTF-8" standalone="no"?>
<!-- Created with Inkscape (http://www.inkscape.org/) -->

<svg
   xmlns:dc="http://purl.org/dc/elements/1.1/"
   xmlns:cc="http://creativecommons.org/ns#"
   xmlns:rdf="http://www.w3.org/1999/02/22-rdf-syntax-ns#"
   xmlns:svg="http://www.w3.org/2000/svg"
   xmlns="http://www.w3.org/2000/svg"
   xmlns:sodipodi="http://sodipodi.sourceforge.net/DTD/sodipodi-0.dtd"
   xmlns:inkscape="http://www.inkscape.org/namespaces/inkscape"
   width="1080"
   height="1400"
   id="svg4320"
   version="1.1"
   inkscape:version="0.48.4 r9939"
   sodipodi:docname="logoScreen.svg">
  <metadata
     id="metadata3473">
    <rdf:RDF>
      <cc:Work
         rdf:about="">
        <dc:format>image/svg+xml</dc:format>
        <dc:type
           rdf:resource="http://purl.org/dc/dcmitype/StillImage" />
      </cc:Work>
    </rdf:RDF>
  </metadata>
  <sodipodi:namedview
     pagecolor="#ffa123"
     bordercolor="#666666"
     borderopacity="1"
     objecttolerance="10"
     gridtolerance="10"
     guidetolerance="10"
     inkscape:pageopacity="1"
     inkscape:pageshadow="2"
     inkscape:window-width="1855"
     inkscape:window-height="1056"
     id="namedview3471"
     showgrid="false"
     inkscape:zoom="0.62366818"
     inkscape:cx="40.513478"
     inkscape:cy="677.78716"
     inkscape:window-x="65"
     inkscape:window-y="24"
     inkscape:window-maximized="1"
     inkscape:current-layer="layer1" />
  <defs
     id="defs4322">
    <marker
       inkscape:stockid="Arrow1Lend"
       orient="auto"
       refY="0.0"
       refX="0.0"
       id="Arrow1Lend"
       style="overflow:visible;">
      <path
         id="path4818"
         d="M 0.0,0.0 L 5.0,-5.0 L -12.5,0.0 L 5.0,5.0 L 0.0,0.0 z "
         style="fill-rule:evenodd;stroke:#000000;stroke-width:1.0pt;"
         transform="scale(0.8) rotate(180) translate(12.5,0)" />
    </marker>
    <linearGradient
       id="linearGradient5442">
      <stop
         style="stop-color:#000000;stop-opacity:1;"
         offset="0"
         id="stop5444" />
      <stop
         style="stop-color:#d2d2d2;stop-opacity:1;"
         offset="1"
         id="stop5446" />
    </linearGradient>
  </defs>
  <g
     id="layer1"
     inkscape:label="Layer 1"
     inkscape:groupmode="layer"
     transform="translate(0,920)">
    <path
       style="fill:#ffffff;fill-opacity:1;stroke:none"
       d="M 420.40625 156.5625 C 411.85293 156.67809 403.01194 157.29865 393.9375 158.4375 C 335.86107 165.72615 269.01601 194.271 208.25 242.5 C 147.48399 290.729 104.50294 349.37636 84.21875 404.28125 C 63.934559 459.18614 66.314511 509.3252 93.5625 543.65625 C 120.81049 577.9873 169.11107 591.6324 227.1875 584.34375 C 285.26393 577.0551 352.14024 548.57275 412.90625 500.34375 C 473.67226 452.11475 516.59081 393.46739 536.875 338.5625 C 557.15919 283.65761 554.84174 233.51855 527.59375 199.1875 C 504.60327 170.22069 466.59415 155.93827 420.40625 156.5625 z M 558.65625 214.1875 C 574.81694 251.83763 572.23984 298.15339 554.875 345.15625 C 533.08875 404.12694 488.07934 465.2172 424.84375 515.40625 C 361.60816 565.5953 291.90831 595.57787 229.53125 603.40625 C 180.07546 609.613 134.61323 601.67586 101.65625 577.6875 L 196.84375 810.1875 L 196.90625 810.25 L 196.90625 810.375 C 197.65712 812.35266 198.47118 814.35871 199.34375 816.375 C 199.5821 816.92566 199.76815 817.29786 199.84375 817.46875 C 204.49291 827.96853 210.3413 837.75353 217.53125 846.8125 C 254.70851 893.65391 320.174 911.88255 397.5 902.1875 C 452.81933 895.25162 513.78535 873.87212 573.4375 838.9375 L 739.625 904.59375 L 713.15625 726.125 C 757.17421 678.01697 789.43458 626.2115 807.8125 576.46875 C 834.82191 503.36347 831.95809 435.49715 794.78125 388.65625 C 787.49641 379.47773 779.14136 371.48156 769.8125 364.5 L 761.84375 358.53125 L 762.3125 358.1875 L 558.65625 214.1875 z "
       transform="translate(0,-920)"
       id="knobBody"
       inkscape:label="#path4100" />
    <path
       style="fill:#ffffff;fill-opacity:1;stroke:none"
       d="m 774.5625,-576.5625 c 70.4496,1.7949 128.15542,25.40911 178.75,77.15625 56.6476,57.9381 71.8714,160.2559 38.15625,253.09375 -33.71511,92.83785 -98.39986,211.8557 -197.65625,291.90625 L 755.59375,2.53125 C 852.41497,-75.55535 920.7613,-169.91503 953,-258.6875 c 32.2387,-88.77247 28.42284,-170.97582 -16.6875,-227.8125 -30.6721,-38.64526 -77.07277,-61.34898 -133.125,-68.40625 l -28.625,-21.65625 z"
       id="path4096" />
    <path
       style="fill:#ffffff;fill-opacity:1;stroke:none"
       d="m 879.59375,40.875 28.625,19.09375 L 843.625,137.0938 833.21875,128.375 889.25,61.40625 l -15.96875,-13 6.3125,-7.53125 z"
       id="path4094" />
    <path
       style="fill:#ffffff;fill-opacity:1;stroke:none"
       d="M 570.84375 962.0625 C 552.88561 962.06267 537.73352 968.52854 526.375 981.09375 C 515.11529 993.62827 509.5625 1009.4052 509.5625 1028 L 509.5625 1054.2188 C 509.5625 1072.8791 515.09928 1088.862 526.375 1101.3438 C 537.7396 1113.8447 552.89805 1120.1875 570.84375 1120.1875 C 589.37678 1120.1875 604.79411 1113.8929 616.5 1101.4062 C 628.26284 1088.9352 634.09363 1072.905 634.09375 1054.2188 L 634.09375 1028 C 634.09363 1009.3135 628.25289 993.49242 616.5 981.03125 C 604.80016 968.48077 589.38882 962.06267 570.84375 962.0625 z M 570.84375 984.28125 C 582.50375 984.28137 591.28498 988.2118 598.09375 996.28125 C 604.93723 1004.3922 608.46863 1014.8138 608.46875 1027.8438 L 608.46875 1054.2188 C 608.46863 1067.459 604.92619 1078.059 598.09375 1086.1562 C 591.36538 1094.1427 582.59261 1097.9688 570.84375 1097.9688 C 559.90065 1097.9688 551.51713 1094.0919 545.03125 1086.0312 L 545.09375 1086.0312 C 538.6477 1077.9426 535.375 1067.4326 535.375 1054.2188 L 535.375 1027.8438 C 535.375 1014.7694 538.6447 1004.3117 545.09375 996.21875 L 545.03125 996.21875 C 551.51713 988.15869 559.90065 984.28137 570.84375 984.28125 z "
       transform="translate(0,-920)"
       id="path4092" />
    <path
       style="fill:#ffffff;fill-opacity:1;stroke:none"
       d="m 234.09375,44.21875 2.875,0 20.0625,0 2.875,0 0,2.875 0,62.59375 11.15625,0 52.09375,-64.375 0.84375,-1.09375 1.375,0 22.25,0 1.5625,0 0.84375,1.28125 0.34375,0.53125 1.21875,1.78125 -1.375,1.625 -56.0625,69.25 60.1875,74.0937 1.375,1.625 -1.1875,1.8126 -0.375,0.5312 -0.84375,1.2812 -1.53125,0 -23.90625,0 -1.375,0 -0.84375,-1.0937 -52.78125,-65.75 -12.96875,0 0,63.9375 0,2.9062 -2.875,0 -20.0625,0 -2.875,0 0,-2.9062 0,-148.03125 0,-2.875 z"
       id="path4090" />
    <path
       style="fill:#ffffff;fill-opacity:1;stroke:none"
       d="m 367.84375,44.21875 2.875,0 20.0625,0 1.59375,0 0.84375,1.375 66.625,106.81245 0,-105.31245 0,-2.875 2.875,0 20.09375,0 2.875,0 0,2.875 0,148.03125 0,2.9062 -2.875,0 -20.09375,0 -1.625,0 -0.84375,-1.4062 -66.53125,-106.8438 0,105.3438 0,2.9062 -2.875,0 -20.125,0 -2.875,0 0,-2.9062 0,-148.03125 0,-2.875 z"
       id="path4088" />
    <path
       style="fill:#ffffff;fill-opacity:1;stroke:none"
       d="M 658.3125 964.21875 L 658.3125 967.09375 L 658.3125 1115.125 L 658.3125 1118.0312 L 661.21875 1118.0312 L 715.8125 1118.0312 C 731.30717 1118.0312 743.99176 1114.3875 753.375 1106.75 C 762.87861 1099.0009 767.65613 1087.5532 767.65625 1073.375 C 767.65613 1063.7628 764.81876 1055.024 759.3125 1047.6875 C 759.3025 1047.6741 759.3225 1047.639 759.3125 1047.625 L 759.375 1047.625 C 755.2827 1042.1142 749.9134 1038.1499 743.53125 1035.625 C 747.79724 1033.1549 751.66262 1030.2704 754.6875 1026.5625 C 759.25367 1020.8916 761.71862 1014.2677 761.71875 1007.0625 C 761.71863 993.09452 757.03551 982.16552 747.5625 974.96875 C 738.17106 967.76163 725.31797 964.21892 709.4375 964.21875 L 661.21875 964.21875 L 658.3125 964.21875 z M 684.125 985.71875 L 709.4375 985.71875 C 718.52203 985.71892 725.04562 987.64214 729.375 991.09375 L 729.4375 991.09375 C 733.79253 994.46181 736.03113 999.35807 736.03125 1006.7188 C 736.03115 1013.4247 734.01815 1018.1386 729.96875 1021.7188 C 725.86119 1025.2733 720.54603 1027.157 713.65625 1027.1562 L 684.125 1027.1562 L 684.125 985.71875 z M 684.125 1048.6562 L 718.875 1048.6562 C 727.15658 1048.6569 732.59886 1050.8116 736.15625 1055 L 736.21875 1055 C 739.93526 1059.3066 741.84363 1065.4115 741.84375 1073.625 C 741.84363 1081.3054 739.63441 1086.6206 735.1875 1090.5938 C 730.75762 1094.4915 724.43297 1096.5312 715.8125 1096.5312 L 684.125 1096.5312 L 684.125 1048.6562 z "
       transform="translate(0,-920)"
       id="path4086" />
    <path
       style="fill:#ffffff;fill-opacity:1;stroke:none"
       d="m 940.625,91.9688 28.59375,19.0937 -64.5625,77.125 -10.4375,-8.7187 56.0625,-66.9688 -15.96875,-13 6.3125,-7.5312 z"
       id="path4080" />
    <path
       style="fill:#ffffff;fill-opacity:1;stroke:none"
       d="m 95.78125,94.125 10.03125,0 17.625,78.5938 1.5,8.2187 0.3125,0 1.5625,-8.2187 17.5625,-78.5938 10.03125,0 -25.375,104.5625 -7.9375,0 L 95.78125,94.125 z"
       id="path4078" />
    <path
       style="fill:#ffffff;fill-opacity:1;stroke:none"
       d="m 162.34375,94.125 9.21875,0 0,70.8438 c -2e-5,7.9014 1.50172,13.9444 4.4375,18.0624 2.93575,4.0707 6.78405,6.125 11.59375,6.125 5.05949,0 9.15803,-2.0543 12.25,-6.125 3.12311,-4.118 4.65619,-10.161 4.65625,-18.0624 l 0,-70.8438 9.25,0 0,70.8438 c -6e-5,11.3976 -2.40916,20.1538 -7.25,26.1874 -4.80972,6.0348 -11.1296,9.0313 -18.90625,9.0313 -7.49562,0 -13.56526,-2.9965 -18.25,-9.0313 -4.65353,-6.0815 -7,-14.8378 -7,-26.1874 l 0,-70.8438 z"
       id="path4076" />
    <g
       id="g3013"
       transform="translate(48.102502,1224.0408)">
      <path
         transform="matrix(0.99172556,0,0,0.99172556,739.85877,-1192.4537)"
         d="m -580.49888,369.38776 c 0,45.71064 -37.0558,82.76644 -82.76644,82.76644 -45.71064,0 -82.76644,-37.0558 -82.76644,-82.76644 0,-45.71065 37.0558,-82.76644 82.76644,-82.76644 45.71064,0 82.76644,37.05579 82.76644,82.76644 z"
         sodipodi:ry="82.766441"
         sodipodi:rx="82.766441"
         sodipodi:cy="369.38776"
         sodipodi:cx="-663.26532"
         id="path3923-5"
         style="fill:#000000;fill-opacity:0.32876713;stroke:none"
         sodipodi:type="arc" />
      <g
         inkscape:label="#g3977"
         id="google">
        <path
           sodipodi:type="arc"
           style="fill:#ff0000;fill-opacity:1;stroke:none"
           id="path3923"
           sodipodi:cx="-663.26532"
           sodipodi:cy="369.38776"
           sodipodi:rx="82.766441"
           sodipodi:ry="82.766441"
           d="m -580.49888,369.38776 c 0,45.71064 -37.0558,82.76644 -82.76644,82.76644 -45.71064,0 -82.76644,-37.0558 -82.76644,-82.76644 0,-45.71065 37.0558,-82.76644 82.76644,-82.76644 45.71064,0 82.76644,37.05579 82.76644,82.76644 z"
           transform="matrix(0.99172556,0,0,0.99172556,739.85877,-1204.2497)" />
        <path
           inkscape:connector-curvature="0"
           style="fill:#ffffff;fill-opacity:1;stroke:#000000;stroke-width:6.55495262;stroke-linecap:round;stroke-linejoin:round;stroke-miterlimit:4;stroke-opacity:0;stroke-dasharray:none"
           d="m 72.40625,333 c 9.724729,-0.013 18.8125,0.2308 18.8125,0.75 0,1.1234 -1.796236,2.4627 -4.0625,3 -1.17826,0.2794 -4.101289,0.8058 -6.46875,1.1562 -4.674075,0.692 -5.371462,1.0112 -4.03125,1.8126 6.241564,3.7318 8.287809,7.7721 8.875,17.5937 0.381242,6.3766 -0.317126,10.6407 -2.40625,15 -1.624043,3.3888 -4.450095,6.5387 -10.96875,12.25 -3.804807,3.3335 -4.796275,5.4819 -3.71875,8.0625 0.87887,2.1049 1.796622,3.0459 7.34375,7.625 11.753282,9.7022 15.452273,15.8441 15.4375,25.5625 -0.01316,8.5927 -2.275247,14.3234 -7.84375,19.9375 -5.345704,5.3895 -12.360955,8.6465 -22.3125,10.3438 -4.990453,0.8509 -16.688377,0.8712 -21.3125,0.031 -16.443469,-2.9871 -25.562818,-11.7222 -25.59375,-24.5312 -0.02595,-10.728 5.779112,-18.0525 17.90625,-22.5938 5.363201,-2.0084 9.612713,-2.8456 17.6875,-3.5 l 6.75,-0.5625 -0.40625,-1.4063 c -0.219937,-0.7668 -1.231153,-2.2431 -2.25,-3.2812 L 52,398.375 l 0,-3.9688 0,-3.9374 -4.5,-0.3126 c -8.504319,-0.5597 -14.861012,-3.0787 -19.1875,-7.625 -3.2714,-3.4376 -4.756803,-6.0653 -5.875,-10.4374 -1.126646,-4.4052 -1.228364,-11.5921 -0.21875,-15.875 2.670867,-11.3308 12.517735,-19.3298 27.5625,-22.4063 2.555035,-0.5225 12.900271,-0.8 22.625,-0.8125 z"
           id="path3931"
           transform="matrix(0.70982435,0,0,0.70982435,29.906241,-1115.7402)" />
        <path
           inkscape:connector-curvature="0"
           style="fill:#ffffff;fill-opacity:1;stroke:#000000;stroke-width:6.55495262;stroke-linecap:round;stroke-linejoin:round;stroke-miterlimit:4;stroke-opacity:0;stroke-dasharray:none"
           d="m 124.46875,333.063 3.6875,0 3.6875,0 0,12.0313 0,11.9687 12.125,0.125 12.125,0.125 0,3.4687 0,3.4688 -12,0.2188 -12,0.2187 -0.125,11.9063 -0.125,11.875 -3.6875,0 -3.6875,0 0,-12 0,-12 -12,0 -12,0 0,-3.6876 0,-3.6874 12,0 12,0 0,-12 0,-12.0313 z"
           id="path3929"
           transform="matrix(0.70982435,0,0,0.70982435,29.906241,-1115.7402)" />
        <path
           inkscape:connector-curvature="0"
           style="fill:#ff0000;fill-opacity:1;stroke:#000000;stroke-width:6.55495262;stroke-linecap:round;stroke-linejoin:round;stroke-miterlimit:4;stroke-opacity:0;stroke-dasharray:none"
           d="m 49.9375,339.7193 c -1.663331,0.01 -3.208988,0.2977 -4.28125,0.875 -3.822904,2.058 -6.463517,5.6762 -7.8125,10.7187 -0.824256,3.0811 -0.777272,9.4605 0.09375,13.1563 2.023798,8.5867 7.870753,15.6918 14.65625,17.8124 2.605264,0.8143 3.861274,0.7954 6.75,-0.062 5.001118,-1.4852 8.81176,-6.8614 9.75,-13.7188 1.500732,-10.9684 -4.251844,-23.2185 -12.90625,-27.4688 -1.776207,-0.8723 -4.111478,-1.324 -6.25,-1.3124 z"
           id="path3927"
           transform="matrix(0.70982435,0,0,0.70982435,29.906241,-1115.7402)" />
        <path
           inkscape:connector-curvature="0"
           style="fill:#ff0000;fill-opacity:1;stroke:#000000;stroke-width:6.55495262;stroke-linecap:round;stroke-linejoin:round;stroke-miterlimit:4;stroke-opacity:0;stroke-dasharray:none"
           d="m 55.21875,410.9067 c -8.890271,0 -15.73896,2.553 -21.03125,7.8126 -3.702918,3.6799 -4.999875,6.3729 -5.21875,10.9374 -0.144547,3.013 0.0066,3.9298 0.96875,6.0313 2.828987,6.1793 9.249632,10.3749 18.1875,11.875 9.542556,1.6017 21.481107,-2.0654 27.125,-8.3125 0.897891,-0.9939 2.205166,-2.8766 2.90625,-4.2188 1.096314,-2.0988 1.271555,-3.0312 1.28125,-6.4062 0.01357,-4.8135 -1.013492,-7.2322 -4.625,-10.8438 -4.603671,-4.6037 -11.062516,-6.8703 -19.59375,-6.875 z"
           id="pathX2132"
           transform="matrix(0.70982435,0,0,0.70982435,29.906241,-1115.7402)" />
      </g>
    </g>
    <g
       id="start"
       inkscape:label="#g3990"
       transform="translate(-48.102502,8.6686669e-8)">
      <path
         transform="matrix(0.99172556,0,0,0.99172556,1655.6956,31.587125)"
         d="m -580.49888,369.38776 c 0,45.71064 -37.0558,82.76644 -82.76644,82.76644 -45.71064,0 -82.76644,-37.0558 -82.76644,-82.76644 0,-45.71065 37.0558,-82.76644 82.76644,-82.76644 45.71064,0 82.76644,37.05579 82.76644,82.76644 z"
         sodipodi:ry="82.766441"
         sodipodi:rx="82.766441"
         sodipodi:cy="369.38776"
         sodipodi:cx="-663.26532"
         id="path3923-5-5"
         style="fill:#000000;fill-opacity:0.32941176;stroke:none"
         sodipodi:type="arc" />
      <path
         transform="matrix(0.99172556,0,0,0.99172556,1655.6956,19.7911)"
         d="m -580.49888,369.38776 c 0,45.71064 -37.0558,82.76644 -82.76644,82.76644 -45.71064,0 -82.76644,-37.0558 -82.76644,-82.76644 0,-45.71065 37.0558,-82.76644 82.76644,-82.76644 45.71064,0 82.76644,37.05579 82.76644,82.76644 z"
         sodipodi:ry="82.766441"
         sodipodi:rx="82.766441"
         sodipodi:cy="369.38776"
         sodipodi:cx="-663.26532"
         id="path3923-52"
         style="fill:#33ccff;fill-opacity:1;stroke:none"
         sodipodi:type="arc" />
      <path
         inkscape:connector-curvature="0"
         id="path5443"
         transform="translate(-5.4252957,-924.87762)"
         d="m 1004.0938,1270.1562 16.1874,33.625 -87.49995,0 0,14.4376 87.71875,0 -16.75,33.625 70.1562,-39.6563 -69.8124,-42.0313 z"
         style="fill:#ffffff;fill-opacity:1;fill-rule:evenodd;stroke:none" />
    </g>
  </g>
</svg>
