<?xml version="1.0" encoding="UTF-8" standalone="no"?>
<!-- Created with Inkscape (http://www.inkscape.org/) -->

<svg
   xmlns:dc="http://purl.org/dc/elements/1.1/"
   xmlns:cc="http://creativecommons.org/ns#"
   xmlns:rdf="http://www.w3.org/1999/02/22-rdf-syntax-ns#"
   xmlns:svg="http://www.w3.org/2000/svg"
   xmlns="http://www.w3.org/2000/svg"
   xmlns:sodipodi="http://sodipodi.sourceforge.net/DTD/sodipodi-0.dtd"
   xmlns:inkscape="http://www.inkscape.org/namespaces/inkscape"
   width="512"
   height="512"
   id="svg4320"
   version="1.1"
   inkscape:version="0.48.3.1 r9886"
   sodipodi:docname="logoSquare.svg">
  <defs
     id="defs4322">
    <linearGradient
       id="linearGradient4842">
      <stop
         style="stop-color:#51830b;stop-opacity:1;"
         offset="0"
         id="stop4844" />
      <stop
         style="stop-color:#a118d2;stop-opacity:0.98431373;"
         offset="1"
         id="stop4846" />
    </linearGradient>
    <inkscape:perspective
       sodipodi:type="inkscape:persp3d"
       inkscape:vp_x="0 : 240 : 1"
       inkscape:vp_y="0 : 1000 : 0"
       inkscape:vp_z="640 : 240 : 1"
       inkscape:persp3d-origin="320 : 160 : 1"
       id="perspective4328" />
    <inkscape:perspective
       id="perspective2982"
       inkscape:persp3d-origin="0.5 : 0.33333333 : 1"
       inkscape:vp_z="1 : 0.5 : 1"
       inkscape:vp_y="0 : 1000 : 0"
       inkscape:vp_x="0 : 0.5 : 1"
       sodipodi:type="inkscape:persp3d" />
    <clipPath
       clipPathUnits="userSpaceOnUse"
       id="clipPath4203">
      <g
         style="font-size:763.125px;font-style:normal;font-variant:normal;font-weight:normal;font-stretch:normal;fill:#000000;fill-opacity:1;stroke:none;font-family:VL Gothic;-inkscape-font-specification:VL Gothic"
         id="g4205">
        <path
           d="m 3036.6073,1792.7129 34.3406,0 c 40.6998,4e-4 70.2073,-7.3765 88.5225,-22.1306 18.8235,-15.2621 28.2353,-38.4102 28.2356,-69.4444 -3e-4,-28.9983 -9.1578,-51.3832 -27.4725,-67.155 -18.3152,-16.2795 -44.2614,-24.4194 -77.8387,-24.42 -18.3152,6e-4 -33.5777,2.0355 -45.7875,6.105 l 0,177.045 m 0,53.4188 0,222.8325 c 18.8236,4.07 41.7173,6.105 68.6812,6.105 64.1023,0 96.1535,-40.6999 96.1538,-122.1 -3e-4,-71.2248 -40.9547,-106.8372 -122.8632,-106.8375 l -41.9718,0 m 227.4112,114.4687 c -3e-4,111.9251 -57.2347,167.8875 -171.7031,167.8875 -40.7002,0 -80.1282,-3.8156 -118.2844,-11.4468 l 0,-549.45 c 38.1562,-7.6307 77.5842,-11.4463 118.2844,-11.4469 104.2935,6e-4 156.4403,45.788 156.4406,137.3625 -3e-4,31.0341 -7.8859,57.2347 -23.6569,78.6019 -15.2628,21.3678 -36.6302,35.6128 -64.1025,42.735 l 0,1.5262 c 29.5073,5.5966 53.9272,21.8765 73.26,48.84 19.8409,26.964 29.7616,58.7608 29.7619,95.3906"
           id="path4207"
           inkscape:connector-curvature="0" />
        <path
           d="m 3440.3004,1724.0317 0,76.3125 1.5262,0 c 31.5424,-55.9621 75.2948,-83.9434 131.2575,-83.9438 18.8235,4e-4 36.6297,2.5442 53.4188,7.6313 l 0,53.4187 c -17.8066,-5.5959 -35.6128,-8.394 -53.4188,-8.3943 -37.139,3e-4 -68.1727,15.5172 -93.1012,46.5506 -24.9289,31.034 -37.3933,71.734 -37.3931,122.1 l 0,183.15 -60.2869,0 0,-396.825 57.9975,0"
           id="path4209"
           inkscape:connector-curvature="0" />
        <path
           d="m 3921.0691,1724.0317 0,344.9325 83.1807,0 0,51.8925 -251.8313,0 0,-51.8925 106.0744,0 0,-293.04 -83.1806,0 0,-51.8925 145.7568,0 m -77.8387,-91.575 0,-91.575 77.8387,0 0,91.575 -77.8387,0"
           id="path4211"
           inkscape:connector-curvature="0" />
        <path
           d="m 4397.2591,1869.0254 0,251.8313 -58.7606,0 0,-238.095 c -3e-4,-44.7697 -5.0878,-74.5316 -15.2625,-89.2856 -10.1752,-15.2622 -28.7446,-22.8934 -55.7081,-22.8938 -25.4377,4e-4 -47.3139,14.2454 -65.6288,42.735 -17.8063,28.4903 -26.7095,66.9009 -26.7093,115.2319 l 0,192.3075 -60.2869,0 0,-396.825 56.4712,0 1.5263,57.2344 1.5262,0 c 9.6662,-19.3322 24.4199,-34.849 44.2613,-46.5507 19.8411,-12.2096 41.2085,-18.3146 64.1025,-18.315 40.191,4e-4 69.1897,11.7017 86.9962,35.1038 18.3147,22.8941 27.4722,62.0678 27.4725,117.5212"
           id="path4213"
           inkscape:connector-curvature="0" />
        <path
           d="m 4481.2029,1922.4442 c -1e-4,-137.3622 44.5155,-206.0434 133.5469,-206.0438 42.226,4e-4 77.0753,21.6223 104.5481,64.8657 l 1.5262,0 1.5263,-57.2344 56.4712,0 0,393.0094 c -3e-4,63.5937 -12.9734,109.3811 -38.9193,137.3625 -25.4378,27.9811 -64.6115,41.9717 -117.5213,41.9718 -36.1214,-10e-5 -71.7339,-6.3595 -106.8375,-19.0781 l 0,-61.05 c 36.1211,18.3149 71.7336,27.4724 106.8375,27.4725 64.1023,-10e-5 96.1535,-42.2263 96.1538,-126.6787 l 0,-61.05 -1.5263,0 c -21.8765,43.2437 -55.9627,64.8656 -102.2587,64.8656 -40.7002,0 -73.2601,-16.7887 -97.68,-50.3663 -23.9113,-33.5774 -35.867,-82.9261 -35.8669,-148.0462 m 60.2869,0 c -1e-4,46.8051 7.8855,82.1632 23.6568,106.0744 16.2799,23.4025 37.9017,35.1038 64.8657,35.1037 26.4547,1e-4 47.8222,-11.4468 64.1025,-34.3406 16.2797,-23.4024 24.4197,-57.743 24.42,-103.0219 l 0,-7.6312 c -3e-4,-46.296 -8.3947,-81.9085 -25.1832,-106.8375 -16.2802,-25.4372 -37.3933,-38.1559 -63.3393,-38.1563 -29.5077,4e-4 -51.6383,11.956 -66.3919,35.8669 -14.7539,23.4028 -22.1307,61.0502 -22.1306,112.9425"
           id="path4215"
           inkscape:connector-curvature="0" />
        <path
           d="m 5065.7566,1724.0317 0,344.9325 83.1807,0 0,51.8925 -251.8313,0 0,-51.8925 106.0744,0 0,-293.04 -83.1806,0 0,-51.8925 145.7568,0 m -77.8387,-91.575 0,-91.575 77.8387,0 0,91.575 -77.8387,0"
           id="path4217"
           inkscape:connector-curvature="0" />
        <path
           d="m 5541.9466,1869.0254 0,251.8313 -58.7606,0 0,-238.095 c -3e-4,-44.7697 -5.0878,-74.5316 -15.2625,-89.2856 -10.1752,-15.2622 -28.7446,-22.8934 -55.7081,-22.8938 -25.4377,4e-4 -47.3139,14.2454 -65.6288,42.735 -17.8063,28.4903 -26.7095,66.9009 -26.7093,115.2319 l 0,192.3075 -60.2869,0 0,-396.825 56.4712,0 1.5263,57.2344 1.5262,0 c 9.6662,-19.3322 24.4199,-34.849 44.2613,-46.5507 19.8411,-12.2096 41.2085,-18.3146 64.1025,-18.315 40.191,4e-4 69.1897,11.7017 86.9962,35.1038 18.3147,22.8941 27.4722,62.0678 27.4725,117.5212"
           id="path4219"
           inkscape:connector-curvature="0" />
        <path
           d="m 3968.3829,2662.6754 -1.5263,0 -67.155,259.4625 -61.05,0 -67.155,-259.4625 -1.5262,0 0,412.0875 -59.5238,0 0,-557.0812 70.2075,0 90.8119,343.4062 1.5263,0 90.8118,-343.4062 67.155,0 0,557.0812 -62.5762,0 0,-412.0875"
           id="path4221"
           inkscape:connector-curvature="0" />
        <path
           d="m 4111.0873,2937.4004 0,-259.4625 58.7606,0 0,245.7263 c -1e-4,42.2263 4.5786,70.2076 13.7362,83.9437 9.6661,13.7363 27.4724,20.6045 53.4188,20.6044 24.9285,10e-5 45.7873,-13.9906 62.5762,-41.9719 17.2973,-27.9811 25.946,-66.6461 25.9463,-115.995 l 0,-192.3075 60.2869,0 0,396.825 -56.4713,0 -1.5262,-57.2343 -1.5263,0 c -9.6665,20.35 -23.9115,36.3756 -42.735,48.0768 -18.8239,11.1925 -39.4283,16.7888 -61.8131,16.7888 -39.1739,0 -67.4095,-10.9381 -84.7069,-32.8144 -17.2976,-21.8762 -25.9463,-59.2693 -25.9462,-112.1794"
           id="path4223"
           inkscape:connector-curvature="0" />
        <path
           d="m 4637.6435,2721.4361 c -48.8401,3e-4 -73.2601,18.5697 -73.26,55.7081 -1e-4,17.2978 5.3418,31.2884 16.0256,41.9719 10.6836,10.1752 29.7617,19.0783 57.2344,26.7093 53.9273,15.2628 89.5397,31.2884 106.8375,48.0769 17.8059,16.7889 26.7091,42.7352 26.7094,77.8388 -3e-4,35.1038 -11.956,62.3219 -35.8669,81.6543 -23.9115,19.3325 -57.7434,28.9988 -101.4956,28.9988 -43.7527,0 -85.7245,-10.175 -125.9156,-30.525 l 0,-61.05 c 39.6824,26.9638 79.1104,40.4457 118.2843,40.4456 56.471,1e-4 84.7066,-19.8412 84.7069,-59.5237 -3e-4,-18.8237 -5.5965,-33.323 -16.7887,-43.4982 -10.684,-10.1748 -32.0515,-19.841 -64.1025,-28.9987 -46.8052,-13.2273 -79.6195,-28.9986 -98.4432,-47.3138 -18.315,-18.3147 -27.4725,-43.2434 -27.4725,-74.7862 0,-33.5772 10.9381,-59.7778 32.8144,-78.6019 22.3849,-18.8233 54.6905,-28.2352 96.9169,-28.2356 42.7347,4e-4 83.4347,8.9035 122.1,26.7094 l 0,57.2343 c -40.1915,-21.8759 -79.6196,-32.814 -118.2844,-32.8143"
           id="path4225"
           inkscape:connector-curvature="0" />
        <path
           d="m 5065.7566,2677.9379 0,344.9325 83.1807,0 0,51.8925 -251.8313,0 0,-51.8925 106.0744,0 0,-293.04 -83.1806,0 0,-51.8925 145.7568,0 m -77.8387,-91.575 0,-91.575 77.8387,0 0,91.575 -77.8387,0"
           id="path4227"
           inkscape:connector-curvature="0" />
        <path
           d="m 5267.2216,2876.3504 c 0,-68.1722 13.9906,-119.5559 41.9719,-154.1512 27.9811,-34.5946 67.4092,-51.8921 118.2844,-51.8925 31.0335,4e-4 62.8303,6.3598 95.3906,19.0781 l 0,61.05 c -30.5253,-16.7884 -61.0502,-25.1828 -91.575,-25.1831 -32.0514,3e-4 -56.9802,12.7191 -74.7862,38.1562 -17.8064,25.4378 -26.7095,63.0853 -26.7094,112.9425 -10e-5,51.3839 9.4117,89.7945 28.2356,115.2319 18.8236,25.4376 44.5154,38.1563 77.0756,38.1563 30.016,0 60.541,-9.1575 91.575,-27.4725 l 0,61.05 c -32.5603,12.7187 -64.3571,19.0781 -95.3906,19.0781 -51.8927,0 -92.3383,-17.0431 -121.3369,-51.1294 -28.49,-34.5949 -42.735,-86.233 -42.735,-154.9144"
           id="path4229"
           inkscape:connector-curvature="0" />
        <path
           d="m 3484.5616,3647.1067 138.1257,0 0,52.6556 -138.1257,0 0,214.4381 c -2e-4,28.4901 4.0698,47.5682 12.21,57.2344 8.6486,9.1576 25.1829,13.7363 49.6032,13.7363 25.4372,0 48.3309,-4.5787 68.6812,-13.7363 l 0,53.4188 c -24.4203,7.6312 -49.8578,11.4468 -76.3125,11.4468 -42.7352,0 -72.497,-8.14 -89.2856,-24.42 -16.7889,-16.7887 -25.1833,-46.8049 -25.1831,-90.0487 l 0,-222.0694 -76.3125,0 0,-52.6556 76.3125,0 0,-144.9938 60.2868,0 0,144.9938"
           id="path4231"
           inkscape:connector-curvature="0" />
        <path
           d="m 3718.0779,3830.2567 c -1e-4,-137.3622 50.8749,-206.0434 152.625,-206.0438 101.7497,4e-4 152.6246,68.6816 152.625,206.0438 -4e-4,137.3626 -50.8753,206.0437 -152.625,206.0437 -101.7501,0 -152.6251,-68.6811 -152.625,-206.0437 m 83.9437,119.0475 c 14.7536,22.8938 37.6474,34.3407 68.6813,34.3406 31.0335,10e-5 53.6729,-11.4468 67.9181,-34.3406 14.7535,-23.4024 22.1304,-63.0849 22.1306,-119.0475 -2e-4,-55.9623 -7.3771,-95.3903 -22.1306,-118.2844 -14.2452,-23.4021 -36.8846,-35.1034 -67.9181,-35.1037 -31.0339,3e-4 -53.9277,11.7016 -68.6813,35.1037 -14.2451,22.8941 -21.3676,62.3221 -21.3675,118.2844 -1e-4,55.9626 7.1224,95.6451 21.3675,119.0475"
           id="path4233"
           inkscape:connector-curvature="0" />
        <path
           d="m 4634.591,3742.4973 1.5263,0 100.7325,-270.9094 64.8656,0 -136.5994,335.775 0,221.3063 -62.5762,0 0,-221.3063 -136.5994,-335.775 68.6812,0 99.9694,270.9094"
           id="path4235"
           inkscape:connector-curvature="0" />
        <path
           d="m 4862.7654,3830.2567 c -1e-4,-137.3622 50.8749,-206.0434 152.625,-206.0438 101.7497,4e-4 152.6246,68.6816 152.625,206.0438 -4e-4,137.3626 -50.8753,206.0437 -152.625,206.0437 -101.7501,0 -152.6251,-68.6811 -152.625,-206.0437 m 83.9437,119.0475 c 14.7536,22.8938 37.6474,34.3407 68.6813,34.3406 31.0335,10e-5 53.6729,-11.4468 67.9181,-34.3406 14.7535,-23.4024 22.1304,-63.0849 22.1306,-119.0475 -2e-4,-55.9623 -7.3771,-95.3903 -22.1306,-118.2844 -14.2452,-23.4021 -36.8846,-35.1034 -67.9181,-35.1037 -31.0339,3e-4 -53.9277,11.7016 -68.6813,35.1037 -14.2451,22.8941 -21.3676,62.3221 -21.3675,118.2844 -10e-5,55.9626 7.1224,95.6451 21.3675,119.0475"
           id="path4237"
           inkscape:connector-curvature="0" />
        <path
           d="m 5255.7748,3891.3067 0,-259.4625 58.7606,0 0,245.7262 c -1e-4,42.2264 4.5786,70.2076 13.7362,83.9438 9.6661,13.7363 27.4724,20.6044 53.4188,20.6044 24.9285,0 45.7873,-13.9906 62.5762,-41.9719 17.2973,-27.9811 25.946,-66.6461 25.9463,-115.995 l 0,-192.3075 60.2869,0 0,396.825 -56.4713,0 -1.5262,-57.2344 -1.5263,0 c -9.6665,20.3501 -23.9115,36.3757 -42.735,48.0769 -18.8239,11.1925 -39.4283,16.7887 -61.8131,16.7887 -39.1739,0 -67.4095,-10.9381 -84.7069,-32.8143 -17.2976,-21.8762 -25.9463,-59.2693 -25.9462,-112.1794"
           id="path4239"
           inkscape:connector-curvature="0" />
        <path
           d="m 5729.6754,3631.8442 0,76.3125 1.5262,0 c 31.5424,-55.9621 75.2948,-83.9434 131.2575,-83.9438 18.8235,4e-4 36.6297,2.5442 53.4188,7.6313 l 0,53.4187 c -17.8066,-5.5959 -35.6128,-8.394 -53.4188,-8.3943 -37.139,3e-4 -68.1727,15.5172 -93.1012,46.5506 -24.9289,31.034 -37.3933,71.734 -37.3931,122.1 l 0,183.15 -60.2869,0 0,-396.825 57.9975,0"
           id="path4241"
           inkscape:connector-curvature="0" />
        <path
           d="m 3737.156,4653.6686 0,-52.6557 91.575,0 0,-45.7875 c -1e-4,-49.857 8.3942,-85.2151 25.1831,-106.0743 16.7886,-20.8582 44.0067,-31.2876 81.6544,-31.2882 22.8935,6e-4 45.7872,3.8162 68.6813,11.4469 l 0,54.945 c -19.3328,-9.157 -38.411,-13.7357 -57.2344,-13.7362 -23.9115,5e-4 -39.6827,6.1055 -47.3138,18.315 -7.1227,11.7017 -10.6839,38.9198 -10.6837,81.6543 l 0,30.525 115.2319,0 0,52.6557 -115.2319,0 0,328.9068 -60.2869,0 0,-328.9068 -91.575,0"
           id="path4243"
           inkscape:connector-curvature="0" />
        <path
           d="m 4302.6316,4585.7504 0,344.9325 83.1807,0 0,51.8925 -251.8313,0 0,-51.8925 106.0744,0 0,-293.04 -83.1806,0 0,-51.8925 145.7568,0 m -77.8387,-91.575 0,-91.575 77.8387,0 0,91.575 -77.8387,0"
           id="path4245"
           inkscape:connector-curvature="0" />
        <path
           d="m 4778.8216,4730.7442 0,251.8312 -58.7606,0 0,-238.095 c -3e-4,-44.7697 -5.0878,-74.5315 -15.2625,-89.2856 -10.1752,-15.2621 -28.7446,-22.8934 -55.7081,-22.8937 -25.4377,3e-4 -47.3139,14.2453 -65.6288,42.735 -17.8063,28.4902 -26.7095,66.9008 -26.7093,115.2318 l 0,192.3075 -60.2869,0 0,-396.825 56.4712,0 1.5263,57.2344 1.5262,0 c 9.6662,-19.3321 24.4199,-34.849 44.2613,-46.5506 19.8411,-12.2096 41.2085,-18.3146 64.1025,-18.315 40.191,4e-4 69.1897,11.7016 86.9962,35.1037 18.3147,22.8941 27.4722,62.0678 27.4725,117.5213"
           id="path4247"
           inkscape:connector-curvature="0" />
        <path
           d="m 4862.7654,4784.1629 c -1e-4,-137.3621 44.5155,-206.0433 133.5469,-206.0437 42.226,4e-4 77.0753,21.6222 104.5481,64.8656 l 1.5262,0 1.5263,-57.2344 56.4712,0 0,393.0094 c -3e-4,63.5937 -12.9734,109.3812 -38.9193,137.3625 -25.4378,27.9811 -64.6115,41.9717 -117.5213,41.9719 -36.1214,-2e-4 -71.7339,-6.3596 -106.8375,-19.0781 l 0,-61.05 c 36.1211,18.3149 71.7336,27.4723 106.8375,27.4725 64.1023,-2e-4 96.1535,-42.2264 96.1538,-126.6788 l 0,-61.05 -1.5263,0 c -21.8765,43.2438 -55.9627,64.8656 -102.2587,64.8656 -40.7002,0 -73.2601,-16.7887 -97.68,-50.3662 -23.9113,-33.5774 -35.867,-82.9261 -35.8669,-148.0463 m 60.2869,0 c -1e-4,46.8052 7.8855,82.1633 23.6568,106.0744 16.2799,23.4026 37.9017,35.1038 64.8657,35.1038 26.4547,0 47.8222,-11.4468 64.1025,-34.3407 16.2797,-23.4023 24.4197,-57.7429 24.42,-103.0218 l 0,-7.6313 c -3e-4,-46.296 -8.3947,-81.9085 -25.1832,-106.8375 -16.2802,-25.4372 -37.3933,-38.1559 -63.3393,-38.1562 -29.5077,3e-4 -51.6383,11.9559 -66.3919,35.8668 -14.7539,23.4028 -22.1307,61.0503 -22.1306,112.9425"
           id="path4249"
           inkscape:connector-curvature="0" />
        <path
           d="m 5311.4829,4804.0042 c 2.0349,47.3139 11.7011,81.4001 28.9987,102.2587 17.2974,20.8588 42.4805,31.2882 75.5494,31.2882 31.0335,0 65.3741,-9.1575 103.0219,-27.4725 l 0,61.05 c -37.6478,12.7187 -73.2603,19.0781 -106.8375,19.0781 -109.3814,0 -164.0719,-68.6812 -164.0719,-206.0438 0,-71.7334 12.7187,-123.8803 38.1563,-156.4406 25.4374,-33.0683 63.5936,-49.6027 114.4687,-49.6031 46.296,4e-4 80.6366,15.7716 103.0219,47.3137 22.8934,31.5429 34.3403,83.1809 34.3406,154.9144 -3e-4,5.5965 -0.5091,13.4821 -1.5262,23.6569 l -225.1219,0 m 0,-50.3663 166.3612,0 c -0.509,-81.9084 -26.2008,-122.8627 -77.0756,-122.8631 -28.9989,4e-4 -50.6208,9.1579 -64.8656,27.4725 -14.2451,18.3153 -22.3851,50.1122 -24.42,95.3906"
           id="path4251"
           inkscape:connector-curvature="0" />
        <path
           d="m 5729.6754,4585.7504 0,76.3125 1.5262,0 c 31.5424,-55.9621 75.2948,-83.9433 131.2575,-83.9437 18.8235,4e-4 36.6297,2.5441 53.4188,7.6312 l 0,53.4188 c -17.8066,-5.5959 -35.6128,-8.394 -53.4188,-8.3944 -37.139,4e-4 -68.1727,15.5172 -93.1012,46.5506 -24.9289,31.0341 -37.3933,71.734 -37.3931,122.1 l 0,183.15 -60.2869,0 0,-396.825 57.9975,0"
           id="path4253"
           inkscape:connector-curvature="0" />
        <path
           d="m 6155.4991,4601.0129 138.1257,0 0,52.6557 -138.1257,0 0,214.4381 c -2e-4,28.4901 4.0698,47.5682 12.21,57.2344 8.6486,9.1575 25.1829,13.7363 49.6032,13.7362 25.4372,1e-4 48.3309,-4.5787 68.6812,-13.7362 l 0,53.4187 c -24.4203,7.6313 -49.8578,11.4469 -76.3125,11.4469 -42.7352,0 -72.497,-8.14 -89.2856,-24.42 -16.7889,-16.7887 -25.1833,-46.8049 -25.1831,-90.0488 l 0,-222.0693 -76.3125,0 0,-52.6557 76.3125,0 0,-144.9937 60.2868,0 0,144.9937"
           id="path4255"
           inkscape:connector-curvature="0" />
        <path
           d="m 6592.0066,4585.7504 0,344.9325 83.1807,0 0,51.8925 -251.8313,0 0,-51.8925 106.0744,0 0,-293.04 -83.1806,0 0,-51.8925 145.7568,0 m -77.8387,-91.575 0,-91.575 77.8387,0 0,91.575 -77.8387,0"
           id="path4257"
           inkscape:connector-curvature="0" />
        <path
           d="m 6840.0223,4925.3411 -1.5263,0 0,225.1218 -60.2869,0 0,-564.7125 56.4713,0 1.5262,57.2344 1.5263,0 c 27.4723,-43.2434 62.3217,-64.8652 104.5481,-64.8656 89.031,4e-4 133.5465,68.6816 133.5469,206.0437 -4e-4,68.6814 -12.2104,120.3195 -36.63,154.9144 -24.4203,34.0863 -56.7259,51.1294 -96.9169,51.1294 -46.2964,0 -80.3826,-21.6219 -102.2587,-64.8656 m 175.5187,-141.1782 c -3e-4,-99.2059 -29.5077,-148.809 -88.5225,-148.8093 -25.9464,3e-4 -47.3139,12.719 -64.1025,38.1562 -16.2801,24.929 -24.4201,60.5415 -24.42,106.8375 l 0,7.6313 c -1e-4,46.2964 8.1399,82.1632 24.42,107.6006 16.7886,24.9288 38.1561,37.3932 64.1025,37.3931 26.9635,10e-5 48.331,-12.2099 64.1025,-36.63 16.2797,-24.9286 24.4197,-62.3217 24.42,-112.1794"
           id="path4259"
           inkscape:connector-curvature="0" />
        <path
           d="m 7308.581,4629.2486 c -48.8401,3e-4 -73.2601,18.5697 -73.26,55.7081 -1e-4,17.2978 5.3418,31.2884 16.0256,41.9719 10.6836,10.1752 29.7617,19.0783 57.2344,26.7093 53.9273,15.2628 89.5397,31.2884 106.8375,48.0769 17.8059,16.7889 26.7091,42.7352 26.7094,77.8388 -3e-4,35.1038 -11.956,62.3219 -35.8669,81.6543 -23.9115,19.3325 -57.7434,28.9988 -101.4956,28.9988 -43.7527,0 -85.7245,-10.175 -125.9156,-30.525 l 0,-61.05 c 39.6824,26.9638 79.1104,40.4457 118.2843,40.4456 56.471,1e-4 84.7066,-19.8412 84.7069,-59.5237 -3e-4,-18.8237 -5.5965,-33.323 -16.7887,-43.4982 -10.684,-10.1748 -32.0515,-19.841 -64.1025,-28.9987 -46.8052,-13.2273 -79.6195,-28.9986 -98.4432,-47.3138 -18.315,-18.3147 -27.4725,-43.2434 -27.4725,-74.7862 0,-33.5772 10.9381,-59.7778 32.8144,-78.6019 22.3849,-18.8233 54.6905,-28.2352 96.9169,-28.2356 42.7347,4e-4 83.4347,8.9035 122.1,26.7094 l 0,57.2343 c -40.1915,-21.8759 -79.6196,-32.814 -118.2844,-32.8143"
           id="path4261"
           inkscape:connector-curvature="0" />
      </g>
    </clipPath>
  </defs>
  <sodipodi:namedview
     id="base"
     pagecolor="#ffffff"
     bordercolor="#666666"
     borderopacity="1.0"
     inkscape:pageopacity="0.0"
     inkscape:pageshadow="2"
     inkscape:zoom="0.70710678"
     inkscape:cx="-104.17374"
     inkscape:cy="407.49704"
     inkscape:current-layer="layer1"
     inkscape:document-units="px"
     showgrid="false"
     inkscape:window-width="1855"
     inkscape:window-height="1056"
     inkscape:window-x="65"
     inkscape:window-y="24"
     inkscape:window-maximized="1" />
  <metadata
     id="metadata4325">
    <rdf:RDF>
      <cc:Work
         rdf:about="">
        <dc:format>image/svg+xml</dc:format>
        <dc:type
           rdf:resource="http://purl.org/dc/dcmitype/StillImage" />
        <dc:title />
      </cc:Work>
    </rdf:RDF>
  </metadata>
  <g
     id="layer1"
     inkscape:label="Layer 1"
     inkscape:groupmode="layer"
     transform="translate(0,32)">
    <g
       transform="matrix(1.8530011,0,0,1.8530011,-445.78274,-777.06659)"
       id="g3558">
      <rect
         ry="20.706022"
         rx="0"
         y="574.97766"
         x="240.29074"
         height="38.368282"
         width="276.87381"
         id="rect5854"
         style="fill:#9c9386;fill-opacity:0;stroke:none" />
      <path
         inkscape:connector-curvature="0"
         id="path3773-6"
         d="m 312.83413,462.23883 c -31.35345,31.35345 -35.66792,79.48002 -12.99309,115.47938 l -4.35312,4.35312 c 3.60184,5.39848 7.78681,10.52686 12.55114,15.29119 l 7.07107,-7.07107 c -35.14719,-35.14719 -35.14719,-92.13203 0,-127.27922 35.14719,-35.14719 92.13203,-35.14719 127.27922,0 35.14719,35.14719 35.14719,92.13203 0,127.27922 l 7.07107,7.07107 c 4.76404,-4.76404 8.92734,-9.87097 12.52904,-15.26909 l -4.37522,-4.37522 c 22.67484,-35.99936 18.36036,-84.12593 -12.99309,-115.47938 -36.38976,-36.38977 -95.39726,-36.38977 -131.78702,0 z"
         style="fill:#ffa123;fill-opacity:1;stroke:#ffa123;stroke-width:2.15866041;stroke-miterlimit:4;stroke-opacity:1;stroke-dasharray:none" />
      <g
         transform="translate(13.999233,2.3543035)"
         id="text3821"
         style="font-size:40px;font-style:normal;font-weight:normal;line-height:125%;letter-spacing:0px;word-spacing:0px;fill:#33ccff;fill-opacity:1;stroke:none;font-family:Sans">
        <path
           inkscape:connector-curvature="0"
           id="path2999"
           style="fill:#33ccff;fill-opacity:1"
           d="m 264.95488,579.80554 c -2.03126,3e-5 -3.56121,1.00263 -4.58984,3.00781 -1.01564,1.99221 -1.52345,4.99351 -1.52344,9.00391 -1e-5,3.99741 0.5078,6.99871 1.52344,9.00391 1.02863,1.99219 2.55858,2.98828 4.58984,2.98828 2.04426,0 3.5742,-0.99609 4.58984,-2.98828 1.02863,-2.0052 1.54295,-5.0065 1.54297,-9.00391 -2e-5,-4.0104 -0.51434,-7.0117 -1.54297,-9.00391 -1.01564,-2.00518 -2.54558,-3.00778 -4.58984,-3.00781 m 0,-3.125 c 3.26821,3e-5 5.7617,1.2956 7.48047,3.88672 1.73175,2.57815 2.59763,6.32815 2.59765,11.25 -2e-5,4.90886 -0.8659,8.65886 -2.59765,11.25 -1.71877,2.57813 -4.21226,3.86719 -7.48047,3.86719 -3.26824,0 -5.76824,-1.28906 -7.5,-3.86719 -1.71875,-2.59114 -2.57813,-6.34114 -2.57813,-11.25 0,-4.92185 0.85938,-8.67185 2.57813,-11.25 1.73176,-2.59112 4.23176,-3.88669 7.5,-3.88672" />
      </g>
      <g
         transform="translate(9.3328206,2.3543035)"
         id="text3825"
         style="font-size:40px;font-style:normal;font-weight:normal;line-height:125%;letter-spacing:0px;word-spacing:0px;fill:#33ccff;fill-opacity:1;stroke:none;font-family:Sans">
        <path
           inkscape:connector-curvature="0"
           id="path3011"
           style="fill:#33ccff;fill-opacity:1"
           d="m 460.3129,603.06726 6.44531,0 0,-22.24609 -7.01172,1.40625 0,-3.59375 6.97266,-1.40625 3.94531,0 0,25.83984 6.44531,0 0,3.32031 -16.79687,0 0,-3.32031" />
        <path
           inkscape:connector-curvature="0"
           id="path3013"
           style="fill:#33ccff;fill-opacity:1"
           d="m 485.78165,603.06726 6.44531,0 0,-22.24609 -7.01172,1.40625 0,-3.59375 6.97266,-1.40625 3.94531,0 0,25.83984 6.44531,0 0,3.32031 -16.79687,0 0,-3.32031" />
      </g>
      <path
         inkscape:connector-curvature="0"
         id="path3829"
         d="m 378.71202,443.75 c -20.20855,0 -40.3939,7.70639 -55.8125,23.125 -30.83722,30.83722 -30.83722,80.81903 0,111.65625 30.83721,30.83721 80.81903,30.83722 111.65625,0 30.83721,-30.83721 30.83721,-80.81904 0,-111.65625 -15.41861,-15.41861 -35.6352,-23.125 -55.84375,-23.125 z m -52.125,28.3125 7.53125,0 7.75,44.34375 7.71875,-44.34375 7.5625,0 -10.8125,60.09375 -8.96875,0 -10.78125,-60.09375 z m 34.40625,0 7.5,0 0,36.03125 c -10e-6,4.96387 0.40624,8.50974 1.1875,10.65625 0.79426,2.11971 2.09113,3.18751 3.875,3.1875 1.79686,10e-6 3.06248,-1.06779 3.84375,-3.1875 0.79425,-2.14651 1.21873,-5.69238 1.21875,-10.65625 l 0,-36.03125 7.5,0 0,36.03125 c -3e-5,8.50564 -1.02347,14.84111 -3.09375,19 -2.07034,4.1589 -5.22398,6.21875 -9.46875,6.21875 -4.23178,0 -7.39845,-2.05985 -9.46875,-6.21875 -2.07032,-4.15889 -3.09375,-10.49436 -3.09375,-19 l 0,-36.03125 z m 48.84375,46.34375 c 1.2384,-0.0128 2.72812,0.17847 4.5,0.65625 14.17503,3.82226 3.19141,12.62542 6.96875,26.8125 3.77732,14.18706 17.6477,16.35394 7.25,26.71875 -10.39773,10.36478 -12.51247,-3.52149 -26.6875,-7.34375 -14.17503,-3.82227 -23.00391,7.09333 -26.78125,-7.09375 -3.77732,-14.18707 9.32106,-9.07269 19.71875,-19.4375 9.09801,-9.06918 6.36243,-20.2231 15.03125,-20.3125 z"
         style="fill:#33ccff;fill-opacity:1;stroke:none" />
      <g
         id="text3541"
         style="font-size:40px;font-style:normal;font-weight:normal;line-height:125%;letter-spacing:0px;word-spacing:0px;fill:#33ccff;fill-opacity:1;stroke:none;font-family:Sans">
        <path
           inkscape:connector-curvature="0"
           id="path3546"
           d="m 308.88388,646.04779 -11.13281,-29.16016 4.12109,0 9.23828,24.55079 9.25782,-24.55079 4.10156,0 -11.11328,29.16016 -4.47266,0" />
        <path
           inkscape:connector-curvature="0"
           id="path3548"
           d="m 325.44638,637.41498 0,-13.24219 3.59375,0 0,13.10547 c -10e-6,2.07032 0.40364,3.62631 1.21094,4.66797 0.80728,1.02865 2.01822,1.54297 3.63281,1.54297 1.94009,0 3.47004,-0.61849 4.58984,-1.85547 1.1328,-1.23698 1.6992,-2.92317 1.69922,-5.0586 l 0,-12.40234 3.59375,0 0,21.875 -3.59375,0 0,-3.35937 c -0.87241,1.32812 -1.88803,2.3177 -3.04687,2.96875 -1.14585,0.63802 -2.48048,0.95703 -4.00391,0.95703 -2.51303,0 -4.42058,-0.78125 -5.72265,-2.34375 -1.30209,-1.5625 -1.95313,-3.84765 -1.95313,-6.85547 m 9.04297,-13.76953 0,0" />
        <path
           inkscape:connector-curvature="0"
           id="path3550"
           d="m 351.36435,616.88763 3.94531,0 0,12.32422 13.08594,-12.32422 5.07812,0 -14.47265,13.59375 15.50781,15.56641 -5.19531,0 -14.00391,-14.04297 0,14.04297 -3.94531,0 0,-29.16016" />
        <path
           inkscape:connector-curvature="0"
           id="path3552"
           d="m 377.61435,616.88763 5.3125,0 12.92969,24.39454 0,-24.39454 3.82812,0 0,29.16016 -5.3125,0 -12.92969,-24.39453 0,24.39453 -3.82812,0 0,-29.16016" />
        <path
           inkscape:connector-curvature="0"
           id="path3554"
           d="m 419.37216,619.56342 c -2.86459,2e-5 -5.14324,1.06773 -6.83594,3.20312 -1.67969,2.13544 -2.51953,5.04559 -2.51953,8.73047 0,3.67189 0.83984,6.57553 2.51953,8.71094 1.6927,2.13542 3.97135,3.20312 6.83594,3.20312 2.86457,0 5.13019,-1.0677 6.79688,-3.20312 1.67966,-2.13541 2.5195,-5.03905 2.51953,-8.71094 -3e-5,-3.68488 -0.83987,-6.59503 -2.51953,-8.73047 -1.66669,-2.13539 -3.93231,-3.2031 -6.79688,-3.20312 m 0,-3.20313 c 4.08852,3e-5 7.35675,1.37373 9.80469,4.12109 2.44789,2.7344 3.67185,6.40627 3.67187,11.01563 -2e-5,4.59636 -1.22398,8.26823 -3.67187,11.01562 -2.44794,2.73438 -5.71617,4.10157 -9.80469,4.10157 -4.10157,0 -7.38282,-1.36719 -9.84375,-4.10157 -2.44792,-2.73436 -3.67188,-6.40624 -3.67187,-11.01562 -10e-6,-4.60936 1.22395,-8.28123 3.67187,-11.01563 2.46093,-2.74736 5.74218,-4.12106 9.84375,-4.12109" />
        <path
           inkscape:connector-curvature="0"
           id="path3556"
           d="m 442.96591,632.12201 0,10.68359 6.32813,0 c 2.12238,10e-6 3.69139,-0.43619 4.70703,-1.30859 1.02862,-0.88541 1.54295,-2.23307 1.54297,-4.04297 -2e-5,-1.82291 -0.51435,-3.16405 -1.54297,-4.02344 -1.01564,-0.87238 -2.58465,-1.30858 -4.70703,-1.30859 l -6.32813,0 m 0,-11.99219 0,8.78906 5.83985,0 c 1.92706,2e-5 3.35935,-0.35805 4.29687,-1.07421 0.9505,-0.72915 1.42576,-1.83592 1.42578,-3.32032 -2e-5,-1.47133 -0.47528,-2.57159 -1.42578,-3.30078 -0.93752,-0.72914 -2.36981,-1.09372 -4.29687,-1.09375 l -5.83985,0 m -3.94531,-3.24219 10.07812,0 c 3.0078,3e-5 5.32551,0.62503 6.95313,1.875 1.62758,1.25003 2.44138,3.02737 2.44141,5.33204 -3e-5,1.78387 -0.41669,3.20314 -1.25,4.25781 -0.83336,1.0547 -2.05732,1.71225 -3.67188,1.97265 1.94008,0.41669 3.44399,1.28908 4.51172,2.61719 1.0807,1.31512 1.62107,2.96225 1.62109,4.94141 -2e-5,2.60417 -0.88544,4.61589 -2.65625,6.03515 -1.77085,1.41928 -4.29038,2.12891 -7.55859,2.12891 l -10.46875,0 0,-29.16016" />
      </g>
    </g>
  </g>
</svg>
