<?xml version="1.0" encoding="UTF-8" standalone="no"?>
<!-- Created with Inkscape (http://www.inkscape.org/) -->

<svg
   xmlns:dc="http://purl.org/dc/elements/1.1/"
   xmlns:cc="http://creativecommons.org/ns#"
   xmlns:rdf="http://www.w3.org/1999/02/22-rdf-syntax-ns#"
   xmlns:svg="http://www.w3.org/2000/svg"
   xmlns="http://www.w3.org/2000/svg"
   xmlns:sodipodi="http://sodipodi.sourceforge.net/DTD/sodipodi-0.dtd"
   xmlns:inkscape="http://www.inkscape.org/namespaces/inkscape"
   width="1080"
   height="1400"
   id="svg4320"
   version="1.1"
   inkscape:version="0.48.4 r9939"
   sodipodi:docname="logoScreen.svg">
  <metadata
     id="metadata3473">
    <rdf:RDF>
      <cc:Work
         rdf:about="">
        <dc:format>image/svg+xml</dc:format>
        <dc:type
           rdf:resource="http://purl.org/dc/dcmitype/StillImage" />
      </cc:Work>
    </rdf:RDF>
  </metadata>
  <sodipodi:namedview
     pagecolor="#ffa123"
     bordercolor="#666666"
     borderopacity="1"
     objecttolerance="10"
     gridtolerance="10"
     guidetolerance="10"
     inkscape:pageopacity="1"
     inkscape:pageshadow="2"
     inkscape:window-width="1855"
     inkscape:window-height="1056"
     id="namedview3471"
     showgrid="false"
     inkscape:zoom="0.62366818"
     inkscape:cx="231.32007"
     inkscape:cy="677.78716"
     inkscape:window-x="65"
     inkscape:window-y="24"
     inkscape:window-maximized="1"
     inkscape:current-layer="layer1" />
  <defs
     id="defs4322">
    <marker
       inkscape:stockid="Arrow1Lend"
       orient="auto"
       refY="0.0"
       refX="0.0"
       id="Arrow1Lend"
       style="overflow:visible;">
      <path
         id="path4818"
         d="M 0.0,0.0 L 5.0,-5.0 L -12.5,0.0 L 5.0,5.0 L 0.0,0.0 z "
         style="fill-rule:evenodd;stroke:#000000;stroke-width:1.0pt;"
         transform="scale(0.8) rotate(180) translate(12.5,0)" />
    </marker>
    <linearGradient
       id="linearGradient5442">
      <stop
         style="stop-color:#000000;stop-opacity:1;"
         offset="0"
         id="stop5444" />
      <stop
         style="stop-color:#d2d2d2;stop-opacity:1;"
         offset="1"
         id="stop5446" />
    </linearGradient>
  </defs>
  <g
     id="layer1"
     inkscape:label="Layer 1"
     inkscape:groupmode="layer"
     transform="translate(0,920)">
    <path
       style="fill:#ffffff;fill-opacity:1;stroke:none"
       d="M 906.03125,17.90625 934.75,37.0625 l -64.8125,77.4063 -10.46875,-8.7813 56.25,-67.1875 -16,-13.0625 6.3125,-7.53125 z"
       id="path4595" />
    <path
       style="fill:#ffffff;fill-opacity:1;stroke:none"
       d="M 967.28125,69.15625 996,88.3125 l -64.8125,77.4063 -10.46875,-8.75 56.25,-67.2188 -16,-13.03125 6.3125,-7.5625 z"
       id="rect4586" />
    <g
       id="g3013"
       transform="translate(48.102502,1224.0408)">
      <path
         transform="matrix(0.99172556,0,0,0.99172556,739.85877,-1192.4537)"
         d="m -580.49888,369.38776 c 0,45.71064 -37.0558,82.76644 -82.76644,82.76644 -45.71064,0 -82.76644,-37.0558 -82.76644,-82.76644 0,-45.71065 37.0558,-82.76644 82.76644,-82.76644 45.71064,0 82.76644,37.05579 82.76644,82.76644 z"
         sodipodi:ry="82.766441"
         sodipodi:rx="82.766441"
         sodipodi:cy="369.38776"
         sodipodi:cx="-663.26532"
         id="path3923-5"
         style="fill:#000000;fill-opacity:0.32876713;stroke:none"
         sodipodi:type="arc" />
      <g
         inkscape:label="#g3977"
         id="google">
        <path
           sodipodi:type="arc"
           style="fill:#ff0000;fill-opacity:1;stroke:none"
           id="path3923"
           sodipodi:cx="-663.26532"
           sodipodi:cy="369.38776"
           sodipodi:rx="82.766441"
           sodipodi:ry="82.766441"
           d="m -580.49888,369.38776 c 0,45.71064 -37.0558,82.76644 -82.76644,82.76644 -45.71064,0 -82.76644,-37.0558 -82.76644,-82.76644 0,-45.71065 37.0558,-82.76644 82.76644,-82.76644 45.71064,0 82.76644,37.05579 82.76644,82.76644 z"
           transform="matrix(0.99172556,0,0,0.99172556,739.85877,-1204.2497)" />
        <path
           inkscape:connector-curvature="0"
           style="fill:#ffffff;fill-opacity:1;stroke:#000000;stroke-width:6.55495262;stroke-linecap:round;stroke-linejoin:round;stroke-miterlimit:4;stroke-opacity:0;stroke-dasharray:none"
           d="m 72.40625,333 c 9.724729,-0.013 18.8125,0.2308 18.8125,0.75 0,1.1234 -1.796236,2.4627 -4.0625,3 -1.17826,0.2794 -4.101289,0.8058 -6.46875,1.1562 -4.674075,0.692 -5.371462,1.0112 -4.03125,1.8126 6.241564,3.7318 8.287809,7.7721 8.875,17.5937 0.381242,6.3766 -0.317126,10.6407 -2.40625,15 -1.624043,3.3888 -4.450095,6.5387 -10.96875,12.25 -3.804807,3.3335 -4.796275,5.4819 -3.71875,8.0625 0.87887,2.1049 1.796622,3.0459 7.34375,7.625 11.753282,9.7022 15.452273,15.8441 15.4375,25.5625 -0.01316,8.5927 -2.275247,14.3234 -7.84375,19.9375 -5.345704,5.3895 -12.360955,8.6465 -22.3125,10.3438 -4.990453,0.8509 -16.688377,0.8712 -21.3125,0.031 -16.443469,-2.9871 -25.562818,-11.7222 -25.59375,-24.5312 -0.02595,-10.728 5.779112,-18.0525 17.90625,-22.5938 5.363201,-2.0084 9.612713,-2.8456 17.6875,-3.5 l 6.75,-0.5625 -0.40625,-1.4063 c -0.219937,-0.7668 -1.231153,-2.2431 -2.25,-3.2812 L 52,398.375 l 0,-3.9688 0,-3.9374 -4.5,-0.3126 c -8.504319,-0.5597 -14.861012,-3.0787 -19.1875,-7.625 -3.2714,-3.4376 -4.756803,-6.0653 -5.875,-10.4374 -1.126646,-4.4052 -1.228364,-11.5921 -0.21875,-15.875 2.670867,-11.3308 12.517735,-19.3298 27.5625,-22.4063 2.555035,-0.5225 12.900271,-0.8 22.625,-0.8125 z"
           id="path3931"
           transform="matrix(0.70982435,0,0,0.70982435,29.906241,-1115.7402)" />
        <path
           inkscape:connector-curvature="0"
           style="fill:#ffffff;fill-opacity:1;stroke:#000000;stroke-width:6.55495262;stroke-linecap:round;stroke-linejoin:round;stroke-miterlimit:4;stroke-opacity:0;stroke-dasharray:none"
           d="m 124.46875,333.063 3.6875,0 3.6875,0 0,12.0313 0,11.9687 12.125,0.125 12.125,0.125 0,3.4687 0,3.4688 -12,0.2188 -12,0.2187 -0.125,11.9063 -0.125,11.875 -3.6875,0 -3.6875,0 0,-12 0,-12 -12,0 -12,0 0,-3.6876 0,-3.6874 12,0 12,0 0,-12 0,-12.0313 z"
           id="path3929"
           transform="matrix(0.70982435,0,0,0.70982435,29.906241,-1115.7402)" />
        <path
           inkscape:connector-curvature="0"
           style="fill:#ff0000;fill-opacity:1;stroke:#000000;stroke-width:6.55495262;stroke-linecap:round;stroke-linejoin:round;stroke-miterlimit:4;stroke-opacity:0;stroke-dasharray:none"
           d="m 49.9375,339.7193 c -1.663331,0.01 -3.208988,0.2977 -4.28125,0.875 -3.822904,2.058 -6.463517,5.6762 -7.8125,10.7187 -0.824256,3.0811 -0.777272,9.4605 0.09375,13.1563 2.023798,8.5867 7.870753,15.6918 14.65625,17.8124 2.605264,0.8143 3.861274,0.7954 6.75,-0.062 5.001118,-1.4852 8.81176,-6.8614 9.75,-13.7188 1.500732,-10.9684 -4.251844,-23.2185 -12.90625,-27.4688 -1.776207,-0.8723 -4.111478,-1.324 -6.25,-1.3124 z"
           id="path3927"
           transform="matrix(0.70982435,0,0,0.70982435,29.906241,-1115.7402)" />
        <path
           inkscape:connector-curvature="0"
           style="fill:#ff0000;fill-opacity:1;stroke:#000000;stroke-width:6.55495262;stroke-linecap:round;stroke-linejoin:round;stroke-miterlimit:4;stroke-opacity:0;stroke-dasharray:none"
           d="m 55.21875,410.9067 c -8.890271,0 -15.73896,2.553 -21.03125,7.8126 -3.702918,3.6799 -4.999875,6.3729 -5.21875,10.9374 -0.144547,3.013 0.0066,3.9298 0.96875,6.0313 2.828987,6.1793 9.249632,10.3749 18.1875,11.875 9.542556,1.6017 21.481107,-2.0654 27.125,-8.3125 0.897891,-0.9939 2.205166,-2.8766 2.90625,-4.2188 1.096314,-2.0988 1.271555,-3.0312 1.28125,-6.4062 0.01357,-4.8135 -1.013492,-7.2322 -4.625,-10.8438 -4.603671,-4.6037 -11.062516,-6.8703 -19.59375,-6.875 z"
           id="pathX2132"
           transform="matrix(0.70982435,0,0,0.70982435,29.906241,-1115.7402)" />
      </g>
    </g>
    <g
       id="start"
       inkscape:label="#g3990"
       transform="translate(-48.102502,8.6686669e-8)">
      <path
         transform="matrix(0.99172556,0,0,0.99172556,1655.6956,31.587125)"
         d="m -580.49888,369.38776 c 0,45.71064 -37.0558,82.76644 -82.76644,82.76644 -45.71064,0 -82.76644,-37.0558 -82.76644,-82.76644 0,-45.71065 37.0558,-82.76644 82.76644,-82.76644 45.71064,0 82.76644,37.05579 82.76644,82.76644 z"
         sodipodi:ry="82.766441"
         sodipodi:rx="82.766441"
         sodipodi:cy="369.38776"
         sodipodi:cx="-663.26532"
         id="path3923-5-5"
         style="fill:#000000;fill-opacity:0.32941176;stroke:none"
         sodipodi:type="arc" />
      <path
         transform="matrix(0.99172556,0,0,0.99172556,1655.6956,19.7911)"
         d="m -580.49888,369.38776 c 0,45.71064 -37.0558,82.76644 -82.76644,82.76644 -45.71064,0 -82.76644,-37.0558 -82.76644,-82.76644 0,-45.71065 37.0558,-82.76644 82.76644,-82.76644 45.71064,0 82.76644,37.05579 82.76644,82.76644 z"
         sodipodi:ry="82.766441"
         sodipodi:rx="82.766441"
         sodipodi:cy="369.38776"
         sodipodi:cx="-663.26532"
         id="path3923-52"
         style="fill:#33ccff;fill-opacity:1;stroke:none"
         sodipodi:type="arc" />
      <path
         inkscape:connector-curvature="0"
         id="path5443"
         transform="translate(-5.4252957,-924.87762)"
         d="m 1004.0938,1270.1562 16.1874,33.625 -87.49995,0 0,14.4376 87.71875,0 -16.75,33.625 70.1562,-39.6563 -69.8124,-42.0313 z"
         style="fill:#ffffff;fill-opacity:1;fill-rule:evenodd;stroke:none" />
    </g>
    <path
       inkscape:connector-curvature="0"
       style="fill:#ffffff;fill-opacity:1;stroke:#ffffff;stroke-width:1.55675161000000006;stroke-miterlimit:4;stroke-opacity:1;stroke-dasharray:none"
       d="m 320.53125,681.09375 c -9.00175,9e-5 -16.38311,3.15808 -22.03125,9.40625 -5.61284,6.24832 -8.375,14.04752 -8.375,23.4375 l 0,13.65625 c 0,9.42538 2.76216,17.31833 8.375,23.53125 5.64814,6.21295 13.0295,9.3125 22.03125,9.3125 9.31937,0 16.86281,-3.09955 22.6875,-9.3125 5.85988,-6.21292 8.74994,-14.10587 8.75,-23.53125 l 0,-13.65625 c -6e-5,-9.42529 -2.89012,-17.22448 -8.75,-23.4375 -5.82469,-6.24817 -13.36813,-9.40616 -22.6875,-9.40625 z m -173.875,1.125 0,77.09375 10.4375,0 0,-34.8125 8.96875,0 27.9375,34.8125 12.4375,0 0.1875,-0.28125 -32.09375,-39.53125 29.9375,-37 -0.1875,-0.28125 -11.59375,0 -27.59375,34.09375 -8,0 0,-34.09375 -10.4375,0 z m 69.65625,0 0,77.09375 10.46875,0 0,-59.46875 0.28125,-0.1875 37.15625,59.65625 10.46875,0 0,-77.09375 -10.46875,0 0,59.40625 -0.375,0.0937 -37.09375,-59.5 -10.4375,0 z m 151.28125,0 0,77.09375 28.4375,0 c 7.83676,0 14.07115,-1.82465 18.625,-5.53125 4.58906,-3.74187 6.87494,-9.15854 6.875,-16.21875 -6e-5,-4.73028 -1.34843,-8.93456 -4.03125,-12.5 -2.64761,-3.56535 -6.27783,-5.79281 -10.9375,-6.78125 3.56535,-1.30609 6.37379,-3.34834 8.5625,-6.03125 2.18862,-2.71813 3.31244,-5.7945 3.3125,-9.21875 -6e-5,-6.9542 -2.22749,-12.0717 -6.78125,-15.53125 -4.55388,-3.49471 -10.88894,-5.28116 -18.9375,-5.28125 l -25.125,0 z m -47.0625,7.4375 c 6.42469,6e-5 11.53121,2.2628 15.34375,6.78125 3.81245,4.51857 5.74994,10.34613 5.75,17.40625 l 0,13.75 c -6e-5,7.16612 -1.93755,13.07527 -5.75,17.59375 -3.77724,4.48324 -8.88375,6.6875 -15.34375,6.6875 -6.0718,0 -10.95779,-2.26274 -14.59375,-6.78125 -3.60071,-4.51851 -5.375,-10.36918 -5.375,-17.5 l 0,-13.75 c 0,-7.06012 1.77429,-12.88768 5.375,-17.40625 3.63596,-4.51845 8.52195,-6.78119 14.59375,-6.78125 z m 57.5,0.75 14.6875,0 c 4.94208,9e-5 8.7002,1.04233 11.3125,3.125 2.64752,2.04752 4.03119,5.14706 4.03125,9.3125 -6e-5,3.81254 -1.22056,6.78419 -3.65625,8.9375 -2.43581,2.1181 -5.61694,3.21881 -9.5,3.21875 l -16.875,0 0,-24.59375 z m 0,32.78125 19.59375,0 c 4.58906,6e-5 7.96754,1.26681 10.15625,3.84375 2.22389,2.577 3.31244,6.13777 3.3125,10.65625 -6e-5,4.30671 -1.32123,7.60358 -3.96875,9.96875 -2.64761,2.32987 -6.36347,3.46875 -11.09375,3.46875 l -18,0 0,-27.9375 z"
       id="path3924"
       transform="matrix(1.9270898,0,0,1.9270898,-111.07082,-1292.4827)" />
    <path
       style="fill:#ffffff;fill-opacity:1;stroke:none"
       d="m 51.3125,706.5625 15.84375,57.3125 5.84375,0 15.65625,-57.3125 -7.90625,0 -9.78125,40.40625 -0.75,4.03125 -0.25,0 -0.65625,-4.03125 -10.0625,-40.40625 -7.9375,0 z m 44.21875,0 0,33.78125 c -5e-6,8.43693 1.281252,14.66726 3.875,18.65625 2.59373,3.989 6.20644,5.96875 10.84375,5.96875 2.75092,0 5.18527,-0.84086 7.28125,-2.5 2.09592,-1.65914 3.82005,-4.02257 5.15625,-7.09375 l 0.5,8.5 6.96875,0 0,-57.3125 -7.75,0 0,41.3125 c -0.91701,2.75348 -2.28602,4.88832 -4.09375,6.40625 -1.78159,1.48265 -4.03034,2.21876 -6.78125,2.21875 -2.82955,10e-6 -4.91385,-1.14293 -6.25,-3.4375 -1.33618,-2.29454 -2.00001,-6.48668 -2,-12.59375 l 0,-33.90625 -7.75,0 z"
       id="path3912"
       inkscape:connector-curvature="0"
       transform="matrix(1.1863889,0,0,1.3780332,-14.663961,-878.31309)" />
    <path
       style="font-size:medium;font-style:normal;font-variant:normal;font-weight:normal;font-stretch:normal;text-indent:0;text-align:start;text-decoration:none;line-height:normal;letter-spacing:normal;word-spacing:normal;text-transform:none;direction:ltr;block-progression:tb;writing-mode:lr-tb;text-anchor:start;baseline-shift:baseline;color:#000000;fill:#ffffff;fill-opacity:1;stroke:none;stroke-width:10;marker:none;visibility:visible;display:inline;overflow:visible;enable-background:accumulate;font-family:Sans;-inkscape-font-specification:Sans"
       d="m 554.60737,279.92603 c -47.38711,4.91062 -80.12072,28.9816 -107.07612,72.79272 l 8.5,5.25 c 25.77502,-41.89262 60.55325,-66.9375 98.34375,-66.9375 37.79051,0 72.56873,25.04489 98.34375,66.9375 25.77502,41.89261 42.11869,100.31581 42.625,165.09375 l 29.95062,-1.6383 C 724.77533,455.01702 697.14168,390.10591 670.18628,346.2948 643.23088,302.48369 596.58257,275.57624 554.60737,279.92603 z"
       id="path2985-0-3"
       inkscape:connector-curvature="0"
       transform="matrix(1.1980209,1.5094439,-1.5094439,1.1980209,738.10202,-1696.8486)"
       sodipodi:nodetypes="sccssccss" />
    <g
       id="knobBody"
       inkscape:label="#g4576">
      <path
         transform="matrix(1.9270898,0,0,1.9270898,-153.89722,-1191.2567)"
         inkscape:connector-curvature="0"
         id="path2985-0"
         d="m 361.78125,218.78125 -231.875,183.15625 60.59375,148 c 0.41994,1.10605 0.87554,2.19933 1.34375,3.28125 0.0856,0.19776 0.1628,0.39681 0.25,0.59375 2.5458,5.7495 5.76739,11.14649 9.71875,16.125 40.83245,51.44676 142.58564,38.69672 227.25,-28.5 84.66436,-67.19672 120.20745,-163.39699 79.375,-214.84375 -4.0062,-5.0476 -8.61367,-9.46069 -13.71875,-13.28125 l 0.34375,-0.25 -133.28125,-94.28125 z"
         style="fill:#ffffff;fill-opacity:1;stroke:#ffa123;stroke-width:10.37834355;stroke-miterlimit:4;stroke-opacity:1;stroke-dasharray:none" />
      <path
         transform="matrix(1.1980209,1.5094439,-1.5094439,1.1980209,867.40085,-776.69178)"
         inkscape:transform-center-x="-15.357143"
         d="m 267.14286,279.50504 -92.14285,53.1987 0,-106.39741 z"
         inkscape:randomized="0"
         inkscape:rounded="0"
         inkscape:flatsided="true"
         sodipodi:arg2="1.0471976"
         sodipodi:arg1="0"
         sodipodi:r2="30.714287"
         sodipodi:r1="61.42857"
         sodipodi:cy="279.50504"
         sodipodi:cx="205.71429"
         sodipodi:sides="3"
         id="path3775"
         style="fill:#ffffff;fill-opacity:1;stroke:none"
         sodipodi:type="star" />
      <path
         transform="matrix(1.1980209,1.5094439,-1.5094439,1.1980209,502.6865,-1510.0031)"
         d="m 417.14285,370.21933 a 90.714287,149.28572 0 1 1 -181.42858,0 90.714287,149.28572 0 1 1 181.42858,0 z"
         sodipodi:ry="149.28572"
         sodipodi:rx="90.714287"
         sodipodi:cy="370.21933"
         sodipodi:cx="326.42856"
         id="path2985"
         style="fill:#ffffff;fill-opacity:1;stroke:#ffa123;stroke-width:10.37834374;stroke-miterlimit:4;stroke-opacity:1;stroke-dasharray:none"
         sodipodi:type="arc" />
    </g>
  </g>
</svg>
