<?xml version="1.0" encoding="UTF-8" standalone="no"?>
<!-- Created with Inkscape (http://www.inkscape.org/) -->

<svg
   xmlns:dc="http://purl.org/dc/elements/1.1/"
   xmlns:cc="http://creativecommons.org/ns#"
   xmlns:rdf="http://www.w3.org/1999/02/22-rdf-syntax-ns#"
   xmlns:svg="http://www.w3.org/2000/svg"
   xmlns="http://www.w3.org/2000/svg"
   xmlns:sodipodi="http://sodipodi.sourceforge.net/DTD/sodipodi-0.dtd"
   xmlns:inkscape="http://www.inkscape.org/namespaces/inkscape"
   width="1080"
   height="1400"
   id="svg4320"
   version="1.1"
   inkscape:version="0.91 r13725"
   sodipodi:docname="logoScreen.svg">
  <metadata
     id="metadata3473">
    <rdf:RDF>
      <cc:Work
         rdf:about="">
        <dc:format>image/svg+xml</dc:format>
        <dc:type
           rdf:resource="http://purl.org/dc/dcmitype/StillImage" />
        <dc:title></dc:title>
      </cc:Work>
    </rdf:RDF>
  </metadata>
  <sodipodi:namedview
     pagecolor="#ffa123"
     bordercolor="#666666"
     borderopacity="1"
     objecttolerance="10"
     gridtolerance="10"
     guidetolerance="10"
     inkscape:pageopacity="1"
     inkscape:pageshadow="2"
     inkscape:window-width="3102"
     inkscape:window-height="1764"
     id="namedview3471"
     showgrid="false"
     inkscape:zoom="0.88200002"
     inkscape:cx="472.1548"
     inkscape:cy="1090.6107"
     inkscape:window-x="98"
     inkscape:window-y="36"
     inkscape:window-maximized="1"
     inkscape:current-layer="layer1" />
  <defs
     id="defs4322">
    <marker
       inkscape:stockid="Arrow1Lend"
       orient="auto"
       refY="0.0"
       refX="0.0"
       id="Arrow1Lend"
       style="overflow:visible;">
      <path
         id="path4818"
         d="M 0.0,0.0 L 5.0,-5.0 L -12.5,0.0 L 5.0,5.0 L 0.0,0.0 z "
         style="fill-rule:evenodd;stroke:#000000;stroke-width:1.0pt;"
         transform="scale(0.8) rotate(180) translate(12.5,0)" />
    </marker>
    <linearGradient
       id="linearGradient5442">
      <stop
         style="stop-color:#000000;stop-opacity:1;"
         offset="0"
         id="stop5444" />
      <stop
         style="stop-color:#d2d2d2;stop-opacity:1;"
         offset="1"
         id="stop5446" />
    </linearGradient>
  </defs>
  <g
     id="layer1"
     inkscape:label="Layer 1"
     inkscape:groupmode="layer"
     transform="translate(0,920)">
    <g
       id="g3013"
       transform="translate(48.102502,1224.0408)">
      <path
         transform="matrix(0.99172556,0,0,0.99172556,739.85877,-1192.4537)"
         d="m -580.49888,369.38776 a 82.766441,82.766441 0 0 1 -82.76644,82.76644 82.766441,82.766441 0 0 1 -82.76644,-82.76644 82.766441,82.766441 0 0 1 82.76644,-82.76644 82.766441,82.766441 0 0 1 82.76644,82.76644 z"
         sodipodi:ry="82.766441"
         sodipodi:rx="82.766441"
         sodipodi:cy="369.38776"
         sodipodi:cx="-663.26532"
         id="path3923-5"
         style="fill:#000000;fill-opacity:0.32876713;stroke:none"
         sodipodi:type="arc" />
      <g
         inkscape:label="#g3977"
         id="google">
        <path
           sodipodi:type="arc"
           style="fill:#ff0000;fill-opacity:1;stroke:none"
           id="path3923"
           sodipodi:cx="-663.26532"
           sodipodi:cy="369.38776"
           sodipodi:rx="82.766441"
           sodipodi:ry="82.766441"
           d="m -580.49888,369.38776 a 82.766441,82.766441 0 0 1 -82.76644,82.76644 82.766441,82.766441 0 0 1 -82.76644,-82.76644 82.766441,82.766441 0 0 1 82.76644,-82.76644 82.766441,82.766441 0 0 1 82.76644,82.76644 z"
           transform="matrix(0.99172556,0,0,0.99172556,739.85877,-1204.2497)" />
        <path
           inkscape:connector-curvature="0"
           style="fill:#ffffff;fill-opacity:1;stroke:#000000;stroke-width:6.55495262;stroke-linecap:round;stroke-linejoin:round;stroke-miterlimit:4;stroke-opacity:0;stroke-dasharray:none"
           d="m 72.40625,333 c 9.724729,-0.013 18.8125,0.2308 18.8125,0.75 0,1.1234 -1.796236,2.4627 -4.0625,3 -1.17826,0.2794 -4.101289,0.8058 -6.46875,1.1562 -4.674075,0.692 -5.371462,1.0112 -4.03125,1.8126 6.241564,3.7318 8.287809,7.7721 8.875,17.5937 0.381242,6.3766 -0.317126,10.6407 -2.40625,15 -1.624043,3.3888 -4.450095,6.5387 -10.96875,12.25 -3.804807,3.3335 -4.796275,5.4819 -3.71875,8.0625 0.87887,2.1049 1.796622,3.0459 7.34375,7.625 11.753282,9.7022 15.452273,15.8441 15.4375,25.5625 -0.01316,8.5927 -2.275247,14.3234 -7.84375,19.9375 -5.345704,5.3895 -12.360955,8.6465 -22.3125,10.3438 -4.990453,0.8509 -16.688377,0.8712 -21.3125,0.031 -16.443469,-2.9871 -25.562818,-11.7222 -25.59375,-24.5312 -0.02595,-10.728 5.779112,-18.0525 17.90625,-22.5938 5.363201,-2.0084 9.612713,-2.8456 17.6875,-3.5 l 6.75,-0.5625 -0.40625,-1.4063 c -0.219937,-0.7668 -1.231153,-2.2431 -2.25,-3.2812 L 52,398.375 l 0,-3.9688 0,-3.9374 -4.5,-0.3126 c -8.504319,-0.5597 -14.861012,-3.0787 -19.1875,-7.625 -3.2714,-3.4376 -4.756803,-6.0653 -5.875,-10.4374 -1.126646,-4.4052 -1.228364,-11.5921 -0.21875,-15.875 2.670867,-11.3308 12.517735,-19.3298 27.5625,-22.4063 2.555035,-0.5225 12.900271,-0.8 22.625,-0.8125 z"
           id="path3931"
           transform="matrix(0.70982435,0,0,0.70982435,29.906241,-1115.7402)" />
        <path
           inkscape:connector-curvature="0"
           style="fill:#ffffff;fill-opacity:1;stroke:#000000;stroke-width:6.55495262;stroke-linecap:round;stroke-linejoin:round;stroke-miterlimit:4;stroke-opacity:0;stroke-dasharray:none"
           d="m 124.46875,333.063 3.6875,0 3.6875,0 0,12.0313 0,11.9687 12.125,0.125 12.125,0.125 0,3.4687 0,3.4688 -12,0.2188 -12,0.2187 -0.125,11.9063 -0.125,11.875 -3.6875,0 -3.6875,0 0,-12 0,-12 -12,0 -12,0 0,-3.6876 0,-3.6874 12,0 12,0 0,-12 0,-12.0313 z"
           id="path3929"
           transform="matrix(0.70982435,0,0,0.70982435,29.906241,-1115.7402)" />
        <path
           inkscape:connector-curvature="0"
           style="fill:#ff0000;fill-opacity:1;stroke:#000000;stroke-width:6.55495262;stroke-linecap:round;stroke-linejoin:round;stroke-miterlimit:4;stroke-opacity:0;stroke-dasharray:none"
           d="m 49.9375,339.7193 c -1.663331,0.01 -3.208988,0.2977 -4.28125,0.875 -3.822904,2.058 -6.463517,5.6762 -7.8125,10.7187 -0.824256,3.0811 -0.777272,9.4605 0.09375,13.1563 2.023798,8.5867 7.870753,15.6918 14.65625,17.8124 2.605264,0.8143 3.861274,0.7954 6.75,-0.062 5.001118,-1.4852 8.81176,-6.8614 9.75,-13.7188 1.500732,-10.9684 -4.251844,-23.2185 -12.90625,-27.4688 -1.776207,-0.8723 -4.111478,-1.324 -6.25,-1.3124 z"
           id="path3927"
           transform="matrix(0.70982435,0,0,0.70982435,29.906241,-1115.7402)" />
        <path
           inkscape:connector-curvature="0"
           style="fill:#ff0000;fill-opacity:1;stroke:#000000;stroke-width:6.55495262;stroke-linecap:round;stroke-linejoin:round;stroke-miterlimit:4;stroke-opacity:0;stroke-dasharray:none"
           d="m 55.21875,410.9067 c -8.890271,0 -15.73896,2.553 -21.03125,7.8126 -3.702918,3.6799 -4.999875,6.3729 -5.21875,10.9374 -0.144547,3.013 0.0066,3.9298 0.96875,6.0313 2.828987,6.1793 9.249632,10.3749 18.1875,11.875 9.542556,1.6017 21.481107,-2.0654 27.125,-8.3125 0.897891,-0.9939 2.205166,-2.8766 2.90625,-4.2188 1.096314,-2.0988 1.271555,-3.0312 1.28125,-6.4062 0.01357,-4.8135 -1.013492,-7.2322 -4.625,-10.8438 -4.603671,-4.6037 -11.062516,-6.8703 -19.59375,-6.875 z"
           id="pathX2132"
           transform="matrix(0.70982435,0,0,0.70982435,29.906241,-1115.7402)" />
      </g>
    </g>
    <g
       id="start"
       inkscape:label="#g3990"
       transform="translate(-48.102502,8.6686669e-8)">
      <path
         transform="matrix(0.99172556,0,0,0.99172556,1655.6956,31.587125)"
         d="m -580.49888,369.38776 a 82.766441,82.766441 0 0 1 -82.76644,82.76644 82.766441,82.766441 0 0 1 -82.76644,-82.76644 82.766441,82.766441 0 0 1 82.76644,-82.76644 82.766441,82.766441 0 0 1 82.76644,82.76644 z"
         sodipodi:ry="82.766441"
         sodipodi:rx="82.766441"
         sodipodi:cy="369.38776"
         sodipodi:cx="-663.26532"
         id="path3923-5-5"
         style="fill:#000000;fill-opacity:0.32941176;stroke:none"
         sodipodi:type="arc" />
      <path
         transform="matrix(0.99172556,0,0,0.99172556,1655.6956,19.7911)"
         d="m -580.49888,369.38776 a 82.766441,82.766441 0 0 1 -82.76644,82.76644 82.766441,82.766441 0 0 1 -82.76644,-82.76644 82.766441,82.766441 0 0 1 82.76644,-82.76644 82.766441,82.766441 0 0 1 82.76644,82.76644 z"
         sodipodi:ry="82.766441"
         sodipodi:rx="82.766441"
         sodipodi:cy="369.38776"
         sodipodi:cx="-663.26532"
         id="path3923-52"
         style="fill:#33ccff;fill-opacity:1;stroke:none"
         sodipodi:type="arc" />
      <path
         inkscape:connector-curvature="0"
         id="path5443"
         transform="translate(-5.4252957,-924.87762)"
         d="m 1004.0938,1270.1562 16.1874,33.625 -87.49995,0 0,14.4376 87.71875,0 -16.75,33.625 70.1562,-39.6563 -69.8124,-42.0313 z"
         style="fill:#ffffff;fill-opacity:1;fill-rule:evenodd;stroke:none" />
    </g>
    <g
       id="network"
       inkscape:label="#g3141">
      <path
         transform="matrix(0.99172556,0,0,0.99172556,1404.9694,31.587125)"
         d="m -580.49888,369.38776 a 82.766441,82.766441 0 0 1 -82.76644,82.76644 82.766441,82.766441 0 0 1 -82.76644,-82.76644 82.766441,82.766441 0 0 1 82.76644,-82.76644 82.766441,82.766441 0 0 1 82.76644,82.76644 z"
         sodipodi:ry="82.766441"
         sodipodi:rx="82.766441"
         sodipodi:cy="369.38776"
         sodipodi:cx="-663.26532"
         id="path3923-5-5-7"
         style="fill:#000000;fill-opacity:0.32941176;stroke:none"
         sodipodi:type="arc" />
      <path
         transform="matrix(0.99172556,0,0,0.99172556,1404.9694,19.7911)"
         d="m -580.49888,369.38776 a 82.766441,82.766441 0 0 1 -82.76644,82.76644 82.766441,82.766441 0 0 1 -82.76644,-82.76644 82.766441,82.766441 0 0 1 82.76644,-82.76644 82.766441,82.766441 0 0 1 82.76644,82.76644 z"
         sodipodi:ry="82.766441"
         sodipodi:rx="82.766441"
         sodipodi:cy="369.38776"
         sodipodi:cx="-663.26532"
         id="path3923-52-1"
         style="fill:#33ccff;fill-opacity:1;stroke:none"
         sodipodi:type="arc" />
      <g
         id="g3100"
         transform="matrix(0.57329762,0,0,0.57329762,875.43497,668.37662)">
        <rect
           ry="10.029695"
           rx="10.029696"
           transform="translate(254.92676,-919.92841)"
           y="309.67661"
           x="-500.26602"
           height="73.757172"
           width="43.292252"
           id="rect3044"
           style="fill:#ffffff;fill-opacity:1;stroke:none" />
        <rect
           ry="10.029695"
           rx="10.029696"
           y="309.67661"
           x="-500.26602"
           height="73.757172"
           width="43.292252"
           id="rect3044-7"
           style="fill:#ffffff;fill-opacity:1;stroke:none"
           transform="translate(186.01938,-780.22577)" />
        <rect
           ry="10.029695"
           rx="10.029696"
           y="309.67661"
           x="-500.26602"
           height="73.757172"
           width="43.292252"
           id="rect3044-8"
           style="fill:#ffffff;fill-opacity:1;stroke:none"
           transform="translate(323.83413,-780.22577)" />
        <rect
           ry="10.029695"
           rx="10.029696"
           transform="translate(250.9182,-923.83426)"
           y="412.29529"
           x="-567.6095"
           height="16.034168"
           width="185.99634"
           id="rect3071"
           style="fill:#ffffff;fill-opacity:1;stroke:none" />
        <rect
           ry="10.029695"
           rx="10.029696"
           transform="translate(249.71565,-925.61196)"
           y="397.86453"
           x="-479.4216"
           height="20.042709"
           width="12.025625"
           id="rect3073"
           style="fill:#ffffff;fill-opacity:1;stroke:none" />
        <rect
           ry="10.029695"
           rx="10.029696"
           y="397.86453"
           x="-479.4216"
           height="20.042709"
           width="12.025625"
           id="rect3073-0"
           style="fill:#ffffff;fill-opacity:1;stroke:none"
           transform="translate(180.80827,-897.15131)" />
        <rect
           ry="10.029695"
           rx="10.029696"
           y="397.86453"
           x="-479.4216"
           height="20.042709"
           width="12.025625"
           id="rect3073-9"
           style="fill:#ffffff;fill-opacity:1;stroke:none"
           transform="translate(318.62302,-897.15131)" />
      </g>
    </g>
    <path
       transform="matrix(2.0450388,0,0,2.0450388,-221.96929,-1289.3484)"
       inkscape:connector-curvature="0"
       style="fill:#ffffff;fill-opacity:1;stroke:none"
       d="m 311,218.5625 c -4.07562,0.0551 -8.29127,0.35844 -12.65625,0.90625 -27.98596,3.51226 -61.39625,17.59622 -91.75,41.6875 -30.35374,24.09127 -51.66274,53.41685 -61.4375,79.875 -9.78918,26.49718 -8.07622,48.51769 3.34375,62.90625 11.41483,14.38209 32.46322,20.98739 60.5,17.46875 27.99269,-3.51311 61.39941,-17.56748 91.75,-41.65625 30.35122,-24.08927 51.62927,-53.41084 61.40625,-79.875 9.7914,-26.5032 8.10302,-48.52329 -3.3125,-62.90625 C 349.21155,224.83267 332.92272,218.26621 311,218.5625 z m 87.34375,43.1875 c 0.96371,15.64293 -2.03308,32.17967 -8.0625,48.5 -12.11995,32.80609 -36.65771,65.87355 -70.875,93.03125 -34.21532,27.15614 -71.982,43.58193 -106.6875,47.9375 -17.16442,2.15415 -33.84142,1.27399 -48.78125,-3.15625 l 38.96875,95.25 1.5625,1.53125 0,2.25 c 0.15777,0.37922 0.29498,0.72347 0.46875,1.125 0.0802,0.18526 0.0828,0.16157 0.21875,0.46875 2.09238,4.7255 4.69581,9.08 7.90625,13.125 16.59474,20.90852 46.5809,29.89493 84.625,25.125 27.19373,-3.40952 57.77462,-14.03365 87.8125,-31.625 l 4.21875,-2.46875 4.53125,1.78125 70.4375,27.8125 -11.25,-75.78125 -0.6875,-4.71875 3.21875,-3.5 c 22.15228,-24.21063 38.24516,-50.19864 47.28125,-74.65625 13.28983,-35.97104 11.34249,-67.21932 -5.25,-88.125 -3.23586,-4.07701 -6.93188,-7.63873 -11.125,-10.78125 -0.0119,-0.009 -0.0193,-0.0222 -0.0313,-0.0313 l -4.125,-3.0625 -10.03125,-7.46875 -0.71875,-0.53125 -73.625,-52.03125 z"
       id="knobBody"
       inkscape:label="#path3775" />
    <g
       transform="matrix(2.0450388,0,0,2.0450388,-221.96929,-1289.3484)"
       id="g3977"
       style="fill:#ffffff;fill-opacity:1">
      <g
         transform="translate(32.324883,-1.02031)"
         id="g3011"
         style="fill:#ffffff;fill-opacity:1">
        <path
           inkscape:connector-curvature="0"
           style="fill:#ffffff;fill-opacity:1;stroke:none"
           d="m 95.34375,656.17656 5.21875,0 9.1875,40.9375 0.78125,4.28125 0.15625,0 0.8125,-4.28125 9.15625,-40.9375 5.21875,0 -13.21875,54.46875 -4.125,0 -13.1875,-54.46875 z"
           id="path3007" />
        <path
           inkscape:connector-curvature="0"
           style="fill:#ffffff;fill-opacity:1;stroke:none"
           d="m 130,656.17656 4.8125,0 0,36.90625 c -1e-5,4.11532 0.78355,7.26131 2.3125,9.40625 1.52893,2.12001 3.52637,3.1875 6.03125,3.1875 2.63497,0 4.76471,-1.06749 6.375,-3.1875 1.62651,-2.14494 2.43747,-5.29093 2.4375,-9.40625 l 0,-36.90625 4.8125,0 0,36.90625 c -3e-5,5.93603 -1.26015,10.48241 -3.78125,13.625 -2.50489,3.1426 -5.79369,4.71875 -9.84375,4.71875 -3.9037,0 -7.0602,-1.57615 -9.5,-4.71875 C 131.2327,703.54028 130,698.9939 130,693.08281 l 0,-36.90625 z"
           id="rect3002" />
      </g>
      <path
         inkscape:connector-curvature="0"
         id="path3924"
         d="m 389.21875,628.0625 c -9.35256,9e-5 -17.24076,3.36232 -23.15625,9.90625 -5.86403,6.52795 -8.75,14.75336 -8.75,24.4375 l 0,13.65625 c 0,9.71844 2.87763,18.03105 8.75,24.53125 5.91866,6.51053 13.81017,9.8125 23.15625,9.8125 9.65196,0 17.68485,-3.27848 23.78125,-9.78125 6.12606,-6.49514 9.15619,-14.8305 9.15625,-24.5625 l 0,-13.65625 c -6e-5,-9.73191 -3.03537,-17.979 -9.15625,-24.46875 -6.09325,-6.53626 -14.12302,-9.87491 -23.78125,-9.875 z m -175.375,1.125 0,1.5 0,77.09375 0,1.5 1.5,0 10.4375,0 1.5,0 0,-1.5 0,-33.3125 6.75,0 27.5,34.25 0.4375,0.5625 0.71875,0 12.4375,0 0.8125,0 0.4375,-0.65625 0.1875,-0.28125 0.625,-0.9375 -0.71875,-0.84375 -31.34375,-38.59375 29.1875,-36.0625 0.71875,-0.84375 -0.625,-0.9375 -0.1875,-0.28125 -0.4375,-0.65625 -0.8125,0 -11.59375,0 -0.71875,0 -0.4375,0.5625 -27.125,33.53125 -5.8125,0 0,-32.59375 0,-1.5 -1.5,0 -10.4375,0 -1.5,0 z m 69.65625,0 0,1.5 0,77.09375 0,1.5 1.5,0 10.46875,0 1.5,0 0,-1.5 0,-54.875 34.65625,55.65625 0.4375,0.71875 0.84375,0 10.46875,0 1.5,0 0,-1.5 0,-77.09375 0,-1.5 -1.5,0 -10.46875,0 -1.5,0 0,1.5 0,54.84375 -34.6875,-55.625 -0.4375,-0.71875 -0.84375,0 -10.4375,0 -1.5,0 z m 151.28125,0 0,1.5 0,77.09375 0,1.5 1.5,0 28.4375,0 c 8.06959,0 14.67573,-1.89742 19.5625,-5.875 4.94946,-4.03573 7.43744,-9.99103 7.4375,-17.375 -6e-5,-5.00602 -1.4761,-9.55419 -4.34375,-13.375 -0.005,-0.007 0.005,-0.024 0,-0.0313 l 0.0313,0 c -2.13126,-2.87002 -4.92619,-4.93505 -8.25,-6.25 2.22172,-1.2864 4.23715,-2.78769 5.8125,-4.71875 2.37805,-2.95339 3.65618,-6.40382 3.65625,-10.15625 -6e-5,-7.27449 -2.44148,-12.97069 -7.375,-16.71875 -4.89104,-3.75345 -11.57324,-5.59366 -19.84375,-5.59375 l -25.125,0 -1.5,0 z m -45.5625,10.4375 c 6.0725,6e-5 10.64151,2.04745 14.1875,6.25 3.56407,4.22418 5.40619,9.6518 5.40625,16.4375 l 0,13.75 c -6e-5,6.89576 -1.84793,12.40772 -5.40625,16.625 -3.50412,4.15907 -8.06872,6.15625 -14.1875,6.15625 -5.69914,0 -10.05967,-2.02103 -13.4375,-6.21875 l 0.0313,0 c -3.35709,-4.21279 -5.0625,-9.6805 -5.0625,-16.5625 l 0,-13.75 c 0,-6.80881 1.70385,-12.25394 5.0625,-16.46875 l -0.0313,0 c 3.37783,-4.19766 7.73836,-6.21869 13.4375,-6.21875 z m 59,0.75 13.1875,0 c 4.7312,9e-5 8.12027,1.01491 10.375,2.8125 l 0.0313,0 c 2.26809,1.75408 3.43744,4.29173 3.4375,8.125 -5e-5,3.49242 -1.04733,5.94808 -3.15625,7.8125 -2.13921,1.85119 -4.91182,2.84381 -8.5,2.84375 l -15.375,0 0,-21.59375 z m 0,32.78125 18.09375,0 c 4.31303,6e-5 7.14732,1.13119 9,3.3125 l 0.0313,0 c 1.93555,2.24288 2.93744,5.40992 2.9375,9.6875 -6e-5,3.99995 -1.15281,6.7748 -3.46875,8.84375 -2.30707,2.0302 -5.60423,3.09375 -10.09375,3.09375 l -16.5,0 0,-24.9375 z"
         style="fill:#ffffff;fill-opacity:1;stroke:none" />
      <path
         id="path2985-0-3"
         d="m 495.3125,305.875 14.90625,11.28125 c 29.19187,3.67541 53.36979,15.49864 69.34375,35.625 23.49336,29.60041 25.47734,72.42375 8.6875,118.65625 -16.78984,46.2325 -52.38823,95.36393 -102.8125,136.03125 l 19.90625,22.4375 C 557.03625,588.21611 590.7225,526.22474 608.28125,477.875 625.84,429.52526 617.90821,376.23653 588.40625,346.0625 562.05671,319.11271 532.00249,306.80978 495.3125,305.875 z"
         style="font-size:medium;font-style:normal;font-variant:normal;font-weight:normal;font-stretch:normal;text-indent:0;text-align:start;text-decoration:none;line-height:normal;letter-spacing:normal;word-spacing:normal;text-transform:none;direction:ltr;block-progression:tb;writing-mode:lr-tb;text-anchor:start;baseline-shift:baseline;color:#000000;fill:#ffffff;fill-opacity:1;stroke:none;stroke-width:10;marker:none;visibility:visible;display:inline;overflow:visible;enable-background:accumulate;font-family:Sans;-inkscape-font-specification:Sans"
         inkscape:connector-curvature="0" />
      <text
         transform="matrix(1.3433147,1.5442415,-1.5442415,1.3433147,958.10169,-1104.7422)"
         sodipodi:linespacing="125%"
         id="text3870"
         y="728.10321"
         x="506.08643"
         style="font-size:36px;font-style:normal;font-variant:normal;font-weight:bold;font-stretch:normal;line-height:125%;letter-spacing:0px;word-spacing:0px;fill:#ffffff;fill-opacity:1;stroke:none;font-family:Roboto;-inkscape-font-specification:Sans Bold"
         xml:space="preserve"><tspan
           y="728.10321"
           x="506.08643"
           id="tspan3872"
           sodipodi:role="line">11</tspan></text>
      <rect
         style="fill:#ffffff;fill-opacity:1;stroke:none"
         id="rect2999"
         width="3.0304575"
         height="97.984795"
         x="197.9899"
         y="629.10828"
         rx="0"
         ry="0"
         transform="translate(1.9698181,-8.8662987)" />
    </g>
    <text
       xml:space="preserve"
       style="font-style:normal;font-weight:normal;font-size:40px;line-height:125%;font-family:sans-serif;letter-spacing:0px;word-spacing:0px;fill:#cd7500;fill-opacity:1;stroke:none;stroke-width:1px;stroke-linecap:butt;stroke-linejoin:miter;stroke-opacity:1;"
       x="914.96594"
       y="-871.47388"
       id="versionString"
       sodipodi:linespacing="125%"
       inkscape:label="#text3871"><tspan
         sodipodi:role="line"
         id="tspan3873"
         x="914.96594"
         y="-871.47388">v99.99</tspan></text>
  </g>
</svg>
