<?xml version="1.0" encoding="UTF-8" standalone="no"?>
<!-- Created with Inkscape (http://www.inkscape.org/) -->

<svg
   xmlns:dc="http://purl.org/dc/elements/1.1/"
   xmlns:cc="http://creativecommons.org/ns#"
   xmlns:rdf="http://www.w3.org/1999/02/22-rdf-syntax-ns#"
   xmlns:svg="http://www.w3.org/2000/svg"
   xmlns="http://www.w3.org/2000/svg"
   xmlns:xlink="http://www.w3.org/1999/xlink"
   xmlns:sodipodi="http://sodipodi.sourceforge.net/DTD/sodipodi-0.dtd"
   xmlns:inkscape="http://www.inkscape.org/namespaces/inkscape"
   width="75"
   height="75"
   id="svg2"
   sodipodi:version="0.32"
   inkscape:version="0.48.3.1 r9886"
   version="1.0"
   sodipodi:docname="loop_off_begin.svg"
   inkscape:output_extension="org.inkscape.output.svg.inkscape">
  <defs
     id="defs4">
    <linearGradient
       id="linearGradient3965">
      <stop
         style="stop-color:#d4feff;stop-opacity:1;"
         offset="0"
         id="stop3967" />
      <stop
         id="stop5096"
         offset="0.50454783"
         style="stop-color:#0c6a6b;stop-opacity:1;" />
      <stop
         id="stop5094"
         offset="0.67683244"
         style="stop-color:#196363;stop-opacity:1;" />
      <stop
         id="stop5092"
         offset="0.72991735"
         style="stop-color:#58eced;stop-opacity:1;" />
      <stop
         id="stop5090"
         offset="0.87272727"
         style="stop-color:#5ddbdc;stop-opacity:1;" />
      <stop
         style="stop-color:#008080;stop-opacity:1;"
         offset="1"
         id="stop3969" />
    </linearGradient>
    <linearGradient
       id="linearGradient3915">
      <stop
         style="stop-color:#212121;stop-opacity:1"
         offset="0"
         id="stop3917" />
      <stop
         id="stop3923"
         offset="0.98214287"
         style="stop-color:#c4c4c4;stop-opacity:1;" />
      <stop
         style="stop-color:#000000;stop-opacity:1;"
         offset="1"
         id="stop3919" />
    </linearGradient>
    <linearGradient
       id="linearGradient3155">
      <stop
         style="stop-color:#ffffff;stop-opacity:1;"
         offset="0"
         id="stop3157" />
      <stop
         id="stop3935"
         offset="0.03794262"
         style="stop-color:#000000;stop-opacity:1;" />
      <stop
         style="stop-color:#0b0b0b;stop-opacity:1;"
         offset="0.51339287"
         id="stop3941" />
      <stop
         style="stop-color:#161616;stop-opacity:1;"
         offset="0.52678573"
         id="stop3937" />
      <stop
         id="stop3939"
         offset="0.94084823"
         style="stop-color:#000000;stop-opacity:1;" />
      <stop
         style="stop-color:#ffffff;stop-opacity:1;"
         offset="1"
         id="stop3159" />
    </linearGradient>
    <inkscape:perspective
       sodipodi:type="inkscape:persp3d"
       inkscape:vp_x="0 : 526.18109 : 1"
       inkscape:vp_y="0 : 1000 : 0"
       inkscape:vp_z="744.09448 : 526.18109 : 1"
       inkscape:persp3d-origin="372.04724 : 350.78739 : 1"
       id="perspective10" />
    <radialGradient
       inkscape:collect="always"
       xlink:href="#linearGradient3965"
       id="radialGradient3971"
       cx="37.123531"
       cy="36.808392"
       fx="37.123531"
       fy="36.808392"
       r="30.820726"
       gradientTransform="matrix(1,0,0,0.9202454,0,2.9356396)"
       gradientUnits="userSpaceOnUse" />
  </defs>
  <sodipodi:namedview
     id="base"
     pagecolor="#ffffff"
     bordercolor="#666666"
     borderopacity="1.0"
     gridtolerance="10000"
     guidetolerance="10"
     objecttolerance="10"
     inkscape:pageopacity="1"
     inkscape:pageshadow="2"
     inkscape:zoom="8"
     inkscape:cx="41.887784"
     inkscape:cy="28.243378"
     inkscape:document-units="px"
     inkscape:current-layer="layer1"
     showgrid="false"
     inkscape:window-width="1855"
     inkscape:window-height="1056"
     inkscape:window-x="65"
     inkscape:window-y="24"
     inkscape:window-maximized="1" />
  <metadata
     id="metadata7">
    <rdf:RDF>
      <cc:Work
         rdf:about="">
        <dc:format>image/svg+xml</dc:format>
        <dc:type
           rdf:resource="http://purl.org/dc/dcmitype/StillImage" />
        <dc:title></dc:title>
      </cc:Work>
    </rdf:RDF>
  </metadata>
  <g
     inkscape:label="Layer 1"
     inkscape:groupmode="layer"
     id="layer1"
     transform="translate(-191.42898,-282.87724)">
    <path
       style="fill:#f1a123;fill-opacity:1;stroke:#04baab;stroke-width:2.89400005;stroke-linecap:round;stroke-linejoin:round;stroke-miterlimit:4;stroke-opacity:0;stroke-dasharray:none"
       d="M 22.65625 1.4375 C 10.899502 1.4375 1.4375 10.899502 1.4375 22.65625 L 1.4375 52.34375 C 1.4375 64.100498 10.899502 73.5625 22.65625 73.5625 L 52.34375 73.5625 C 57.24541 73.5625 61.72746 71.895611 65.3125 69.125 L 64.59375 68.90625 L 63.71875 67.53125 L 64.1875 65.9375 L 65.6875 65.25 L 69.15625 65.25 C 71.901428 61.673892 73.5625 57.22054 73.5625 52.34375 L 73.5625 22.65625 C 73.5625 17.763634 71.886352 13.300556 69.125 9.71875 L 68.15625 9.4375 L 67.28125 8.03125 L 67.375 7.6875 C 63.536798 3.8333112 58.238068 1.4375 52.34375 1.4375 L 22.65625 1.4375 z M 25.15625 5.75 L 25.21875 5.75 L 25.25 5.75 L 29.25 5.75 L 30.34375 6.09375 L 31.25 7.5 L 30.75 9.0625 L 29.25 9.75 L 25.34375 9.75 L 25.25 9.75 L 23.5625 9.84375 L 22.21875 10.0625 L 22.03125 10.09375 L 20.71875 10.4375 L 19.28125 10.9375 L 19.21875 10.96875 L 19.125 11 L 18.46875 11.3125 L 17.34375 11.5 L 15.9375 10.625 L 15.6875 9 L 16.75 7.71875 L 17.5625 7.3125 L 17.75 7.25 L 19.34375 6.65625 L 19.53125 6.59375 L 21.21875 6.1875 L 21.40625 6.125 L 23.15625 5.875 L 23.375 5.84375 L 25.15625 5.75 z M 45.25 5.75 L 53.25 5.75 L 54.34375 6.09375 L 55.25 7.5 L 54.75 9.0625 L 53.25 9.75 L 45.25 9.75 L 44.15625 9.4375 L 43.28125 8.03125 L 43.75 6.4375 L 45.25 5.75 z M 5.84375 18 C 6.0185267 17.986135 6.2045354 17.995447 6.40625 18 C 7.482061 18.024284 8.9619513 18.305121 10.90625 18.6875 C 18.683445 20.217014 18.723099 20.420887 12.8125 29.9375 C 6.9019008 39.454113 6.7415955 39.421128 4.875 28.375 C 3.5625501 20.608191 3.2220994 18.207973 5.84375 18 z M 7.46875 43.6875 L 9.0625 44.15625 L 9.75 45.6875 L 9.75 49.625 L 9.75 49.75 L 9.84375 51.40625 L 9.84375 51.4375 L 10.09375 52.96875 L 10.125 53.15625 L 10.09375 54.28125 L 8.9375 55.5 L 7.28125 55.4375 L 6.25 54.125 L 6.15625 53.78125 L 6.125 53.5625 L 5.875 51.84375 L 5.84375 51.625 L 5.75 49.84375 L 5.75 49.75 L 5.75 45.6875 L 6.0625 44.5625 L 7.46875 43.6875 z M 17.125 63.78125 L 18.78125 63.84375 L 19.125 64 L 19.21875 64.03125 L 19.28125 64.0625 L 20.53125 64.53125 L 20.59375 64.5625 L 20.71875 64.59375 L 22.03125 64.90625 L 23.5625 65.15625 L 25.25 65.25 L 25.34375 65.25 L 25.6875 65.25 L 26.78125 65.5625 L 27.65625 66.96875 L 27.1875 68.5625 L 25.6875 69.25 L 25.25 69.25 L 25.15625 69.25 L 23.375 69.15625 L 23.15625 69.125 L 21.40625 68.875 L 21.21875 68.84375 L 19.53125 68.40625 L 19.34375 68.34375 L 17.75 67.75 L 17.5625 67.6875 L 17.0625 67.4375 L 16.21875 66.65625 L 16.03125 65.03125 L 17.125 63.78125 z M 41.6875 65.25 L 49.6875 65.25 L 50.78125 65.5625 L 51.65625 66.96875 L 51.1875 68.5625 L 49.6875 69.25 L 41.6875 69.25 L 40.59375 68.90625 L 39.71875 67.53125 L 40.1875 65.9375 L 41.6875 65.25 z "
       transform="translate(191.42898,282.87724)"
       id="rect2383-3" />
  </g>
</svg>
