<?xml version="1.0" encoding="UTF-8" standalone="no"?>
<!-- Created with Inkscape (http://www.inkscape.org/) -->

<svg
   xmlns:dc="http://purl.org/dc/elements/1.1/"
   xmlns:cc="http://creativecommons.org/ns#"
   xmlns:rdf="http://www.w3.org/1999/02/22-rdf-syntax-ns#"
   xmlns:svg="http://www.w3.org/2000/svg"
   xmlns="http://www.w3.org/2000/svg"
   xmlns:xlink="http://www.w3.org/1999/xlink"
   xmlns:sodipodi="http://sodipodi.sourceforge.net/DTD/sodipodi-0.dtd"
   xmlns:inkscape="http://www.inkscape.org/namespaces/inkscape"
   width="75"
   height="75"
   id="svg2"
   sodipodi:version="0.32"
   inkscape:version="0.48.3.1 r9886"
   version="1.0"
   sodipodi:docname="loop_off_end.svg"
   inkscape:output_extension="org.inkscape.output.svg.inkscape">
  <defs
     id="defs4">
    <linearGradient
       id="linearGradient3965">
      <stop
         style="stop-color:#d4feff;stop-opacity:1;"
         offset="0"
         id="stop3967" />
      <stop
         id="stop5096"
         offset="0.50454783"
         style="stop-color:#0c6a6b;stop-opacity:1;" />
      <stop
         id="stop5094"
         offset="0.67683244"
         style="stop-color:#196363;stop-opacity:1;" />
      <stop
         id="stop5092"
         offset="0.72991735"
         style="stop-color:#58eced;stop-opacity:1;" />
      <stop
         id="stop5090"
         offset="0.87272727"
         style="stop-color:#5ddbdc;stop-opacity:1;" />
      <stop
         style="stop-color:#008080;stop-opacity:1;"
         offset="1"
         id="stop3969" />
    </linearGradient>
    <linearGradient
       id="linearGradient3915">
      <stop
         style="stop-color:#212121;stop-opacity:1"
         offset="0"
         id="stop3917" />
      <stop
         id="stop3923"
         offset="0.98214287"
         style="stop-color:#c4c4c4;stop-opacity:1;" />
      <stop
         style="stop-color:#000000;stop-opacity:1;"
         offset="1"
         id="stop3919" />
    </linearGradient>
    <linearGradient
       id="linearGradient3155">
      <stop
         style="stop-color:#ffffff;stop-opacity:1;"
         offset="0"
         id="stop3157" />
      <stop
         id="stop3935"
         offset="0.03794262"
         style="stop-color:#000000;stop-opacity:1;" />
      <stop
         style="stop-color:#0b0b0b;stop-opacity:1;"
         offset="0.51339287"
         id="stop3941" />
      <stop
         style="stop-color:#161616;stop-opacity:1;"
         offset="0.52678573"
         id="stop3937" />
      <stop
         id="stop3939"
         offset="0.94084823"
         style="stop-color:#000000;stop-opacity:1;" />
      <stop
         style="stop-color:#ffffff;stop-opacity:1;"
         offset="1"
         id="stop3159" />
    </linearGradient>
    <inkscape:perspective
       sodipodi:type="inkscape:persp3d"
       inkscape:vp_x="0 : 526.18109 : 1"
       inkscape:vp_y="0 : 1000 : 0"
       inkscape:vp_z="744.09448 : 526.18109 : 1"
       inkscape:persp3d-origin="372.04724 : 350.78739 : 1"
       id="perspective10" />
    <radialGradient
       inkscape:collect="always"
       xlink:href="#linearGradient3965"
       id="radialGradient3971"
       cx="37.123531"
       cy="36.808392"
       fx="37.123531"
       fy="36.808392"
       r="30.820726"
       gradientTransform="matrix(1,0,0,0.9202454,0,2.9356396)"
       gradientUnits="userSpaceOnUse" />
  </defs>
  <sodipodi:namedview
     id="base"
     pagecolor="#ffffff"
     bordercolor="#666666"
     borderopacity="1.0"
     gridtolerance="10000"
     guidetolerance="10"
     objecttolerance="10"
     inkscape:pageopacity="1"
     inkscape:pageshadow="2"
     inkscape:zoom="4"
     inkscape:cx="26.496348"
     inkscape:cy="-5.763027"
     inkscape:document-units="px"
     inkscape:current-layer="layer1"
     showgrid="false"
     inkscape:window-width="1855"
     inkscape:window-height="1056"
     inkscape:window-x="65"
     inkscape:window-y="24"
     inkscape:window-maximized="1" />
  <metadata
     id="metadata7">
    <rdf:RDF>
      <cc:Work
         rdf:about="">
        <dc:format>image/svg+xml</dc:format>
        <dc:type
           rdf:resource="http://purl.org/dc/dcmitype/StillImage" />
        <dc:title />
      </cc:Work>
    </rdf:RDF>
  </metadata>
  <g
     inkscape:label="Layer 1"
     inkscape:groupmode="layer"
     id="layer1"
     transform="translate(-191.42898,-282.87724)">
    <path
       style="fill:#f1a123;fill-opacity:1;stroke:#04baab;stroke-width:2.89400005;stroke-linecap:round;stroke-linejoin:round;stroke-miterlimit:4;stroke-opacity:0;stroke-dasharray:none"
       d="M 22.65625 1.4375 C 10.899502 1.4375 1.4375 10.899502 1.4375 22.65625 L 1.4375 52.34375 C 1.4375 64.100498 10.899502 73.5625 22.65625 73.5625 L 52.34375 73.5625 C 64.100498 73.5625 73.5625 64.100498 73.5625 52.34375 L 73.5625 22.65625 C 73.5625 10.899502 64.100498 1.4375 52.34375 1.4375 L 22.65625 1.4375 z M 15.25 5.75 L 23.25 5.75 L 24.34375 6.09375 L 25.25 7.5 L 24.75 9.0625 L 23.25 9.75 L 15.25 9.75 L 14.15625 9.4375 L 13.28125 8.03125 L 13.75 6.4375 L 15.25 5.75 z M 39.25 5.75 L 47.25 5.75 L 48.34375 6.09375 L 49.25 7.5 L 48.75 9.0625 L 47.25 9.75 L 39.25 9.75 L 38.15625 9.4375 L 37.28125 8.03125 L 37.75 6.4375 L 39.25 5.75 z M 61.71875 10.75 L 63.28125 11.25 L 63.46875 11.40625 L 63.59375 11.53125 L 64.71875 12.78125 L 64.84375 12.90625 L 65.84375 14.28125 L 65.96875 14.4375 L 66.84375 15.875 L 66.9375 16.03125 L 67.65625 17.5625 L 67.75 17.75 L 68.09375 18.71875 L 68.15625 19.875 L 67.15625 21.1875 L 65.5 21.28125 L 64.34375 20.09375 L 64.0625 19.3125 L 63.40625 17.9375 L 63.3125 17.78125 L 62.53125 16.5 L 61.78125 15.46875 L 61.75 15.40625 L 61.65625 15.3125 L 60.6875 14.28125 L 60.625 14.21875 L 60.59375 14.21875 L 60 13.21875 L 60.3125 11.59375 L 61.71875 10.75 z M 66.96875 33.3125 L 68.5625 33.78125 L 69.25 35.28125 L 69.25 43.28125 L 68.90625 44.375 L 67.5 45.28125 L 65.90625 44.78125 L 65.25 43.28125 L 65.25 35.28125 L 65.5625 34.1875 L 66.96875 33.3125 z M 65.5 56.96875 L 66.59375 58.21875 L 66.40625 59.84375 L 65.96875 60.5625 L 65.84375 60.75 L 64.84375 62.09375 L 64.71875 62.21875 L 63.59375 63.46875 L 63.46875 63.625 L 62.21875 64.75 L 62.0625 64.875 L 60.71875 65.875 L 60.5625 65.96875 L 60.1875 66.1875 L 59.09375 66.5 L 57.59375 65.75 L 57.1875 64.15625 L 58.125 62.78125 L 58.34375 62.65625 L 58.375 62.65625 L 58.5 62.5625 L 59.53125 61.78125 L 59.59375 61.71875 L 59.6875 61.65625 L 60.625 60.78125 L 61.65625 59.6875 L 61.75 59.59375 L 61.78125 59.53125 L 62.53125 58.5 L 62.96875 57.78125 L 63.84375 57 L 65.5 56.96875 z M 11.6875 65.25 L 19.6875 65.25 L 20.78125 65.5625 L 21.65625 66.96875 L 21.1875 68.5625 L 19.6875 69.25 L 11.6875 69.25 L 10.59375 68.90625 L 9.71875 67.53125 L 10.1875 65.9375 L 11.6875 65.25 z M 35.6875 65.25 L 43.6875 65.25 L 44.78125 65.5625 L 45.65625 66.96875 L 45.1875 68.5625 L 43.6875 69.25 L 35.6875 69.25 L 34.59375 68.90625 L 33.71875 67.53125 L 34.1875 65.9375 L 35.6875 65.25 z "
       transform="translate(191.42898,282.87724)"
       id="rect2383-3-4" />
  </g>
</svg>
