<?xml version="1.0" encoding="UTF-8" standalone="no"?>
<!-- Created with Inkscape (http://www.inkscape.org/) -->

<svg
   xmlns:dc="http://purl.org/dc/elements/1.1/"
   xmlns:cc="http://creativecommons.org/ns#"
   xmlns:rdf="http://www.w3.org/1999/02/22-rdf-syntax-ns#"
   xmlns:svg="http://www.w3.org/2000/svg"
   xmlns="http://www.w3.org/2000/svg"
   xmlns:sodipodi="http://sodipodi.sourceforge.net/DTD/sodipodi-0.dtd"
   xmlns:inkscape="http://www.inkscape.org/namespaces/inkscape"
   width="50"
   height="50"
   viewBox="0 0 50 50"
   version="1.1"
   id="svg16802"
   inkscape:version="0.92.3 (2405546, 2018-03-11)"
   sodipodi:docname="MainMenu.svg">
  <defs
     id="defs16796" />
  <sodipodi:namedview
     id="base"
     pagecolor="#ffffff"
     bordercolor="#666666"
     borderopacity="1.0"
     inkscape:pageopacity="0.0"
     inkscape:pageshadow="2"
     inkscape:zoom="4"
     inkscape:cx="-55.100256"
     inkscape:cy="35.538019"
     inkscape:document-units="mm"
     inkscape:current-layer="layer1"
     showgrid="false"
     inkscape:window-width="3373"
     inkscape:window-height="1385"
     inkscape:window-x="67"
     inkscape:window-y="27"
     inkscape:window-maximized="1"
     fit-margin-top="0"
     fit-margin-left="0"
     fit-margin-right="0"
     fit-margin-bottom="0"
     units="px"
     viewbox-width="50"
     viewbox-height="50">
    <inkscape:grid
       type="xygrid"
       id="grid834"
       originx="41.463549"
       originy="-19.709389" />
  </sodipodi:namedview>
  <metadata
     id="metadata16799">
    <rdf:RDF>
      <cc:Work
         rdf:about="">
        <dc:format>image/svg+xml</dc:format>
        <dc:type
           rdf:resource="http://purl.org/dc/dcmitype/StillImage" />
        <dc:title />
      </cc:Work>
    </rdf:RDF>
  </metadata>
  <g
     inkscape:label="Layer 1"
     inkscape:groupmode="layer"
     id="layer1">
    <rect
       style="fill:#d9d9d9;fill-opacity:1;stroke:none;stroke-width:0.10140844;stroke-miterlimit:4;stroke-dasharray:0.20281694, 0.20281694;stroke-dashoffset:0.83999997;stroke-opacity:1"
       id="backdrop"
       width="49.941105"
       height="49.941093"
       x="-3.5"
       y="109.94109" />
    <g
       id="settingsButton"
       transform="translate(-109.60155,248.90159)">
      <path
         id="rewindButtonPath-3-7-5-2"
         d="M 19.35157,0.0332 C 8.69401,0.0332 0,8.72722 0,19.38477 V 30.61523 C 0,41.27279 8.69401,49.9668 19.35157,49.9668 h 11.23046 c 10.65757,0 19.35157,-8.69401 19.35157,-19.35157 V 19.38477 C 49.9336,8.72722 41.2396,0.0332 30.58203,0.0332 Z"
         style="color:#000000;font-style:normal;font-variant:normal;font-weight:normal;font-stretch:normal;font-size:medium;line-height:normal;font-family:Roboto;-inkscape-font-specification:Sans;text-indent:0;text-align:start;text-decoration:none;text-decoration-line:none;letter-spacing:normal;word-spacing:normal;text-transform:none;writing-mode:lr-tb;direction:ltr;baseline-shift:baseline;text-anchor:start;display:inline;overflow:visible;visibility:visible;fill:#7b7b7b;fill-opacity:1;stroke:none;stroke-width:7.4902277;marker:none;enable-background:accumulate"
         inkscape:connector-curvature="0" />
      <path
         inkscape:connector-curvature="0"
         id="rewindButtonPath-3-7-5-3-1"
         d="m 22.56735,5.28466 v 0.002 c -0.12293,0.005 -0.24343,0.003 -0.375,0.0215 -0.13172,0.0187 -0.25321,0.0376 -0.37305,0.0664 -3.71337,0.88828 -1.88262,6.48761 -5.13086,9.02734 -3.35301,2.62167 -8.55938,-0.79849 -10.15234,3.14844 -1.59296,3.94693 4.53694,5.09981 5.13086,9.31446 0.59392,4.21462 -4.97712,7.01807 -2.35547,10.37109 2.62167,3.35306 6.68782,-1.37228 10.63476,0.2207 3.94693,1.59297 3.58029,7.81658 7.79493,7.22266 4.21463,-0.59392 2.15284,-6.4721 5.50586,-9.09375 3.35301,-2.62167 8.55743,0.79849 10.15039,-3.14844 1.59299,-3.94693 -4.535,-5.12326 -5.12891,-9.33789 C 37.6746,18.88453 43.24564,16.1026 40.62399,12.74956 38.00232,9.39649 33.93421,14.12377 29.98727,12.53081 26.16368,10.98762 26.38158,5.11108 22.56735,5.28472 Z m 2.02539,9.58008 c 5.13008,-0.19908 9.66271,3.50403 10.39453,8.69726 0.78061,5.53946 -3.07189,10.67056 -8.61133,11.45117 -5.53944,0.78061 -10.66861,-3.07189 -11.44922,-8.61133 -0.78061,-5.53943 3.09142,-10.6686 8.63086,-11.44921 0.34621,-0.0487 0.69315,-0.0746 1.03516,-0.0879 z"
         style="color:#000000;font-style:normal;font-variant:normal;font-weight:normal;font-stretch:normal;font-size:medium;line-height:normal;font-family:Roboto;-inkscape-font-specification:Sans;text-indent:0;text-align:start;text-decoration:none;text-decoration-line:none;letter-spacing:normal;word-spacing:normal;text-transform:none;writing-mode:lr-tb;direction:ltr;baseline-shift:baseline;text-anchor:start;display:inline;overflow:visible;visibility:visible;fill:#ffffff;fill-opacity:1;stroke:none;stroke-width:7.11521816;marker:none;enable-background:accumulate" />
    </g>
    <g
       id="connectorButton"
       transform="translate(-115.5,-1)">
      <path
         id="settingsButton-3-6"
         d="M 19.355493,0 C 8.697905,0 0,8.6979107 0,19.35547 v 11.23014 c 0,10.657538 8.697905,19.355483 19.355493,19.355483 h 11.230122 c 10.657562,0 19.355494,-8.697945 19.355494,-19.355483 V 19.35547 C 49.941109,8.6979107 41.243177,0 30.585615,0 Z"
         style="color:#000000;font-style:normal;font-variant:normal;font-weight:normal;font-stretch:normal;font-size:medium;line-height:normal;font-family:Roboto;-inkscape-font-specification:Sans;text-indent:0;text-align:start;text-decoration:none;text-decoration-line:none;letter-spacing:normal;word-spacing:normal;text-transform:none;writing-mode:lr-tb;direction:ltr;baseline-shift:baseline;text-anchor:start;display:inline;overflow:visible;visibility:visible;fill:#7b7b7b;fill-opacity:1;stroke:none;stroke-width:7.4902277;marker:none;enable-background:accumulate"
         inkscape:connector-curvature="0" />
      <path
         inkscape:connector-curvature="0"
         id="settingsButton-3"
         d="m 44.883707,8.7427349 c 0.02397,0.034382 0.04874,0.068657 0.07297,0.1032253 V 8.7427349 Z m -30.24707,0.9757509 c -2.5246,0.054223 -5.029758,1.0703292 -6.914232,3.0387452 -3.768976,3.936866 -3.628546,10.169611 0.308291,13.938585 3.176549,3.041096 7.847148,3.552283 11.516388,1.563411 l -3.963576,-3.809438 c -1.457645,0.217476 -2.992789,-0.201098 -4.139745,-1.299175 -1.968499,-1.884498 -2.038647,-5.011879 -0.154199,-6.980301 1.884474,-1.968471 5.011861,-2.038612 6.980306,-0.154145 1.146957,1.098063 1.651019,2.607965 1.497353,4.073677 l 3.963575,3.80944 c 1.82719,-3.752384 1.128714,-8.409241 -2.047834,-11.450338 -1.968419,-1.884472 -4.521781,-2.784793 -7.04638,-2.7304665 z m 1.034943,8.2134172 c -0.179766,0.0032 -0.349944,0.05619 -0.484435,0.19681 l -1.761595,1.82765 c -0.269595,0.280938 -0.258862,0.721965 0.02131,0.990894 l 7.662909,7.354642 -1.034917,1.100993 c -0.218115,0.227703 -0.227703,0.574597 0,0.792718 l 9.138238,8.743264 c 0.227703,0.218649 0.574877,0.205679 0.792726,-0.0221 l 1.673496,-1.73957 c 1.089113,1.101818 2.027515,1.940673 2.906635,2.576326 1.174441,0.849135 2.263899,1.346334 3.369044,1.431293 1.105145,0.08498 2.147678,-0.237956 3.17085,-0.748677 2.108205,-1.052287 2.868546,-2.659132 2.840583,-3.919543 -0.02796,-1.26043 -0.682629,-2.157947 -0.682629,-2.157947 l -1.60745,1.123014 c 0,0 0.316973,0.492912 0.330289,1.078974 0.01332,0.586089 -0.123039,1.296016 -1.761595,2.113909 -0.850224,0.424353 -1.493651,0.578011 -2.135907,0.528476 -0.642255,-0.0494 -1.361397,-0.315711 -2.356125,-1.034936 -0.755868,-0.546513 -1.647158,-1.34362 -2.708467,-2.422186 l 1.78362,-1.871689 c 0.218115,-0.227703 0.227703,-0.574602 0,-0.792715 L 25.689922,24.33961 c -0.227703,-0.218648 -0.57461,-0.207064 -0.792725,0.02077 l -1.056968,1.100992 -7.662909,-7.354639 c -0.14035,-0.134225 -0.326694,-0.177448 -0.506459,-0.174785 z"
         style="color:#000000;font-style:normal;font-variant:normal;font-weight:normal;font-stretch:normal;font-size:medium;line-height:normal;font-family:Roboto;-inkscape-font-specification:Sans;text-indent:0;text-align:start;text-decoration:none;text-decoration-line:none;letter-spacing:normal;word-spacing:normal;text-transform:none;writing-mode:lr-tb;direction:ltr;baseline-shift:baseline;text-anchor:start;display:inline;overflow:visible;visibility:visible;fill:#ffffff;fill-opacity:1;stroke:none;stroke-width:12.37801552;marker:none;enable-background:accumulate" />
    </g>
    <g
       id="recordButton"
       transform="translate(63.000001,-88.750001)">
      <path
         id="rewindButtonPath-3-7-5-36"
         d="M 19.35157,0 C 8.69401,0 0,8.69402 0,19.35157 V 30.58203 C 0,41.23959 8.69401,49.9336 19.35157,49.9336 h 11.23046 c 10.65757,0 19.35157,-8.69401 19.35157,-19.35157 V 19.35157 C 49.9336,8.69402 41.2396,0 30.58203,0 Z"
         style="color:#000000;font-style:normal;font-variant:normal;font-weight:normal;font-stretch:normal;font-size:medium;line-height:normal;font-family:Roboto;-inkscape-font-specification:Sans;text-indent:0;text-align:start;text-decoration:none;text-decoration-line:none;letter-spacing:normal;word-spacing:normal;text-transform:none;writing-mode:lr-tb;direction:ltr;baseline-shift:baseline;text-anchor:start;display:inline;overflow:visible;visibility:visible;fill:#7b7b7b;fill-opacity:1;stroke:none;stroke-width:7.4902277;marker:none;enable-background:accumulate"
         inkscape:connector-curvature="0" />
      <path
         inkscape:connector-curvature="0"
         id="rewindButtonPath-3-7-5-3-9"
         d="m 24.96681,8.45509 c -5.41001,-10e-6 -9.80664,4.39467 -9.80664,9.80468 0,5.41 4.39663,9.78516 9.80664,9.78516 5.41,0 9.80468,-4.37516 9.80468,-9.78516 0,-5.41001 -4.39468,-9.80468 -9.80468,-9.80468 z M 35.89454,31.0254 c -1.67835,10e-6 -3.01323,0.48537 -3.99414,1.42578 -0.98091,0.93592 -1.46875,2.21141 -1.46875,3.82226 0,1.60637 0.48784,2.86037 1.46875,3.80079 0.98091,0.93591 2.31579,1.40429 3.99414,1.40429 0.56244,0 1.10364,-0.0459 1.62109,-0.17187 0.51745,-0.12599 1.01327,-0.31501 1.49023,-0.5625 v -2.09571 c -0.48147,0.32848 -0.95781,0.5814 -1.42577,0.73438 -0.46797,0.15298 -0.9513,0.2168 -1.46875,0.2168 -0.92694,0 -1.67219,-0.29082 -2.20313,-0.88477 -0.53096,-0.59394 -0.79883,-1.40199 -0.79883,-2.44141 0,-1.0439 0.26787,-1.86894 0.79883,-2.46289 0.53094,-0.59395 1.27619,-0.88474 2.20313,-0.88476 0.51745,3e-5 1.00078,0.0638 1.46875,0.2168 0.46796,0.15298 0.9443,0.40396 1.42577,0.73242 V 31.78126 C 38.5289,31.53379 38.03308,31.34475 37.51563,31.21876 36.99818,31.09277 36.45698,31.02542 35.89454,31.0254 Z m -24.9668,0.19336 v 10.06445 h 2.5918 v -3.80078 h 0.73438 c 0.42296,0 0.76363,0.0968 1.01562,0.28125 0.25648,0.18449 0.50836,0.51167 0.75585,1.01562 l 1.23048,2.50391 h 2.76562 L 18.6172,38.4336 c -0.288,-0.58044 -0.58178,-1.01339 -0.86524,-1.29687 -0.27898,-0.28797 -0.59376,-0.47955 -0.94922,-0.56055 0.64794,-0.20247 1.12779,-0.5237 1.44727,-0.95117 0.32397,-0.42745 0.49607,-0.95319 0.49609,-1.61914 -2e-5,-0.9629 -0.3068,-1.67171 -0.92773,-2.11719 -0.61645,-0.44543 -1.58865,-0.66991 -2.91602,-0.66992 z m 10.62696,0 v 10.06445 h 7.16991 V 39.31837 H 24.16798 V 37.0293 h 4.14648 v -1.96484 h -4.14648 v -1.87891 h 4.40625 v -1.96679 z m -8.03516,1.8789 h 1.10156 c 0.54445,1e-5 0.93203,0.10475 1.16602,0.30274 0.23848,0.19799 0.36719,0.5137 0.36719,0.97265 0,0.46347 -0.12874,0.81314 -0.36719,1.01563 -0.23399,0.20247 -0.62157,0.30079 -1.16602,0.30078 h -1.10156 z"
         style="color:#000000;font-style:normal;font-variant:normal;font-weight:normal;font-stretch:normal;font-size:medium;line-height:normal;font-family:Roboto;-inkscape-font-specification:Sans;text-indent:0;text-align:start;text-decoration:none;text-decoration-line:none;letter-spacing:normal;word-spacing:normal;text-transform:none;writing-mode:lr-tb;direction:ltr;baseline-shift:baseline;text-anchor:start;display:inline;overflow:visible;visibility:visible;fill:#ffffff;fill-opacity:1;stroke:none;stroke-width:7.11521816;marker:none;enable-background:accumulate" />
      <path
         style="fill:#ff0000;fill-opacity:1;stroke:none;stroke-width:0.74226928"
         d="m 32.26254,18.46487 a 7.2347462,7.2347446 0 0 1 -7.23474,7.23474 7.2347462,7.2347446 0 0 1 -7.23473,-7.23474 7.2347462,7.2347446 0 0 1 7.23473,-7.23475 7.2347462,7.2347446 0 0 1 7.23474,7.23475 z"
         id="recordEllipse"
         inkscape:connector-curvature="0" />
    </g>
    <g
       id="rewindButton"
       transform="translate(-115.5,58)">
      <path
         id="rewindButtonPath-3-7"
         d="M 19.35157,0 C 8.69401,0 0,8.69402 0,19.35157 V 30.58203 C 0,41.23959 8.69401,49.9336 19.35157,49.9336 h 11.23046 c 10.65757,0 19.35157,-8.69401 19.35157,-19.35157 V 19.35157 C 49.9336,8.69402 41.2396,0 30.58203,0 Z"
         style="color:#000000;font-style:normal;font-variant:normal;font-weight:normal;font-stretch:normal;font-size:medium;line-height:normal;font-family:Roboto;-inkscape-font-specification:Sans;text-indent:0;text-align:start;text-decoration:none;text-decoration-line:none;letter-spacing:normal;word-spacing:normal;text-transform:none;writing-mode:lr-tb;direction:ltr;baseline-shift:baseline;text-anchor:start;display:inline;overflow:visible;visibility:visible;fill:#7b7b7b;fill-opacity:1;stroke:none;stroke-width:7.4902277;marker:none;enable-background:accumulate"
         inkscape:connector-curvature="0" />
      <path
         inkscape:connector-curvature="0"
         id="rewindButtonPath-3"
         d="m 22.18427,15.70519 c -1.41378,0.0284 -3.76462,1.35496 -7.66601,3.60742 -9.60337,5.54451 -9.60337,5.77188 0,11.3164 9.60341,5.54451 9.80468,5.43084 9.80468,-5.6582 0,-6.58412 -0.0724,-9.30722 -2.13867,-9.26562 z m 18.31641,0 c -1.41381,0.0284 -3.76661,1.35496 -7.66797,3.60742 -9.6034,5.54451 -9.6034,5.77188 0,11.3164 9.60336,5.54451 9.78516,5.43084 9.78516,-5.6582 0,-6.58412 -0.0509,-9.30722 -2.11719,-9.26562 z"
         style="color:#000000;font-style:normal;font-variant:normal;font-weight:normal;font-stretch:normal;font-size:medium;line-height:normal;font-family:Roboto;-inkscape-font-specification:Sans;text-indent:0;text-align:start;text-decoration:none;text-decoration-line:none;letter-spacing:normal;word-spacing:normal;text-transform:none;writing-mode:lr-tb;direction:ltr;baseline-shift:baseline;text-anchor:start;display:inline;overflow:visible;visibility:visible;fill:#ffffff;fill-opacity:1;stroke:none;stroke-width:6.96521473;marker:none;enable-background:accumulate" />
    </g>
    <g
       id="jamButton"
       transform="translate(-115,117)">
      <path
         id="rewindButtonPath-3-7-5-6"
         d="M 19.35157,0 C 8.69401,0 0,8.69402 0,19.35157 V 30.58203 C 0,41.23959 8.69401,49.9336 19.35157,49.9336 h 11.23046 c 10.65757,0 19.35157,-8.69401 19.35157,-19.35157 V 19.35157 C 49.9336,8.69402 41.2396,0 30.58203,0 Z"
         style="color:#000000;font-style:normal;font-variant:normal;font-weight:normal;font-stretch:normal;font-size:medium;line-height:normal;font-family:Roboto;-inkscape-font-specification:Sans;text-indent:0;text-align:start;text-decoration:none;text-decoration-line:none;letter-spacing:normal;word-spacing:normal;text-transform:none;writing-mode:lr-tb;direction:ltr;baseline-shift:baseline;text-anchor:start;display:inline;overflow:visible;visibility:visible;fill:#7b7b7b;fill-opacity:1;stroke:none;stroke-width:7.4902277;marker:none;enable-background:accumulate"
         inkscape:connector-curvature="0" />
      <path
         inkscape:connector-curvature="0"
         id="rewindButtonPath-3-7-5-3-5"
         d="M 37.62403,5.20411 33.542,7.8838 l 1.51172,8.55273 -7.21485,-4.81641 -4.10351,2.67774 8.18555,12.48437 3.04492,-2.00976 -5.98242,-9.11328 7.27929,4.83789 2.05078,-1.33985 -1.5332,-8.5957 5.98242,9.11328 3.04688,-1.98633 z m -20.15234,13.19727 -3.82227,2.52734 3.54102,15.50781 3.24023,-2.11719 -0.6914,-2.80859 5.01171,-3.2832 2.28907,1.75 3.24023,-2.11719 z m 0,4.18945 4.96875,3.8457 -3.43555,2.24609 z m -10.12891,2.46289 -3.21875,2.0957 7.36524,11.27344 c 0.47446,0.72433 0.66344,1.38674 0.5625,1.98633 -0.0953,0.59594 -0.47787,1.1167 -1.14649,1.55469 l -0.49609,0.32421 1.59765,2.4414 0.64844,-0.43163 c 1.71054,-1.12051 2.72875,-2.35186 3.06641,-3.67188 0.34321,-1.32369 0.005,-2.76575 -1.01367,-4.32031 z"
         style="color:#000000;font-style:normal;font-variant:normal;font-weight:normal;font-stretch:normal;font-size:medium;line-height:normal;font-family:Roboto;-inkscape-font-specification:Sans;text-indent:0;text-align:start;text-decoration:none;text-decoration-line:none;letter-spacing:normal;word-spacing:normal;text-transform:none;writing-mode:lr-tb;direction:ltr;baseline-shift:baseline;text-anchor:start;display:inline;overflow:visible;visibility:visible;fill:#ffffff;fill-opacity:1;stroke:none;stroke-width:7.11521816;marker:none;enable-background:accumulate" />
    </g>
    <g
       id="sequencerButton"
       transform="translate(-117.37973,179.60512)">
      <path
         id="rewindButtonPath-3-7-5-9"
         d="M 19.35157,0 C 8.69401,0 0,8.69402 0,19.35157 V 30.58203 C 0,41.23959 8.69401,49.9336 19.35157,49.9336 h 11.23046 c 10.65757,0 19.35157,-8.69401 19.35157,-19.35157 V 19.35157 C 49.9336,8.69402 41.2396,0 30.58203,0 Z"
         style="color:#000000;font-style:normal;font-variant:normal;font-weight:normal;font-stretch:normal;font-size:medium;line-height:normal;font-family:Roboto;-inkscape-font-specification:Sans;text-indent:0;text-align:start;text-decoration:none;text-decoration-line:none;letter-spacing:normal;word-spacing:normal;text-transform:none;writing-mode:lr-tb;direction:ltr;baseline-shift:baseline;text-anchor:start;display:inline;overflow:visible;visibility:visible;fill:#7b7b7b;fill-opacity:1;stroke:none;stroke-width:7.4902277;marker:none;enable-background:accumulate"
         inkscape:connector-curvature="0" />
      <path
         inkscape:connector-curvature="0"
         id="rewindButtonPath-3-7-5-3-2"
         d="m 16.36914,6.51337 c -0.43924,0.0183 -0.8635,0.14969 -1.23046,0.3457 -0.94395,0.50452 -1.68464,1.37563 -2.18165,2.46094 H 7.36328 3.97266 v 1.10156 5.85352 1.10156 5.85352 1.10156 5.85351 1.10157 5.83008 1.10156 h 14.14648 c 0.093,1.65701 -0.0352,2.90973 -0.28125,3.32617 -0.60542,1.02448 -1.12461,1.43955 -1.44531,1.57617 -0.3207,0.13689 -0.50025,0.10777 -0.7793,-0.0195 -0.55809,-0.25447 -1.12304,-1.05859 -1.12304,-1.05859 l -1.90039,1.1875 c 0,0 0.69883,1.26346 2.0957,1.90039 0.69844,0.31837 1.66869,0.43627 2.5918,0.043 0.92312,-0.3933 1.72792,-1.20426 2.48437,-2.48438 0.70096,-1.186 0.81284,-2.7071 0.66797,-4.4707 h 25.5293 V 37.11695 H 20.30078 c -0.0133,-0.11012 -0.005,-0.21236 -0.0215,-0.32422 1.14427,-0.30653 2.16881,-0.84349 2.98047,-1.61914 0.98861,-0.94479 1.04077,-2.40076 0.60547,-3.51954 -0.0501,-0.12829 -0.11443,-0.24174 -0.17383,-0.36718 H 45.95897 V 30.1853 H 23.0449 c -0.39037,-0.54263 -0.85971,-1.05955 -1.36132,-1.5332 -0.93685,-0.88471 -2.01118,-1.6301 -3.06641,-2.0957 -0.20009,-0.0882 -0.38318,-0.17168 -0.58398,-0.23828 -0.0168,-0.0631 -0.0485,-0.10908 -0.0645,-0.17188 -0.1733,-0.65102 -0.31561,-1.22865 -0.47461,-1.81445 H 45.95893 V 23.23023 H 17.19135 c -0.003,-0.0119 -0.0185,-0.0297 -0.0215,-0.043 0.27932,-0.29407 0.60371,-0.65102 0.8418,-0.88672 1.28283,-1.26975 1.97434,-3.02812 2.26758,-4.92383 H 45.96087 V 16.27512 H 20.41009 c 0.003,-0.0442 -0.003,-0.0847 0,-0.12891 0.12935,-1.89652 -0.0862,-3.88994 -0.58398,-5.72461 H 45.96087 V 9.32004 H 19.4804 C 19.4573,9.25324 19.44,9.19298 19.416,9.12668 19.02907,8.05432 18.4799,7.25095 17.666,6.81613 17.25909,6.59875 16.81032,6.4948 16.37108,6.5134 Z m 0.0664,2.22461 c 0.0589,-0.005 0.10608,0.008 0.17187,0.043 0.0916,0.049 0.26492,0.19687 0.45508,0.53906 h -1.42578 c 0.19932,-0.24136 0.38113,-0.41169 0.53906,-0.49609 0.12544,-0.0677 0.20087,-0.0809 0.25977,-0.0859 z m -9.07227,1.68359 h 5.20508 c -0.082,0.28339 -0.15894,0.58719 -0.21484,0.88672 -0.14344,0.76732 -0.028,1.5338 0.15039,2.54883 0.12581,0.71541 0.30461,1.52841 0.51953,2.41797 H 7.36327 Z m 7.58204,0 h 2.54882 c 0.54705,1.74343 0.81525,3.75712 0.69141,5.57227 -0.005,0.0938 -0.0135,0.18885 -0.0215,0.28125 h -2.85157 c -0.26618,-1.07478 -0.46964,-2.0341 -0.60547,-2.80664 -0.16187,-0.91587 -0.17439,-1.61977 -0.15039,-1.75 0.0869,-0.46436 0.21344,-0.91343 0.38868,-1.29688 z m -7.58204,6.95508 h 0.002 5.91797 c 0.003,0.0165 0.0165,0.027 0.0215,0.043 0.38289,1.49957 0.91761,3.40393 1.40234,5.16211 -0.18374,0.20941 -0.37545,0.42606 -0.56054,0.64844 H 7.36333 Z m 8.23047,0 h 2.41797 c -0.26784,1.37191 -0.78451,2.53434 -1.51172,3.2832 -0.29359,-1.07041 -0.64179,-2.27886 -0.90625,-3.2832 z m -8.23047,6.95508 h 5.91797 c -0.31551,0.42821 -0.61668,0.88606 -0.90625,1.36133 -0.82729,1.35772 -1.52301,2.89346 -1.70703,4.49218 H 7.36327 Z m 8.05664,0.88476 c 0.10449,0.38406 0.17765,0.69395 0.28126,1.08008 -0.12643,0.0578 -0.24841,0.1297 -0.36719,0.2168 -0.81022,0.59402 -1.27842,1.45347 -1.38281,2.26758 -0.0634,0.49392 -0.015,0.97351 0.0859,1.40429 h -1.09961 c 0.17614,-1.08728 0.66301,-2.24005 1.33789,-3.34765 0.34555,-0.56712 0.74173,-1.09954 1.14453,-1.6211 z m -2.54882,6.06836 h 1.55664 c 0.4944,1.07982 1.16601,1.81446 1.16601,1.81446 l 1.49024,-1.29492 c 0.2411,1.05952 0.45003,2.07648 0.625,3.04492 -0.28467,0.003 -0.58314,0.009 -0.86328,-0.0215 -1.87848,-0.20765 -3.36346,-1.03481 -3.82227,-2.59179 -0.0914,-0.30978 -0.13634,-0.6217 -0.15234,-0.94922 z m -5.50782,0.002 h 0.002 3.25976 c 0.0208,0.52625 0.10344,1.04574 0.25977,1.57617 0.77126,2.61733 3.27389,3.91873 5.72265,4.18945 0.47308,0.0511 0.95097,0.0563 1.42579,0.043 6.9e-4,0.008 -6.9e-4,0.0135 0,0.0215 H 7.36331 Z m 11.88086,0 h 1.8125 c 0.32951,0.42547 0.59749,0.83535 0.73438,1.1875 0.24633,0.63294 0.22091,0.82882 -0.0644,1.10156 -0.40622,0.38816 -1.06605,0.69497 -1.81446,0.92773 -0.18522,-1.03462 -0.41124,-2.10666 -0.66797,-3.21679 z"
         style="color:#000000;font-style:normal;font-variant:normal;font-weight:normal;font-stretch:normal;font-size:medium;line-height:normal;font-family:Roboto;-inkscape-font-specification:Sans;text-indent:0;text-align:start;text-decoration:none;text-decoration-line:none;letter-spacing:normal;word-spacing:normal;text-transform:none;writing-mode:lr-tb;direction:ltr;baseline-shift:baseline;text-anchor:start;display:inline;overflow:visible;visibility:visible;fill:#ffffff;fill-opacity:1;stroke:none;stroke-width:7.11521816;marker:none;enable-background:accumulate" />
    </g>
    <g
       id="playButton">
      <path
         id="rewindButtonPath-3-7-5-0"
         d="M 19.35157,0 C 8.69401,0 0,8.69402 0,19.35157 V 30.58203 C 0,41.23959 8.69401,49.9336 19.35157,49.9336 h 11.23046 c 10.65757,0 19.35157,-8.69401 19.35157,-19.35157 V 19.35157 C 49.9336,8.69402 41.2396,0 30.58203,0 Z"
         style="color:#000000;font-style:normal;font-variant:normal;font-weight:normal;font-stretch:normal;font-size:medium;line-height:normal;font-family:Roboto;-inkscape-font-specification:Sans;text-indent:0;text-align:start;text-decoration:none;text-decoration-line:none;letter-spacing:normal;word-spacing:normal;text-transform:none;writing-mode:lr-tb;direction:ltr;baseline-shift:baseline;text-anchor:start;display:inline;overflow:visible;visibility:visible;fill:#7b7b7b;fill-opacity:1;stroke:none;stroke-width:7.4902277;marker:none;enable-background:accumulate"
         inkscape:connector-curvature="0" />
      <path
         inkscape:connector-curvature="0"
         id="rewindButtonPath-3-7-5-3-7"
         d="M 14.74711,9.89075 C 11.38286,9.79095 11.24222,14.22389 11.13969,24.94543 10.96687,43.00277 11.26871,43.17603 26.99321,34.297 42.71776,25.41797 42.73829,25.05149 27.18656,15.87317 20.86869,12.14449 17.04891,9.95895 14.74711,9.89075 Z"
         style="color:#000000;font-style:normal;font-variant:normal;font-weight:normal;font-stretch:normal;font-size:medium;line-height:normal;font-family:Roboto;-inkscape-font-specification:Sans;text-indent:0;text-align:start;text-decoration:none;text-decoration-line:none;letter-spacing:normal;word-spacing:normal;text-transform:none;writing-mode:lr-tb;direction:ltr;baseline-shift:baseline;text-anchor:start;display:inline;overflow:visible;visibility:visible;fill:#ffffff;fill-opacity:1;stroke:none;stroke-width:7.11521816;marker:none;enable-background:accumulate" />
      <path
         inkscape:connector-curvature="0"
         id="playbackIndicator"
         d="m 14.747109,9.8907499 c -3.36425,-0.0998 -3.50489,4.3331401 -3.60742,15.0546801 -0.17282,18.05734 0.12902,18.2306 15.853521,9.35157 C 42.71776,25.41797 42.73829,25.05149 27.18656,15.87317 20.868689,12.14449 17.048909,9.9589499 14.747109,9.8907499 Z"
         style="color:#000000;font-style:normal;font-variant:normal;font-weight:normal;font-stretch:normal;font-size:medium;line-height:normal;font-family:Roboto;-inkscape-font-specification:Sans;text-indent:0;text-align:start;text-decoration:none;text-decoration-line:none;letter-spacing:normal;word-spacing:normal;text-transform:none;writing-mode:lr-tb;direction:ltr;baseline-shift:baseline;text-anchor:start;display:inline;overflow:visible;visibility:visible;fill:#00ffff;fill-opacity:1;stroke:none;stroke-width:7.11521816;marker:none;enable-background:accumulate" />
    </g>
  </g>
</svg>
