<?xml version="1.0" encoding="UTF-8" standalone="no"?>
<!-- Created with Inkscape (http://www.inkscape.org/) -->

<svg
   xmlns:dc="http://purl.org/dc/elements/1.1/"
   xmlns:cc="http://creativecommons.org/ns#"
   xmlns:rdf="http://www.w3.org/1999/02/22-rdf-syntax-ns#"
   xmlns:svg="http://www.w3.org/2000/svg"
   xmlns="http://www.w3.org/2000/svg"
   xmlns:sodipodi="http://sodipodi.sourceforge.net/DTD/sodipodi-0.dtd"
   xmlns:inkscape="http://www.inkscape.org/namespaces/inkscape"
   version="1.1"
   width="570.03522"
   height="149.91814"
   id="svg2"
   inkscape:version="0.48.3.1 r9886"
   sodipodi:docname="pncseq_help_3.svg">
  <sodipodi:namedview
     pagecolor="#ffffff"
     bordercolor="#666666"
     borderopacity="1"
     objecttolerance="10"
     gridtolerance="10"
     guidetolerance="10"
     inkscape:pageopacity="0"
     inkscape:pageshadow="2"
     inkscape:window-width="1855"
     inkscape:window-height="1056"
     id="namedview3607"
     showgrid="false"
     inkscape:zoom="1.0705242"
     inkscape:cx="483.08352"
     inkscape:cy="-123.35022"
     inkscape:window-x="65"
     inkscape:window-y="24"
     inkscape:window-maximized="1"
     inkscape:current-layer="svg2"
     fit-margin-top="0"
     fit-margin-left="0"
     fit-margin-right="0"
     fit-margin-bottom="0" />
  <defs
     id="defs4">
    <marker
       inkscape:stockid="Arrow2Lstart"
       orient="auto"
       refY="0"
       refX="0"
       id="Arrow2Lstart"
       style="overflow:visible">
      <path
         id="path11834"
         style="fill-rule:evenodd;stroke-width:0.625;stroke-linejoin:round"
         d="M 8.7185878,4.0337352 -2.2072895,0.01601326 8.7185884,-4.0017078 c -1.7454984,2.3720609 -1.7354408,5.6174519 -6e-7,8.035443 z"
         transform="matrix(1.1,0,0,1.1,1.1,0)"
         inkscape:connector-curvature="0" />
    </marker>
  </defs>
  <metadata
     id="metadata7">
    <rdf:RDF>
      <cc:Work
         rdf:about="">
        <dc:format>image/svg+xml</dc:format>
        <dc:type
           rdf:resource="http://purl.org/dc/dcmitype/StillImage" />
        <dc:title></dc:title>
      </cc:Work>
    </rdf:RDF>
  </metadata>
  <path
     style="fill:#000000;fill-opacity:1;stroke:#000000;stroke-width:4;stroke-linejoin:bevel;stroke-miterlimit:4;stroke-opacity:1;stroke-dashoffset:0"
     d="m 488.26797,134.66726 c 3.70118,-1.08951 4.74906,-8.43107 6.6149,-23.46235 3.53869,-28.507881 3.1077,-29.453481 -21.61006,-19.238849 C 460.4586,59.557629 449.2963,39.602587 440.9624,27.477908 c -4.79019,-6.969049 -8.64521,-11.352027 -11.3512,-14.021657 -2.706,-2.669629 -4.43168,-3.7294584 -4.43168,-3.7294584 l -2.20346,3.9932814 c 0,0 1.08211,0.612572 3.54887,3.046186 2.46677,2.433624 6.1405,6.581788 10.78363,13.33689 8.08101,11.756757 19.10088,31.411337 31.81999,63.581589 -23.81641,9.943411 -23.22208,11.113231 -1.19563,28.699271 11.04009,8.81449 16.85819,13.30673 20.33505,12.28325 z"
     id="path12305"
     inkscape:connector-curvature="0" />
  <g
     style="font-size:40px;font-style:normal;font-weight:normal;line-height:125%;letter-spacing:0px;word-spacing:0px;fill:#000000;fill-opacity:1;stroke:none;font-family:Sans"
     id="text12405">
    <path
       d="m 19.412484,34.168922 0,10.957032 4.960938,0 c 1.835923,1.5e-5 3.255192,-0.475245 4.257812,-1.425782 1.002586,-0.950503 1.503888,-2.304668 1.503906,-4.0625 -1.8e-5,-1.744769 -0.50132,-3.092424 -1.503906,-4.042968 -1.00262,-0.950496 -2.421889,-1.425756 -4.257812,-1.425782 l -4.960938,0 m -3.945312,-3.242187 8.90625,0 c 3.268213,2.9e-5 5.735658,0.742216 7.402343,2.226562 1.679666,1.47138 2.519509,3.632836 2.519532,6.484375 -2.3e-5,2.877622 -0.839866,5.052099 -2.519532,6.523438 -1.666685,1.471367 -4.13413,2.207043 -7.402343,2.207031 l -4.960938,0 0,11.71875 -3.945312,0 0,-29.160156"
       style=""
       id="path13306" />
    <path
       d="m 53.435922,46.415016 c 0.846335,0.286472 1.666647,0.89845 2.460937,1.835938 0.807271,0.937511 1.614562,2.226572 2.421875,3.867187 l 4.003906,7.96875 -4.238281,0 -3.730469,-7.480469 c -0.963559,-1.953115 -1.901058,-3.248687 -2.8125,-3.886718 -0.898452,-0.638009 -2.12892,-0.957019 -3.691406,-0.957032 l -4.296875,0 0,12.324219 -3.945312,0 0,-29.160156 8.90625,0 c 3.333317,2.9e-5 5.820294,0.696643 7.460937,2.089844 1.640603,1.393255 2.460915,3.496117 2.460938,6.308593 -2.3e-5,1.835957 -0.42971,3.359393 -1.289063,4.570313 -0.846375,1.210952 -2.083353,2.050795 -3.710937,2.519531 m -9.882813,-12.246094 0,10.351563 4.960938,0 c 1.901027,1.5e-5 3.333317,-0.436182 4.296875,-1.308594 0.976544,-0.885399 1.464825,-2.18097 1.464843,-3.886719 -1.8e-5,-1.705706 -0.488299,-2.988257 -1.464843,-3.847656 -0.963558,-0.87237 -2.395848,-1.308568 -4.296875,-1.308594 l -4.960938,0"
       style=""
       id="path13308" />
    <path
       d="m 67.420297,30.926735 18.4375,0 0,3.320312 -14.492188,0 0,8.632813 13.886719,0 0,3.320312 -13.886719,0 0,10.566407 14.84375,0 0,3.320312 -18.789062,0 0,-29.160156"
       style=""
       id="path13310" />
    <path
       d="m 110.21327,31.883766 0,3.847656 c -1.49742,-0.71612 -2.91018,-1.249974 -4.23829,-1.601562 -1.32814,-0.351536 -2.61069,-0.527317 -3.84765,-0.527344 -2.148451,2.7e-5 -3.808605,0.416693 -4.980471,1.25 -1.158861,0.833358 -1.738288,2.018253 -1.738281,3.554688 -7e-6,1.289083 0.384108,2.265644 1.152344,2.929687 0.781241,0.65106 2.252594,1.178403 4.414058,1.582031 l 2.38282,0.488282 c 2.94269,0.559912 5.11065,1.549494 6.5039,2.96875 1.40623,1.406262 2.10935,3.294281 2.10938,5.664062 -3e-5,2.825526 -0.95055,4.967451 -2.85156,6.425781 -1.88804,1.458334 -4.66148,2.1875 -8.32032,2.1875 -1.380216,0 -2.851569,-0.15625 -4.41406,-0.46875 -1.549485,-0.312499 -3.157556,-0.774738 -4.824218,-1.386718 l 0,-4.0625 c 1.601558,0.898442 3.170567,1.575524 4.707031,2.03125 1.536449,0.455732 3.046864,0.683596 4.531247,0.683593 2.25259,3e-6 3.99087,-0.442705 5.21485,-1.328125 1.22394,-0.885411 1.83592,-2.148431 1.83593,-3.789062 -1e-5,-1.432283 -0.44272,-2.552073 -1.32812,-3.359375 -0.87241,-0.80728 -2.31121,-1.412748 -4.31641,-1.816406 l -2.402341,-0.46875 c -2.942716,-0.585924 -5.07162,-1.503892 -6.386719,-2.753907 -1.315107,-1.249982 -1.972658,-2.988262 -1.972656,-5.214843 -2e-6,-2.578101 0.904945,-4.609349 2.714844,-6.09375 1.822909,-1.484346 4.329417,-2.226533 7.519532,-2.226563 1.36717,3e-5 2.7604,0.123728 4.17969,0.371094 1.41925,0.247425 2.87107,0.618518 4.35547,1.113281"
       style=""
       id="path13312" />
    <path
       d="m 135.60389,31.883766 0,3.847656 c -1.49742,-0.71612 -2.91017,-1.249974 -4.23828,-1.601562 -1.32814,-0.351536 -2.61069,-0.527317 -3.84766,-0.527344 -2.14845,2.7e-5 -3.8086,0.416693 -4.98047,1.25 -1.15886,0.833358 -1.73828,2.018253 -1.73828,3.554688 0,1.289083 0.38411,2.265644 1.15235,2.929687 0.78124,0.65106 2.25259,1.178403 4.41406,1.582031 l 2.38281,0.488282 c 2.94269,0.559912 5.11066,1.549494 6.50391,2.96875 1.40623,1.406262 2.10935,3.294281 2.10937,5.664062 -2e-5,2.825526 -0.95054,4.967451 -2.85156,6.425781 -1.88804,1.458334 -4.66147,2.1875 -8.32031,2.1875 -1.38022,0 -2.85157,-0.15625 -4.41406,-0.46875 -1.54949,-0.312499 -3.15756,-0.774738 -4.82422,-1.386718 l 0,-4.0625 c 1.60155,0.898442 3.17056,1.575524 4.70703,2.03125 1.53645,0.455732 3.04686,0.683596 4.53125,0.683593 2.25259,3e-6 3.99087,-0.442705 5.21484,-1.328125 1.22394,-0.885411 1.83592,-2.148431 1.83594,-3.789062 -2e-5,-1.432283 -0.44273,-2.552073 -1.32813,-3.359375 -0.87241,-0.80728 -2.31121,-1.412748 -4.3164,-1.816406 l -2.40235,-0.46875 c -2.94271,-0.585924 -5.07162,-1.503892 -6.38671,-2.753907 -1.31511,-1.249982 -1.97266,-2.988262 -1.97266,-5.214843 0,-2.578101 0.90494,-4.609349 2.71484,-6.09375 1.82291,-1.484346 4.32942,-2.226533 7.51953,-2.226563 1.36718,3e-5 2.76041,0.123728 4.17969,0.371094 1.41925,0.247425 2.87108,0.618518 4.35547,1.113281"
       style=""
       id="path13314" />
    <path
       d="m 152.20545,30.926735 24.66797,0 0,3.320312 -10.35156,0 0,25.839844 -3.96484,0 0,-25.839844 -10.35157,0 0,-3.320312"
       style=""
       id="path13316" />
    <path
       d="m 180.70155,30.926735 3.94531,0 0,11.953125 14.33594,0 0,-11.953125 3.94531,0 0,29.160156 -3.94531,0 0,-13.886719 -14.33594,0 0,13.886719 -3.94531,0 0,-29.160156"
       style=""
       id="path13318" />
    <path
       d="m 210.77967,30.926735 18.4375,0 0,3.320312 -14.49219,0 0,8.632813 13.88672,0 0,3.320312 -13.88672,0 0,10.566407 14.84375,0 0,3.320312 -18.78906,0 0,-29.160156"
       style=""
       id="path13320" />
    <path
       d="m 325.2328,30.926735 3.94531,0 0,29.160156 -3.94531,0 0,-29.160156"
       style=""
       id="path13322" />
    <path
       d="m 358.86561,33.172829 0,4.160156 c -1.32815,-1.236955 -2.74742,-2.161433 -4.25781,-2.773438 -1.49742,-0.611953 -3.09247,-0.917942 -4.78516,-0.917968 -3.33335,2.6e-5 -5.88543,1.022161 -7.65625,3.066406 -1.77084,2.031271 -2.65626,4.973977 -2.65625,8.828125 -10e-6,3.841156 0.88541,6.783862 2.65625,8.828125 1.77082,2.031254 4.3229,3.046878 7.65625,3.046875 1.69269,3e-6 3.28774,-0.305987 4.78516,-0.917969 1.51039,-0.611975 2.92966,-1.536453 4.25781,-2.773437 l 0,4.121093 c -1.38023,0.937502 -2.84508,1.640626 -4.39453,2.109375 -1.53648,0.46875 -3.16408,0.703125 -4.88281,0.703125 -4.41408,0 -7.89064,-1.347655 -10.42969,-4.042968 -2.53907,-2.708327 -3.8086,-6.39973 -3.8086,-11.074219 0,-4.687481 1.26953,-8.378883 3.8086,-11.074219 2.53905,-2.708305 6.01561,-4.06247 10.42969,-4.0625 1.74477,3e-5 3.38539,0.234405 4.92187,0.703125 1.54946,0.455758 3.00128,1.145861 4.35547,2.070313"
       style=""
       id="path13324" />
    <path
       d="m 376.83436,33.602516 c -2.8646,2.7e-5 -5.14324,1.067734 -6.83594,3.203125 -1.67969,2.135438 -2.51954,5.045591 -2.51953,8.730469 -10e-6,3.671886 0.83984,6.575529 2.51953,8.710937 1.6927,2.135421 3.97134,3.203128 6.83594,3.203125 2.86456,3e-6 5.13019,-1.067704 6.79687,-3.203125 1.67967,-2.135408 2.51951,-5.039051 2.51954,-8.710937 -3e-5,-3.684878 -0.83987,-6.595031 -2.51954,-8.730469 -1.66668,-2.135391 -3.93231,-3.203098 -6.79687,-3.203125 m 0,-3.203125 c 4.08852,3e-5 7.35675,1.373726 9.80469,4.121094 2.44789,2.734398 3.67184,6.406269 3.67187,11.015625 -3e-5,4.596364 -1.22398,8.268235 -3.67187,11.015625 -2.44794,2.734376 -5.71617,4.101562 -9.80469,4.101562 -4.10157,0 -7.38282,-1.367186 -9.84375,-4.101562 -2.44792,-2.734369 -3.67188,-6.40624 -3.67188,-11.015625 0,-4.609356 1.22396,-8.281227 3.67188,-11.015625 2.46093,-2.747368 5.74218,-4.121064 9.84375,-4.121094"
       style=""
       id="path13326" />
    <path
       d="m 396.4828,30.926735 5.3125,0 12.92968,24.394531 0,-24.394531 3.82813,0 0,29.160156 -5.3125,0 -12.92969,-24.394531 0,24.394531 -3.82812,0 0,-29.160156"
       style=""
       id="path13328" />
    <path
       d="m 11.424203,80.926735 24.667969,0 0,3.320312 -10.351563,0 0,25.839843 -3.964844,0 0,-25.839843 -10.351562,0 0,-3.320312"
       style=""
       id="path13330" />
    <path
       d="m 51.756234,83.602516 c -2.864596,2.7e-5 -5.14324,1.067734 -6.835937,3.203125 -1.679695,2.135438 -2.519538,5.045591 -2.519532,8.730469 -6e-6,3.671886 0.839837,6.57553 2.519532,8.71094 1.692697,2.13542 3.971341,3.20313 6.835937,3.20312 2.864565,1e-5 5.130188,-1.0677 6.796875,-3.20312 1.679663,-2.13541 2.519506,-5.039054 2.519531,-8.71094 -2.5e-5,-3.684878 -0.839868,-6.595031 -2.519531,-8.730469 -1.666687,-2.135391 -3.93231,-3.203098 -6.796875,-3.203125 m 0,-3.203125 c 4.088522,3e-5 7.356748,1.373726 9.804688,4.121094 2.447888,2.734398 3.671845,6.406269 3.671875,11.015625 -3e-5,4.59636 -1.223987,8.26824 -3.671875,11.01562 -2.44794,2.73438 -5.716166,4.10157 -9.804688,4.10157 -4.101574,0 -7.382821,-1.36719 -9.84375,-4.10157 -2.44792,-2.73436 -3.671877,-6.40624 -3.671875,-11.01562 -2e-6,-4.609356 1.223955,-8.281227 3.671875,-11.015625 2.460929,-2.747368 5.742176,-4.121064 9.84375,-4.121094"
       style=""
       id="path13332" />
    <path
       d="m 84.139047,80.926735 18.437503,0 0,3.320312 -14.492191,0 0,8.632813 13.886721,0 0,3.320312 -13.886721,0 0,10.566408 14.843751,0 0,3.32031 -18.789063,0 0,-29.160155"
       style=""
       id="path13334" />
    <path
       d="m 109.45155,80.926735 5.3125,0 12.92968,24.394535 0,-24.394535 3.82813,0 0,29.160155 -5.3125,0 -12.92969,-24.39453 0,24.39453 -3.82812,0 0,-29.160155"
       style=""
       id="path13336" />
    <path
       d="m 135.33045,80.926735 24.66797,0 0,3.320312 -10.35156,0 0,25.839843 -3.96484,0 0,-25.839843 -10.35157,0 0,-3.320312"
       style=""
       id="path13338" />
    <path
       d="m 163.82655,80.926735 18.4375,0 0,3.320312 -14.49219,0 0,8.632813 13.88672,0 0,3.320312 -13.88672,0 0,10.566408 14.84375,0 0,3.32031 -18.78906,0 0,-29.160155"
       style=""
       id="path13340" />
    <path
       d="m 202.96717,96.415016 c 0.84634,0.286472 1.66665,0.89845 2.46094,1.835938 0.80727,0.937511 1.61456,2.226576 2.42187,3.867186 l 4.00391,7.96875 -4.23828,0 -3.73047,-7.48047 c -0.96356,-1.95311 -1.90106,-3.248685 -2.8125,-3.886716 -0.89845,-0.638009 -2.12892,-0.957019 -3.69141,-0.957032 l -4.29687,0 0,12.324218 -3.94531,0 0,-29.160155 8.90625,0 c 3.33331,2.9e-5 5.82029,0.696643 7.46093,2.089844 1.64061,1.393255 2.46092,3.496117 2.46094,6.308593 -2e-5,1.835957 -0.42971,3.359393 -1.28906,4.570313 -0.84638,1.210952 -2.08335,2.050795 -3.71094,2.519531 m -9.88281,-12.246094 0,10.351563 4.96094,0 c 1.90102,1.5e-5 3.33331,-0.436182 4.29687,-1.308594 0.97655,-0.885399 1.46483,-2.18097 1.46485,-3.886719 -2e-5,-1.705706 -0.4883,-2.988257 -1.46485,-3.847656 -0.96356,-0.87237 -2.39585,-1.308568 -4.29687,-1.308594 l -4.96094,0"
       style=""
       id="path13342" />
    <path
       d="m 229.68592,80.926735 5.3125,0 12.92969,24.394535 0,-24.394535 3.82812,0 0,29.160155 -5.3125,0 -12.92968,-24.39453 0,24.39453 -3.82813,0 0,-29.160155"
       style=""
       id="path13344" />
    <path
       d="m 271.44373,83.602516 c -2.86459,2.7e-5 -5.14324,1.067734 -6.83593,3.203125 -1.6797,2.135438 -2.51954,5.045591 -2.51953,8.730469 -1e-5,3.671886 0.83983,6.57553 2.51953,8.71094 1.69269,2.13542 3.97134,3.20313 6.83593,3.20312 2.86457,1e-5 5.13019,-1.0677 6.79688,-3.20312 1.67966,-2.13541 2.51951,-5.039054 2.51953,-8.71094 -2e-5,-3.684878 -0.83987,-6.595031 -2.51953,-8.730469 -1.66669,-2.135391 -3.93231,-3.203098 -6.79688,-3.203125 m 0,-3.203125 c 4.08853,3e-5 7.35675,1.373726 9.80469,4.121094 2.44789,2.734398 3.67185,6.406269 3.67188,11.015625 -3e-5,4.59636 -1.22399,8.26824 -3.67188,11.01562 -2.44794,2.73438 -5.71616,4.10157 -9.80469,4.10157 -4.10157,0 -7.38282,-1.36719 -9.84375,-4.10157 -2.44792,-2.73436 -3.67187,-6.40624 -3.67187,-11.01562 0,-4.609356 1.22395,-8.281227 3.67187,-11.015625 2.46093,-2.747368 5.74218,-4.121064 9.84375,-4.121094"
       style=""
       id="path13346" />
    <path
       d="m 287.0492,80.926735 24.66797,0 0,3.320312 -10.35156,0 0,25.839843 -3.96484,0 0,-25.839843 -10.35157,0 0,-3.320312"
       style=""
       id="path13348" />
    <path
       d="m 315.5453,80.926735 18.4375,0 0,3.320312 -14.49219,0 0,8.632813 13.88672,0 0,3.320312 -13.88672,0 0,10.566408 14.84375,0 0,3.32031 -18.78906,0 0,-29.160155"
       style=""
       id="path13350" />
    <path
       d="m 358.33827,81.883766 0,3.847656 c -1.49742,-0.71612 -2.91018,-1.249974 -4.23829,-1.601562 -1.32814,-0.351536 -2.61069,-0.527317 -3.84765,-0.527344 -2.14845,2.7e-5 -3.80861,0.416693 -4.98047,1.25 -1.15886,0.833358 -1.73829,2.018253 -1.73828,3.554688 -10e-6,1.289083 0.38411,2.265644 1.15234,2.929687 0.78124,0.65106 2.2526,1.178403 4.41406,1.582031 l 2.38282,0.488282 c 2.94269,0.559912 5.11065,1.549494 6.5039,2.96875 1.40623,1.406262 2.10935,3.294281 2.10938,5.664066 -3e-5,2.82552 -0.95055,4.96745 -2.85156,6.42578 -1.88804,1.45833 -4.66148,2.1875 -8.32032,2.1875 -1.38022,0 -2.85157,-0.15625 -4.41406,-0.46875 -1.54948,-0.3125 -3.15756,-0.77474 -4.82422,-1.38672 l 0,-4.0625 c 1.60156,0.89844 3.17057,1.57552 4.70703,2.03125 1.53645,0.45573 3.04687,0.6836 4.53125,0.68359 2.25259,1e-5 3.99087,-0.4427 5.21485,-1.32812 1.22394,-0.88541 1.83592,-2.14843 1.83593,-3.78907 -1e-5,-1.43228 -0.44272,-2.552068 -1.32812,-3.35937 -0.87241,-0.80728 -2.31121,-1.412748 -4.31641,-1.816406 l -2.40234,-0.46875 c -2.94272,-0.585924 -5.07162,-1.503892 -6.38672,-2.753907 -1.31511,-1.249982 -1.97266,-2.988262 -1.97266,-5.214843 0,-2.578101 0.90495,-4.609349 2.71485,-6.09375 1.82291,-1.484346 4.32942,-2.226533 7.51953,-2.226563 1.36717,3e-5 2.7604,0.123728 4.17969,0.371094 1.41925,0.247425 2.87107,0.618518 4.35547,1.113281"
       style=""
       id="path13352" />
  </g>
  <path
     style="font-size:medium;font-style:normal;font-variant:normal;font-weight:normal;font-stretch:normal;text-indent:0;text-align:start;text-decoration:none;line-height:normal;letter-spacing:normal;word-spacing:normal;text-transform:none;direction:ltr;block-progression:tb;writing-mode:lr-tb;text-anchor:start;baseline-shift:baseline;color:#000000;fill:#ffa123;fill-opacity:1;stroke:none;stroke-width:10.62992096;marker:none;visibility:visible;display:inline;overflow:visible;enable-background:accumulate;font-family:Sans;-inkscape-font-specification:Sans"
     d="m 267.09457,5.7913157 c -15.42025,0 -27.96875,12.5797403 -27.96875,28.0000003 l 0,16.25 c 0,15.42026 12.5485,28 27.96875,28 l 16.28125,0 c 15.42026,0 27.96875,-12.57974 27.96875,-28 l 0,-16.25 c 0,-15.42026 -12.54849,-28.0000003 -27.96875,-28.0000003 l -16.28125,0 z m 26.40625,7.9375003 c 0.37108,0 0.59375,0.15477 0.59375,0.5 l 0,31.71875 c 0,0.0431 -0.0242,0.0788 -0.0313,0.125 -0.009,1.49412 -2.95616,3.55923 -7.40625,5 -5.23781,1.69579 -10.52847,1.87981 -11.8125,0.40625 -1.28402,-1.47356 1.91844,-4.05421 7.15625,-5.75 2.68438,-0.8691 5.3665,-1.3207 7.53125,-1.375 l 0,-23.65625 c 0,-0.96301 -1.25737,-0.963 -2.84375,0 l -13.34375,8.0625 c -1.58638,0.963 -2.84375,2.53699 -2.84375,3.5 l 0,29.125 0,0.125 c -5.2e-4,1.4946 -2.981,3.55717 -7.4375,5 -5.23781,1.6958 -10.52848,1.87981 -11.8125,0.40625 -1.28402,-1.47356 1.91844,-4.05421 7.15625,-5.75 2.68434,-0.86909 5.36651,-1.3207 7.53125,-1.375 l 0,-28.46875 c 0,-0.69046 0.92509,-1.77829 2.0625,-2.46875 l 24.03125,-14.625 c 0.5687,-0.34523 1.09767,-0.5 1.46875,-0.5 z"
     id="rect2383-8-30-8-6"
     inkscape:connector-curvature="0" />
</svg>
