<?xml version="1.0" encoding="UTF-8" standalone="no"?>
<!-- Created with Inkscape (http://www.inkscape.org/) -->

<svg
   xmlns:dc="http://purl.org/dc/elements/1.1/"
   xmlns:cc="http://creativecommons.org/ns#"
   xmlns:rdf="http://www.w3.org/1999/02/22-rdf-syntax-ns#"
   xmlns:svg="http://www.w3.org/2000/svg"
   xmlns="http://www.w3.org/2000/svg"
   xmlns:sodipodi="http://sodipodi.sourceforge.net/DTD/sodipodi-0.dtd"
   xmlns:inkscape="http://www.inkscape.org/namespaces/inkscape"
   width="350"
   height="371.89536"
   id="svg5486"
   version="1.1"
   inkscape:version="0.48.4 r9939"
   sodipodi:docname="trashButton.svg">
  <defs
     id="defs5488" />
  <sodipodi:namedview
     id="base"
     pagecolor="#ffffff"
     bordercolor="#666666"
     borderopacity="1.0"
     inkscape:pageopacity="0.0"
     inkscape:pageshadow="2"
     inkscape:zoom="0.98994949"
     inkscape:cx="-186.3683"
     inkscape:cy="146.45945"
     inkscape:document-units="px"
     inkscape:current-layer="layer1"
     showgrid="false"
     fit-margin-top="0"
     fit-margin-left="0"
     fit-margin-right="0"
     fit-margin-bottom="0"
     inkscape:window-width="1855"
     inkscape:window-height="1056"
     inkscape:window-x="65"
     inkscape:window-y="24"
     inkscape:window-maximized="1" />
  <metadata
     id="metadata5491">
    <rdf:RDF>
      <cc:Work
         rdf:about="">
        <dc:format>image/svg+xml</dc:format>
        <dc:type
           rdf:resource="http://purl.org/dc/dcmitype/StillImage" />
        <dc:title></dc:title>
      </cc:Work>
    </rdf:RDF>
  </metadata>
  <g
     inkscape:label="Layer 1"
     inkscape:groupmode="layer"
     id="layer1"
     transform="translate(-165,-337.84307)">
    <path
       sodipodi:type="arc"
       style="fill:#000000;fill-opacity:0.49771693;stroke:none"
       id="path5359-0"
       sodipodi:cx="-358.57144"
       sodipodi:cy="403.79074"
       sodipodi:rx="134.28572"
       sodipodi:ry="134.28572"
       d="m -224.28572,403.79074 c 0,74.16396 -60.12177,134.28572 -134.28572,134.28572 -74.16396,0 -134.28572,-60.12176 -134.28572,-134.28572 0,-74.16395 60.12176,-134.28572 134.28572,-134.28572 74.16395,0 134.28572,60.12177 134.28572,134.28572 z"
       transform="matrix(1.3031914,0,0,1.3031914,807.28722,8.521821)" />
    <path
       sodipodi:type="arc"
       style="fill:#f1a123;fill-opacity:1;stroke:none"
       id="buttonBody"
       sodipodi:cx="-358.57144"
       sodipodi:cy="403.79074"
       sodipodi:rx="134.28572"
       sodipodi:ry="134.28572"
       d="m -224.28572,403.79074 c 0,74.16396 -60.12177,134.28572 -134.28572,134.28572 -74.16396,0 -134.28572,-60.12176 -134.28572,-134.28572 0,-74.16395 60.12176,-134.28572 134.28572,-134.28572 74.16395,0 134.28572,60.12177 134.28572,134.28572 z"
       transform="matrix(1.3031914,0,0,1.3031914,807.28722,-13.373556)"
       inkscape:label="#path5359" />
    <g
       id="g4645"
       transform="matrix(2.6586897,0,0,2.6586897,-2688.6379,-1683.6657)">
      <path
         id="path4641"
         d="m 1135.8812,791.67776 10.75,2.25 -1.25,6.125 20.5625,4.28125 -1.6875,8.0625 -51.9063,-10.75 1.6875,-8.09375 20.5625,4.28125 1.2813,-6.15625 z"
         style="fill:#ffffff;fill-opacity:1;stroke:#04baab;stroke-width:1.0885061;stroke-linecap:round;stroke-linejoin:round;stroke-miterlimit:4;stroke-opacity:0;stroke-dasharray:none"
         inkscape:connector-curvature="0" />
      <path
         id="path4639"
         d="m 1113.7249,812.33401 45.125,0 0,48.3125 -45.125,0 0,-48.3125 z"
         style="fill:#ffffff;fill-opacity:1;stroke:#04baab;stroke-width:1.0885061;stroke-linecap:round;stroke-linejoin:round;stroke-miterlimit:4;stroke-opacity:0;stroke-dasharray:none"
         inkscape:connector-curvature="0" />
      <path
         id="path4637"
         d="m 1117.0374,817.05276 0,38.875 8.6563,0 0,-38.875 -8.6563,0 z"
         style="fill:#ffa123;fill-opacity:1;stroke:#04baab;stroke-width:1.0885061;stroke-linecap:round;stroke-linejoin:round;stroke-miterlimit:4;stroke-opacity:0;stroke-dasharray:none"
         inkscape:connector-curvature="0" />
      <path
         id="path4635"
         d="m 1131.9749,817.05276 0,38.875 8.625,0 0,-38.875 -8.625,0 z"
         style="fill:#ffa123;fill-opacity:1;stroke:#04baab;stroke-width:1.0885061;stroke-linecap:round;stroke-linejoin:round;stroke-miterlimit:4;stroke-opacity:0;stroke-dasharray:none"
         inkscape:connector-curvature="0" />
      <path
         id="owerwer"
         d="m 1146.8812,817.05276 0,38.875 8.6562,0 0,-38.875 -8.6562,0 z"
         style="fill:#ffa123;fill-opacity:1;stroke:#04baab;stroke-width:1.0885061;stroke-linecap:round;stroke-linejoin:round;stroke-miterlimit:4;stroke-opacity:0;stroke-dasharray:none"
         inkscape:connector-curvature="0" />
    </g>
  </g>
</svg>
