<?xml version="1.0" encoding="UTF-8" standalone="no"?>
<!-- Created with Inkscape (http://www.inkscape.org/) -->

<svg
   xmlns:dc="http://purl.org/dc/elements/1.1/"
   xmlns:cc="http://creativecommons.org/ns#"
   xmlns:rdf="http://www.w3.org/1999/02/22-rdf-syntax-ns#"
   xmlns:svg="http://www.w3.org/2000/svg"
   xmlns="http://www.w3.org/2000/svg"
   xmlns:sodipodi="http://sodipodi.sourceforge.net/DTD/sodipodi-0.dtd"
   xmlns:inkscape="http://www.inkscape.org/namespaces/inkscape"
   width="1000"
   height="1200"
   id="svg2"
   version="1.1"
   inkscape:version="0.48.4 r9939"
   sodipodi:docname="CircleMenu.svg">
  <defs
     id="defs4">
    <marker
       inkscape:stockid="Arrow2Lend"
       orient="auto"
       refY="0.0"
       refX="0.0"
       id="Arrow2Lend"
       style="overflow:visible;">
      <path
         id="path4090"
         style="fill-rule:evenodd;stroke-width:0.62500000;stroke-linejoin:round;"
         d="M 8.7185878,4.0337352 L -2.2072895,0.016013256 L 8.7185884,-4.0017078 C 6.9730900,-1.6296469 6.9831476,1.6157441 8.7185878,4.0337352 z "
         transform="scale(1.1) rotate(180) translate(1,0)" />
    </marker>
  </defs>
  <sodipodi:namedview
     id="base"
     pagecolor="#ffffff"
     bordercolor="#666666"
     borderopacity="1.0"
     inkscape:pageopacity="0.0"
     inkscape:pageshadow="2"
     inkscape:zoom="0.505"
     inkscape:cx="1099.5059"
     inkscape:cy="553.09901"
     inkscape:document-units="px"
     inkscape:current-layer="menuRim"
     showgrid="false"
     inkscape:window-width="1855"
     inkscape:window-height="1056"
     inkscape:window-x="65"
     inkscape:window-y="24"
     inkscape:window-maximized="1"
     showguides="true"
     inkscape:guide-bbox="true" />
  <metadata
     id="metadata7">
    <rdf:RDF>
      <cc:Work
         rdf:about="">
        <dc:format>image/svg+xml</dc:format>
        <dc:type
           rdf:resource="http://purl.org/dc/dcmitype/StillImage" />
        <dc:title />
      </cc:Work>
    </rdf:RDF>
  </metadata>
  <g
     inkscape:label="Layer 1"
     inkscape:groupmode="layer"
     id="layer1"
     transform="translate(0,300)">
    <g
       id="menuRim">
      <path
         sodipodi:type="arc"
         style="fill:#000000;fill-opacity:0.03652966;stroke:none"
         id="ignoreCircle"
         sodipodi:cx="2224.7524"
         sodipodi:cy="1108.9109"
         sodipodi:rx="565.34656"
         sodipodi:ry="565.34656"
         d="m 2790.099,1108.9109 c 0,312.2323 -253.1143,565.3465 -565.3466,565.3465 -312.2322,0 -565.3465,-253.1142 -565.3465,-565.3465 0,-312.23229 253.1143,-565.34657 565.3465,-565.34657 312.2323,0 565.3466,253.11428 565.3466,565.34657 z"
         transform="matrix(1.3443082,0,0,1.3443082,-2186.4177,-785.37965)" />
      <path
         transform="matrix(2.8524513,0,0,2.8526186,-4705.7093,-1520.2836)"
         inkscape:connector-curvature="0"
         id="path3093"
         d="m 1931.6875,513.78125 c -146.7934,0 -266.4375,119.61288 -266.4375,266.40625 0,146.79337 119.6441,266.4375 266.4375,266.4375 146.7934,0 266.4375,-119.64413 266.4375,-266.4375 0,-146.79337 -119.6441,-266.40625 -266.4375,-266.40625 z m 0,59.59375 c 114.585,0 206.8437,92.22754 206.8437,206.8125 0,114.58496 -92.2587,206.84375 -206.8437,206.84375 -114.585,0 -206.8437,-92.25879 -206.8437,-206.84375 0,-114.58496 92.2587,-206.8125 206.8437,-206.8125 z"
         style="font-size:medium;font-style:normal;font-variant:normal;font-weight:normal;font-stretch:normal;text-indent:0;text-align:start;text-decoration:none;line-height:normal;letter-spacing:normal;word-spacing:normal;text-transform:none;direction:ltr;block-progression:tb;writing-mode:lr-tb;text-anchor:start;baseline-shift:baseline;color:#000000;fill:#f1a123;fill-opacity:1;stroke:none;stroke-width:59.59662628;marker:none;visibility:visible;display:inline;overflow:visible;enable-background:accumulate;font-family:Sans;-inkscape-font-specification:Sans" />
      <path
         transform="matrix(1.3265895,0,0,1.3265895,182.07943,92.80274)"
         inkscape:connector-curvature="0"
         id="path3021"
         d="m 469.0625,204.875 c -141.06274,0 -256.875,115.78101 -256.875,256.84375 0,141.06274 115.81226,256.875 256.875,256.875 141.06274,0 256.875,-115.81226 256.875,-256.875 0,-141.06274 -115.81226,-256.84375 -256.875,-256.84375 z m 0,135.6875 c 67.73243,0 121.1875,53.42382 121.1875,121.15625 0,67.73243 -53.45507,121.1875 -121.1875,121.1875 -67.73243,0 -121.1875,-53.45507 -121.1875,-121.1875 0,-67.73243 53.45507,-121.15625 121.1875,-121.15625 z"
         style="font-size:medium;font-style:normal;font-variant:normal;font-weight:normal;font-stretch:normal;text-indent:0;text-align:start;text-decoration:none;line-height:normal;letter-spacing:normal;word-spacing:normal;text-transform:none;direction:ltr;block-progression:tb;writing-mode:lr-tb;text-anchor:start;baseline-shift:baseline;color:#000000;fill:#f1a123;fill-opacity:1;stroke:none;stroke-width:135.68629456;marker:none;visibility:visible;display:inline;overflow:visible;enable-background:accumulate;font-family:Sans;-inkscape-font-specification:Sans" />
      <path
         transform="matrix(1.1705459,0,0,1.1705459,335.58647,189.43849)"
         inkscape:connector-curvature="0"
         id="path3791"
         d="m 400.46875,-33.8125 c -261.17452,0 -474.5625,213.35673 -474.5625,474.53125 0,261.17452 213.38798,474.5625 474.5625,474.5625 C 661.64327,915.28125 875,701.89327 875,440.71875 875,179.54423 661.64327,-33.8125 400.46875,-33.8125 z m 0,153.78125 c 178.06866,0 320.75,142.68134 320.75,320.75 0,178.06866 -142.68134,320.78125 -320.75,320.78125 C 222.40009,761.5 79.6875,618.78741 79.6875,440.71875 c 0,-178.06866 142.71259,-320.75 320.78125,-320.75 z"
         style="font-size:medium;font-style:normal;font-variant:normal;font-weight:normal;font-stretch:normal;text-indent:0;text-align:start;text-decoration:none;line-height:normal;letter-spacing:normal;word-spacing:normal;text-transform:none;direction:ltr;block-progression:tb;writing-mode:lr-tb;text-anchor:start;baseline-shift:baseline;color:#000000;fill:#f1a123;fill-opacity:1;stroke:none;stroke-width:153.7743988;marker:none;visibility:visible;display:inline;overflow:visible;enable-background:accumulate;font-family:Sans;-inkscape-font-specification:Sans" />
      <g
         style="fill:#ffffff"
         transform="matrix(1.1193099,0,0,1.1193099,288.32572,-43.103446)"
         id="menuCopy">
        <path
           style="font-size:medium;font-style:normal;font-variant:normal;font-weight:normal;font-stretch:normal;text-indent:0;text-align:start;text-decoration:none;line-height:normal;letter-spacing:normal;word-spacing:normal;text-transform:none;direction:ltr;block-progression:tb;writing-mode:lr-tb;text-anchor:start;baseline-shift:baseline;color:#000000;fill:#ffffff;fill-opacity:1;stroke:none;stroke-width:9.28470898;marker:none;visibility:visible;display:inline;overflow:visible;enable-background:accumulate;font-family:Sans;-inkscape-font-specification:Sans"
           d="m -110.71875,1.78125 a 4.6428187,4.6428187 0 0 0 -4.625,4.65625 l 0,139.28125 9.28125,0 0,-134.65625 90.34375,0 0,-9.28125 -95,0 z"
           id="path6068"
           inkscape:connector-curvature="0"
           transform="matrix(0.53548388,0,0,0.54157305,185.17991,332.48084)" />
        <path
           style="font-size:medium;font-style:normal;font-variant:normal;font-weight:normal;font-stretch:normal;text-indent:0;text-align:start;text-decoration:none;line-height:normal;letter-spacing:normal;word-spacing:normal;text-transform:none;direction:ltr;block-progression:tb;writing-mode:lr-tb;text-anchor:start;baseline-shift:baseline;color:#000000;fill:#ffffff;fill-opacity:1;stroke:none;stroke-width:9.28470898;marker:none;visibility:visible;display:inline;overflow:visible;enable-background:accumulate;font-family:Sans;-inkscape-font-specification:Sans"
           d="M -103.5625,10.34375 A 4.6428187,4.6428187 0 0 0 -108.21875,15 l 0,139.28125 a 4.6428187,4.6428187 0 0 0 4.65625,4.65625 l 94.28125,0 a 4.6428187,4.6428187 0 0 0 4.625,-4.65625 L -4.65625,15 a 4.6428187,4.6428187 0 0 0 -4.625,-4.65625 l -94.28125,0 z m 4.625,9.3125 85,0 0,130 -85,0 0,-130 z"
           id="path6072"
           inkscape:connector-curvature="0"
           transform="matrix(0.53548388,0,0,0.54157305,190.15226,338.47682)" />
      </g>
      <g
         transform="matrix(1.0304495,0,0,1.0304495,415.5134,-60.071132)"
         id="menuSnap">
        <g
           id="menuSnapIcon"
           transform="matrix(1.7518624,0,0,1.7518624,779.8018,-256.851)"
           style="fill:none;stroke:#ffffff;stroke-width:3.87767482;stroke-miterlimit:4;stroke-opacity:1;stroke-dasharray:none">
          <g
             id="g3828"
             style="fill:none;stroke:#ffffff;stroke-width:3.87767482;stroke-miterlimit:4;stroke-opacity:1;stroke-dasharray:none">
            <g
               id="g3056"
               style="fill:none;stroke:#ffffff;stroke-width:3.87767482;stroke-miterlimit:4;stroke-opacity:1;stroke-dasharray:none">
              <path
                 transform="translate(0,-4.5833269e-6)"
                 inkscape:connector-curvature="0"
                 id="path2997"
                 d="m -324.84906,183.95983 0,49.0074"
                 style="fill:none;stroke:#ffffff;stroke-width:3.87767482;stroke-linecap:butt;stroke-linejoin:miter;stroke-miterlimit:4;stroke-opacity:1;stroke-dasharray:none" />
              <path
                 inkscape:connector-curvature="0"
                 id="path2997-1"
                 d="m -324.84906,183.95983 0,49.0074"
                 style="fill:none;stroke:#ffffff;stroke-width:3.87767482;stroke-linecap:butt;stroke-linejoin:miter;stroke-miterlimit:4;stroke-opacity:1;stroke-dasharray:none"
                 transform="translate(22.403388,-4.5833269e-6)" />
            </g>
            <g
               id="g3052"
               transform="matrix(0,-1,1,0,-452.80042,-167.49325)"
               style="fill:none;stroke:#ffffff;stroke-width:3.87767482;stroke-miterlimit:4;stroke-opacity:1;stroke-dasharray:none">
              <path
                 transform="translate(-62.309408,-69.310471)"
                 inkscape:connector-curvature="0"
                 id="path2997-8"
                 d="m -324.84906,183.95983 0,49.0074"
                 style="fill:none;stroke:#ffffff;stroke-width:3.87767482;stroke-linecap:butt;stroke-linejoin:miter;stroke-miterlimit:4;stroke-opacity:1;stroke-dasharray:none" />
              <path
                 inkscape:connector-curvature="0"
                 id="path2997-1-4"
                 d="m -324.84906,183.95983 0,49.0074"
                 style="fill:none;stroke:#ffffff;stroke-width:3.87767482;stroke-linecap:butt;stroke-linejoin:miter;stroke-miterlimit:4;stroke-opacity:1;stroke-dasharray:none"
                 transform="translate(-39.906018,-69.310471)" />
            </g>
          </g>
        </g>
        <path
           style="font-size:medium;font-style:normal;font-variant:normal;font-weight:normal;font-stretch:normal;text-indent:0;text-align:start;text-decoration:none;line-height:normal;letter-spacing:normal;word-spacing:normal;text-transform:none;direction:ltr;block-progression:tb;writing-mode:lr-tb;text-anchor:start;baseline-shift:baseline;color:#000000;fill:#ffffff;fill-opacity:1;stroke:none;stroke-width:12;marker:none;visibility:visible;display:inline;overflow:visible;enable-background:accumulate;font-family:Sans;-inkscape-font-specification:Sans"
           d="m 229.21875,41.03125 c -36.87186,0 -66.875,30.034389 -66.875,66.90625 0,36.87186 30.00314,66.875 66.875,66.875 36.87186,0 66.90625,-30.00314 66.90625,-66.875 0,-36.871861 -30.03439,-66.90625 -66.90625,-66.90625 z m -6,12.34375 0,109.125 c -27.54658,-2.97326 -48.875,-26.20391 -48.875,-54.5625 0,-28.357266 21.33029,-51.583846 48.875,-54.5625 z m 12,0 c 27.54834,2.978654 48.90625,26.205234 48.90625,54.5625 0,28.35859 -21.35604,51.58924 -48.90625,54.5625 l 0,-109.125 z"
           id="disableSnap"
           inkscape:connector-curvature="0"
           transform="matrix(0.70710678,-0.70710678,0.70710678,0.70710678,-8.0706888,194.11825)"
           inkscape:label="#path3792" />
      </g>
      <path
         transform="matrix(1.1193099,0,0,1.1193099,976.27769,100.18909)"
         inkscape:connector-curvature="0"
         id="menuPaste"
         d="m -265.625,88.03125 -4.0625,11.71875 -14.84375,0 a 2.4861546,2.5144255 0 0 0 -2.5,2.53125 l 0,75.4375 a 2.4861546,2.5144255 0 0 0 2.5,2.53125 l 50.5,0 a 2.4861546,2.5144255 0 0 0 2.46875,-2.53125 l 0,-75.4375 A 2.4861546,2.5144255 0 0 0 -234.03125,99.75 l -15.03125,0 -4.625,-11.71875 -11.9375,0 z m 6.34375,3.9375 c 2.36693,0 4.28125,1.660546 4.28125,3.71875 0,2.058204 -1.91432,3.71875 -4.28125,3.71875 -2.36693,0 -4.3125,-1.660546 -4.3125,-3.71875 0,-2.058204 1.94557,-3.71875 4.3125,-3.71875 z m -22.78125,12.84375 5.59375,0 0,6.5 34.34375,0 0,-6.5 5.59375,0 0,70.40625 -45.53125,0 0,-70.40625 z"
         style="font-size:medium;font-style:normal;font-variant:normal;font-weight:normal;font-stretch:normal;text-indent:0;text-align:start;text-decoration:none;line-height:normal;letter-spacing:normal;word-spacing:normal;text-transform:none;direction:ltr;block-progression:tb;writing-mode:lr-tb;text-anchor:start;baseline-shift:baseline;color:#000000;fill:#ffffff;fill-opacity:1;stroke:none;stroke-width:9.28470898;marker:none;visibility:visible;display:inline;overflow:visible;enable-background:accumulate;font-family:Sans;-inkscape-font-specification:Sans" />
      <path
         style="fill:#ffffff;fill-opacity:1;stroke:#04baab;stroke-width:1.80533147;stroke-linecap:round;stroke-linejoin:round;stroke-miterlimit:4;stroke-opacity:0;stroke-dasharray:none"
         d="m 1534.4546,-77.394473 0,19.536923 c 19.2198,0.654998 34.7156,16.54567 34.7156,35.917882 0,19.7845912 -16.1834,35.967816 -35.9679,35.967816 l -62.7687,0 0,-13.07462984 62.7687,0 c 12.7169,0 22.8932,-10.17635246 22.8932,-22.89318616 0,-12.305497 -9.5027,-22.214223 -21.6409,-22.843092 l 0,20.839305 -46.2875,-26.750637 46.2875,-26.700381 z"
         id="menuUndo"
         inkscape:connector-curvature="0"
         transform="translate(-605.94059,71.287129)"
         inkscape:label="#undo" />
      <g
         inkscape:label="#g4804"
         transform="matrix(1.0421161,0,0,1.0421161,73.316778,-253.43929)"
         style="fill:#ffffff"
         id="menuTrash">
        <path
           inkscape:connector-curvature="0"
           style="fill:#ffffff;fill-opacity:1;stroke:#04baab;stroke-width:1.73041821;stroke-linecap:round;stroke-linejoin:round;stroke-miterlimit:4;stroke-opacity:0;stroke-dasharray:none"
           d="m 806.05599,434.9466 17.17235,3.62764 -1.99679,9.87523 32.84711,6.90259 -2.69566,12.99904 -82.91649,-17.33205 2.69566,-13.04942 32.84711,6.90259 2.04671,-9.92562 z"
           id="path4797" />
        <path
           inkscape:connector-curvature="0"
           style="fill:#ffffff;fill-opacity:1;stroke:#04baab;stroke-width:1.73041821;stroke-linecap:round;stroke-linejoin:round;stroke-miterlimit:4;stroke-opacity:0;stroke-dasharray:none"
           d="m 770.65625,468.25 0,77.90625 72.09375,0 0,-77.90625 -72.09375,0 z m 5.3125,7.59375 13.8125,0 0,62.6875 -13.8125,0 0,-62.6875 z m 23.84375,0 13.78125,0 0,62.6875 -13.78125,0 0,-62.6875 z m 23.8125,0 13.84375,0 0,62.6875 -13.84375,0 0,-62.6875 z"
           id="path4795" />
      </g>
      <g
         transform="translate(97.029703,-9.9009901)"
         id="menuPrevious">
        <path
           style="fill:#f1a123;fill-opacity:1;stroke:none"
           d="m 1393.9062,162.78125 0,40.625 -40.5937,0 0,26.59375 40.5937,0 0,40.59375 26.5938,0 0,-40.59375 40.625,0 0,-26.59375 -40.625,0 0,-40.625 -26.5938,0 z"
           inkscape:connector-curvature="0"
           transform="matrix(1.0421161,0,0,1.0421161,-644.98891,273.8236)"
           inkscape:label="#rect4910-2"
           id="path3066" />
        <rect
           style="fill:#ffffff;fill-opacity:1;stroke:none"
           width="107.81628"
           height="26.604017"
           x="1320.3994"
           y="92.077995"
           rx="0"
           ry="0"
           transform="matrix(1.0421161,0,0,1.0421161,-610.69162,389.81893)"
           inkscape:label="#rect4910"
           id="rect3068" />
      </g>
      <path
         inkscape:label="#rect4910-2"
         transform="matrix(1.0421161,0,0,1.0421161,-757.16627,251.97498)"
         inkscape:connector-curvature="0"
         id="menuNext"
         d="m 1393.9062,162.78125 0,40.625 -40.5937,0 0,26.59375 40.5937,0 0,40.59375 26.5938,0 0,-40.59375 40.625,0 0,-26.59375 -40.625,0 0,-40.625 -26.5938,0 z"
         style="fill:#ffffff;fill-opacity:1;stroke:none" />
      <g
         inkscape:label="#g5209"
         style="fill:#ffffff"
         transform="translate(-917.82178,328.71286)"
         id="menuQuantize">
        <path
           style="font-size:medium;font-style:normal;font-variant:normal;font-weight:normal;font-stretch:normal;text-indent:0;text-align:start;text-decoration:none;line-height:normal;letter-spacing:normal;word-spacing:normal;text-transform:none;direction:ltr;block-progression:tb;writing-mode:lr-tb;text-anchor:start;baseline-shift:baseline;color:#000000;fill:#ffffff;fill-opacity:1;stroke:none;stroke-width:5;marker:none;visibility:visible;display:inline;overflow:visible;enable-background:accumulate;font-family:Sans;-inkscape-font-specification:Sans"
           d="m 1670.7812,411.875 0,114.84375 5,0 0,-114.84375 -5,0 z"
           id="path4027-9"
           inkscape:connector-curvature="0"
           transform="translate(-422.93822,-614.84603)" />
        <path
           style="fill:#ffffff;fill-opacity:1;stroke:#04baab;stroke-width:1.73041821;stroke-linecap:round;stroke-linejoin:round;stroke-miterlimit:4;stroke-opacity:0;stroke-dasharray:none"
           d="m 233.51143,585.07195 7.33818,0 0,64.99518 c 0.0383,0.32726 0.0248,0.67053 0,1.00768 -0.32279,4.38288 -5.91337,9.48993 -14.22709,12.49519 -10.23226,3.69878 -20.7176,2.83101 -23.46222,-1.96497 -2.74459,-4.79598 3.34586,-11.6683 13.57813,-15.36707 6.04464,-2.18502 12.18982,-2.7914 16.773,-1.91459 l 0,-59.25142 z"
           id="octaveUp-5-2-3"
           inkscape:connector-curvature="0"
           transform="matrix(1.0421161,0,0,1.0421161,1101.8301,-816.12573)" />
        <path
           transform="translate(0.99164717,-296.55523)"
           inkscape:connector-curvature="0"
           style="font-size:medium;font-style:normal;font-variant:normal;font-weight:normal;font-stretch:normal;text-indent:0;text-align:start;text-decoration:none;line-height:normal;letter-spacing:normal;word-spacing:normal;text-transform:none;direction:ltr;block-progression:tb;writing-mode:lr-tb;text-anchor:start;baseline-shift:baseline;color:#000000;fill:#ffffff;fill-opacity:1;stroke:none;stroke-width:4;marker:none;visibility:visible;display:inline;overflow:visible;enable-background:accumulate;font-family:Sans;-inkscape-font-specification:Sans"
           d="m 1307.0938,182.84375 -42.4063,15.59375 -0.375,0 0,0.125 -5.3125,1.96875 48.0938,17.65625 c -3.4107,-4.752 -5.2866,-10.21223 -5.6563,-15.75 l 45.5,0 0,-4 -45.5,0 c 0.3645,-5.51891 2.2314,-10.93953 5.6563,-15.59375 z"
           id="path4063-5-5-4" />
      </g>
      <g
         style="fill:#ffffff"
         inkscape:label="#g5250"
         transform="translate(-1100.1441,512.79299)"
         id="menuShiftLeft">
        <path
           style="fill:#ffffff;fill-opacity:1;stroke:#04baab;stroke-width:1.73041821;stroke-linecap:round;stroke-linejoin:round;stroke-miterlimit:4;stroke-opacity:0;stroke-dasharray:none"
           d="m 233.51143,585.07195 7.33818,0 0,64.99518 c 0.0383,0.32726 0.0248,0.67053 0,1.00768 -0.32279,4.38288 -5.91337,9.48993 -14.22709,12.49519 -10.23226,3.69878 -20.7176,2.83101 -23.46222,-1.96497 -2.74459,-4.79598 3.34586,-11.6683 13.57813,-15.36707 6.04464,-2.18502 12.18982,-2.7914 16.773,-1.91459 l 0,-59.25142 z"
           id="octaveUp-5-2-9"
           inkscape:connector-curvature="0"
           transform="matrix(1.0421161,0,0,1.0421161,1081.1342,-738.00328)" />
        <path
           style="fill:#ffffff;fill-opacity:1;stroke:#04baab;stroke-width:1.73041821;stroke-linecap:round;stroke-linejoin:round;stroke-miterlimit:4;stroke-opacity:0;stroke-dasharray:none"
           d="m 233.51143,585.07195 7.33818,0 0,64.99518 c 0.0383,0.32726 0.0248,0.67053 0,1.00768 -0.32279,4.38288 -5.91337,9.48993 -14.22709,12.49519 -10.23226,3.69878 -20.7176,2.83101 -23.46222,-1.96497 -2.74459,-4.79598 3.34586,-11.6683 13.57813,-15.36707 6.04464,-2.18502 12.18982,-2.7914 16.773,-1.91459 l 0,-59.25142 z"
           id="octaveUp-5-2-9-4"
           inkscape:connector-curvature="0"
           transform="matrix(1.0421161,0,0,1.0421161,1032.2737,-764.45109)" />
        <path
           transform="translate(-21.780631,-224.27801)"
           inkscape:connector-curvature="0"
           style="font-size:medium;font-style:normal;font-variant:normal;font-weight:normal;font-stretch:normal;text-indent:0;text-align:start;text-decoration:none;line-height:normal;letter-spacing:normal;word-spacing:normal;text-transform:none;direction:ltr;block-progression:tb;writing-mode:lr-tb;text-anchor:start;baseline-shift:baseline;color:#000000;fill:#ffffff;fill-opacity:1;stroke:none;stroke-width:4;marker:none;visibility:visible;display:inline;overflow:visible;enable-background:accumulate;font-family:Sans;-inkscape-font-specification:Sans"
           d="m 1307.0938,182.84375 -42.4063,15.59375 -0.375,0 0,0.125 -5.3125,1.96875 48.0938,17.65625 c -3.4107,-4.752 -5.2866,-10.21223 -5.6563,-15.75 l 45.5,0 0,-4 -45.5,0 c 0.3645,-5.51891 2.2314,-10.93953 5.6563,-15.59375 z"
           id="path4063-5-5-9" />
      </g>
      <g
         inkscape:label="#g5285"
         style="fill:#ffffff"
         transform="translate(-1366.8466,880.3691)"
         id="menuShiftRight">
        <path
           style="fill:#ffffff;fill-opacity:1;stroke:#04baab;stroke-width:1.73041821;stroke-linecap:round;stroke-linejoin:round;stroke-miterlimit:4;stroke-opacity:0;stroke-dasharray:none"
           d="m 233.51143,585.07195 7.33818,0 0,64.99518 c 0.0383,0.32726 0.0248,0.67053 0,1.00768 -0.32279,4.38288 -5.91337,9.48993 -14.22709,12.49519 -10.23226,3.69878 -20.7176,2.83101 -23.46222,-1.96497 -2.74459,-4.79598 3.34586,-11.6683 13.57813,-15.36707 6.04464,-2.18502 12.18982,-2.7914 16.773,-1.91459 l 0,-59.25142 z"
           id="octaveUp-5-2-9-8"
           inkscape:connector-curvature="0"
           transform="matrix(1.0421161,0,0,1.0421161,1292.8235,-772.29141)" />
        <path
           style="fill:#ffffff;fill-opacity:1;stroke:#04baab;stroke-width:1.73041821;stroke-linecap:round;stroke-linejoin:round;stroke-miterlimit:4;stroke-opacity:0;stroke-dasharray:none"
           d="m 233.51143,585.07195 7.33818,0 0,64.99518 c 0.0383,0.32726 0.0248,0.67053 0,1.00768 -0.32279,4.38288 -5.91337,9.48993 -14.22709,12.49519 -10.23226,3.69878 -20.7176,2.83101 -23.46222,-1.96497 -2.74459,-4.79598 3.34586,-11.6683 13.57813,-15.36707 6.04464,-2.18502 12.18982,-2.7914 16.773,-1.91459 l 0,-59.25142 z"
           id="octaveUp-5-2-9-4-1"
           inkscape:connector-curvature="0"
           transform="matrix(1.0421161,0,0,1.0421161,1243.963,-798.73922)" />
        <path
           transform="matrix(-1,0,0,1,2795.8462,-258.56613)"
           inkscape:connector-curvature="0"
           style="font-size:medium;font-style:normal;font-variant:normal;font-weight:normal;font-stretch:normal;text-indent:0;text-align:start;text-decoration:none;line-height:normal;letter-spacing:normal;word-spacing:normal;text-transform:none;direction:ltr;block-progression:tb;writing-mode:lr-tb;text-anchor:start;baseline-shift:baseline;color:#000000;fill:#ffffff;fill-opacity:1;stroke:none;stroke-width:4;marker:none;visibility:visible;display:inline;overflow:visible;enable-background:accumulate;font-family:Sans;-inkscape-font-specification:Sans"
           d="m 1307.0938,182.84375 -42.4063,15.59375 -0.375,0 0,0.125 -5.3125,1.96875 48.0938,17.65625 c -3.4107,-4.752 -5.2866,-10.21223 -5.6563,-15.75 l 45.5,0 0,-4 -45.5,0 c 0.3645,-5.51891 2.2314,-10.93953 5.6563,-15.59375 z"
           id="path4063-5-5-9-6" />
      </g>
      <g
         inkscape:label="#g5420"
         style="fill:#ffffff"
         transform="translate(-973.14696,723.90932)"
         id="menuOctaveUp">
        <path
           style="fill:#ffffff;fill-opacity:1;stroke:#04baab;stroke-width:1.73041821;stroke-linecap:round;stroke-linejoin:round;stroke-miterlimit:4;stroke-opacity:0;stroke-dasharray:none"
           d="m 233.51143,585.07195 7.33818,0 0,64.99518 c 0.0383,0.32726 0.0248,0.67053 0,1.00768 -0.32279,4.38288 -5.91337,9.48993 -14.22709,12.49519 -10.23226,3.69878 -20.7176,2.83101 -23.46222,-1.96497 -2.74459,-4.79598 3.34586,-11.6683 13.57813,-15.36707 6.04464,-2.18502 12.18982,-2.7914 16.773,-1.91459 l 0,-59.25142 z"
           id="octaveUp-5-2-9-4-6-4"
           inkscape:connector-curvature="0"
           transform="matrix(1.0421161,0,0,1.0421161,1278.4237,-743.93674)" />
        <path
           transform="matrix(0,1,-1,0,1755.2355,-1377.8161)"
           inkscape:connector-curvature="0"
           style="font-size:medium;font-style:normal;font-variant:normal;font-weight:normal;font-stretch:normal;text-indent:0;text-align:start;text-decoration:none;line-height:normal;letter-spacing:normal;word-spacing:normal;text-transform:none;direction:ltr;block-progression:tb;writing-mode:lr-tb;text-anchor:start;baseline-shift:baseline;color:#000000;fill:#ffffff;fill-opacity:1;stroke:none;stroke-width:4;marker:none;visibility:visible;display:inline;overflow:visible;enable-background:accumulate;font-family:Sans;-inkscape-font-specification:Sans"
           d="m 1307.0938,182.84375 -42.4063,15.59375 -0.375,0 0,0.125 -5.3125,1.96875 48.0938,17.65625 c -3.4107,-4.752 -5.2866,-10.21223 -5.6563,-15.75 l 45.5,0 0,-4 -45.5,0 c 0.3645,-5.51891 2.2314,-10.93953 5.6563,-15.59375 z"
           id="path4063-5-5" />
        <path
           transform="matrix(0,1,-1,0,1789.7556,-1413.9214)"
           inkscape:connector-curvature="0"
           style="font-size:medium;font-style:normal;font-variant:normal;font-weight:normal;font-stretch:normal;text-indent:0;text-align:start;text-decoration:none;line-height:normal;letter-spacing:normal;word-spacing:normal;text-transform:none;direction:ltr;block-progression:tb;writing-mode:lr-tb;text-anchor:start;baseline-shift:baseline;color:#000000;fill:#ffffff;fill-opacity:1;stroke:none;stroke-width:4;marker:none;visibility:visible;display:inline;overflow:visible;enable-background:accumulate;font-family:Sans;-inkscape-font-specification:Sans"
           d="m 1307.0938,182.84375 -42.4063,15.59375 -0.375,0 0,0.125 -5.3125,1.96875 48.0938,17.65625 c -3.4107,-4.752 -5.2866,-10.21223 -5.6563,-15.75 l 45.5,0 0,-4 -45.5,0 c 0.3645,-5.51891 2.2314,-10.93953 5.6563,-15.59375 z"
           id="path4063-5-5-43" />
      </g>
      <g
         inkscape:label="#g5333-2"
         style="fill:#ffffff"
         id="menuTransposeUp"
         transform="translate(-1181.8196,676.35575)">
        <path
           style="fill:#ffffff;fill-opacity:1;stroke:#04baab;stroke-width:1.73041821;stroke-linecap:round;stroke-linejoin:round;stroke-miterlimit:4;stroke-opacity:0;stroke-dasharray:none"
           d="m 233.51143,585.07195 7.33818,0 0,64.99518 c 0.0383,0.32726 0.0248,0.67053 0,1.00768 -0.32279,4.38288 -5.91337,9.48993 -14.22709,12.49519 -10.23226,3.69878 -20.7176,2.83101 -23.46222,-1.96497 -2.74459,-4.79598 3.34586,-11.6683 13.57813,-15.36707 6.04464,-2.18502 12.18982,-2.7914 16.773,-1.91459 l 0,-59.25142 z"
           id="octaveUp-5-2-9-4-6-4-0"
           inkscape:connector-curvature="0"
           transform="matrix(1.0421161,0,0,1.0421161,1278.4237,-743.93674)" />
        <path
           transform="matrix(0,1,-1,0,1766.4372,-1372.2153)"
           inkscape:connector-curvature="0"
           style="font-size:medium;font-style:normal;font-variant:normal;font-weight:normal;font-stretch:normal;text-indent:0;text-align:start;text-decoration:none;line-height:normal;letter-spacing:normal;word-spacing:normal;text-transform:none;direction:ltr;block-progression:tb;writing-mode:lr-tb;text-anchor:start;baseline-shift:baseline;color:#000000;fill:#ffffff;fill-opacity:1;stroke:none;stroke-width:4;marker:none;visibility:visible;display:inline;overflow:visible;enable-background:accumulate;font-family:Sans;-inkscape-font-specification:Sans"
           d="m 1307.0938,182.84375 -42.4063,15.59375 -0.375,0 0,0.125 -5.3125,1.96875 48.0938,17.65625 c -3.4107,-4.752 -5.2866,-10.21223 -5.6563,-15.75 l 45.5,0 0,-4 -45.5,0 c 0.3645,-5.51891 2.2314,-10.93953 5.6563,-15.59375 z"
           id="path4063-5-5-431" />
      </g>
      <g
         inkscape:label="#g5337-4"
         style="fill:#ffffff"
         id="menuTransposeDown"
         transform="translate(-1246.1882,663.70025)">
        <path
           style="fill:#ffffff;fill-opacity:1;stroke:#04baab;stroke-width:1.73041821;stroke-linecap:round;stroke-linejoin:round;stroke-miterlimit:4;stroke-opacity:0;stroke-dasharray:none"
           d="m 233.51143,585.07195 7.33818,0 0,64.99518 c 0.0383,0.32726 0.0248,0.67053 0,1.00768 -0.32279,4.38288 -5.91337,9.48993 -14.22709,12.49519 -10.23226,3.69878 -20.7176,2.83101 -23.46222,-1.96497 -2.74459,-4.79598 3.34586,-11.6683 13.57813,-15.36707 6.04464,-2.18502 12.18982,-2.7914 16.773,-1.91459 l 0,-59.25142 z"
           id="octaveUp-5-2-9-4-6-4-7-3"
           inkscape:connector-curvature="0"
           transform="matrix(1.0421161,0,0,1.0421161,1339.9919,-524.04992)" />
        <path
           transform="matrix(0,-1,-1,0,1828.0054,1453.609)"
           inkscape:connector-curvature="0"
           style="font-size:medium;font-style:normal;font-variant:normal;font-weight:normal;font-stretch:normal;text-indent:0;text-align:start;text-decoration:none;line-height:normal;letter-spacing:normal;word-spacing:normal;text-transform:none;direction:ltr;block-progression:tb;writing-mode:lr-tb;text-anchor:start;baseline-shift:baseline;color:#000000;fill:#ffffff;fill-opacity:1;stroke:none;stroke-width:4;marker:none;visibility:visible;display:inline;overflow:visible;enable-background:accumulate;font-family:Sans;-inkscape-font-specification:Sans"
           d="m 1307.0938,182.84375 -42.4063,15.59375 -0.375,0 0,0.125 -5.3125,1.96875 48.0938,17.65625 c -3.4107,-4.752 -5.2866,-10.21223 -5.6563,-15.75 l 45.5,0 0,-4 -45.5,0 c 0.3645,-5.51891 2.2314,-10.93953 5.6563,-15.59375 z"
           id="path4063-5-5-5-2" />
      </g>
      <g
         inkscape:label="#g5415"
         style="fill:#ffffff"
         transform="translate(-988.54928,701.50594)"
         id="menuOctaveDown">
        <path
           style="fill:#ffffff;fill-opacity:1;stroke:#04baab;stroke-width:1.73041821;stroke-linecap:round;stroke-linejoin:round;stroke-miterlimit:4;stroke-opacity:0;stroke-dasharray:none"
           d="m 233.51143,585.07195 7.33818,0 0,64.99518 c 0.0383,0.32726 0.0248,0.67053 0,1.00768 -0.32279,4.38288 -5.91337,9.48993 -14.22709,12.49519 -10.23226,3.69878 -20.7176,2.83101 -23.46222,-1.96497 -2.74459,-4.79598 3.34586,-11.6683 13.57813,-15.36707 6.04464,-2.18502 12.18982,-2.7914 16.773,-1.91459 l 0,-59.25142 z"
           id="octaveUp-5-2-9-4-6-4-2"
           inkscape:connector-curvature="0"
           transform="matrix(1.0421161,0,0,1.0421161,1304.5291,-557.55853)" />
        <path
           transform="matrix(0,-1,-1,0,1781.3409,1378.3943)"
           inkscape:connector-curvature="0"
           style="font-size:medium;font-style:normal;font-variant:normal;font-weight:normal;font-stretch:normal;text-indent:0;text-align:start;text-decoration:none;line-height:normal;letter-spacing:normal;word-spacing:normal;text-transform:none;direction:ltr;block-progression:tb;writing-mode:lr-tb;text-anchor:start;baseline-shift:baseline;color:#000000;fill:#ffffff;fill-opacity:1;stroke:none;stroke-width:4;marker:none;visibility:visible;display:inline;overflow:visible;enable-background:accumulate;font-family:Sans;-inkscape-font-specification:Sans"
           d="m 1307.0938,182.84375 -42.4063,15.59375 -0.375,0 0,0.125 -5.3125,1.96875 48.0938,17.65625 c -3.4107,-4.752 -5.2866,-10.21223 -5.6563,-15.75 l 45.5,0 0,-4 -45.5,0 c 0.3645,-5.51891 2.2314,-10.93953 5.6563,-15.59375 z"
           id="path4063-5-5-8" />
        <path
           transform="matrix(0,-1,-1,0,1815.861,1414.4996)"
           inkscape:connector-curvature="0"
           style="font-size:medium;font-style:normal;font-variant:normal;font-weight:normal;font-stretch:normal;text-indent:0;text-align:start;text-decoration:none;line-height:normal;letter-spacing:normal;word-spacing:normal;text-transform:none;direction:ltr;block-progression:tb;writing-mode:lr-tb;text-anchor:start;baseline-shift:baseline;color:#000000;fill:#ffffff;fill-opacity:1;stroke:none;stroke-width:4;marker:none;visibility:visible;display:inline;overflow:visible;enable-background:accumulate;font-family:Sans;-inkscape-font-specification:Sans"
           d="m 1307.0938,182.84375 -42.4063,15.59375 -0.375,0 0,0.125 -5.3125,1.96875 48.0938,17.65625 c -3.4107,-4.752 -5.2866,-10.21223 -5.6563,-15.75 l 45.5,0 0,-4 -45.5,0 c 0.3645,-5.51891 2.2314,-10.93953 5.6563,-15.59375 z"
           id="path4063-5-5-43-8" />
      </g>
      <rect
         style="fill:#f1a123;fill-opacity:0.68493152;stroke:none;stroke-width:5;stroke-linecap:round;stroke-linejoin:miter;stroke-miterlimit:4;stroke-opacity:1;stroke-dasharray:none;stroke-dashoffset:0"
         id="disableUndo"
         width="154.45544"
         height="136.63367"
         x="827.72278"
         y="273.26733"
         transform="translate(0,-300)"
         rx="23.762377"
         ry="49.504955"
         inkscape:label="#rect3955" />
    </g>
    <g
       id="g3814"
       transform="matrix(1.1193099,0,0,1.1193099,-0.78347,-108.65919)">
      <path
         inkscape:connector-curvature="0"
         id="path2985-3-07"
         d="m 333.60902,263.57144 c 0,26.82526 -35.18604,48.57143 -78.59022,48.57143 -43.40418,0 -78.59023,-21.74617 -78.59023,-48.57143 0,-26.82526 35.18605,-48.57143 78.59023,-48.57143 43.40418,0 78.59022,21.74617 78.59022,48.57143 z"
         style="fill:#000000;fill-opacity:0.28310499;stroke:none"
         transform="matrix(1.5269074,0,0,2.4705882,329.91685,89.912623)" />
      <path
         inkscape:connector-curvature="0"
         id="menuCenter"
         d="m 333.60902,263.57144 c 0,26.82526 -35.18604,48.57143 -78.59022,48.57143 -43.40418,0 -78.59023,-21.74617 -78.59023,-48.57143 0,-26.82526 35.18605,-48.57143 78.59023,-48.57143 43.40418,0 78.59022,21.74617 78.59022,48.57143 z"
         style="fill:#f1a123;fill-opacity:1;stroke:none"
         transform="matrix(1.5269074,0,0,2.4705882,329.91685,76.051233)" />
      <path
         transform="matrix(0.48145678,0,0,0.48145678,514.88164,528.50797)"
         inkscape:connector-curvature="0"
         id="rect3015"
         d="m 318.71875,220.40625 c -0.57815,0.0265 -1.13112,0.006 -1.75,0.0937 -0.61887,0.0872 -1.18713,0.17784 -1.75,0.3125 -17.44881,4.17394 -8.86179,30.50347 -24.125,42.4375 -15.75556,12.319 -40.20227,-3.7651 -47.6875,14.78125 -7.48523,18.54635 21.30297,23.97703 24.09375,43.78125 2.79078,19.80423 -23.3815,32.96318 -11.0625,48.71875 12.319,15.75557 31.42241,-6.45398 49.96875,1.03125 17.11639,6.90811 16.93193,32.37429 32.375,34.0625 l 3.3125,0 c 0.31581,-0.0288 0.61011,-0.0789 0.9375,-0.125 19.80422,-2.79078 10.11944,-30.39975 25.875,-42.71875 15.75557,-12.319 40.20227,3.73385 47.6875,-14.8125 7.48523,-18.5463 -21.30297,-24.03948 -24.09375,-43.8437 -2.79078,-19.80423 23.3815,-32.90068 11.0625,-48.65625 -12.319,-15.75557 -31.4224,6.45398 -49.96875,-1.03125 -17.96676,-7.25132 -16.95225,-34.84745 -34.875,-34.03125 z M 330.5,265.375 c 23.16806,0.19339 43.26244,17.26625 46.59375,40.90625 3.66802,26.02941 -14.43935,50.14448 -40.46875,53.8125 -26.0294,3.66802 -50.14448,-14.43934 -53.8125,-40.46875 -3.66802,-26.02941 14.5331,-50.14448 40.5625,-53.8125 1.62684,-0.22926 3.26794,-0.34388 4.875,-0.40625 0.75331,-0.0292 1.50264,-0.0375 2.25,-0.0313 z"
         style="fill:#ffffff;stroke:none" />
      <text
         transform="matrix(0.84712125,0,0,0.84712125,304.27185,376.38723)"
         sodipodi:linespacing="125%"
         id="loopNumberText"
         y="523.76239"
         x="415.84158"
         style="font-size:144px;font-style:normal;font-variant:normal;font-weight:normal;font-stretch:normal;line-height:125%;letter-spacing:0px;word-spacing:0px;fill:#ffffff;fill-opacity:1;stroke:none;font-family:Roboto;-inkscape-font-specification:Roboto"
         xml:space="preserve"><tspan
           y="523.76239"
           x="415.84158"
           id="tspan3019"
           sodipodi:role="line">00</tspan></text>
    </g>
    <g
       id="helpTextBlock"
       transform="matrix(0.71602034,0,0,0.71602034,141.55891,-216.89887)">
      <g
         id="g3893">
        <rect
           style="fill:#000000;fill-opacity:0.28235294;stroke:none"
           id="rect3874-3"
           width="603.96039"
           height="219.80199"
           x="1209.901"
           y="34.653465"
           ry="85.683495"
           rx="47.817242"
           transform="matrix(1.4459017,0,0,0.80691193,-1739.0273,9.0998575)" />
        <rect
           style="fill:#f1a123;fill-opacity:1;stroke:none"
           id="rect3874"
           width="603.96039"
           height="219.80199"
           x="1209.901"
           y="34.653465"
           ry="85.683495"
           rx="47.817242"
           transform="matrix(1.4459017,0,0,0.80691193,-1739.0273,-10.7663)" />
        <text
           id="text3782"
           class="helpText"
           xml:space="preserve"
           style="font-size:120px;font-style:normal;font-variant:normal;font-weight:normal;font-stretch:normal;line-height:125%;letter-spacing:0px;word-spacing:0px;fill:#ffffff;fill-opacity:1;stroke:none;font-family:Roboto;-inkscape-font-specification:Roboto"
           x="91.089111"
           y="135.64355"
           sodipodi:linespacing="125%"
           transform="translate(-17.514541,21.420363)"><tspan
             sodipodi:role="line"
             id="tspan3843"
             x="91.089111"
             y="135.64355">HELP TEXT</tspan></text>
      </g>
    </g>
  </g>
</svg>
