<?xml version="1.0" encoding="UTF-8" standalone="no"?>
<!-- Created with Inkscape (http://www.inkscape.org/) -->

<svg
   xmlns:dc="http://purl.org/dc/elements/1.1/"
   xmlns:cc="http://creativecommons.org/ns#"
   xmlns:rdf="http://www.w3.org/1999/02/22-rdf-syntax-ns#"
   xmlns:svg="http://www.w3.org/2000/svg"
   xmlns="http://www.w3.org/2000/svg"
   xmlns:sodipodi="http://sodipodi.sourceforge.net/DTD/sodipodi-0.dtd"
   xmlns:inkscape="http://www.inkscape.org/namespaces/inkscape"
   width="327.70178"
   height="292.02505"
   id="svg2"
   version="1.1"
   inkscape:version="0.48.3.1 r9886"
   sodipodi:docname="knob-Logo-color.svg"
   inkscape:export-filename="/home/apersson/MyWork/Source/Android/satan_ICS/SVG/knob-Logo.png"
   inkscape:export-xdpi="232.53999"
   inkscape:export-ydpi="232.53999">
  <defs
     id="defs4" />
  <sodipodi:namedview
     id="base"
     pagecolor="#ffffff"
     bordercolor="#666666"
     borderopacity="1.0"
     inkscape:pageopacity="0.0"
     inkscape:pageshadow="2"
     inkscape:zoom="2.7275603"
     inkscape:cx="27.297608"
     inkscape:cy="146.29699"
     inkscape:document-units="px"
     inkscape:current-layer="layer1"
     showgrid="false"
     inkscape:window-width="1855"
     inkscape:window-height="1056"
     inkscape:window-x="65"
     inkscape:window-y="24"
     inkscape:window-maximized="1"
     fit-margin-top="40"
     fit-margin-left="40"
     fit-margin-right="40"
     fit-margin-bottom="40" />
  <metadata
     id="metadata7">
    <rdf:RDF>
      <cc:Work
         rdf:about="">
        <dc:format>image/svg+xml</dc:format>
        <dc:type
           rdf:resource="http://purl.org/dc/dcmitype/StillImage" />
        <dc:title />
      </cc:Work>
    </rdf:RDF>
  </metadata>
  <g
     inkscape:label="Layer 1"
     inkscape:groupmode="layer"
     id="layer1"
     transform="translate(-214.87675,-393.9465)">
    <g
       id="g6328">
      <rect
         ry="38.368282"
         rx="0"
         y="574.97766"
         x="240.29074"
         height="38.368282"
         width="276.87381"
         id="rect5854"
         style="fill:#9c9386;fill-opacity:0;stroke:none" />
      <path
         id="path3773-6"
         transform="translate(214.87675,393.9465)"
         d="M 164.03125 39.03125 C 139.66593 39.03125 115.29583 48.29791 96.71875 66.875 C 65.1075 98.48625 60.4645 146.81977 82.65625 183.4375 L 79.375 186.71875 L 78.21875 187.875 L 79.125 189.25 C 82.79925 194.757 87.07982 199.98607 91.9375 204.84375 L 93.34375 206.25 L 94.75 204.84375 L 101.84375 197.78125 L 103.25 196.34375 L 101.84375 194.9375 C 67.46086 160.55461 67.46086 104.88289 101.84375 70.5 C 136.22664 36.11711 191.89836 36.11711 226.28125 70.5 C 260.66414 104.88289 260.66414 160.55461 226.28125 194.9375 L 224.875 196.34375 L 226.28125 197.78125 L 233.34375 204.84375 L 234.75 206.25 L 236.1875 204.84375 C 241.04491 199.98634 245.29535 194.78684 248.96875 189.28125 L 249.875 187.90625 L 248.71875 186.75 L 245.40625 183.4375 C 267.60537 146.81849 262.95806 98.48931 231.34375 66.875 C 212.76667 48.29791 188.39657 39.03125 164.03125 39.03125 z "
         style="fill:#ffa123;fill-opacity:1;stroke:none;stroke-width:4;stroke-miterlimit:4;stroke-opacity:1;stroke-dasharray:none" />
      <g
         transform="translate(13.999233,2.3543035)"
         id="text3821"
         style="font-size:40px;font-style:normal;font-weight:normal;line-height:125%;letter-spacing:0px;word-spacing:0px;fill:#33ccff;fill-opacity:1;stroke:none;font-family:Sans">
        <path
           inkscape:connector-curvature="0"
           id="path2999"
           style="fill:#33ccff;fill-opacity:1"
           d="m 264.95488,579.80554 c -2.03126,3e-5 -3.56121,1.00263 -4.58984,3.00781 -1.01564,1.99221 -1.52345,4.99351 -1.52344,9.00391 -1e-5,3.99741 0.5078,6.99871 1.52344,9.00391 1.02863,1.99219 2.55858,2.98828 4.58984,2.98828 2.04426,0 3.5742,-0.99609 4.58984,-2.98828 1.02863,-2.0052 1.54295,-5.0065 1.54297,-9.00391 -2e-5,-4.0104 -0.51434,-7.0117 -1.54297,-9.00391 -1.01564,-2.00518 -2.54558,-3.00778 -4.58984,-3.00781 m 0,-3.125 c 3.26821,3e-5 5.7617,1.2956 7.48047,3.88672 1.73175,2.57815 2.59763,6.32815 2.59765,11.25 -2e-5,4.90886 -0.8659,8.65886 -2.59765,11.25 -1.71877,2.57813 -4.21226,3.86719 -7.48047,3.86719 -3.26824,0 -5.76824,-1.28906 -7.5,-3.86719 -1.71875,-2.59114 -2.57813,-6.34114 -2.57813,-11.25 0,-4.92185 0.85938,-8.67185 2.57813,-11.25 1.73176,-2.59112 4.23176,-3.88669 7.5,-3.88672" />
      </g>
      <g
         transform="translate(9.3328206,2.3543035)"
         id="text3825"
         style="font-size:40px;font-style:normal;font-weight:normal;line-height:125%;letter-spacing:0px;word-spacing:0px;fill:#33ccff;fill-opacity:1;stroke:none;font-family:Sans">
        <path
           inkscape:connector-curvature="0"
           id="path3011"
           style="fill:#33ccff;fill-opacity:1"
           d="m 460.3129,603.06726 6.44531,0 0,-22.24609 -7.01172,1.40625 0,-3.59375 6.97266,-1.40625 3.94531,0 0,25.83984 6.44531,0 0,3.32031 -16.79687,0 0,-3.32031" />
        <path
           inkscape:connector-curvature="0"
           id="path3013"
           style="fill:#33ccff;fill-opacity:1"
           d="m 485.78165,603.06726 6.44531,0 0,-22.24609 -7.01172,1.40625 0,-3.59375 6.97266,-1.40625 3.94531,0 0,25.83984 6.44531,0 0,3.32031 -16.79687,0 0,-3.32031" />
      </g>
      <path
         inkscape:connector-curvature="0"
         id="path3829"
         d="m 378.71202,443.75 c -20.20855,0 -40.3939,7.70639 -55.8125,23.125 -30.83722,30.83722 -30.83722,80.81903 0,111.65625 30.83721,30.83721 80.81903,30.83722 111.65625,0 30.83721,-30.83721 30.83721,-80.81904 0,-111.65625 -15.41861,-15.41861 -35.6352,-23.125 -55.84375,-23.125 z m -52.125,28.3125 7.53125,0 7.75,44.34375 7.71875,-44.34375 7.5625,0 -10.8125,60.09375 -8.96875,0 -10.78125,-60.09375 z m 34.40625,0 7.5,0 0,36.03125 c -10e-6,4.96387 0.40624,8.50974 1.1875,10.65625 0.79426,2.11971 2.09113,3.18751 3.875,3.1875 1.79686,10e-6 3.06248,-1.06779 3.84375,-3.1875 0.79425,-2.14651 1.21873,-5.69238 1.21875,-10.65625 l 0,-36.03125 7.5,0 0,36.03125 c -3e-5,8.50564 -1.02347,14.84111 -3.09375,19 -2.07034,4.1589 -5.22398,6.21875 -9.46875,6.21875 -4.23178,0 -7.39845,-2.05985 -9.46875,-6.21875 -2.07032,-4.15889 -3.09375,-10.49436 -3.09375,-19 l 0,-36.03125 z m 48.84375,46.34375 c 1.2384,-0.0128 2.72812,0.17847 4.5,0.65625 14.17503,3.82226 3.19141,12.62542 6.96875,26.8125 3.77732,14.18706 17.6477,16.35394 7.25,26.71875 -10.39773,10.36478 -12.51247,-3.52149 -26.6875,-7.34375 -14.17503,-3.82227 -23.00391,7.09333 -26.78125,-7.09375 -3.77732,-14.18707 9.32106,-9.07269 19.71875,-19.4375 9.09801,-9.06918 6.36243,-20.2231 15.03125,-20.3125 z"
         style="fill:#33ccff;fill-opacity:1;stroke:none" />
      <g
         id="text3541"
         style="font-size:40px;font-style:normal;font-weight:normal;line-height:125%;letter-spacing:0px;word-spacing:0px;fill:#33ccff;fill-opacity:1;stroke:none;font-family:Sans">
        <path
           id="path3546"
           d="m 308.88388,646.04779 -11.13281,-29.16016 4.12109,0 9.23828,24.55079 9.25782,-24.55079 4.10156,0 -11.11328,29.16016 -4.47266,0"
           inkscape:connector-curvature="0" />
        <path
           id="path3548"
           d="m 325.44638,637.41498 0,-13.24219 3.59375,0 0,13.10547 c -10e-6,2.07032 0.40364,3.62631 1.21094,4.66797 0.80728,1.02865 2.01822,1.54297 3.63281,1.54297 1.94009,0 3.47004,-0.61849 4.58984,-1.85547 1.1328,-1.23698 1.6992,-2.92317 1.69922,-5.0586 l 0,-12.40234 3.59375,0 0,21.875 -3.59375,0 0,-3.35937 c -0.87241,1.32812 -1.88803,2.3177 -3.04687,2.96875 -1.14585,0.63802 -2.48048,0.95703 -4.00391,0.95703 -2.51303,0 -4.42058,-0.78125 -5.72265,-2.34375 -1.30209,-1.5625 -1.95313,-3.84765 -1.95313,-6.85547 m 9.04297,-13.76953 0,0"
           inkscape:connector-curvature="0" />
        <path
           id="path3550"
           d="m 351.36435,616.88763 3.94531,0 0,12.32422 13.08594,-12.32422 5.07812,0 -14.47265,13.59375 15.50781,15.56641 -5.19531,0 -14.00391,-14.04297 0,14.04297 -3.94531,0 0,-29.16016"
           inkscape:connector-curvature="0" />
        <path
           id="path3552"
           d="m 377.61435,616.88763 5.3125,0 12.92969,24.39454 0,-24.39454 3.82812,0 0,29.16016 -5.3125,0 -12.92969,-24.39453 0,24.39453 -3.82812,0 0,-29.16016"
           inkscape:connector-curvature="0" />
        <path
           id="path3554"
           d="m 419.37216,619.56342 c -2.86459,2e-5 -5.14324,1.06773 -6.83594,3.20312 -1.67969,2.13544 -2.51953,5.04559 -2.51953,8.73047 0,3.67189 0.83984,6.57553 2.51953,8.71094 1.6927,2.13542 3.97135,3.20312 6.83594,3.20312 2.86457,0 5.13019,-1.0677 6.79688,-3.20312 1.67966,-2.13541 2.5195,-5.03905 2.51953,-8.71094 -3e-5,-3.68488 -0.83987,-6.59503 -2.51953,-8.73047 -1.66669,-2.13539 -3.93231,-3.2031 -6.79688,-3.20312 m 0,-3.20313 c 4.08852,3e-5 7.35675,1.37373 9.80469,4.12109 2.44789,2.7344 3.67185,6.40627 3.67187,11.01563 -2e-5,4.59636 -1.22398,8.26823 -3.67187,11.01562 -2.44794,2.73438 -5.71617,4.10157 -9.80469,4.10157 -4.10157,0 -7.38282,-1.36719 -9.84375,-4.10157 -2.44792,-2.73436 -3.67188,-6.40624 -3.67187,-11.01562 -10e-6,-4.60936 1.22395,-8.28123 3.67187,-11.01563 2.46093,-2.74736 5.74218,-4.12106 9.84375,-4.12109"
           inkscape:connector-curvature="0" />
        <path
           id="path3556"
           d="m 442.96591,632.12201 0,10.68359 6.32813,0 c 2.12238,10e-6 3.69139,-0.43619 4.70703,-1.30859 1.02862,-0.88541 1.54295,-2.23307 1.54297,-4.04297 -2e-5,-1.82291 -0.51435,-3.16405 -1.54297,-4.02344 -1.01564,-0.87238 -2.58465,-1.30858 -4.70703,-1.30859 l -6.32813,0 m 0,-11.99219 0,8.78906 5.83985,0 c 1.92706,2e-5 3.35935,-0.35805 4.29687,-1.07421 0.9505,-0.72915 1.42576,-1.83592 1.42578,-3.32032 -2e-5,-1.47133 -0.47528,-2.57159 -1.42578,-3.30078 -0.93752,-0.72914 -2.36981,-1.09372 -4.29687,-1.09375 l -5.83985,0 m -3.94531,-3.24219 10.07812,0 c 3.0078,3e-5 5.32551,0.62503 6.95313,1.875 1.62758,1.25003 2.44138,3.02737 2.44141,5.33204 -3e-5,1.78387 -0.41669,3.20314 -1.25,4.25781 -0.83336,1.0547 -2.05732,1.71225 -3.67188,1.97265 1.94008,0.41669 3.44399,1.28908 4.51172,2.61719 1.0807,1.31512 1.62107,2.96225 1.62109,4.94141 -2e-5,2.60417 -0.88544,4.61589 -2.65625,6.03515 -1.77085,1.41928 -4.29038,2.12891 -7.55859,2.12891 l -10.46875,0 0,-29.16016"
           inkscape:connector-curvature="0" />
      </g>
    </g>
  </g>
</svg>
