<?xml version="1.0" encoding="UTF-8" standalone="no"?>
<!-- Created with Inkscape (http://www.inkscape.org/) -->

<svg
   xmlns:dc="http://purl.org/dc/elements/1.1/"
   xmlns:cc="http://creativecommons.org/ns#"
   xmlns:rdf="http://www.w3.org/1999/02/22-rdf-syntax-ns#"
   xmlns:svg="http://www.w3.org/2000/svg"
   xmlns="http://www.w3.org/2000/svg"
   xmlns:sodipodi="http://sodipodi.sourceforge.net/DTD/sodipodi-0.dtd"
   xmlns:inkscape="http://www.inkscape.org/namespaces/inkscape"
   width="350"
   height="371.89536"
   id="svg5486"
   version="1.1"
   inkscape:version="0.92.3 (2405546, 2018-03-11)"
   sodipodi:docname="leftArrow.svg">
  <defs
     id="defs5488" />
  <sodipodi:namedview
     id="base"
     pagecolor="#ffffff"
     bordercolor="#666666"
     borderopacity="1.0"
     inkscape:pageopacity="0.0"
     inkscape:pageshadow="2"
     inkscape:zoom="0.98994949"
     inkscape:cx="-196.9749"
     inkscape:cy="146.45945"
     inkscape:document-units="px"
     inkscape:current-layer="layer1"
     showgrid="false"
     fit-margin-top="0"
     fit-margin-left="0"
     fit-margin-right="0"
     fit-margin-bottom="0"
     inkscape:window-width="1645"
     inkscape:window-height="954"
     inkscape:window-x="677"
     inkscape:window-y="166"
     inkscape:window-maximized="0" />
  <metadata
     id="metadata5491">
    <rdf:RDF>
      <cc:Work
         rdf:about="">
        <dc:format>image/svg+xml</dc:format>
        <dc:type
           rdf:resource="http://purl.org/dc/dcmitype/StillImage" />
        <dc:title></dc:title>
      </cc:Work>
    </rdf:RDF>
  </metadata>
  <g
     inkscape:label="Layer 1"
     inkscape:groupmode="layer"
     id="layer1"
     transform="translate(-165,-337.84307)">
    <path
       sodipodi:type="arc"
       style="fill:#000000;fill-opacity:0.49771693;stroke:none"
       id="path5359-0"
       sodipodi:cx="-358.57144"
       sodipodi:cy="403.79074"
       sodipodi:rx="134.28572"
       sodipodi:ry="134.28572"
       d="M -224.28572,403.79074 A 134.28572,134.28572 0 0 1 -358.57144,538.07646 134.28572,134.28572 0 0 1 -492.85716,403.79074 134.28572,134.28572 0 0 1 -358.57144,269.50502 134.28572,134.28572 0 0 1 -224.28572,403.79074 Z"
       transform="matrix(1.3031914,0,0,1.3031914,807.28722,8.521821)" />
    <path
       sodipodi:type="arc"
       style="fill:#f1a123;fill-opacity:1;stroke:none"
       id="buttonBody"
       sodipodi:cx="-358.57144"
       sodipodi:cy="403.79074"
       sodipodi:rx="134.28572"
       sodipodi:ry="134.28572"
       d="M -224.28572,403.79074 A 134.28572,134.28572 0 0 1 -358.57144,538.07646 134.28572,134.28572 0 0 1 -492.85716,403.79074 134.28572,134.28572 0 0 1 -358.57144,269.50502 134.28572,134.28572 0 0 1 -224.28572,403.79074 Z"
       transform="matrix(1.3031914,0,0,1.3031914,807.28722,-13.373556)"
       inkscape:label="#path5359" />
    <path
       style="fill:#ffffff"
       d="m 335.04395,459.76885 -82.01367,53.07422 82.01367,53.07422 v -42.46875 h 91.92578 v -21.21289 h -91.92578 z"
       id="rect5389"
       inkscape:connector-curvature="0" />
  </g>
</svg>
