<?xml version="1.0" encoding="UTF-8" standalone="no"?>
<!-- Created with Inkscape (http://www.inkscape.org/) -->

<svg
   xmlns:dc="http://purl.org/dc/elements/1.1/"
   xmlns:cc="http://creativecommons.org/ns#"
   xmlns:rdf="http://www.w3.org/1999/02/22-rdf-syntax-ns#"
   xmlns:svg="http://www.w3.org/2000/svg"
   xmlns="http://www.w3.org/2000/svg"
   xmlns:xlink="http://www.w3.org/1999/xlink"
   xmlns:sodipodi="http://sodipodi.sourceforge.net/DTD/sodipodi-0.dtd"
   xmlns:inkscape="http://www.inkscape.org/namespaces/inkscape"
   width="640"
   height="640"
   id="svg4320"
   version="1.1"
   inkscape:version="0.48.4 r9939"
   sodipodi:docname="logoIcon.svg"
   inkscape:export-filename="/home/apersson/MyWork/Source/Android/satan_ICS/Android/res/drawable-xxhdpi/icon.png"
   inkscape:export-xdpi="26.097527"
   inkscape:export-ydpi="26.097527">
  <defs
     id="defs4322">
    <linearGradient
       id="linearGradient4231">
      <stop
         style="stop-color:#ffffff;stop-opacity:1;"
         offset="0"
         id="stop4233" />
      <stop
         id="stop4243"
         offset="0.9464286"
         style="stop-color:#bfbfbf;stop-opacity:1;" />
      <stop
         style="stop-color:#808080;stop-opacity:1;"
         offset="1"
         id="stop4235" />
    </linearGradient>
    <linearGradient
       id="linearGradient4126">
      <stop
         style="stop-color:#ffffff;stop-opacity:1;"
         offset="0"
         id="stop4128" />
      <stop
         id="stop4904"
         offset="0.94736844"
         style="stop-color:#b9b9b9;stop-opacity:0.52941173;" />
      <stop
         style="stop-color:#000000;stop-opacity:0.05833333;"
         offset="1"
         id="stop4130" />
    </linearGradient>
    <linearGradient
       id="linearGradient4842">
      <stop
         style="stop-color:#51830b;stop-opacity:1;"
         offset="0"
         id="stop4844" />
      <stop
         style="stop-color:#a118d2;stop-opacity:0.98431373;"
         offset="1"
         id="stop4846" />
    </linearGradient>
    <inkscape:perspective
       sodipodi:type="inkscape:persp3d"
       inkscape:vp_x="0 : 240 : 1"
       inkscape:vp_y="0 : 1000 : 0"
       inkscape:vp_z="640 : 240 : 1"
       inkscape:persp3d-origin="320 : 160 : 1"
       id="perspective4328" />
    <inkscape:perspective
       id="perspective2982"
       inkscape:persp3d-origin="0.5 : 0.33333333 : 1"
       inkscape:vp_z="1 : 0.5 : 1"
       inkscape:vp_y="0 : 1000 : 0"
       inkscape:vp_x="0 : 0.5 : 1"
       sodipodi:type="inkscape:persp3d" />
    <clipPath
       clipPathUnits="userSpaceOnUse"
       id="clipPath4203">
      <g
         style="font-size:763.125px;font-style:normal;font-variant:normal;font-weight:normal;font-stretch:normal;fill:#000000;fill-opacity:1;stroke:none;font-family:VL Gothic;-inkscape-font-specification:VL Gothic"
         id="g4205">
        <path
           d="m 3036.6073,1792.7129 34.3406,0 c 40.6998,4e-4 70.2073,-7.3765 88.5225,-22.1306 18.8235,-15.2621 28.2353,-38.4102 28.2356,-69.4444 -3e-4,-28.9983 -9.1578,-51.3832 -27.4725,-67.155 -18.3152,-16.2795 -44.2614,-24.4194 -77.8387,-24.42 -18.3152,6e-4 -33.5777,2.0355 -45.7875,6.105 l 0,177.045 m 0,53.4188 0,222.8325 c 18.8236,4.07 41.7173,6.105 68.6812,6.105 64.1023,0 96.1535,-40.6999 96.1538,-122.1 -3e-4,-71.2248 -40.9547,-106.8372 -122.8632,-106.8375 l -41.9718,0 m 227.4112,114.4687 c -3e-4,111.9251 -57.2347,167.8875 -171.7031,167.8875 -40.7002,0 -80.1282,-3.8156 -118.2844,-11.4468 l 0,-549.45 c 38.1562,-7.6307 77.5842,-11.4463 118.2844,-11.4469 104.2935,6e-4 156.4403,45.788 156.4406,137.3625 -3e-4,31.0341 -7.8859,57.2347 -23.6569,78.6019 -15.2628,21.3678 -36.6302,35.6128 -64.1025,42.735 l 0,1.5262 c 29.5073,5.5966 53.9272,21.8765 73.26,48.84 19.8409,26.964 29.7616,58.7608 29.7619,95.3906"
           id="path4207"
           inkscape:connector-curvature="0" />
        <path
           d="m 3440.3004,1724.0317 0,76.3125 1.5262,0 c 31.5424,-55.9621 75.2948,-83.9434 131.2575,-83.9438 18.8235,4e-4 36.6297,2.5442 53.4188,7.6313 l 0,53.4187 c -17.8066,-5.5959 -35.6128,-8.394 -53.4188,-8.3943 -37.139,3e-4 -68.1727,15.5172 -93.1012,46.5506 -24.9289,31.034 -37.3933,71.734 -37.3931,122.1 l 0,183.15 -60.2869,0 0,-396.825 57.9975,0"
           id="path4209"
           inkscape:connector-curvature="0" />
        <path
           d="m 3921.0691,1724.0317 0,344.9325 83.1807,0 0,51.8925 -251.8313,0 0,-51.8925 106.0744,0 0,-293.04 -83.1806,0 0,-51.8925 145.7568,0 m -77.8387,-91.575 0,-91.575 77.8387,0 0,91.575 -77.8387,0"
           id="path4211"
           inkscape:connector-curvature="0" />
        <path
           d="m 4397.2591,1869.0254 0,251.8313 -58.7606,0 0,-238.095 c -3e-4,-44.7697 -5.0878,-74.5316 -15.2625,-89.2856 -10.1752,-15.2622 -28.7446,-22.8934 -55.7081,-22.8938 -25.4377,4e-4 -47.3139,14.2454 -65.6288,42.735 -17.8063,28.4903 -26.7095,66.9009 -26.7093,115.2319 l 0,192.3075 -60.2869,0 0,-396.825 56.4712,0 1.5263,57.2344 1.5262,0 c 9.6662,-19.3322 24.4199,-34.849 44.2613,-46.5507 19.8411,-12.2096 41.2085,-18.3146 64.1025,-18.315 40.191,4e-4 69.1897,11.7017 86.9962,35.1038 18.3147,22.8941 27.4722,62.0678 27.4725,117.5212"
           id="path4213"
           inkscape:connector-curvature="0" />
        <path
           d="m 4481.2029,1922.4442 c -1e-4,-137.3622 44.5155,-206.0434 133.5469,-206.0438 42.226,4e-4 77.0753,21.6223 104.5481,64.8657 l 1.5262,0 1.5263,-57.2344 56.4712,0 0,393.0094 c -3e-4,63.5937 -12.9734,109.3811 -38.9193,137.3625 -25.4378,27.9811 -64.6115,41.9717 -117.5213,41.9718 -36.1214,-10e-5 -71.7339,-6.3595 -106.8375,-19.0781 l 0,-61.05 c 36.1211,18.3149 71.7336,27.4724 106.8375,27.4725 64.1023,-10e-5 96.1535,-42.2263 96.1538,-126.6787 l 0,-61.05 -1.5263,0 c -21.8765,43.2437 -55.9627,64.8656 -102.2587,64.8656 -40.7002,0 -73.2601,-16.7887 -97.68,-50.3663 -23.9113,-33.5774 -35.867,-82.9261 -35.8669,-148.0462 m 60.2869,0 c -1e-4,46.8051 7.8855,82.1632 23.6568,106.0744 16.2799,23.4025 37.9017,35.1038 64.8657,35.1037 26.4547,1e-4 47.8222,-11.4468 64.1025,-34.3406 16.2797,-23.4024 24.4197,-57.743 24.42,-103.0219 l 0,-7.6312 c -3e-4,-46.296 -8.3947,-81.9085 -25.1832,-106.8375 -16.2802,-25.4372 -37.3933,-38.1559 -63.3393,-38.1563 -29.5077,4e-4 -51.6383,11.956 -66.3919,35.8669 -14.7539,23.4028 -22.1307,61.0502 -22.1306,112.9425"
           id="path4215"
           inkscape:connector-curvature="0" />
        <path
           d="m 5065.7566,1724.0317 0,344.9325 83.1807,0 0,51.8925 -251.8313,0 0,-51.8925 106.0744,0 0,-293.04 -83.1806,0 0,-51.8925 145.7568,0 m -77.8387,-91.575 0,-91.575 77.8387,0 0,91.575 -77.8387,0"
           id="path4217"
           inkscape:connector-curvature="0" />
        <path
           d="m 5541.9466,1869.0254 0,251.8313 -58.7606,0 0,-238.095 c -3e-4,-44.7697 -5.0878,-74.5316 -15.2625,-89.2856 -10.1752,-15.2622 -28.7446,-22.8934 -55.7081,-22.8938 -25.4377,4e-4 -47.3139,14.2454 -65.6288,42.735 -17.8063,28.4903 -26.7095,66.9009 -26.7093,115.2319 l 0,192.3075 -60.2869,0 0,-396.825 56.4712,0 1.5263,57.2344 1.5262,0 c 9.6662,-19.3322 24.4199,-34.849 44.2613,-46.5507 19.8411,-12.2096 41.2085,-18.3146 64.1025,-18.315 40.191,4e-4 69.1897,11.7017 86.9962,35.1038 18.3147,22.8941 27.4722,62.0678 27.4725,117.5212"
           id="path4219"
           inkscape:connector-curvature="0" />
        <path
           d="m 3968.3829,2662.6754 -1.5263,0 -67.155,259.4625 -61.05,0 -67.155,-259.4625 -1.5262,0 0,412.0875 -59.5238,0 0,-557.0812 70.2075,0 90.8119,343.4062 1.5263,0 90.8118,-343.4062 67.155,0 0,557.0812 -62.5762,0 0,-412.0875"
           id="path4221"
           inkscape:connector-curvature="0" />
        <path
           d="m 4111.0873,2937.4004 0,-259.4625 58.7606,0 0,245.7263 c -1e-4,42.2263 4.5786,70.2076 13.7362,83.9437 9.6661,13.7363 27.4724,20.6045 53.4188,20.6044 24.9285,10e-5 45.7873,-13.9906 62.5762,-41.9719 17.2973,-27.9811 25.946,-66.6461 25.9463,-115.995 l 0,-192.3075 60.2869,0 0,396.825 -56.4713,0 -1.5262,-57.2343 -1.5263,0 c -9.6665,20.35 -23.9115,36.3756 -42.735,48.0768 -18.8239,11.1925 -39.4283,16.7888 -61.8131,16.7888 -39.1739,0 -67.4095,-10.9381 -84.7069,-32.8144 -17.2976,-21.8762 -25.9463,-59.2693 -25.9462,-112.1794"
           id="path4223"
           inkscape:connector-curvature="0" />
        <path
           d="m 4637.6435,2721.4361 c -48.8401,3e-4 -73.2601,18.5697 -73.26,55.7081 -1e-4,17.2978 5.3418,31.2884 16.0256,41.9719 10.6836,10.1752 29.7617,19.0783 57.2344,26.7093 53.9273,15.2628 89.5397,31.2884 106.8375,48.0769 17.8059,16.7889 26.7091,42.7352 26.7094,77.8388 -3e-4,35.1038 -11.956,62.3219 -35.8669,81.6543 -23.9115,19.3325 -57.7434,28.9988 -101.4956,28.9988 -43.7527,0 -85.7245,-10.175 -125.9156,-30.525 l 0,-61.05 c 39.6824,26.9638 79.1104,40.4457 118.2843,40.4456 56.471,1e-4 84.7066,-19.8412 84.7069,-59.5237 -3e-4,-18.8237 -5.5965,-33.323 -16.7887,-43.4982 -10.684,-10.1748 -32.0515,-19.841 -64.1025,-28.9987 -46.8052,-13.2273 -79.6195,-28.9986 -98.4432,-47.3138 -18.315,-18.3147 -27.4725,-43.2434 -27.4725,-74.7862 0,-33.5772 10.9381,-59.7778 32.8144,-78.6019 22.3849,-18.8233 54.6905,-28.2352 96.9169,-28.2356 42.7347,4e-4 83.4347,8.9035 122.1,26.7094 l 0,57.2343 c -40.1915,-21.8759 -79.6196,-32.814 -118.2844,-32.8143"
           id="path4225"
           inkscape:connector-curvature="0" />
        <path
           d="m 5065.7566,2677.9379 0,344.9325 83.1807,0 0,51.8925 -251.8313,0 0,-51.8925 106.0744,0 0,-293.04 -83.1806,0 0,-51.8925 145.7568,0 m -77.8387,-91.575 0,-91.575 77.8387,0 0,91.575 -77.8387,0"
           id="path4227"
           inkscape:connector-curvature="0" />
        <path
           d="m 5267.2216,2876.3504 c 0,-68.1722 13.9906,-119.5559 41.9719,-154.1512 27.9811,-34.5946 67.4092,-51.8921 118.2844,-51.8925 31.0335,4e-4 62.8303,6.3598 95.3906,19.0781 l 0,61.05 c -30.5253,-16.7884 -61.0502,-25.1828 -91.575,-25.1831 -32.0514,3e-4 -56.9802,12.7191 -74.7862,38.1562 -17.8064,25.4378 -26.7095,63.0853 -26.7094,112.9425 -10e-5,51.3839 9.4117,89.7945 28.2356,115.2319 18.8236,25.4376 44.5154,38.1563 77.0756,38.1563 30.016,0 60.541,-9.1575 91.575,-27.4725 l 0,61.05 c -32.5603,12.7187 -64.3571,19.0781 -95.3906,19.0781 -51.8927,0 -92.3383,-17.0431 -121.3369,-51.1294 -28.49,-34.5949 -42.735,-86.233 -42.735,-154.9144"
           id="path4229"
           inkscape:connector-curvature="0" />
        <path
           d="m 3484.5616,3647.1067 138.1257,0 0,52.6556 -138.1257,0 0,214.4381 c -2e-4,28.4901 4.0698,47.5682 12.21,57.2344 8.6486,9.1576 25.1829,13.7363 49.6032,13.7363 25.4372,0 48.3309,-4.5787 68.6812,-13.7363 l 0,53.4188 c -24.4203,7.6312 -49.8578,11.4468 -76.3125,11.4468 -42.7352,0 -72.497,-8.14 -89.2856,-24.42 -16.7889,-16.7887 -25.1833,-46.8049 -25.1831,-90.0487 l 0,-222.0694 -76.3125,0 0,-52.6556 76.3125,0 0,-144.9938 60.2868,0 0,144.9938"
           id="path4231"
           inkscape:connector-curvature="0" />
        <path
           d="m 3718.0779,3830.2567 c -1e-4,-137.3622 50.8749,-206.0434 152.625,-206.0438 101.7497,4e-4 152.6246,68.6816 152.625,206.0438 -4e-4,137.3626 -50.8753,206.0437 -152.625,206.0437 -101.7501,0 -152.6251,-68.6811 -152.625,-206.0437 m 83.9437,119.0475 c 14.7536,22.8938 37.6474,34.3407 68.6813,34.3406 31.0335,10e-5 53.6729,-11.4468 67.9181,-34.3406 14.7535,-23.4024 22.1304,-63.0849 22.1306,-119.0475 -2e-4,-55.9623 -7.3771,-95.3903 -22.1306,-118.2844 -14.2452,-23.4021 -36.8846,-35.1034 -67.9181,-35.1037 -31.0339,3e-4 -53.9277,11.7016 -68.6813,35.1037 -14.2451,22.8941 -21.3676,62.3221 -21.3675,118.2844 -1e-4,55.9626 7.1224,95.6451 21.3675,119.0475"
           id="path4233"
           inkscape:connector-curvature="0" />
        <path
           d="m 4634.591,3742.4973 1.5263,0 100.7325,-270.9094 64.8656,0 -136.5994,335.775 0,221.3063 -62.5762,0 0,-221.3063 -136.5994,-335.775 68.6812,0 99.9694,270.9094"
           id="path4235"
           inkscape:connector-curvature="0" />
        <path
           d="m 4862.7654,3830.2567 c -1e-4,-137.3622 50.8749,-206.0434 152.625,-206.0438 101.7497,4e-4 152.6246,68.6816 152.625,206.0438 -4e-4,137.3626 -50.8753,206.0437 -152.625,206.0437 -101.7501,0 -152.6251,-68.6811 -152.625,-206.0437 m 83.9437,119.0475 c 14.7536,22.8938 37.6474,34.3407 68.6813,34.3406 31.0335,10e-5 53.6729,-11.4468 67.9181,-34.3406 14.7535,-23.4024 22.1304,-63.0849 22.1306,-119.0475 -2e-4,-55.9623 -7.3771,-95.3903 -22.1306,-118.2844 -14.2452,-23.4021 -36.8846,-35.1034 -67.9181,-35.1037 -31.0339,3e-4 -53.9277,11.7016 -68.6813,35.1037 -14.2451,22.8941 -21.3676,62.3221 -21.3675,118.2844 -10e-5,55.9626 7.1224,95.6451 21.3675,119.0475"
           id="path4237"
           inkscape:connector-curvature="0" />
        <path
           d="m 5255.7748,3891.3067 0,-259.4625 58.7606,0 0,245.7262 c -1e-4,42.2264 4.5786,70.2076 13.7362,83.9438 9.6661,13.7363 27.4724,20.6044 53.4188,20.6044 24.9285,0 45.7873,-13.9906 62.5762,-41.9719 17.2973,-27.9811 25.946,-66.6461 25.9463,-115.995 l 0,-192.3075 60.2869,0 0,396.825 -56.4713,0 -1.5262,-57.2344 -1.5263,0 c -9.6665,20.3501 -23.9115,36.3757 -42.735,48.0769 -18.8239,11.1925 -39.4283,16.7887 -61.8131,16.7887 -39.1739,0 -67.4095,-10.9381 -84.7069,-32.8143 -17.2976,-21.8762 -25.9463,-59.2693 -25.9462,-112.1794"
           id="path4239"
           inkscape:connector-curvature="0" />
        <path
           d="m 5729.6754,3631.8442 0,76.3125 1.5262,0 c 31.5424,-55.9621 75.2948,-83.9434 131.2575,-83.9438 18.8235,4e-4 36.6297,2.5442 53.4188,7.6313 l 0,53.4187 c -17.8066,-5.5959 -35.6128,-8.394 -53.4188,-8.3943 -37.139,3e-4 -68.1727,15.5172 -93.1012,46.5506 -24.9289,31.034 -37.3933,71.734 -37.3931,122.1 l 0,183.15 -60.2869,0 0,-396.825 57.9975,0"
           id="path4241"
           inkscape:connector-curvature="0" />
        <path
           d="m 3737.156,4653.6686 0,-52.6557 91.575,0 0,-45.7875 c -1e-4,-49.857 8.3942,-85.2151 25.1831,-106.0743 16.7886,-20.8582 44.0067,-31.2876 81.6544,-31.2882 22.8935,6e-4 45.7872,3.8162 68.6813,11.4469 l 0,54.945 c -19.3328,-9.157 -38.411,-13.7357 -57.2344,-13.7362 -23.9115,5e-4 -39.6827,6.1055 -47.3138,18.315 -7.1227,11.7017 -10.6839,38.9198 -10.6837,81.6543 l 0,30.525 115.2319,0 0,52.6557 -115.2319,0 0,328.9068 -60.2869,0 0,-328.9068 -91.575,0"
           id="path4243"
           inkscape:connector-curvature="0" />
        <path
           d="m 4302.6316,4585.7504 0,344.9325 83.1807,0 0,51.8925 -251.8313,0 0,-51.8925 106.0744,0 0,-293.04 -83.1806,0 0,-51.8925 145.7568,0 m -77.8387,-91.575 0,-91.575 77.8387,0 0,91.575 -77.8387,0"
           id="path4245"
           inkscape:connector-curvature="0" />
        <path
           d="m 4778.8216,4730.7442 0,251.8312 -58.7606,0 0,-238.095 c -3e-4,-44.7697 -5.0878,-74.5315 -15.2625,-89.2856 -10.1752,-15.2621 -28.7446,-22.8934 -55.7081,-22.8937 -25.4377,3e-4 -47.3139,14.2453 -65.6288,42.735 -17.8063,28.4902 -26.7095,66.9008 -26.7093,115.2318 l 0,192.3075 -60.2869,0 0,-396.825 56.4712,0 1.5263,57.2344 1.5262,0 c 9.6662,-19.3321 24.4199,-34.849 44.2613,-46.5506 19.8411,-12.2096 41.2085,-18.3146 64.1025,-18.315 40.191,4e-4 69.1897,11.7016 86.9962,35.1037 18.3147,22.8941 27.4722,62.0678 27.4725,117.5213"
           id="path4247"
           inkscape:connector-curvature="0" />
        <path
           d="m 4862.7654,4784.1629 c -1e-4,-137.3621 44.5155,-206.0433 133.5469,-206.0437 42.226,4e-4 77.0753,21.6222 104.5481,64.8656 l 1.5262,0 1.5263,-57.2344 56.4712,0 0,393.0094 c -3e-4,63.5937 -12.9734,109.3812 -38.9193,137.3625 -25.4378,27.9811 -64.6115,41.9717 -117.5213,41.9719 -36.1214,-2e-4 -71.7339,-6.3596 -106.8375,-19.0781 l 0,-61.05 c 36.1211,18.3149 71.7336,27.4723 106.8375,27.4725 64.1023,-2e-4 96.1535,-42.2264 96.1538,-126.6788 l 0,-61.05 -1.5263,0 c -21.8765,43.2438 -55.9627,64.8656 -102.2587,64.8656 -40.7002,0 -73.2601,-16.7887 -97.68,-50.3662 -23.9113,-33.5774 -35.867,-82.9261 -35.8669,-148.0463 m 60.2869,0 c -1e-4,46.8052 7.8855,82.1633 23.6568,106.0744 16.2799,23.4026 37.9017,35.1038 64.8657,35.1038 26.4547,0 47.8222,-11.4468 64.1025,-34.3407 16.2797,-23.4023 24.4197,-57.7429 24.42,-103.0218 l 0,-7.6313 c -3e-4,-46.296 -8.3947,-81.9085 -25.1832,-106.8375 -16.2802,-25.4372 -37.3933,-38.1559 -63.3393,-38.1562 -29.5077,3e-4 -51.6383,11.9559 -66.3919,35.8668 -14.7539,23.4028 -22.1307,61.0503 -22.1306,112.9425"
           id="path4249"
           inkscape:connector-curvature="0" />
        <path
           d="m 5311.4829,4804.0042 c 2.0349,47.3139 11.7011,81.4001 28.9987,102.2587 17.2974,20.8588 42.4805,31.2882 75.5494,31.2882 31.0335,0 65.3741,-9.1575 103.0219,-27.4725 l 0,61.05 c -37.6478,12.7187 -73.2603,19.0781 -106.8375,19.0781 -109.3814,0 -164.0719,-68.6812 -164.0719,-206.0438 0,-71.7334 12.7187,-123.8803 38.1563,-156.4406 25.4374,-33.0683 63.5936,-49.6027 114.4687,-49.6031 46.296,4e-4 80.6366,15.7716 103.0219,47.3137 22.8934,31.5429 34.3403,83.1809 34.3406,154.9144 -3e-4,5.5965 -0.5091,13.4821 -1.5262,23.6569 l -225.1219,0 m 0,-50.3663 166.3612,0 c -0.509,-81.9084 -26.2008,-122.8627 -77.0756,-122.8631 -28.9989,4e-4 -50.6208,9.1579 -64.8656,27.4725 -14.2451,18.3153 -22.3851,50.1122 -24.42,95.3906"
           id="path4251"
           inkscape:connector-curvature="0" />
        <path
           d="m 5729.6754,4585.7504 0,76.3125 1.5262,0 c 31.5424,-55.9621 75.2948,-83.9433 131.2575,-83.9437 18.8235,4e-4 36.6297,2.5441 53.4188,7.6312 l 0,53.4188 c -17.8066,-5.5959 -35.6128,-8.394 -53.4188,-8.3944 -37.139,4e-4 -68.1727,15.5172 -93.1012,46.5506 -24.9289,31.0341 -37.3933,71.734 -37.3931,122.1 l 0,183.15 -60.2869,0 0,-396.825 57.9975,0"
           id="path4253"
           inkscape:connector-curvature="0" />
        <path
           d="m 6155.4991,4601.0129 138.1257,0 0,52.6557 -138.1257,0 0,214.4381 c -2e-4,28.4901 4.0698,47.5682 12.21,57.2344 8.6486,9.1575 25.1829,13.7363 49.6032,13.7362 25.4372,1e-4 48.3309,-4.5787 68.6812,-13.7362 l 0,53.4187 c -24.4203,7.6313 -49.8578,11.4469 -76.3125,11.4469 -42.7352,0 -72.497,-8.14 -89.2856,-24.42 -16.7889,-16.7887 -25.1833,-46.8049 -25.1831,-90.0488 l 0,-222.0693 -76.3125,0 0,-52.6557 76.3125,0 0,-144.9937 60.2868,0 0,144.9937"
           id="path4255"
           inkscape:connector-curvature="0" />
        <path
           d="m 6592.0066,4585.7504 0,344.9325 83.1807,0 0,51.8925 -251.8313,0 0,-51.8925 106.0744,0 0,-293.04 -83.1806,0 0,-51.8925 145.7568,0 m -77.8387,-91.575 0,-91.575 77.8387,0 0,91.575 -77.8387,0"
           id="path4257"
           inkscape:connector-curvature="0" />
        <path
           d="m 6840.0223,4925.3411 -1.5263,0 0,225.1218 -60.2869,0 0,-564.7125 56.4713,0 1.5262,57.2344 1.5263,0 c 27.4723,-43.2434 62.3217,-64.8652 104.5481,-64.8656 89.031,4e-4 133.5465,68.6816 133.5469,206.0437 -4e-4,68.6814 -12.2104,120.3195 -36.63,154.9144 -24.4203,34.0863 -56.7259,51.1294 -96.9169,51.1294 -46.2964,0 -80.3826,-21.6219 -102.2587,-64.8656 m 175.5187,-141.1782 c -3e-4,-99.2059 -29.5077,-148.809 -88.5225,-148.8093 -25.9464,3e-4 -47.3139,12.719 -64.1025,38.1562 -16.2801,24.929 -24.4201,60.5415 -24.42,106.8375 l 0,7.6313 c -1e-4,46.2964 8.1399,82.1632 24.42,107.6006 16.7886,24.9288 38.1561,37.3932 64.1025,37.3931 26.9635,10e-5 48.331,-12.2099 64.1025,-36.63 16.2797,-24.9286 24.4197,-62.3217 24.42,-112.1794"
           id="path4259"
           inkscape:connector-curvature="0" />
        <path
           d="m 7308.581,4629.2486 c -48.8401,3e-4 -73.2601,18.5697 -73.26,55.7081 -1e-4,17.2978 5.3418,31.2884 16.0256,41.9719 10.6836,10.1752 29.7617,19.0783 57.2344,26.7093 53.9273,15.2628 89.5397,31.2884 106.8375,48.0769 17.8059,16.7889 26.7091,42.7352 26.7094,77.8388 -3e-4,35.1038 -11.956,62.3219 -35.8669,81.6543 -23.9115,19.3325 -57.7434,28.9988 -101.4956,28.9988 -43.7527,0 -85.7245,-10.175 -125.9156,-30.525 l 0,-61.05 c 39.6824,26.9638 79.1104,40.4457 118.2843,40.4456 56.471,1e-4 84.7066,-19.8412 84.7069,-59.5237 -3e-4,-18.8237 -5.5965,-33.323 -16.7887,-43.4982 -10.684,-10.1748 -32.0515,-19.841 -64.1025,-28.9987 -46.8052,-13.2273 -79.6195,-28.9986 -98.4432,-47.3138 -18.315,-18.3147 -27.4725,-43.2434 -27.4725,-74.7862 0,-33.5772 10.9381,-59.7778 32.8144,-78.6019 22.3849,-18.8233 54.6905,-28.2352 96.9169,-28.2356 42.7347,4e-4 83.4347,8.9035 122.1,26.7094 l 0,57.2343 c -40.1915,-21.8759 -79.6196,-32.814 -118.2844,-32.8143"
           id="path4261"
           inkscape:connector-curvature="0" />
      </g>
    </clipPath>
    <radialGradient
       inkscape:collect="always"
       xlink:href="#linearGradient4126"
       id="radialGradient4902"
       cx="325.26913"
       cy="323.21616"
       fx="325.26913"
       fy="323.21616"
       r="270.61478"
       gradientTransform="matrix(1,0,0,0.97387044,0,8.4454958)"
       gradientUnits="userSpaceOnUse" />
  </defs>
  <sodipodi:namedview
     id="base"
     pagecolor="#ffffff"
     bordercolor="#666666"
     borderopacity="1.0"
     inkscape:pageopacity="0.0"
     inkscape:pageshadow="2"
     inkscape:zoom="0.521875"
     inkscape:cx="-371.06677"
     inkscape:cy="-28.307377"
     inkscape:current-layer="layer1"
     inkscape:document-units="px"
     showgrid="false"
     inkscape:window-width="1855"
     inkscape:window-height="1056"
     inkscape:window-x="65"
     inkscape:window-y="24"
     inkscape:window-maximized="1" />
  <metadata
     id="metadata4325">
    <rdf:RDF>
      <cc:Work
         rdf:about="">
        <dc:format>image/svg+xml</dc:format>
        <dc:type
           rdf:resource="http://purl.org/dc/dcmitype/StillImage" />
        <dc:title></dc:title>
      </cc:Work>
    </rdf:RDF>
  </metadata>
  <g
     id="layer1"
     inkscape:label="Layer 1"
     inkscape:groupmode="layer"
     transform="translate(0,160)">
    <rect
       style="fill:#ffa123;fill-opacity:1;stroke:none;stroke-width:19.25155257999999847;stroke-miterlimit:4;stroke-opacity:1;stroke-dasharray:none"
       id="rect3457"
       width="620.74847"
       height="620.74847"
       x="9.6257763"
       y="-150.37425"
       ry="49.019859"
       rx="40.838711" />
    <g
       id="g7229"
       style="fill:#ffffff"
       transform="matrix(1.1948846,0,0,1.1948846,-53.204675,74.140034)">
      <path
         id="path3775"
         d="m 311,218.5625 c -4.07562,0.0551 -8.29127,0.35844 -12.65625,0.90625 -27.98596,3.51226 -61.39625,17.59622 -91.75,41.6875 -30.35374,24.09127 -51.66274,53.41685 -61.4375,79.875 -9.78918,26.49718 -8.07622,48.51769 3.34375,62.90625 11.41483,14.38209 32.46322,20.98739 60.5,17.46875 27.99269,-3.51311 61.39941,-17.56748 91.75,-41.65625 30.35122,-24.08927 51.62927,-53.41084 61.40625,-79.875 9.7914,-26.5032 8.10302,-48.52329 -3.3125,-62.90625 C 349.21155,224.83267 332.92272,218.26621 311,218.5625 z m 87.34375,43.1875 c 0.96371,15.64293 -2.03308,32.17967 -8.0625,48.5 -12.11995,32.80609 -36.65771,65.87355 -70.875,93.03125 -34.21532,27.15614 -71.982,43.58193 -106.6875,47.9375 -17.16442,2.15415 -33.84142,1.27399 -48.78125,-3.15625 l 38.96875,95.25 1.5625,1.53125 0,2.25 c 0.15777,0.37922 0.29498,0.72347 0.46875,1.125 0.0802,0.18526 0.0828,0.16157 0.21875,0.46875 2.09238,4.7255 4.69581,9.08 7.90625,13.125 16.59474,20.90852 46.5809,29.89493 84.625,25.125 27.19373,-3.40952 57.77462,-14.03365 87.8125,-31.625 l 4.21875,-2.46875 4.53125,1.78125 70.4375,27.8125 -11.25,-75.78125 -0.6875,-4.71875 3.21875,-3.5 c 22.15228,-24.21063 38.24516,-50.19864 47.28125,-74.65625 13.28983,-35.97104 11.34249,-67.21932 -5.25,-88.125 -3.23586,-4.07701 -6.93188,-7.63873 -11.125,-10.78125 -0.0119,-0.009 -0.0193,-0.0222 -0.0313,-0.0313 l -4.125,-3.0625 -10.03125,-7.46875 -0.71875,-0.53125 -73.625,-52.03125 z"
         style="fill:#ffffff;fill-opacity:1;stroke:none"
         inkscape:connector-curvature="0"
         transform="translate(-60.258707,-396.53355)" />
      <g
         style="fill:#ffffff;fill-opacity:1"
         id="g3977"
         transform="translate(-60.258707,-396.53355)">
        <g
           style="fill:#ffffff;fill-opacity:1"
           id="g3011"
           transform="translate(32.324883,-1.02031)">
          <path
             id="path3007"
             d="m 95.34375,656.17656 5.21875,0 9.1875,40.9375 0.78125,4.28125 0.15625,0 0.8125,-4.28125 9.15625,-40.9375 5.21875,0 -13.21875,54.46875 -4.125,0 -13.1875,-54.46875 z"
             style="fill:#ffffff;fill-opacity:1;stroke:none"
             inkscape:connector-curvature="0" />
          <path
             id="rect3002"
             d="m 130,656.17656 4.8125,0 0,36.90625 c -1e-5,4.11532 0.78355,7.26131 2.3125,9.40625 1.52893,2.12001 3.52637,3.1875 6.03125,3.1875 2.63497,0 4.76471,-1.06749 6.375,-3.1875 1.62651,-2.14494 2.43747,-5.29093 2.4375,-9.40625 l 0,-36.90625 4.8125,0 0,36.90625 c -3e-5,5.93603 -1.26015,10.48241 -3.78125,13.625 -2.50489,3.1426 -5.79369,4.71875 -9.84375,4.71875 -3.9037,0 -7.0602,-1.57615 -9.5,-4.71875 C 131.2327,703.54028 130,698.9939 130,693.08281 l 0,-36.90625 z"
             style="fill:#ffffff;fill-opacity:1;stroke:none"
             inkscape:connector-curvature="0" />
        </g>
        <path
           style="fill:#ffffff;fill-opacity:1;stroke:none"
           d="m 389.21875,628.0625 c -9.35256,9e-5 -17.24076,3.36232 -23.15625,9.90625 -5.86403,6.52795 -8.75,14.75336 -8.75,24.4375 l 0,13.65625 c 0,9.71844 2.87763,18.03105 8.75,24.53125 5.91866,6.51053 13.81017,9.8125 23.15625,9.8125 9.65196,0 17.68485,-3.27848 23.78125,-9.78125 6.12606,-6.49514 9.15619,-14.8305 9.15625,-24.5625 l 0,-13.65625 c -6e-5,-9.73191 -3.03537,-17.979 -9.15625,-24.46875 -6.09325,-6.53626 -14.12302,-9.87491 -23.78125,-9.875 z m -175.375,1.125 0,1.5 0,77.09375 0,1.5 1.5,0 10.4375,0 1.5,0 0,-1.5 0,-33.3125 6.75,0 27.5,34.25 0.4375,0.5625 0.71875,0 12.4375,0 0.8125,0 0.4375,-0.65625 0.1875,-0.28125 0.625,-0.9375 -0.71875,-0.84375 -31.34375,-38.59375 29.1875,-36.0625 0.71875,-0.84375 -0.625,-0.9375 -0.1875,-0.28125 -0.4375,-0.65625 -0.8125,0 -11.59375,0 -0.71875,0 -0.4375,0.5625 -27.125,33.53125 -5.8125,0 0,-32.59375 0,-1.5 -1.5,0 -10.4375,0 -1.5,0 z m 69.65625,0 0,1.5 0,77.09375 0,1.5 1.5,0 10.46875,0 1.5,0 0,-1.5 0,-54.875 34.65625,55.65625 0.4375,0.71875 0.84375,0 10.46875,0 1.5,0 0,-1.5 0,-77.09375 0,-1.5 -1.5,0 -10.46875,0 -1.5,0 0,1.5 0,54.84375 -34.6875,-55.625 -0.4375,-0.71875 -0.84375,0 -10.4375,0 -1.5,0 z m 151.28125,0 0,1.5 0,77.09375 0,1.5 1.5,0 28.4375,0 c 8.06959,0 14.67573,-1.89742 19.5625,-5.875 4.94946,-4.03573 7.43744,-9.99103 7.4375,-17.375 -6e-5,-5.00602 -1.4761,-9.55419 -4.34375,-13.375 -0.005,-0.007 0.005,-0.024 0,-0.0313 l 0.0313,0 c -2.13126,-2.87002 -4.92619,-4.93505 -8.25,-6.25 2.22172,-1.2864 4.23715,-2.78769 5.8125,-4.71875 2.37805,-2.95339 3.65618,-6.40382 3.65625,-10.15625 -6e-5,-7.27449 -2.44148,-12.97069 -7.375,-16.71875 -4.89104,-3.75345 -11.57324,-5.59366 -19.84375,-5.59375 l -25.125,0 -1.5,0 z m -45.5625,10.4375 c 6.0725,6e-5 10.64151,2.04745 14.1875,6.25 3.56407,4.22418 5.40619,9.6518 5.40625,16.4375 l 0,13.75 c -6e-5,6.89576 -1.84793,12.40772 -5.40625,16.625 -3.50412,4.15907 -8.06872,6.15625 -14.1875,6.15625 -5.69914,0 -10.05967,-2.02103 -13.4375,-6.21875 l 0.0313,0 c -3.35709,-4.21279 -5.0625,-9.6805 -5.0625,-16.5625 l 0,-13.75 c 0,-6.80881 1.70385,-12.25394 5.0625,-16.46875 l -0.0313,0 c 3.37783,-4.19766 7.73836,-6.21869 13.4375,-6.21875 z m 59,0.75 13.1875,0 c 4.7312,9e-5 8.12027,1.01491 10.375,2.8125 l 0.0313,0 c 2.26809,1.75408 3.43744,4.29173 3.4375,8.125 -5e-5,3.49242 -1.04733,5.94808 -3.15625,7.8125 -2.13921,1.85119 -4.91182,2.84381 -8.5,2.84375 l -15.375,0 0,-21.59375 z m 0,32.78125 18.09375,0 c 4.31303,6e-5 7.14732,1.13119 9,3.3125 l 0.0313,0 c 1.93555,2.24288 2.93744,5.40992 2.9375,9.6875 -6e-5,3.99995 -1.15281,6.7748 -3.46875,8.84375 -2.30707,2.0302 -5.60423,3.09375 -10.09375,3.09375 l -16.5,0 0,-24.9375 z"
           id="path3924"
           inkscape:connector-curvature="0" />
        <path
           inkscape:connector-curvature="0"
           style="font-size:medium;font-style:normal;font-variant:normal;font-weight:normal;font-stretch:normal;text-indent:0;text-align:start;text-decoration:none;line-height:normal;letter-spacing:normal;word-spacing:normal;text-transform:none;direction:ltr;block-progression:tb;writing-mode:lr-tb;text-anchor:start;baseline-shift:baseline;color:#000000;fill:#ffffff;fill-opacity:1;stroke:none;stroke-width:10;marker:none;visibility:visible;display:inline;overflow:visible;enable-background:accumulate;font-family:Sans;-inkscape-font-specification:Sans"
           d="m 495.3125,305.875 14.90625,11.28125 c 29.19187,3.67541 53.36979,15.49864 69.34375,35.625 23.49336,29.60041 25.47734,72.42375 8.6875,118.65625 -16.78984,46.2325 -52.38823,95.36393 -102.8125,136.03125 l 19.90625,22.4375 C 557.03625,588.21611 590.7225,526.22474 608.28125,477.875 625.84,429.52526 617.90821,376.23653 588.40625,346.0625 562.05671,319.11271 532.00249,306.80978 495.3125,305.875 z"
           id="path2985-0-3" />
        <text
           xml:space="preserve"
           style="font-size:36px;font-style:normal;font-variant:normal;font-weight:bold;font-stretch:normal;line-height:125%;letter-spacing:0px;word-spacing:0px;fill:#ffffff;fill-opacity:1;stroke:none;font-family:Roboto;-inkscape-font-specification:Sans Bold"
           x="506.08643"
           y="728.10321"
           id="text3870"
           sodipodi:linespacing="125%"
           transform="matrix(1.3433147,1.5442415,-1.5442415,1.3433147,958.10169,-1104.7422)"><tspan
             sodipodi:role="line"
             id="tspan3872"
             x="506.08643"
             y="728.10321">11</tspan></text>
        <rect
           transform="translate(1.9698181,-8.8662987)"
           ry="0"
           rx="0"
           y="629.10828"
           x="197.9899"
           height="97.984795"
           width="3.0304575"
           id="rect2999"
           style="fill:#ffffff;fill-opacity:1;stroke:none" />
      </g>
    </g>
  </g>
</svg>
