<?xml version="1.0" encoding="UTF-8" standalone="no"?>
<!-- Created with Inkscape (http://www.inkscape.org/) -->

<svg
   xmlns:dc="http://purl.org/dc/elements/1.1/"
   xmlns:cc="http://creativecommons.org/ns#"
   xmlns:rdf="http://www.w3.org/1999/02/22-rdf-syntax-ns#"
   xmlns:svg="http://www.w3.org/2000/svg"
   xmlns="http://www.w3.org/2000/svg"
   xmlns:xlink="http://www.w3.org/1999/xlink"
   xmlns:sodipodi="http://sodipodi.sourceforge.net/DTD/sodipodi-0.dtd"
   xmlns:inkscape="http://www.inkscape.org/namespaces/inkscape"
   width="1080"
   height="1400"
   id="svg4320"
   version="1.1"
   inkscape:version="0.48.4 r9939"
   sodipodi:docname="logoLolipop.svg"
   inkscape:export-filename="/home/apersson/MyWork/Source/Android/satan_ICS/SVG/logoLolipop.png"
   inkscape:export-xdpi="66.669998"
   inkscape:export-ydpi="66.669998">
  <metadata
     id="metadata3473">
    <rdf:RDF>
      <cc:Work
         rdf:about="">
        <dc:format>image/svg+xml</dc:format>
        <dc:type
           rdf:resource="http://purl.org/dc/dcmitype/StillImage" />
        <dc:title></dc:title>
      </cc:Work>
    </rdf:RDF>
  </metadata>
  <sodipodi:namedview
     pagecolor="#ffffff"
     bordercolor="#666666"
     borderopacity="1"
     objecttolerance="10"
     gridtolerance="10"
     guidetolerance="10"
     inkscape:pageopacity="0"
     inkscape:pageshadow="2"
     inkscape:window-width="1855"
     inkscape:window-height="1056"
     id="namedview3471"
     showgrid="false"
     inkscape:zoom="0.62366818"
     inkscape:cx="452.35634"
     inkscape:cy="721.10979"
     inkscape:window-x="65"
     inkscape:window-y="24"
     inkscape:window-maximized="1"
     inkscape:current-layer="layer1" />
  <defs
     id="defs4322">
    <linearGradient
       id="linearGradient5442">
      <stop
         style="stop-color:#000000;stop-opacity:1;"
         offset="0"
         id="stop5444" />
      <stop
         style="stop-color:#d2d2d2;stop-opacity:1;"
         offset="1"
         id="stop5446" />
    </linearGradient>
    <linearGradient
       inkscape:collect="always"
       xlink:href="#linearGradient5442"
       id="linearGradient5493"
       gradientUnits="userSpaceOnUse"
       gradientTransform="matrix(0.48129697,-0.68907892,0.4750306,0.34522762,435.74629,1569.7543)"
       x1="2235.2383"
       y1="296.79773"
       x2="2235.2383"
       y2="482.84457" />
  </defs>
  <g
     id="layer1"
     inkscape:label="Layer 1"
     inkscape:groupmode="layer"
     transform="translate(0,920)">
    <rect
       style="fill:#ffffff;fill-opacity:1;stroke:none"
       id="rect5516"
       width="1273.1129"
       height="1465.5229"
       x="-86.584503"
       y="-35.05798"
       transform="translate(0,-920)" />
    <path
       style="fill:#c5c5c5;fill-opacity:1;stroke:none"
       d="m 501.84375,715.6875 0,684.3125 74.8125,0 0,-684.3125 -74.8125,0 z"
       transform="matrix(1,0,0,1.0011716,0,-920.83847)"
       id="rect4930"
       inkscape:connector-curvature="0" />
    <g
       id="g4926">
      <path
         transform="matrix(2.1931987,0,0,2.1931987,-9.0513729,-944.47558)"
         inkscape:label="#path3773-6"
         inkscape:connector-curvature="0"
         id="headPhones"
         d="m 250.3257,37.099444 c -44.00077,0 -88.01017,16.734446 -121.55809,50.282382 C 71.681592,144.46785 63.296906,231.75223 103.37247,297.87934 l -5.925531,5.92553 -2.088045,2.08805 1.636576,2.48308 c 6.63524,9.94496 14.36542,19.38802 23.1378,28.16039 l 2.53951,2.53952 2.53951,-2.53952 12.81044,-12.754 2.53952,-2.59595 -2.53952,-2.53952 c -62.09126,-62.09126 -62.09126,-162.62753 0,-224.718791 62.09127,-62.091263 162.62753,-62.091263 224.7188,0 62.09126,62.091261 62.09126,162.627531 0,224.718791 l -2.53952,2.53952 2.53952,2.59595 12.754,12.754 2.53952,2.53952 2.59594,-2.53952 c 8.77189,-8.77188 16.44766,-18.16154 23.08137,-28.10396 l 1.63657,-2.48308 -2.08804,-2.08804 -5.98197,-5.98197 C 437.3678,231.74992 428.97533,144.47337 371.88378,87.381826 338.33586,53.83389 294.32646,37.099444 250.3257,37.099444 z"
         style="fill:#ffa123;fill-opacity:1;stroke:none" />
      <path
         id="path2999"
         transform="translate(0,-920)"
         d="m 144.09375,635.375 c -12.94434,1.2e-4 -22.85986,5.11249 -29.71875,15.375 -6.80736,10.21114 -10.21875,25.06879 -10.21875,44.5625 0,19.44226 3.41139,34.29991 10.21875,44.5625 6.85889,10.21106 16.77441,15.3125 29.71875,15.3125 12.94423,0 22.81756,-5.10144 29.625,-15.3125 6.85885,-10.26259 10.28117,-25.12024 10.28125,-44.5625 -8e-5,-19.49371 -3.4224,-34.35136 -10.28125,-44.5625 -6.80744,-10.26251 -16.68077,-15.37488 -29.625,-15.375 z m 780.625,2.15625 -27.625,5.5625 0,14.25 27.78125,-5.5625 0,88.09375 -25.53125,0 0,13.15625 66.53125,0 0,-13.15625 -25.53125,0 0,-102.34375 -15.625,0 z m 100.87505,0 -27.62505,5.5625 0,14.25 27.78125,-5.5625 0,88.09375 -25.5312,0 0,13.15625 66.5312,0 0,-13.15625 -25.5312,0 0,-102.34375 -15.625,0 z M 144.09375,647.75 c 8.09659,1.2e-4 14.13366,3.96444 18.15625,11.90625 4.07404,7.89044 6.12492,19.77247 6.125,35.65625 -8e-5,15.83233 -2.05096,27.71436 -6.125,35.65625 -4.02259,7.89036 -10.05966,11.84375 -18.15625,11.84375 -8.0451,0 -14.11346,-3.95339 -18.1875,-11.84375 -4.02259,-7.94189 -6.03129,-19.82392 -6.03125,-35.65625 -4e-5,-15.88378 2.00866,-27.76581 6.03125,-35.65625 4.07404,-7.94181 10.1424,-11.90613 18.1875,-11.90625 z m 556.125,135.46875 c -16.24487,1.2e-4 -29.22188,5.43118 -38.96875,16.3125 -9.69535,10.82999 -14.56254,25.36895 -14.5625,43.625 -4e-5,18.25613 4.86715,32.79517 14.5625,43.625 9.74687,10.82991 22.72388,16.25 38.96875,16.25 16.19318,0 29.14832,-5.42009 38.84375,-16.25 9.69523,-10.88144 14.53117,-25.42044 14.53125,-43.625 -8e-5,-18.25605 -4.83602,-32.79501 -14.53125,-43.625 -9.69543,-10.88132 -22.65057,-16.31238 -38.84375,-16.3125 z m -481.6875,2.0625 44.09375,115.5 17.71875,0 44,-115.5 -16.25,0 -36.65625,97.25 -36.59375,-97.25 -16.3125,0 z m 212.34375,0 0,115.5 15.625,0 0,-55.625 55.46875,55.625 20.5625,0 -61.40625,-61.65625 57.3125,-53.84375 -20.125,0 -51.8125,48.8125 0,-48.8125 -15.625,0 z m 103.96875,0 0,115.5 15.15625,0 0,-96.625 51.21875,96.625 21.03125,0 0,-115.5 -15.15625,0 0,96.625 -51.21875,-96.625 -21.03125,0 z m 243.21875,0 0,115.5 41.4375,0 c 12.94423,0 22.92379,-2.81623 29.9375,-8.4375 7.01355,-5.62119 10.53117,-13.59205 10.53125,-23.90625 -8e-5,-7.83875 -2.12598,-14.35377 -6.40625,-19.5625 -4.2289,-5.26017 -10.19103,-8.72464 -17.875,-10.375 6.3947,-1.03135 11.23061,-3.63521 14.53125,-7.8125 3.30045,-4.17718 4.93738,-9.77847 4.9375,-16.84375 -1.2e-4,-9.12798 -3.20998,-16.17407 -9.65625,-21.125 -6.44643,-4.95069 -15.61842,-7.43738 -27.53125,-7.4375 l -39.90625,0 z m -77.84375,10.625 c 11.34555,8e-5 20.33633,4.19872 26.9375,12.65625 6.65254,8.45772 9.96863,19.99924 9.96875,34.59375 -1.2e-4,14.54306 -3.31621,26.0424 -9.96875,34.5 -6.60117,8.45764 -15.59195,12.6875 -26.9375,12.6875 -11.34563,0 -20.35831,-4.22986 -27.0625,-12.6875 -6.65266,-8.4576 -9.96875,-19.95694 -9.96875,-34.5 0,-14.59451 3.31609,-26.13603 9.96875,-34.59375 6.70419,-8.45753 15.71687,-12.65617 27.0625,-12.65625 z m 93.46875,2.21875 23.125,0 c 7.6324,1.2e-4 13.28681,1.45588 17,4.34375 3.76459,2.88806 5.65617,7.23508 5.65625,13.0625 -8e-5,5.87918 -1.89166,10.26834 -5.65625,13.15625 -3.71319,2.83646 -9.3676,4.25008 -17,4.25 l -23.125,0 0,-34.8125 z m -465.46875,16.03125 0,52.4375 c 0,11.91291 2.59288,20.96774 7.75,27.15625 5.15704,6.18851 12.70303,9.28125 22.65625,9.28125 6.03377,0 11.30544,-1.25428 15.84375,-3.78125 4.58976,-2.57858 8.60719,-6.52104 12.0625,-11.78125 l 0,13.3125 14.25,0 0,-86.625 -14.25,0 0,49.125 c -8e-5,8.45768 -2.23213,15.13201 -6.71875,20.03125 -4.43513,4.89924 -10.50349,7.34375 -18.1875,7.34375 -6.39482,0 -11.17765,-2.05088 -14.375,-6.125 -3.19743,-4.12565 -4.78129,-10.26894 -4.78125,-18.46875 l 0,-51.90625 -14.25,0 z m 465.46875,31.46875 25.0625,0 c 8.406,4e-5 14.60241,1.73231 18.625,5.1875 4.074,3.40374 6.12492,8.7176 6.125,15.9375 -8e-5,7.16837 -2.051,12.4932 -6.125,16 -4.02259,3.45527 -10.219,5.18754 -18.625,5.1875 l -25.0625,0 0,-42.3125 z"
         style="font-size:40px;font-style:normal;font-weight:normal;line-height:125%;letter-spacing:0px;word-spacing:0px;fill:#33ccff;fill-opacity:1;stroke:none;font-family:Sans"
         inkscape:connector-curvature="0" />
    </g>
    <path
       style="fill:url(#linearGradient5493);fill-opacity:1;stroke:none"
       d="m 1605.4375,223.125 0,1.21875 74.8437,54.375 0,-55.59375 -74.8437,0 z"
       transform="translate(-1103.611,-421.42069)"
       id="rect4932"
       inkscape:connector-curvature="0" />
    <path
       style="fill:#33ccff;fill-opacity:1;stroke:none"
       d="m 249.97178,56.5528 c -36.49415,0 -72.94641,13.916791 -100.7905,41.760901 -55.688218,55.688219 -55.688218,145.949209 0,201.637429 55.6882,55.6882 145.94921,55.68822 201.63743,0 55.68821,-55.6882 55.68821,-145.94923 0,-201.637429 C 322.9746,70.469591 286.46593,56.5528 249.97178,56.5528 z m -94.13133,51.12889 13.60051,0 13.99555,80.07935 13.93911,-80.07935 13.65694,0 -19.52604,108.52191 -16.19646,0 -19.46961,-108.52191 z m 62.13345,0 13.54408,0 0,65.068 c -2e-5,8.96413 0.73362,15.36754 2.14448,19.24387 1.43433,3.82794 3.77632,5.75625 6.99777,5.75623 3.24491,2e-5 5.53046,-1.92829 6.94134,-5.75623 1.43432,-3.87633 2.20087,-10.27974 2.20091,-19.24387 l 0,-65.068 13.54408,0 0,65.068 c -6e-5,15.36013 -1.84826,26.80121 -5.58694,34.31165 -3.73877,7.51047 -9.43386,11.2303 -17.09939,11.2303 -7.64207,0 -13.36069,-3.71983 -17.0994,-11.2303 -3.73874,-7.51044 -5.58693,-18.95152 -5.58693,-34.31165 l 0,-65.068 z m 88.2058,83.6911 c 2.23639,-0.0231 4.92664,0.32229 8.12644,1.18511 25.59836,6.90253 5.7633,22.79995 12.58471,48.42007 6.82137,25.62008 31.86957,29.5332 13.0926,48.25077 -18.77702,18.71751 -22.59598,-6.35938 -48.19433,-13.26191 -25.59836,-6.90255 -41.54223,12.80968 -48.36364,-12.81044 -6.82138,-25.6201 16.83268,-16.38416 35.60963,-35.10173 16.42989,-16.37782 11.48977,-36.52042 27.14459,-36.68187 z"
       id="knobBody"
       inkscape:connector-curvature="0"
       inkscape:label="#path3829"
       transform="matrix(2.1931987,0,0,2.1931987,-9.0513729,-944.47558)" />
  </g>
</svg>
