<?xml version="1.0" encoding="UTF-8" standalone="no"?>
<!-- Created with Inkscape (http://www.inkscape.org/) -->

<svg
   xmlns:dc="http://purl.org/dc/elements/1.1/"
   xmlns:cc="http://creativecommons.org/ns#"
   xmlns:rdf="http://www.w3.org/1999/02/22-rdf-syntax-ns#"
   xmlns:svg="http://www.w3.org/2000/svg"
   xmlns="http://www.w3.org/2000/svg"
   xmlns:sodipodi="http://sodipodi.sourceforge.net/DTD/sodipodi-0.dtd"
   xmlns:inkscape="http://www.inkscape.org/namespaces/inkscape"
   width="50"
   height="50"
   viewBox="0 0 50 50"
   version="1.1"
   id="svg16802"
   inkscape:version="0.92.3 (2405546, 2018-03-11)"
   sodipodi:docname="MainMenu.svg">
  <defs
     id="defs16796" />
  <sodipodi:namedview
     id="base"
     pagecolor="#ffffff"
     bordercolor="#666666"
     borderopacity="1.0"
     inkscape:pageopacity="0.0"
     inkscape:pageshadow="2"
     inkscape:zoom="2"
     inkscape:cx="-112.83889"
     inkscape:cy="94.887764"
     inkscape:document-units="mm"
     inkscape:current-layer="layer1"
     showgrid="false"
     inkscape:window-width="3373"
     inkscape:window-height="1385"
     inkscape:window-x="67"
     inkscape:window-y="27"
     inkscape:window-maximized="1"
     fit-margin-top="0"
     fit-margin-left="0"
     fit-margin-right="0"
     fit-margin-bottom="0"
     units="px"
     viewbox-width="50"
     viewbox-height="50">
    <inkscape:grid
       type="xygrid"
       id="grid834"
       originx="41.463549"
       originy="-19.709389" />
  </sodipodi:namedview>
  <metadata
     id="metadata16799">
    <rdf:RDF>
      <cc:Work
         rdf:about="">
        <dc:format>image/svg+xml</dc:format>
        <dc:type
           rdf:resource="http://purl.org/dc/dcmitype/StillImage" />
        <dc:title />
      </cc:Work>
    </rdf:RDF>
  </metadata>
  <g
     inkscape:label="Layer 1"
     inkscape:groupmode="layer"
     id="layer1">
    <rect
       style="fill:#d9d9d9;fill-opacity:1;stroke:none;stroke-width:0.10140844;stroke-miterlimit:4;stroke-dasharray:0.20281694, 0.20281694;stroke-dashoffset:0.83999997;stroke-opacity:1"
       id="backdrop"
       width="49.941105"
       height="49.941093"
       x="-3.5"
       y="109.94109" />
    <g
       id="connectorButton"
       transform="translate(-115.5,-1)">
      <path
         id="settingsButton-3-6"
         d="M 19.355493,0 C 8.697905,0 0,8.6979107 0,19.35547 v 11.23014 c 0,10.657538 8.697905,19.355483 19.355493,19.355483 h 11.230122 c 10.657562,0 19.355494,-8.697945 19.355494,-19.355483 V 19.35547 C 49.941109,8.6979107 41.243177,0 30.585615,0 Z"
         style="color:#000000;font-style:normal;font-variant:normal;font-weight:normal;font-stretch:normal;font-size:medium;line-height:normal;font-family:Sans;-inkscape-font-specification:Sans;text-indent:0;text-align:start;text-decoration:none;text-decoration-line:none;letter-spacing:normal;word-spacing:normal;text-transform:none;writing-mode:lr-tb;direction:ltr;baseline-shift:baseline;text-anchor:start;display:inline;overflow:visible;visibility:visible;fill:#7b7b7b;fill-opacity:1;stroke:none;stroke-width:7.4902277;marker:none;enable-background:accumulate"
         inkscape:connector-curvature="0" />
      <path
         inkscape:connector-curvature="0"
         id="settingsButton-3"
         d="m 44.883707,8.7427349 c 0.02397,0.034382 0.04874,0.068657 0.07297,0.1032253 V 8.7427349 Z m -30.24707,0.9757509 c -2.5246,0.054223 -5.029758,1.0703292 -6.914232,3.0387452 -3.768976,3.936866 -3.628546,10.169611 0.308291,13.938585 3.176549,3.041096 7.847148,3.552283 11.516388,1.563411 l -3.963576,-3.809438 c -1.457645,0.217476 -2.992789,-0.201098 -4.139745,-1.299175 -1.968499,-1.884498 -2.038647,-5.011879 -0.154199,-6.980301 1.884474,-1.968471 5.011861,-2.038612 6.980306,-0.154145 1.146957,1.098063 1.651019,2.607965 1.497353,4.073677 l 3.963575,3.80944 c 1.82719,-3.752384 1.128714,-8.409241 -2.047834,-11.450338 -1.968419,-1.884472 -4.521781,-2.784793 -7.04638,-2.7304665 z m 1.034943,8.2134172 c -0.179766,0.0032 -0.349944,0.05619 -0.484435,0.19681 l -1.761595,1.82765 c -0.269595,0.280938 -0.258862,0.721965 0.02131,0.990894 l 7.662909,7.354642 -1.034917,1.100993 c -0.218115,0.227703 -0.227703,0.574597 0,0.792718 l 9.138238,8.743264 c 0.227703,0.218649 0.574877,0.205679 0.792726,-0.0221 l 1.673496,-1.73957 c 1.089113,1.101818 2.027515,1.940673 2.906635,2.576326 1.174441,0.849135 2.263899,1.346334 3.369044,1.431293 1.105145,0.08498 2.147678,-0.237956 3.17085,-0.748677 2.108205,-1.052287 2.868546,-2.659132 2.840583,-3.919543 -0.02796,-1.26043 -0.682629,-2.157947 -0.682629,-2.157947 l -1.60745,1.123014 c 0,0 0.316973,0.492912 0.330289,1.078974 0.01332,0.586089 -0.123039,1.296016 -1.761595,2.113909 -0.850224,0.424353 -1.493651,0.578011 -2.135907,0.528476 -0.642255,-0.0494 -1.361397,-0.315711 -2.356125,-1.034936 -0.755868,-0.546513 -1.647158,-1.34362 -2.708467,-2.422186 l 1.78362,-1.871689 c 0.218115,-0.227703 0.227703,-0.574602 0,-0.792715 L 25.689922,24.33961 c -0.227703,-0.218648 -0.57461,-0.207064 -0.792725,0.02077 l -1.056968,1.100992 -7.662909,-7.354639 c -0.14035,-0.134225 -0.326694,-0.177448 -0.506459,-0.174785 z"
         style="color:#000000;font-style:normal;font-variant:normal;font-weight:normal;font-stretch:normal;font-size:medium;line-height:normal;font-family:Sans;-inkscape-font-specification:Sans;text-indent:0;text-align:start;text-decoration:none;text-decoration-line:none;letter-spacing:normal;word-spacing:normal;text-transform:none;writing-mode:lr-tb;direction:ltr;baseline-shift:baseline;text-anchor:start;display:inline;overflow:visible;visibility:visible;fill:#ffffff;fill-opacity:1;stroke:none;stroke-width:12.37801552;marker:none;enable-background:accumulate" />
    </g>
    <g
       id="jamButton"
       transform="translate(180.5,5.5)">
      <path
         inkscape:connector-curvature="0"
         id="jamButtonPath"
         d="M 19.351925,0 C 8.694364,0 0,8.6943623 0,19.351897 V 30.582925 C 0,41.240487 8.694364,49.93485 19.351925,49.93485 h 11.231001 c 10.657561,0 19.351924,-8.694363 19.351924,-19.351925 V 19.351897 C 49.93485,8.6943623 41.240487,0 30.582926,0 Z m 18.790338,5.4427114 8.185693,12.4837126 -3.045333,1.987034 -5.982675,-9.114402 1.533467,8.596038 -2.05183,1.339107 -7.278557,-4.837982 5.982674,9.114402 -3.045333,2.008634 -8.185694,-12.48374 4.10366,-2.678159 7.213761,4.816382 -1.511867,-8.5528408 z M 17.991221,18.639174 30.79891,28.099152 27.559191,30.215751 25.269804,28.4663 l -5.010769,3.282917 0.691125,2.807776 -3.239693,2.116599 -3.542099,-15.507448 z m 0,4.190027 1.533492,6.090667 3.43408,-2.246189 z m -10.129504,2.4622 7.364951,11.2526 c 1.018324,1.554558 1.358334,2.995958 1.015128,4.319644 -0.337666,1.320038 -1.356417,2.551152 -3.066958,3.671663 l -0.647928,0.43197 -1.598261,-2.440603 0.496765,-0.32395 c 0.668621,-0.437989 1.049351,-0.959122 1.144693,-1.555065 0.100935,-0.599591 -0.08709,-1.262699 -0.561561,-1.987034 L 4.643595,27.386402 Z"
         style="color:#000000;font-style:normal;font-variant:normal;font-weight:normal;font-stretch:normal;font-size:medium;line-height:normal;font-family:Sans;-inkscape-font-specification:Sans;text-indent:0;text-align:start;text-decoration:none;text-decoration-line:none;letter-spacing:normal;word-spacing:normal;text-transform:none;writing-mode:lr-tb;direction:ltr;baseline-shift:baseline;text-anchor:start;display:inline;overflow:visible;visibility:visible;fill:#7b7b7b;fill-opacity:1;stroke:none;stroke-width:7.4902277;marker:none;enable-background:accumulate" />
    </g>
    <g
       id="sequencerButton"
       transform="translate(120.5,-116)">
      <path
         inkscape:connector-curvature="0"
         id="sequencerButtonPath"
         d="M 19.351925,0 C 8.69439,0 0,8.6943626 0,19.351898 V 30.582925 C 0,41.240487 8.69439,49.93485 19.351925,49.93485 h 11.231027 c 10.657562,0 19.351899,-8.694363 19.351899,-19.351925 V 19.351898 C 49.934851,8.6943626 41.240514,0 30.582952,0 Z m -2.980538,7.4729428 c 0.439241,-0.018642 0.888974,0.084956 1.295883,0.3023788 0.813898,0.4348194 1.362516,1.238624 1.749451,2.3109844 0.02397,0.06631 0.04155,0.127567 0.06471,0.194414 h 26.479298 v 1.101496 H 19.827012 c 0.497831,1.834673 0.712511,3.827007 0.583159,5.723519 -0.0027,0.04421 0.0027,0.08549 0,0.129697 h 25.550558 v 1.101497 H 20.28058 c -0.293244,1.895713 -0.984981,3.654618 -2.267814,4.924375 -0.23809,0.235692 -0.562999,0.591441 -0.842315,0.885511 0.0027,0.01332 0.01864,0.03116 0.02131,0.04314 h 28.768702 v 1.101496 H 17.494162 c 0.158993,0.585796 0.301873,1.163229 0.475167,1.814247 0.01598,0.06285 0.04794,0.109723 0.06472,0.172841 0.200804,0.06658 0.383073,0.149405 0.583159,0.237557 1.055236,0.465606 2.130048,1.210314 3.066905,2.095026 0.501612,0.473649 0.970334,0.990841 1.360705,1.533466 h 22.915591 v 1.101496 H 23.692742 c 0.05939,0.125437 0.122773,0.238889 0.172841,0.367175 0.435299,1.11878 0.383873,2.575706 -0.604731,3.5205 -0.811661,0.775655 -1.836271,1.3133 -2.980538,1.619833 0.01598,0.111854 0.008,0.213854 0.02131,0.323977 H 45.96017 v 1.101523 H 20.431237 c 0.144878,1.763593 0.03143,3.284808 -0.669553,4.470807 -0.756453,1.280117 -1.560657,2.090473 -2.483773,2.483773 -0.923115,0.3933 -1.893316,0.275268 -2.591765,-0.04314 -1.396871,-0.636929 -2.095027,-1.900613 -2.095027,-1.900613 l 1.900641,-1.187917 c 0,0 0.564996,0.803858 1.123094,1.058326 0.27905,0.1273 0.456844,0.158193 0.777546,0.02131 0.320702,-0.136621 0.841649,-0.552213 1.447072,-1.576689 0.246079,-0.416444 0.373726,-1.669076 0.28078,-3.326087 H 3.973483 V 38.07741 32.245898 31.144402 25.291318 24.189822 18.336711 17.235215 11.382132 10.280609 h 3.390882 5.593929 c 0.497005,-1.085304 1.237452,-1.9576592 2.181394,-2.4621743 0.366961,-0.1960109 0.791873,-0.3272264 1.231113,-0.3455758 z m 0.06472,2.2246176 c -0.05886,0.00533 -0.133692,0.018642 -0.259129,0.086287 -0.157927,0.084423 -0.340622,0.2554006 -0.539935,0.4967656 h 1.425473 C 16.872364,9.938419 16.700589,9.7896531 16.608948,9.7406504 16.543168,9.7054964 16.494963,9.6927134 16.436107,9.6975064 Z M 7.364902,11.382189 v 5.85311 h 5.658697 c -0.214919,-0.889559 -0.392528,-1.70359 -0.518337,-2.419004 -0.178434,-1.015022 -0.294709,-1.781249 -0.151269,-2.548568 0.05593,-0.299529 0.133958,-0.602148 0.215985,-0.885538 z m 7.580936,0 c -0.175238,0.383447 -0.301899,0.831555 -0.388773,1.295909 -0.02397,0.13023 -0.01065,0.833553 0.151269,1.749425 0.135823,0.772538 0.338572,1.732992 0.604758,2.807776 h 2.850947 c 0.008,-0.09241 0.01598,-0.186956 0.02131,-0.28078 0.123838,-1.815152 -0.144079,-3.828898 -0.691125,-5.57233 h -2.548576 z m -7.580936,6.954606 v 5.853084 h 6.781819 c 0.185091,-0.222377 0.3778,-0.438548 0.561534,-0.647955 -0.484728,-1.758186 -1.020988,-3.662368 -1.403875,-5.161932 -0.0053,-0.01598 -0.01864,-0.02663 -0.02131,-0.04314 H 7.365191 Z m 8.228891,0 c 0.264455,1.004343 0.613519,2.2125 0.907109,3.282917 0.727212,-0.748863 1.244031,-1.911 1.511868,-3.282917 z m -8.228891,6.95458 v 5.853111 h 3.304515 c 0.184027,-1.598714 0.87896,-3.134684 1.706254,-4.492406 0.289569,-0.475273 0.591602,-0.93249 0.90711,-1.360705 z m 8.056103,0.885538 c -0.402808,0.52156 -0.799144,1.052734 -1.144694,1.619861 -0.674879,1.107594 -1.162962,2.260437 -1.339106,3.347712 h 1.101523 c -0.100935,-0.430772 -0.149671,-0.90996 -0.08629,-1.403875 0.104397,-0.814111 0.572053,-1.67379 1.382276,-2.267815 0.118779,-0.08709 0.240753,-0.158193 0.367175,-0.215985 -0.103599,-0.386136 -0.176304,-0.695839 -0.280781,-1.079898 z m 0.885511,3.455705 c -0.08069,0.126236 -0.110522,0.240487 -0.129697,0.388773 -0.03569,0.278384 0.03569,0.680845 0.194413,1.079898 0.0053,0.01332 0.01598,0.02956 0.02131,0.04314 h 0.302379 c -0.124371,-0.499481 -0.26046,-1.009056 -0.388773,-1.511867 z m 2.419004,0.496739 c 0.08389,0.338651 0.178167,0.67978 0.259129,1.015129 h 1.058299 C 19.624534,30.762291 19.17267,30.420524 18.725467,30.129357 Z M 7.364902,32.245982 v 5.831485 h 10.669466 c -6.92e-4,-0.008 6.93e-4,-0.01332 0,-0.02131 -0.47482,0.01332 -0.95241,0.008 -1.425473,-0.04314 -2.448779,-0.270714 -4.952232,-1.572748 -5.723493,-4.19008 -0.156329,-0.530428 -0.238355,-1.050416 -0.259128,-1.576663 H 7.364955 Z m 5.507508,0 c 0.01598,0.327519 0.05992,0.640524 0.151269,0.950307 0.458815,1.556982 1.944397,2.384143 3.822879,2.591792 0.280141,0.03089 0.579271,0.02397 0.86394,0.0213 -0.174972,-0.968443 -0.385258,-1.985756 -0.626357,-3.04528 l -1.490269,1.295883 c 0,0 -0.671896,-0.734429 -1.166291,-1.814247 H 12.87249 Z m 6.371447,0 c 0.256732,1.110125 0.484328,2.183498 0.669553,3.218121 0.74841,-0.232763 1.40803,-0.540548 1.814246,-0.928708 0.285361,-0.272738 0.311035,-0.468589 0.06472,-1.101523 -0.136888,-0.352154 -0.404832,-0.762418 -0.734349,-1.18789 h -1.814219 z"
         style="color:#000000;font-style:normal;font-variant:normal;font-weight:normal;font-stretch:normal;font-size:medium;line-height:normal;font-family:Sans;-inkscape-font-specification:Sans;text-indent:0;text-align:start;text-decoration:none;text-decoration-line:none;letter-spacing:normal;word-spacing:normal;text-transform:none;writing-mode:lr-tb;direction:ltr;baseline-shift:baseline;text-anchor:start;display:inline;overflow:visible;visibility:visible;fill:#7b7b7b;fill-opacity:1;stroke:none;stroke-width:7.4902277;marker:none;enable-background:accumulate" />
    </g>
    <g
       id="playButton">
      <path
         inkscape:connector-curvature="0"
         id="playButtonPath"
         d="M 19.351925,0 C 8.694364,0 0,8.6943626 0,19.351924 V 30.582925 C 0,41.240487 8.694364,49.93485 19.351925,49.93485 h 11.231001 c 10.657561,0 19.351924,-8.694363 19.351924,-19.351925 V 19.351924 C 49.93485,8.6943626 41.240487,0 30.582926,0 Z m -4.600424,9.8919467 c 2.301797,0.068178 6.122652,2.2539923 12.440515,5.9826743 15.551737,9.178319 15.530138,9.544161 -0.194413,18.423191 C 11.273106,43.17684 10.971792,43.003174 11.144607,24.945826 11.24714,14.224294 11.387224,9.7921303 14.751474,9.8919467 Z"
         style="color:#000000;font-style:normal;font-variant:normal;font-weight:normal;font-stretch:normal;font-size:medium;line-height:normal;font-family:Sans;-inkscape-font-specification:Sans;text-indent:0;text-align:start;text-decoration:none;text-decoration-line:none;letter-spacing:normal;word-spacing:normal;text-transform:none;writing-mode:lr-tb;direction:ltr;baseline-shift:baseline;text-anchor:start;display:inline;overflow:visible;visibility:visible;fill:#7b7b7b;fill-opacity:1;stroke:none;stroke-width:7.4902277;marker:none;enable-background:accumulate" />
    </g>
    <g
       id="settingsButton"
       transform="translate(141.5,93.500001)">
      <path
         id="settingsButtonPath"
         d="M 19.355494,0 C 8.697932,0 0,8.6979049 0,19.355467 V 30.585615 C 0,41.24315 8.697932,49.941082 19.355494,49.941082 h 11.230121 c 10.657562,0 19.355494,-8.697932 19.355494,-19.355467 V 19.355467 C 49.941109,8.6979049 41.243177,0 30.585615,0 Z m 3.214899,5.2627335 c 3.814223,-0.1736401 3.597093,5.7013615 7.420691,7.2445485 3.946931,1.592961 8.013944,-3.1328198 10.635617,0.220245 2.621646,3.353039 -2.950044,6.134716 -2.356126,10.349351 0.593919,4.214635 6.723601,5.389502 5.130613,9.336432 -1.592962,3.946931 -6.798144,0.527179 -10.151156,3.148852 -3.353012,2.621646 -1.290343,8.500296 -5.504977,9.094215 -4.214635,0.593918 -3.8481,-5.629562 -7.79503,-7.222524 -3.946931,-1.592988 -8.013944,3.13282 -10.635617,-0.220246 -2.621647,-3.353012 2.950044,-6.156714 2.356126,-10.371348 -0.593919,-4.214635 -6.723575,-5.367477 -5.130613,-9.314408 1.592962,-3.94693 6.798144,-0.527179 10.151156,-3.148852 3.248242,-2.539726 1.417271,-8.1398594 5.130639,-9.0281405 0.119844,-0.028762 0.242617,-0.047405 0.374338,-0.066047 0.131562,-0.018642 0.251406,-0.015979 0.374339,-0.021305 z m 2.025836,9.5786495 c -0.342007,0.01332 -0.688728,0.03941 -1.034943,0.08815 -5.539439,0.780609 -9.412413,5.910902 -8.631804,11.450341 0.780608,5.53944 5.910901,9.390362 11.45034,8.609754 5.53944,-0.780608 9.390389,-5.910875 8.609781,-11.450341 -0.731819,-5.193224 -5.263293,-8.896925 -10.393374,-8.697852 z"
         style="color:#000000;font-style:normal;font-variant:normal;font-weight:normal;font-stretch:normal;font-size:medium;line-height:normal;font-family:Sans;-inkscape-font-specification:Sans;text-indent:0;text-align:start;text-decoration:none;text-decoration-line:none;letter-spacing:normal;word-spacing:normal;text-transform:none;writing-mode:lr-tb;direction:ltr;baseline-shift:baseline;text-anchor:start;display:inline;overflow:visible;visibility:visible;fill:#7b7b7b;fill-opacity:1;stroke:none;stroke-width:7.4902277;marker:none;enable-background:accumulate"
         inkscape:connector-curvature="0" />
    </g>
    <g
       id="recordButton"
       transform="translate(284.5,102)">
      <path
         id="recordPath"
         d="M 19.35192,0 C 8.69437,0 0,8.694358 0,19.351909 V 30.58293 c 0,10.657559 8.69437,19.35192 19.35192,19.35192 h 11.23102 c 10.65755,0 19.35191,-8.694361 19.35191,-19.35192 V 19.351909 C 49.93485,8.694358 41.24049,0 30.58294,0 Z m 5.61551,8.142486 c 5.41,0 9.80555,4.395542 9.80555,9.80555 0,5.410006 -4.39555,9.783945 -9.80555,9.783945 -5.41001,0 -9.80555,-4.373939 -9.80555,-9.783945 0,-5.410008 4.39554,-9.80555 9.80555,-9.80555 z m 10.92864,22.570035 c 0.56245,1.4e-5 1.1024,0.06842 1.61986,0.194387 0.51745,0.125995 1.01331,0.314078 1.49028,0.561547 v 2.095016 c -0.48148,-0.328459 -0.95752,-0.581337 -1.42548,-0.734335 -0.46797,-0.152974 -0.95122,-0.215958 -1.46867,-0.215985 -0.92693,1.6e-5 -1.67207,0.291579 -2.20301,0.885525 -0.53096,0.59395 -0.79914,1.418285 -0.79914,2.462182 0,1.039422 0.26818,1.846647 0.79914,2.440592 0.53094,0.593945 1.27608,0.885522 2.20301,0.885522 0.51745,0 1.0007,-0.06298 1.46867,-0.215985 0.46796,-0.152974 0.944,-0.405855 1.42548,-0.734336 v 2.095016 c -0.47697,0.247491 -0.97283,0.435565 -1.49028,0.561553 -0.51746,0.125996 -1.05741,0.172788 -1.61986,0.172788 -1.67835,0 -3.01473,-0.467963 -3.99565,-1.403875 -0.98091,-0.940421 -1.46866,-2.194899 -1.46866,-3.801273 0,-1.610847 0.48775,-2.886937 1.46866,-3.822862 0.98092,-0.940408 2.3173,-1.425466 3.99565,-1.425477 z m -24.96742,0.194387 h 3.97406 c 1.32737,8e-6 2.29929,0.224107 2.91574,0.66954 0.62093,0.445477 0.9287,1.153713 0.92872,2.116614 -2e-5,0.665952 -0.17279,1.192407 -0.49676,1.61986 -0.31948,0.427466 -0.79913,0.747843 -1.44707,0.950315 0.35546,0.08099 0.67134,0.273581 0.95032,0.561552 0.28347,0.283481 0.57594,0.715446 0.86393,1.295888 l 1.40387,2.850953 H 17.2569 l -1.23109,-2.505385 c -0.24749,-0.503948 -0.49946,-0.830623 -0.75594,-1.015113 -0.25199,-0.184479 -0.59215,-0.28077 -1.01511,-0.28077 h -0.73434 v 3.801268 h -2.59177 z m 10.62627,0 h 7.01939 v 1.965427 H 24.1683 v 1.879034 h 4.14683 v 1.965433 H 24.1683 v 2.2894 h 4.5572 v 1.965428 h -7.17058 z m -8.0345,1.879033 v 2.591779 h 1.10151 c 0.54445,8e-6 0.93231,-0.0999 1.1663,-0.302374 0.23846,-0.202482 0.36716,-0.551645 0.36716,-1.015112 0,-0.458951 -0.12868,-0.773924 -0.36716,-0.971919 -0.23399,-0.197982 -0.62185,-0.302368 -1.1663,-0.302374 z"
         style="color:#000000;font-style:normal;font-variant:normal;font-weight:normal;font-stretch:normal;font-size:medium;line-height:normal;font-family:Sans;-inkscape-font-specification:Sans;text-indent:0;text-align:start;text-decoration:none;text-decoration-line:none;letter-spacing:normal;word-spacing:normal;text-transform:none;writing-mode:lr-tb;direction:ltr;baseline-shift:baseline;text-anchor:start;display:inline;overflow:visible;visibility:visible;fill:#7b7b7b;fill-opacity:1;stroke:none;stroke-width:7.4902277;marker:none;enable-background:accumulate"
         inkscape:connector-curvature="0" />
      <path
         style="fill:#ff0000;fill-opacity:1;stroke:none;stroke-width:0.74226928"
         d="m 32.20807,17.823371 a 7.2347462,7.2347446 0 0 1 -7.23474,7.234743 7.2347462,7.2347446 0 0 1 -7.23473,-7.234743 7.2347462,7.2347446 0 0 1 7.23473,-7.234747 7.2347462,7.2347446 0 0 1 7.23474,7.234747 z"
         id="recordEllipse"
         inkscape:connector-curvature="0" />
    </g>
    <g
       id="rewindButton"
       transform="translate(170,-63.500001)">
      <path
         inkscape:connector-curvature="0"
         id="rewindButtonPath"
         d="M 19.351925,0 C 8.694364,0 0,8.6943578 0,19.351911 V 30.58293 c 0,10.657559 8.694364,19.35192 19.351925,19.35192 h 11.231001 c 10.657561,0 19.351924,-8.694361 19.351924,-19.35192 V 19.351911 C 49.93485,8.6943578 41.240487,0 30.582926,0 Z m 2.829322,15.701831 c 2.066318,-0.04157 2.138224,2.68148 2.138224,9.265594 0,11.089036 -0.202136,11.203228 -9.805554,5.658708 -9.603363,-5.544521 -9.603363,-5.772903 0,-11.317416 3.90139,-2.252461 6.253548,-3.57848 7.66733,-3.606886 z m 18.315224,0 c 2.066291,-0.04157 2.116599,2.68148 2.116599,9.265594 0,11.089036 -0.180565,11.203228 -9.783928,5.658708 -9.603391,-5.544521 -9.603391,-5.772903 0,-11.317416 3.901363,-2.252461 6.253521,-3.57848 7.667329,-3.606886 z"
         style="color:#000000;font-style:normal;font-variant:normal;font-weight:normal;font-stretch:normal;font-size:medium;line-height:normal;font-family:Sans;-inkscape-font-specification:Sans;text-indent:0;text-align:start;text-decoration:none;text-decoration-line:none;letter-spacing:normal;word-spacing:normal;text-transform:none;writing-mode:lr-tb;direction:ltr;baseline-shift:baseline;text-anchor:start;display:inline;overflow:visible;visibility:visible;fill:#7b7b7b;fill-opacity:1;stroke:none;stroke-width:7.4902277;marker:none;enable-background:accumulate" />
    </g>
  </g>
</svg>
