<?xml version="1.0" encoding="UTF-8" standalone="no"?>
<!-- Created with Inkscape (http://www.inkscape.org/) -->

<svg
   xmlns:dc="http://purl.org/dc/elements/1.1/"
   xmlns:cc="http://creativecommons.org/ns#"
   xmlns:rdf="http://www.w3.org/1999/02/22-rdf-syntax-ns#"
   xmlns:svg="http://www.w3.org/2000/svg"
   xmlns="http://www.w3.org/2000/svg"
   xmlns:sodipodi="http://sodipodi.sourceforge.net/DTD/sodipodi-0.dtd"
   xmlns:inkscape="http://www.inkscape.org/namespaces/inkscape"
   width="744.09448819"
   height="1052.3622047"
   id="svg2"
   version="1.1"
   inkscape:version="0.48.4 r9939"
   sodipodi:docname="newLogo.svg">
  <defs
     id="defs4" />
  <sodipodi:namedview
     id="base"
     pagecolor="#ffffff"
     bordercolor="#666666"
     borderopacity="1.0"
     inkscape:pageopacity="0.0"
     inkscape:pageshadow="2"
     inkscape:zoom="0.7"
     inkscape:cx="378.31868"
     inkscape:cy="511.59011"
     inkscape:document-units="px"
     inkscape:current-layer="layer1"
     showgrid="false"
     inkscape:window-width="1855"
     inkscape:window-height="1056"
     inkscape:window-x="65"
     inkscape:window-y="24"
     inkscape:window-maximized="1" />
  <metadata
     id="metadata7">
    <rdf:RDF>
      <cc:Work
         rdf:about="">
        <dc:format>image/svg+xml</dc:format>
        <dc:type
           rdf:resource="http://purl.org/dc/dcmitype/StillImage" />
        <dc:title />
      </cc:Work>
    </rdf:RDF>
  </metadata>
  <g
     inkscape:label="Layer 1"
     inkscape:groupmode="layer"
     id="layer1">
    <path
       style="fill:#ffa123;fill-opacity:1;stroke:none;stroke-opacity:1;stroke-width:20;stroke-miterlimit:4;stroke-dasharray:none"
       d="M 311 218.5625 C 306.92438 218.61758 302.70873 218.92094 298.34375 219.46875 C 270.35779 222.98101 236.9475 237.06497 206.59375 261.15625 C 176.24001 285.24752 154.93101 314.5731 145.15625 341.03125 C 135.36707 367.52843 137.08003 389.54894 148.5 403.9375 C 159.91483 418.31959 180.96322 424.92489 209 421.40625 C 236.99269 417.89314 270.39941 403.83877 300.75 379.75 C 331.10122 355.66073 352.37927 326.33916 362.15625 299.875 C 371.94765 273.3718 370.25927 251.35171 358.84375 236.96875 C 349.21155 224.83267 332.92272 218.26621 311 218.5625 z M 398.34375 261.75 C 399.30746 277.39293 396.31067 293.92967 390.28125 310.25 C 378.1613 343.05609 353.62354 376.12355 319.40625 403.28125 C 285.19093 430.43739 247.42425 446.86318 212.71875 451.21875 C 195.55433 453.3729 178.87733 452.49274 163.9375 448.0625 L 202.90625 543.3125 L 204.46875 544.84375 L 204.46875 547.09375 C 204.62652 547.47297 204.76373 547.81722 204.9375 548.21875 C 205.01769 548.40401 205.02026 548.38032 205.15625 548.6875 C 207.24863 553.413 209.85206 557.7675 213.0625 561.8125 C 229.65724 582.72102 259.6434 591.70743 297.6875 586.9375 C 324.88123 583.52798 355.46212 572.90385 385.5 555.3125 L 389.71875 552.84375 L 394.25 554.625 L 464.6875 582.4375 L 453.4375 506.65625 L 452.75 501.9375 L 455.96875 498.4375 C 478.12103 474.22687 494.21391 448.23886 503.25 423.78125 C 516.53983 387.81021 514.59249 356.56193 498 335.65625 C 494.76414 331.57924 491.06812 328.01752 486.875 324.875 C 486.8631 324.8661 486.85565 324.85275 486.84375 324.84375 L 482.71875 321.78125 L 472.6875 314.3125 L 471.96875 313.78125 L 398.34375 261.75 z "
       id="path3775" />
    <g
       id="g3977"
       style="fill:#ffa123;fill-opacity:1">
      <g
         transform="translate(32.324883,-1.02031)"
         id="g3011"
         style="fill:#ffa123;fill-opacity:1">
        <path
           inkscape:connector-curvature="0"
           style="fill:#ffa123;fill-opacity:1;stroke:none"
           d="m 95.34375,656.17656 5.21875,0 9.1875,40.9375 0.78125,4.28125 0.15625,0 0.8125,-4.28125 9.15625,-40.9375 5.21875,0 -13.21875,54.46875 -4.125,0 -13.1875,-54.46875 z"
           id="path3007" />
        <path
           inkscape:connector-curvature="0"
           style="fill:#ffa123;fill-opacity:1;stroke:none"
           d="m 130,656.17656 4.8125,0 0,36.90625 c -1e-5,4.11532 0.78355,7.26131 2.3125,9.40625 1.52893,2.12001 3.52637,3.1875 6.03125,3.1875 2.63497,0 4.76471,-1.06749 6.375,-3.1875 1.62651,-2.14494 2.43747,-5.29093 2.4375,-9.40625 l 0,-36.90625 4.8125,0 0,36.90625 c -3e-5,5.93603 -1.26015,10.48241 -3.78125,13.625 -2.50489,3.1426 -5.79369,4.71875 -9.84375,4.71875 -3.9037,0 -7.0602,-1.57615 -9.5,-4.71875 C 131.2327,703.54028 130,698.9939 130,693.08281 l 0,-36.90625 z"
           id="rect3002" />
      </g>
      <path
         id="path3924"
         d="M 389.21875 628.0625 C 379.86619 628.06259 371.97799 631.42482 366.0625 637.96875 C 360.19847 644.4967 357.3125 652.72211 357.3125 662.40625 L 357.3125 676.0625 C 357.3125 685.78094 360.19013 694.09355 366.0625 700.59375 C 371.98116 707.10428 379.87267 710.40625 389.21875 710.40625 C 398.87071 710.40625 406.9036 707.12777 413 700.625 C 419.12606 694.12986 422.15619 685.7945 422.15625 676.0625 L 422.15625 662.40625 C 422.15619 652.67434 419.12088 644.42725 413 637.9375 C 406.90675 631.40124 398.87698 628.06259 389.21875 628.0625 z M 213.84375 629.1875 L 213.84375 630.6875 L 213.84375 707.78125 L 213.84375 709.28125 L 215.34375 709.28125 L 225.78125 709.28125 L 227.28125 709.28125 L 227.28125 707.78125 L 227.28125 674.46875 L 234.03125 674.46875 L 261.53125 708.71875 L 261.96875 709.28125 L 262.6875 709.28125 L 275.125 709.28125 L 275.9375 709.28125 L 276.375 708.625 L 276.5625 708.34375 L 277.1875 707.40625 L 276.46875 706.5625 L 245.125 667.96875 L 274.3125 631.90625 L 275.03125 631.0625 L 274.40625 630.125 L 274.21875 629.84375 L 273.78125 629.1875 L 272.96875 629.1875 L 261.375 629.1875 L 260.65625 629.1875 L 260.21875 629.75 L 233.09375 663.28125 L 227.28125 663.28125 L 227.28125 630.6875 L 227.28125 629.1875 L 225.78125 629.1875 L 215.34375 629.1875 L 213.84375 629.1875 z M 283.5 629.1875 L 283.5 630.6875 L 283.5 707.78125 L 283.5 709.28125 L 285 709.28125 L 295.46875 709.28125 L 296.96875 709.28125 L 296.96875 707.78125 L 296.96875 652.90625 L 331.625 708.5625 L 332.0625 709.28125 L 332.90625 709.28125 L 343.375 709.28125 L 344.875 709.28125 L 344.875 707.78125 L 344.875 630.6875 L 344.875 629.1875 L 343.375 629.1875 L 332.90625 629.1875 L 331.40625 629.1875 L 331.40625 630.6875 L 331.40625 685.53125 L 296.71875 629.90625 L 296.28125 629.1875 L 295.4375 629.1875 L 285 629.1875 L 283.5 629.1875 z M 434.78125 629.1875 L 434.78125 630.6875 L 434.78125 707.78125 L 434.78125 709.28125 L 436.28125 709.28125 L 464.71875 709.28125 C 472.78834 709.28125 479.39448 707.38383 484.28125 703.40625 C 489.23071 699.37052 491.71869 693.41522 491.71875 686.03125 C 491.71869 681.02523 490.24265 676.47706 487.375 672.65625 C 487.37 672.64925 487.38 672.6322 487.375 672.625 L 487.40625 672.625 C 485.27499 669.75498 482.48006 667.68995 479.15625 666.375 C 481.37797 665.0886 483.3934 663.58731 484.96875 661.65625 C 487.3468 658.70286 488.62493 655.25243 488.625 651.5 C 488.62494 644.22551 486.18352 638.52931 481.25 634.78125 C 476.35896 631.0278 469.67676 629.18759 461.40625 629.1875 L 436.28125 629.1875 L 434.78125 629.1875 z M 389.21875 639.625 C 395.29125 639.62506 399.86026 641.67245 403.40625 645.875 C 406.97032 650.09918 408.81244 655.5268 408.8125 662.3125 L 408.8125 676.0625 C 408.81244 682.95826 406.96457 688.47022 403.40625 692.6875 C 399.90213 696.84657 395.33753 698.84375 389.21875 698.84375 C 383.51961 698.84375 379.15908 696.82272 375.78125 692.625 L 375.8125 692.625 C 372.45541 688.41221 370.75 682.9445 370.75 676.0625 L 370.75 662.3125 C 370.75 655.50369 372.45385 650.05856 375.8125 645.84375 L 375.78125 645.84375 C 379.15908 641.64609 383.51961 639.62506 389.21875 639.625 z M 448.21875 640.375 L 461.40625 640.375 C 466.13745 640.37509 469.52652 641.38991 471.78125 643.1875 L 471.8125 643.1875 C 474.08059 644.94158 475.24994 647.47923 475.25 651.3125 C 475.24995 654.80492 474.20267 657.26058 472.09375 659.125 C 469.95454 660.97619 467.18193 661.96881 463.59375 661.96875 L 448.21875 661.96875 L 448.21875 640.375 z M 448.21875 673.15625 L 466.3125 673.15625 C 470.62553 673.15631 473.45982 674.28744 475.3125 676.46875 L 475.34375 676.46875 C 477.2793 678.71163 478.28119 681.87867 478.28125 686.15625 C 478.28119 690.1562 477.12844 692.93105 474.8125 695 C 472.50543 697.0302 469.20827 698.09375 464.71875 698.09375 L 448.21875 698.09375 L 448.21875 673.15625 z "
         style="fill:#ffa123;fill-opacity:1;stroke:none;stroke-width:3;stroke-miterlimit:4;stroke-opacity:1;stroke-dasharray:none" />
      <path
         id="path2985-0-3"
         d="m 495.3125,305.875 14.90625,11.28125 c 29.19187,3.67541 53.36979,15.49864 69.34375,35.625 23.49336,29.60041 25.47734,72.42375 8.6875,118.65625 -16.78984,46.2325 -52.38823,95.36393 -102.8125,136.03125 l 19.90625,22.4375 C 557.03625,588.21611 590.7225,526.22474 608.28125,477.875 625.84,429.52526 617.90821,376.23653 588.40625,346.0625 562.05671,319.11271 532.00249,306.80978 495.3125,305.875 z"
         style="font-size:medium;font-style:normal;font-variant:normal;font-weight:normal;font-stretch:normal;text-indent:0;text-align:start;text-decoration:none;line-height:normal;letter-spacing:normal;word-spacing:normal;text-transform:none;direction:ltr;block-progression:tb;writing-mode:lr-tb;text-anchor:start;baseline-shift:baseline;color:#000000;fill:#ffa123;fill-opacity:1;stroke:none;stroke-width:10;marker:none;visibility:visible;display:inline;overflow:visible;enable-background:accumulate;font-family:Sans;-inkscape-font-specification:Sans"
         inkscape:connector-curvature="0" />
      <text
         transform="matrix(1.3433147,1.5442415,-1.5442415,1.3433147,958.10169,-1104.7422)"
         sodipodi:linespacing="125%"
         id="text3870"
         y="728.10321"
         x="506.08643"
         style="font-size:36px;font-style:normal;font-variant:normal;font-weight:bold;font-stretch:normal;line-height:125%;letter-spacing:0px;word-spacing:0px;fill:#ffa123;fill-opacity:1;stroke:none;font-family:Roboto;-inkscape-font-specification:Sans Bold"
         xml:space="preserve"><tspan
           y="728.10321"
           x="506.08643"
           id="tspan3872"
           sodipodi:role="line">11</tspan></text>
      <rect
         style="fill:#ffa123;fill-opacity:1;stroke:none"
         id="rect2999"
         width="3.0304575"
         height="97.984795"
         x="197.9899"
         y="629.10828"
         rx="0"
         ry="0"
         transform="translate(1.9698181,-8.8662987)" />
    </g>
  </g>
</svg>
