<?xml version="1.0" encoding="UTF-8" standalone="no"?>
<!-- Created with Inkscape (http://www.inkscape.org/) -->

<svg
   xmlns:dc="http://purl.org/dc/elements/1.1/"
   xmlns:cc="http://creativecommons.org/ns#"
   xmlns:rdf="http://www.w3.org/1999/02/22-rdf-syntax-ns#"
   xmlns:svg="http://www.w3.org/2000/svg"
   xmlns="http://www.w3.org/2000/svg"
   xmlns:sodipodi="http://sodipodi.sourceforge.net/DTD/sodipodi-0.dtd"
   xmlns:inkscape="http://www.inkscape.org/namespaces/inkscape"
   width="350"
   height="371.89536"
   id="svg5486"
   version="1.1"
   inkscape:version="0.48.4 r9939"
   sodipodi:docname="plusButton.svg">
  <defs
     id="defs5488" />
  <sodipodi:namedview
     id="base"
     pagecolor="#ffffff"
     bordercolor="#666666"
     borderopacity="1.0"
     inkscape:pageopacity="0.0"
     inkscape:pageshadow="2"
     inkscape:zoom="0.98994949"
     inkscape:cx="-66.160148"
     inkscape:cy="146.45945"
     inkscape:document-units="px"
     inkscape:current-layer="layer1"
     showgrid="false"
     fit-margin-top="0"
     fit-margin-left="0"
     fit-margin-right="0"
     fit-margin-bottom="0"
     inkscape:window-width="1855"
     inkscape:window-height="1056"
     inkscape:window-x="65"
     inkscape:window-y="24"
     inkscape:window-maximized="1" />
  <metadata
     id="metadata5491">
    <rdf:RDF>
      <cc:Work
         rdf:about="">
        <dc:format>image/svg+xml</dc:format>
        <dc:type
           rdf:resource="http://purl.org/dc/dcmitype/StillImage" />
        <dc:title />
      </cc:Work>
    </rdf:RDF>
  </metadata>
  <g
     inkscape:label="Layer 1"
     inkscape:groupmode="layer"
     id="layer1"
     transform="translate(-165,-337.84307)">
    <path
       sodipodi:type="arc"
       style="fill:#000000;fill-opacity:0.49771693;stroke:none"
       id="path5359-0"
       sodipodi:cx="-358.57144"
       sodipodi:cy="403.79074"
       sodipodi:rx="134.28572"
       sodipodi:ry="134.28572"
       d="m -224.28572,403.79074 a 134.28572,134.28572 0 1 1 -268.57144,0 134.28572,134.28572 0 1 1 268.57144,0 z"
       transform="matrix(1.3031914,0,0,1.3031914,807.28722,8.521821)" />
    <path
       sodipodi:type="arc"
       style="fill:#f1a123;fill-opacity:1;stroke:none"
       id="buttonBody"
       sodipodi:cx="-358.57144"
       sodipodi:cy="403.79074"
       sodipodi:rx="134.28572"
       sodipodi:ry="134.28572"
       d="m -224.28572,403.79074 a 134.28572,134.28572 0 1 1 -268.57144,0 134.28572,134.28572 0 1 1 268.57144,0 z"
       transform="matrix(1.3031914,0,0,1.3031914,807.28722,-13.373556)"
       inkscape:label="#path5359" />
    <path
       inkscape:label="#rect4910-2"
       transform="matrix(1.0533217,0,0,1.0533217,-1142.254,284.60142)"
       inkscape:connector-curvature="0"
       id="menuNext"
       d="m 1393.9062,162.78125 0,40.625 -40.5937,0 0,26.59375 40.5937,0 0,40.59375 26.5938,0 0,-40.59375 40.625,0 0,-26.59375 -40.625,0 0,-40.625 -26.5938,0 z"
       style="fill:#ffffff;fill-opacity:1;stroke:none" />
  </g>
</svg>
