<?xml version="1.0" encoding="UTF-8" standalone="no"?>
<!-- Created with Inkscape (http://www.inkscape.org/) -->

<svg
   xmlns:dc="http://purl.org/dc/elements/1.1/"
   xmlns:cc="http://creativecommons.org/ns#"
   xmlns:rdf="http://www.w3.org/1999/02/22-rdf-syntax-ns#"
   xmlns:svg="http://www.w3.org/2000/svg"
   xmlns="http://www.w3.org/2000/svg"
   xmlns:sodipodi="http://sodipodi.sourceforge.net/DTD/sodipodi-0.dtd"
   xmlns:inkscape="http://www.inkscape.org/namespaces/inkscape"
   version="1.1"
   width="570.03522"
   height="149.91814"
   id="svg2"
   inkscape:version="0.48.3.1 r9886"
   sodipodi:docname="pncseq_help_1.svg">
  <sodipodi:namedview
     pagecolor="#ffffff"
     bordercolor="#666666"
     borderopacity="1"
     objecttolerance="10"
     gridtolerance="10"
     guidetolerance="10"
     inkscape:pageopacity="0"
     inkscape:pageshadow="2"
     inkscape:window-width="1855"
     inkscape:window-height="1056"
     id="namedview3607"
     showgrid="false"
     inkscape:zoom="0.75697492"
     inkscape:cx="517.78478"
     inkscape:cy="-69.003566"
     inkscape:window-x="65"
     inkscape:window-y="24"
     inkscape:window-maximized="1"
     inkscape:current-layer="svg2"
     fit-margin-top="0"
     fit-margin-left="0"
     fit-margin-right="0"
     fit-margin-bottom="0" />
  <defs
     id="defs4">
    <marker
       inkscape:stockid="Arrow2Lstart"
       orient="auto"
       refY="0"
       refX="0"
       id="Arrow2Lstart"
       style="overflow:visible">
      <path
         id="path11834"
         style="fill-rule:evenodd;stroke-width:0.625;stroke-linejoin:round"
         d="M 8.7185878,4.0337352 -2.2072895,0.01601326 8.7185884,-4.0017078 c -1.7454984,2.3720609 -1.7354408,5.6174519 -6e-7,8.035443 z"
         transform="matrix(1.1,0,0,1.1,1.1,0)"
         inkscape:connector-curvature="0" />
    </marker>
  </defs>
  <metadata
     id="metadata7">
    <rdf:RDF>
      <cc:Work
         rdf:about="">
        <dc:format>image/svg+xml</dc:format>
        <dc:type
           rdf:resource="http://purl.org/dc/dcmitype/StillImage" />
        <dc:title></dc:title>
      </cc:Work>
    </rdf:RDF>
  </metadata>
  <path
     style="fill:#000000;fill-opacity:1;stroke:#000000;stroke-width:4;stroke-linejoin:bevel;stroke-miterlimit:4;stroke-opacity:1;stroke-dashoffset:0"
     d="M 15.403989,8.6004362 C 11.692659,9.6548566 10.575315,16.986169 8.5672493,31.99911 4.7587998,60.472208 5.1808225,61.421846 29.994189,51.441697 42.50098,83.969999 53.473846,104.02983 61.692583,116.23287 c 4.723987,7.01409 8.537344,11.43337 11.217936,14.1285 2.680599,2.69513 4.396169,3.77125 4.396169,3.77125 l 2.241165,-3.97224 c 0,0 -1.076253,-0.62279 -3.519865,-3.07965 C 73.584369,124.62386 69.950077,120.4411 65.371111,113.64234 57.401778,101.8096 46.568491,82.051566 34.15453,49.762333 58.064016,40.044852 57.480787,38.869465 35.621833,21.075662 24.665687,12.157049 18.890383,7.6099191 15.403989,8.6004362 z"
     id="path12305"
     inkscape:connector-curvature="0" />
  <text
     xml:space="preserve"
     style="font-size:40px;font-style:normal;font-weight:normal;line-height:125%;letter-spacing:0px;word-spacing:0px;fill:#000000;fill-opacity:1;stroke:none;font-family:Sans"
     x="92.473343"
     y="79.902603"
     id="text12321"
     sodipodi:linespacing="125%"><tspan
       sodipodi:role="line"
       id="tspan12323"
       x="92.473343"
       y="79.902603">TAP ON THE '00' FIRST</tspan></text>
</svg>
