<?xml version="1.0" encoding="UTF-8" standalone="no"?>
<!-- Created with Inkscape (http://www.inkscape.org/) -->

<svg
   xmlns:dc="http://purl.org/dc/elements/1.1/"
   xmlns:cc="http://creativecommons.org/ns#"
   xmlns:rdf="http://www.w3.org/1999/02/22-rdf-syntax-ns#"
   xmlns:svg="http://www.w3.org/2000/svg"
   xmlns="http://www.w3.org/2000/svg"
   xmlns:sodipodi="http://sodipodi.sourceforge.net/DTD/sodipodi-0.dtd"
   xmlns:inkscape="http://www.inkscape.org/namespaces/inkscape"
   version="1.1"
   width="570.03522"
   height="149.91814"
   id="svg2"
   inkscape:version="0.48.3.1 r9886"
   sodipodi:docname="pncseq_help_1.svg">
  <sodipodi:namedview
     pagecolor="#ffffff"
     bordercolor="#666666"
     borderopacity="1"
     objecttolerance="10"
     gridtolerance="10"
     guidetolerance="10"
     inkscape:pageopacity="0"
     inkscape:pageshadow="2"
     inkscape:window-width="1855"
     inkscape:window-height="1056"
     id="namedview3607"
     showgrid="false"
     inkscape:zoom="0.75697492"
     inkscape:cx="517.78478"
     inkscape:cy="-69.003566"
     inkscape:window-x="65"
     inkscape:window-y="24"
     inkscape:window-maximized="1"
     inkscape:current-layer="svg2"
     fit-margin-top="0"
     fit-margin-left="0"
     fit-margin-right="0"
     fit-margin-bottom="0" />
  <defs
     id="defs4">
    <marker
       inkscape:stockid="Arrow2Lstart"
       orient="auto"
       refY="0"
       refX="0"
       id="Arrow2Lstart"
       style="overflow:visible">
      <path
         id="path11834"
         style="fill-rule:evenodd;stroke-width:0.625;stroke-linejoin:round"
         d="M 8.7185878,4.0337352 -2.2072895,0.01601326 8.7185884,-4.0017078 c -1.7454984,2.3720609 -1.7354408,5.6174519 -6e-7,8.035443 z"
         transform="matrix(1.1,0,0,1.1,1.1,0)"
         inkscape:connector-curvature="0" />
    </marker>
  </defs>
  <metadata
     id="metadata7">
    <rdf:RDF>
      <cc:Work
         rdf:about="">
        <dc:format>image/svg+xml</dc:format>
        <dc:type
           rdf:resource="http://purl.org/dc/dcmitype/StillImage" />
        <dc:title />
      </cc:Work>
    </rdf:RDF>
  </metadata>
  <g
     style="font-size:40px;font-style:normal;font-weight:normal;line-height:125%;letter-spacing:0px;word-spacing:0px;fill:#000000;fill-opacity:1;stroke:none;font-family:Sans"
     id="text12256">
    <path
       d="m 85.812912,32.847874 0,10.957031 4.960937,0 c 1.835923,1.5e-5 3.255193,-0.475245 4.257813,-1.425781 1.002586,-0.950504 1.503888,-2.304669 1.503906,-4.0625 -1.8e-5,-1.74477 -0.50132,-3.092425 -1.503906,-4.042969 -1.00262,-0.950495 -2.42189,-1.425755 -4.257813,-1.425781 l -4.960937,0 m -3.945313,-3.242188 8.90625,0 c 3.268214,2.9e-5 5.735659,0.742216 7.402344,2.226563 1.679666,1.471379 2.519507,3.632835 2.519527,6.484375 -2e-5,2.877621 -0.839861,5.052098 -2.519527,6.523437 -1.666685,1.471367 -4.13413,2.207043 -7.402344,2.207031 l -4.960937,0 0,11.71875 -3.945313,0 0,-29.160156"
       style=""
       id="path12263" />
    <path
       d="m 119.83635,45.093967 c 0.84634,0.286472 1.66665,0.898451 2.46094,1.835938 0.80727,0.937511 1.61456,2.226572 2.42187,3.867187 l 4.00391,7.96875 -4.23828,0 -3.73047,-7.480468 c -0.96356,-1.953116 -1.90106,-3.248687 -2.8125,-3.886719 -0.89845,-0.638009 -2.12892,-0.957019 -3.69141,-0.957031 l -4.29687,0 0,12.324218 -3.94532,0 0,-29.160156 8.90625,0 c 3.33332,2.9e-5 5.8203,0.696643 7.46094,2.089844 1.64061,1.393255 2.46092,3.496117 2.46094,6.308594 -2e-5,1.835956 -0.42971,3.359392 -1.28906,4.570312 -0.84638,1.210953 -2.08336,2.050796 -3.71094,2.519531 m -9.88281,-12.246093 0,10.351562 4.96093,0 c 1.90103,1.6e-5 3.33332,-0.436182 4.29688,-1.308594 0.97654,-0.885398 1.46482,-2.18097 1.46484,-3.886718 -2e-5,-1.705707 -0.4883,-2.988258 -1.46484,-3.847657 -0.96356,-0.87237 -2.39585,-1.308567 -4.29688,-1.308593 l -4.96093,0"
       style=""
       id="path12265" />
    <path
       d="m 133.82072,29.605686 18.4375,0 0,3.320313 -14.49218,0 0,8.632812 13.88672,0 0,3.320313 -13.88672,0 0,10.566406 14.84375,0 0,3.320312 -18.78907,0 0,-29.160156"
       style=""
       id="path12267" />
    <path
       d="m 176.61369,30.562717 0,3.847657 c -1.49741,-0.716121 -2.91017,-1.249975 -4.23828,-1.601563 -1.32814,-0.351536 -2.61069,-0.527317 -3.84765,-0.527344 -2.14845,2.7e-5 -3.80861,0.416693 -4.98047,1.25 -1.15886,0.833358 -1.73829,2.018253 -1.73828,3.554688 -1e-5,1.289083 0.3841,2.265644 1.15234,2.929687 0.78124,0.65106 2.25259,1.178403 4.41406,1.582032 l 2.38281,0.488281 c 2.9427,0.559912 5.11066,1.549494 6.50391,2.96875 1.40623,1.406262 2.10935,3.294281 2.10938,5.664062 -3e-5,2.825526 -0.95055,4.967451 -2.85157,6.425782 -1.88804,1.458333 -4.66147,2.187499 -8.32031,2.1875 -1.38022,-10e-7 -2.85157,-0.156251 -4.41406,-0.46875 -1.54949,-0.3125 -3.15756,-0.774739 -4.82422,-1.386719 l 0,-4.0625 c 1.60156,0.898442 3.17057,1.575525 4.70703,2.03125 1.53645,0.455732 3.04687,0.683596 4.53125,0.683594 2.25259,2e-6 3.99087,-0.442706 5.21484,-1.328125 1.22394,-0.885412 1.83592,-2.148432 1.83594,-3.789063 -2e-5,-1.432282 -0.44272,-2.552073 -1.32812,-3.359375 -0.87242,-0.80728 -2.31122,-1.412748 -4.31641,-1.816406 l -2.40234,-0.46875 c -2.94272,-0.585924 -5.07162,-1.503891 -6.38672,-2.753906 -1.31511,-1.249983 -1.97266,-2.988262 -1.97266,-5.214844 0,-2.578101 0.90495,-4.609349 2.71485,-6.09375 1.82291,-1.484346 4.32941,-2.226533 7.51953,-2.226563 1.36717,3e-5 2.7604,0.123728 4.17968,0.371094 1.41926,0.247425 2.87108,0.618518 4.35547,1.113281"
       style=""
       id="path12269" />
    <path
       d="m 202.00432,30.562717 0,3.847657 c -1.49742,-0.716121 -2.91018,-1.249975 -4.23828,-1.601563 -1.32814,-0.351536 -2.61069,-0.527317 -3.84766,-0.527344 -2.14845,2.7e-5 -3.8086,0.416693 -4.98047,1.25 -1.15886,0.833358 -1.73829,2.018253 -1.73828,3.554688 -1e-5,1.289083 0.38411,2.265644 1.15234,2.929687 0.78125,0.65106 2.2526,1.178403 4.41407,1.582032 l 2.38281,0.488281 c 2.94269,0.559912 5.11066,1.549494 6.50391,2.96875 1.40622,1.406262 2.10935,3.294281 2.10937,5.664062 -2e-5,2.825526 -0.95054,4.967451 -2.85156,6.425782 -1.88804,1.458333 -4.66148,2.187499 -8.32031,2.1875 -1.38022,-10e-7 -2.85158,-0.156251 -4.41407,-0.46875 -1.54948,-0.3125 -3.15755,-0.774739 -4.82422,-1.386719 l 0,-4.0625 c 1.60156,0.898442 3.17057,1.575525 4.70704,2.03125 1.53645,0.455732 3.04686,0.683596 4.53125,0.683594 2.25259,2e-6 3.99087,-0.442706 5.21484,-1.328125 1.22394,-0.885412 1.83592,-2.148432 1.83594,-3.789063 -2e-5,-1.432282 -0.44273,-2.552073 -1.32813,-3.359375 -0.87241,-0.80728 -2.31121,-1.412748 -4.3164,-1.816406 l -2.40235,-0.46875 c -2.94271,-0.585924 -5.07162,-1.503891 -6.38672,-2.753906 -1.3151,-1.249983 -1.97266,-2.988262 -1.97265,-5.214844 -1e-5,-2.578101 0.90494,-4.609349 2.71484,-6.09375 1.82291,-1.484346 4.32942,-2.226533 7.51953,-2.226563 1.36718,3e-5 2.7604,0.123728 4.17969,0.371094 1.41925,0.247425 2.87107,0.618518 4.35547,1.113281"
       style=""
       id="path12271" />
    <path
       d="m 218.60588,29.605686 24.66797,0 0,3.320313 -10.35156,0 0,25.839843 -3.96485,0 0,-25.839843 -10.35156,0 0,-3.320313"
       style=""
       id="path12273" />
    <path
       d="m 258.93791,32.281467 c -2.86459,2.7e-5 -5.14324,1.067734 -6.83594,3.203125 -1.67969,2.135438 -2.51953,5.045592 -2.51953,8.730469 0,3.671886 0.83984,6.575529 2.51953,8.710938 1.6927,2.13542 3.97135,3.203127 6.83594,3.203125 2.86457,2e-6 5.13019,-1.067705 6.79688,-3.203125 1.67966,-2.135409 2.5195,-5.039052 2.51953,-8.710938 -3e-5,-3.684877 -0.83987,-6.595031 -2.51953,-8.730469 -1.66669,-2.135391 -3.93231,-3.203098 -6.79688,-3.203125 m 0,-3.203125 c 4.08852,3e-5 7.35675,1.373727 9.80469,4.121094 2.44789,2.734398 3.67185,6.406269 3.67187,11.015625 -2e-5,4.596364 -1.22398,8.268236 -3.67187,11.015625 -2.44794,2.734376 -5.71617,4.101562 -9.80469,4.101563 -4.10157,-10e-7 -7.38282,-1.367187 -9.84375,-4.101563 -2.44792,-2.734369 -3.67188,-6.40624 -3.67187,-11.015625 -1e-5,-4.609356 1.22395,-8.281227 3.67187,-11.015625 2.46093,-2.747367 5.74218,-4.121064 9.84375,-4.121094"
       style=""
       id="path12275" />
    <path
       d="m 301.06682,33.492405 -5.35156,14.511719 10.72265,0 -5.37109,-14.511719 m -2.22656,-3.886719 4.47265,0 11.11328,29.160156 -4.10156,0 -2.65625,-7.480468 -13.14453,0 -2.65625,7.480468 -4.16016,0 11.13282,-29.160156"
       style=""
       id="path12277" />
    <path
       d="m 322.60979,32.847874 0,22.675781 4.76562,0 c 4.02342,3e-6 6.96613,-0.911454 8.82813,-2.734375 1.87497,-1.822909 2.81247,-4.70051 2.8125,-8.632813 -3e-5,-3.906231 -0.93753,-6.764301 -2.8125,-8.574218 -1.862,-1.822892 -4.80471,-2.734349 -8.82813,-2.734375 l -4.76562,0 m -3.94532,-3.242188 8.10547,0 c 5.65103,2.9e-5 9.79816,1.178414 12.44141,3.535156 2.6432,2.343774 3.96481,6.015645 3.96484,11.015625 -3e-5,5.026052 -1.32815,8.717454 -3.98437,11.074219 -2.65627,2.356772 -6.79689,3.535156 -12.42188,3.535156 l -8.10547,0 0,-29.160156"
       style=""
       id="path12279" />
    <path
       d="m 353.39104,32.847874 0,22.675781 4.76562,0 c 4.02342,3e-6 6.96613,-0.911454 8.82813,-2.734375 1.87497,-1.822909 2.81247,-4.70051 2.8125,-8.632813 -3e-5,-3.906231 -0.93753,-6.764301 -2.8125,-8.574218 -1.862,-1.822892 -4.80471,-2.734349 -8.82813,-2.734375 l -4.76562,0 m -3.94532,-3.242188 8.10547,0 c 5.65103,2.9e-5 9.79816,1.178414 12.44141,3.535156 2.6432,2.343774 3.96481,6.015645 3.96484,11.015625 -3e-5,5.026052 -1.32815,8.717454 -3.98437,11.074219 -2.65627,2.356772 -6.79689,3.535156 -12.42188,3.535156 l -8.10547,0 0,-29.160156"
       style=""
       id="path12281" />
    <path
       d="m 91.613693,83.492405 -5.351562,14.511719 10.722656,0 -5.371094,-14.511719 m -2.226562,-3.886719 4.472656,0 11.113283,29.160154 -4.10156,0 -2.656254,-7.48047 -13.144532,0 -2.65625,7.48047 -4.160156,0 11.132813,-29.160154"
       style=""
       id="path12283" />
    <path
       d="m 121.94572,79.605686 5.3125,0 12.92969,24.394534 0,-24.394534 3.82813,0 0,29.160154 -5.3125,0 -12.92969,-24.394529 0,24.394529 -3.82813,0 0,-29.160154"
       style=""
       id="path12285" />
    <path
       d="m 151.8676,79.605686 18.4375,0 0,3.320313 -14.49219,0 0,8.632812 13.88672,0 0,3.320313 -13.88672,0 0,10.566406 14.84375,0 0,3.32031 -18.78906,0 0,-29.160154"
       style=""
       id="path12287" />
    <path
       d="m 174.58244,79.605686 3.98438,0 6.13281,24.648434 6.11328,-24.648434 4.4336,0 6.13281,24.648434 6.11328,-24.648434 4.00391,0 -7.32422,29.160154 -4.96094,0 -6.15234,-25.312498 -6.21094,25.312498 -4.96094,0 -7.30469,-29.160154"
       style=""
       id="path12289" />
    <path
       d="m 229.44572,79.605686 5.87891,0 7.44141,19.84375 7.48047,-19.84375 5.8789,0 0,29.160154 -3.84765,0 0,-25.605466 -7.51954,19.999996 -3.96484,0 -7.51953,-19.999996 0,25.605466 -3.82813,0 0,-29.160154"
       style=""
       id="path12291" />
    <path
       d="m 273.72307,83.492405 -5.35156,14.511719 10.72265,0 -5.37109,-14.511719 m -2.22656,-3.886719 4.47265,0 11.11328,29.160154 -4.10156,0 -2.65625,-7.48047 -13.14453,0 -2.65625,7.48047 -4.16016,0 11.13282,-29.160154"
       style=""
       id="path12293" />
    <path
       d="m 312.45354,81.85178 0,4.160156 c -1.32815,-1.236955 -2.74742,-2.161433 -4.25782,-2.773437 -1.49741,-0.611953 -3.09246,-0.917943 -4.78515,-0.917969 -3.33335,2.6e-5 -5.88543,1.022161 -7.65625,3.066406 -1.77084,2.031272 -2.65626,4.973977 -2.65625,8.828125 -1e-5,3.841157 0.88541,6.783859 2.65625,8.828129 1.77082,2.03125 4.3229,3.04687 7.65625,3.04687 1.69269,0 3.28774,-0.30599 4.78515,-0.91797 1.5104,-0.61197 2.92967,-1.53645 4.25782,-2.77344 l 0,4.1211 c -1.38024,0.9375 -2.84508,1.64062 -4.39453,2.10937 -1.53648,0.46875 -3.16408,0.70313 -4.88282,0.70313 -4.41407,0 -7.89063,-1.34766 -10.42968,-4.04297 -2.53907,-2.70833 -3.8086,-6.39973 -3.8086,-11.074219 0,-4.687481 1.26953,-8.378883 3.8086,-11.074219 2.53905,-2.708305 6.01561,-4.06247 10.42968,-4.0625 1.74478,3e-5 3.3854,0.234405 4.92188,0.703125 1.54945,0.455758 3.00128,1.145862 4.35547,2.070313"
       style=""
       id="path12295" />
    <path
       d="m 318.58635,79.605686 3.94531,0 0,11.953125 14.33594,0 0,-11.953125 3.94531,0 0,29.160154 -3.94531,0 0,-13.886716 -14.33594,0 0,13.886716 -3.94531,0 0,-29.160154"
       style=""
       id="path12297" />
    <path
       d="m 348.66447,79.605686 3.94532,0 0,29.160154 -3.94532,0 0,-29.160154"
       style=""
       id="path12299" />
    <path
       d="m 360.46135,79.605686 5.3125,0 12.92969,24.394534 0,-24.394534 3.82812,0 0,29.160154 -5.3125,0 -12.92969,-24.394529 0,24.394529 -3.82812,0 0,-29.160154"
       style=""
       id="path12301" />
    <path
       d="m 390.38322,79.605686 18.4375,0 0,3.320313 -14.49218,0 0,8.632812 13.88672,0 0,3.320313 -13.88672,0 0,10.566406 14.84375,0 0,3.32031 -18.78907,0 0,-29.160154"
       style=""
       id="path12303" />
  </g>
  <path
     style="fill:#000000;fill-opacity:1;stroke:#000000;stroke-width:4;stroke-linejoin:bevel;stroke-miterlimit:4;stroke-opacity:1;stroke-dashoffset:0"
     d="M 15.403989,8.6004362 C 11.692659,9.6548566 10.575315,16.986169 8.5672493,31.99911 4.7587998,60.472208 5.1808225,61.421846 29.994189,51.441697 42.50098,83.969999 53.473846,104.02983 61.692583,116.23287 c 4.723987,7.01409 8.537344,11.43337 11.217936,14.1285 2.680599,2.69513 4.396169,3.77125 4.396169,3.77125 l 2.241165,-3.97224 c 0,0 -1.076253,-0.62279 -3.519865,-3.07965 C 73.584369,124.62386 69.950077,120.4411 65.371111,113.64234 57.401778,101.8096 46.568491,82.051566 34.15453,49.762333 58.064016,40.044852 57.480787,38.869465 35.621833,21.075662 24.665687,12.157049 18.890383,7.6099191 15.403989,8.6004362 z"
     id="path12305"
     inkscape:connector-curvature="0" />
</svg>
